ply
format ascii 1.0
element vertex 2009
property float x
property float y
property float z
end_header
-0.335893 0.136616 1.009202
-0.317698 0.136879 0.932486
-0.214261 0.139005 1.066751
-0.371654 0.137981 1.168068
-0.337449 0.133933 0.841356
-1.169299 0.005135 2.003537
-0.212454 0.142349 1.520785
-0.485734 0.134832 0.934370
-0.753453 0.130496 1.432536
-0.738377 0.131965 1.343537
-0.636110 0.133858 0.981238
-0.063781 0.148873 1.474521
-0.336163 0.139603 0.906002
-0.616425 0.139068 1.064141
-0.207780 0.136595 0.823515
-0.410408 0.132290 0.750979
-0.144050 0.141387 0.991890
-0.162047 0.140538 1.042289
-0.150318 0.140991 1.083392
-0.174700 0.140293 0.978310
-0.212739 0.137625 1.017897
-0.236767 0.138323 1.015207
-0.297564 0.137179 0.939090
-1.194852 0.037487 2.108530
-1.087464 0.111446 1.893774
-0.352293 0.136396 0.982192
-0.367913 0.134514 0.971287
-0.418850 0.133923 0.872218
-0.121359 0.143461 1.482696
-0.203195 0.136451 0.752223
-0.419649 0.133795 0.990969
-0.438755 0.135476 0.810935
-0.534697 0.133787 0.857574
-1.250300 0.126318 1.957248
-0.124272 0.141477 0.886692
-0.284537 0.135119 0.682319
-0.502360 0.136388 0.880826
-0.568351 0.132069 0.896405
-0.186083 0.140555 1.077151
-0.246389 0.136579 0.945846
-0.225087 0.137002 0.825183
-0.243649 0.137473 0.825114
-0.239305 0.135997 1.628435
-0.183876 0.132583 0.983099
-1.376306 -0.192441 2.428736
-0.042836 0.098363 1.735831
-0.242566 0.135211 0.645794
-0.134279 0.144900 0.783995
-0.121872 0.141804 0.674972
-0.378060 0.135278 0.789590
-1.162875 0.101130 1.881531
-0.448254 0.136952 0.769117
-0.095728 0.143712 0.826582
-0.480313 0.133930 1.076999
-0.581922 0.132944 1.379670
-0.752869 0.129627 1.564072
-0.440830 0.132265 0.929828
-0.679948 0.129570 1.433717
-0.616916 0.130935 1.358576
-1.158502 0.052759 1.978175
-1.162379 0.102301 1.972171
-0.516453 0.137433 0.875960
-0.038702 0.147959 0.826006
-0.442468 0.134863 0.760630
-0.486097 0.133595 0.741333
-0.413118 0.135572 0.778496
-0.064896 0.146743 0.672758
-0.431128 0.137081 0.776156
-0.482724 0.136875 0.760013
-0.415287 0.133681 0.765211
-0.500136 0.139014 0.806028
-0.384623 0.128210 0.738241
-0.077768 0.143556 0.784744
-0.484290 0.130712 0.800447
-0.048361 0.146243 0.920963
-0.355204 0.133914 0.712314
-0.137114 0.142758 0.778428
-0.123126 0.143542 0.808800
-0.100463 0.141980 0.812431
-0.357703 0.130477 0.764281
-0.131723 0.137863 0.753623
-0.127960 0.144135 0.819825
-0.392434 0.130935 0.751204
-0.554456 0.138299 0.885241
-0.291211 0.135833 0.876767
-0.502327 0.135228 0.932422
-1.173477 0.103158 1.960047
-1.141347 0.175647 1.908651
-1.138759 0.100802 1.906851
-1.099698 0.112609 1.912283
-0.111306 0.140331 0.806589
-0.270947 0.137317 1.007859
-0.265720 0.136906 0.725584
-0.171712 0.139017 0.735445
-0.172767 0.141782 1.152810
-0.507450 0.134944 1.414988
-0.485834 0.133235 1.507259
-0.444595 0.134379 0.878928
-0.316290 0.136158 0.806031
-0.399710 0.132848 0.886617
-0.169383 0.140310 0.874439
-0.096158 0.140151 1.386781
-0.097162 0.147585 1.370263
-0.230682 0.140191 0.897778
-0.207180 0.137017 0.840038
-0.378164 0.137346 0.915722
-0.055124 0.144142 1.088013
-0.195343 0.075315 0.464213
-0.077400 0.141306 0.889505
-0.069048 0.141123 0.735181
-0.399647 0.134841 0.844139
-0.497567 0.136643 0.950598
-0.114553 0.142274 1.297247
-0.463784 0.135458 0.833270
-0.188732 0.072068 0.449084
-0.745592 -0.047993 4.225363
-0.881540 -0.021659 2.254859
-1.546730 -0.089544 4.533134
-1.457894 -0.084618 4.343817
-0.139480 0.142660 1.374662
-0.553995 0.131817 1.308637
-0.190377 0.136928 0.901554
-0.172282 0.140561 1.206387
-0.536276 0.131882 0.944820
-0.086250 0.143269 0.933365
-0.384347 0.135694 0.824227
-0.170356 0.144558 0.995328
-0.178390 0.142089 0.788904
-0.508100 0.135159 0.867937
-0.279123 0.131472 0.829773
-0.081304 0.147816 0.956508
-0.218431 0.141075 0.788224
-0.099124 0.146692 1.028855
-0.167757 0.137168 0.723118
-0.485970 0.135659 0.878501
-0.069217 0.143295 0.764359
-0.311331 0.133180 0.791693
-0.399841 0.130582 0.868842
-0.208860 0.138368 0.904701
-0.092599 0.141749 0.876314
-0.549446 0.134705 0.961960
-0.108393 0.140583 0.720316
-0.052065 0.144181 0.725021
-0.226954 0.137552 0.830454
-0.426866 0.133832 0.831371
-0.285624 0.134423 0.804056
-0.257185 0.136773 0.821250
-0.088210 0.143490 1.014832
-0.078200 0.155941 1.186272
-0.328242 0.132382 0.853579
-0.572160 0.133124 0.952781
-0.115852 0.155316 0.877457
-0.193134 0.141266 1.113549
-1.181555 0.069231 1.908872
-0.143010 0.140689 0.900814
-0.471141 0.136165 1.127250
-0.168141 0.142382 0.941916
-1.157332 0.067395 1.873736
-0.181903 0.134645 0.825445
-0.332215 0.135736 0.920670
-0.209629 0.134212 1.461052
-0.179103 0.111958 1.504453
-0.685311 0.127842 1.335047
-1.171782 0.022314 1.970128
-0.387870 0.137551 0.857105
-0.252205 0.137143 0.761130
-0.551552 0.134945 1.008969
-0.325640 0.135502 0.879932
-0.183675 0.139383 0.886583
-0.274863 0.137274 0.819589
-0.149269 0.142284 0.947985
-0.547295 0.134205 1.105695
-0.617853 0.134233 1.102960
-0.190876 0.138139 0.964144
-0.074618 0.150035 1.136933
-0.425641 0.134104 0.827821
-0.320344 0.134546 0.831326
-0.601263 0.131580 1.167434
-0.273506 0.137901 0.886182
-0.247582 0.138765 0.835945
-0.114665 0.147727 0.913931
-0.222318 -0.008245 1.634176
-1.396598 -0.197070 2.465437
-0.404006 0.133775 0.954119
-1.059517 0.161231 2.638968
-0.471953 0.130547 1.061879
-0.279690 0.136451 0.924139
-0.494058 0.131340 1.405450
-1.232627 0.077147 2.456442
-0.397040 0.132888 1.057916
-0.365473 0.132831 0.964689
-0.488218 0.132731 1.062558
-0.160510 0.133233 0.830273
-0.184821 0.134570 0.940668
-0.448916 0.135648 0.891384
-0.701821 0.130769 1.337693
-0.645117 0.130495 1.449599
-0.211777 0.137198 0.860663
-0.599247 0.139783 1.046929
-0.515997 0.133140 1.013717
-0.152259 0.141726 1.418580
-0.474971 0.133869 0.975084
-0.721253 0.132038 1.343362
-0.229703 0.113480 1.622812
-1.120469 0.142204 2.227012
-0.316999 0.133199 0.824709
-1.256920 -0.169508 2.303522
-1.238236 0.040667 2.178238
-0.341532 0.137936 0.929781
-0.659294 0.130516 1.278626
-0.435076 0.133165 0.988292
-0.665705 0.134227 1.223354
-0.222978 -0.046355 1.653157
-1.211155 0.041719 2.129426
-0.140423 0.140450 0.985975
-0.125839 0.144664 1.013277
-0.536597 0.134300 1.011145
-0.656774 0.128479 1.349245
-0.168866 0.143010 1.352147
-1.293520 -0.071398 2.650643
-0.300293 0.136315 0.997181
-0.308994 0.133406 0.866062
-0.435595 0.133069 0.989846
-0.274821 0.137004 1.158119
-0.538781 0.136221 1.521711
-0.552179 0.133129 1.430014
-2.090693 0.099317 3.777067
-2.102500 0.089577 3.635349
-0.571930 0.130164 1.272223
-0.172521 0.141276 0.859268
-0.552565 0.135488 1.113631
-0.252700 0.138528 0.869417
-0.254334 0.138457 0.906318
-0.143568 0.142594 0.999273
-0.134685 0.141494 1.321403
-0.411855 0.137293 0.910440
-0.831372 0.132507 1.518182
-0.194787 0.138853 0.961722
-0.193045 0.138410 0.912919
-0.673596 0.132681 1.201515
-0.489830 0.132393 0.853524
-1.178901 0.101682 1.965627
-1.154670 0.177118 1.932490
-0.428845 0.129305 0.923992
-0.371142 0.133394 0.892922
-0.948457 0.122907 2.062362
-0.327351 0.138722 1.238888
-0.507284 0.134122 1.071194
-0.606163 0.135069 1.467911
-1.314674 -0.166652 2.301052
-0.682193 0.131434 1.353169
-0.422092 0.132897 1.881914
-1.068563 0.000724 2.432110
-0.466689 0.132507 2.051558
-0.598971 0.125846 1.876540
-0.566927 0.129580 2.125133
-0.933534 0.124720 2.028857
-0.676375 0.127884 1.726150
-0.607702 0.129439 1.741988
-0.813498 0.128305 1.794612
-0.372780 -0.093062 3.533561
-2.082533 0.024305 3.626084
-0.366430 -0.112741 3.537541
-0.915639 0.000213 2.244783
-0.890521 0.080337 2.285639
-2.379708 -0.376673 4.339366
-1.100829 0.008875 2.259322
-0.349810 0.137555 1.302576
-1.092036 0.007665 2.240064
-0.318698 0.138459 1.167244
-0.120772 0.140373 0.985505
-0.243666 0.132015 0.912353
-0.311808 0.136642 0.811623
-0.216907 0.135391 0.873123
-0.198441 0.140744 0.975543
-0.379109 0.137050 0.848998
-0.422808 0.132864 0.852843
-0.185340 0.070258 1.524188
-0.185139 0.113921 1.510668
-0.098783 0.149085 1.043885
-0.571879 0.132043 1.220624
-0.810264 0.123460 1.829495
-0.241507 0.131473 0.987508
-2.135725 0.024854 3.707350
-0.329096 0.136140 1.548713
-0.286067 0.136811 1.251552
-0.228730 0.100958 1.607974
-0.505485 0.130238 2.142920
-0.479349 0.136632 2.460366
-1.120530 0.129670 2.238627
-1.112389 0.122675 1.996944
-0.591316 0.127254 1.670538
-1.400383 -0.335759 4.580456
-1.797795 -0.257774 4.681110
-1.603239 -0.340464 4.559879
-1.336375 -0.094644 2.796609
-1.303821 0.088447 3.432446
-0.219406 0.140932 0.977521
-0.178964 0.139262 0.844858
-0.108140 0.140894 0.781289
-0.272100 0.137240 1.026620
-0.635290 0.132314 1.471411
-0.324479 0.137043 0.999796
-0.644257 0.131299 1.355531
-0.345071 0.135967 0.884942
-0.717385 0.131808 1.450222
-0.152169 0.142160 1.090150
-0.525085 0.132490 1.120106
-0.357353 0.136557 0.917419
-0.117979 0.145408 1.371452
-0.178646 0.137798 1.029628
-0.228523 0.066777 1.621981
-0.600430 0.135020 1.406321
-0.585469 0.133452 1.391322
-0.434612 0.133832 0.957078
-0.254669 0.138743 1.100176
-0.224730 0.140188 1.285815
-0.153229 0.139374 0.873006
-1.124352 0.019593 1.895824
-0.195653 0.139417 1.076902
-0.427138 0.136099 0.892487
-0.228361 0.096936 1.621458
-1.168722 -0.003840 2.008429
-1.275204 -0.174531 2.305440
-0.363205 0.130623 0.815896
-1.275190 -0.126808 2.224501
-0.126232 0.141958 1.456995
-0.234864 0.142027 1.510104
-0.142070 0.142563 0.915382
-0.314150 0.134336 0.919070
-0.390844 0.135260 0.905163
-0.499554 0.133910 1.016475
-0.312397 0.135755 1.267097
-0.844457 0.131052 1.726626
-0.745141 0.109626 3.577430
-1.251887 -0.104876 2.727222
-0.576842 0.126262 2.108448
-0.461431 0.157497 2.290508
-0.602843 0.128106 2.151496
-0.562260 0.124090 1.844052
-0.454024 0.133950 0.950903
-0.490051 0.131076 1.000044
-0.157696 0.137052 1.382769
-1.088692 0.120147 2.037435
-1.318851 -0.166730 2.308658
-1.445246 0.089829 4.390090
-1.351713 -0.044235 4.418382
-1.031572 0.131485 4.014278
-1.157661 0.124792 3.878183
-1.415363 0.119739 3.995233
-1.080610 0.130535 3.884697
-0.263885 0.136951 0.943314
-0.506629 0.133655 1.068371
-0.377030 0.135044 0.974831
-0.583207 0.130082 1.287419
-0.264869 0.138567 1.309682
-0.369790 0.134701 1.041673
-0.325926 0.136510 1.221019
-0.209913 0.141641 1.508456
-0.440828 0.136265 1.298208
-0.599890 0.143064 1.474506
-0.129628 0.124951 1.527998
-0.522847 0.134366 1.299996
-1.248519 -0.165828 2.285269
-0.914025 0.132808 2.286424
-0.928033 0.134626 2.318722
-0.471223 0.133589 0.868190
-0.482814 0.134610 1.041865
-0.419152 0.134221 1.047752
-0.199912 0.136978 0.886646
-1.171478 -0.071405 2.018424
-0.183821 0.101734 1.517688
-1.218262 -0.074209 2.094438
-1.112538 0.115312 1.954667
-1.089466 0.111852 1.920401
-0.206493 0.139209 1.034420
-0.141901 0.141518 1.274144
-0.736971 0.132426 1.355957
-0.869553 0.130279 1.416870
-0.274163 0.135165 0.864066
-0.497704 0.133756 1.003348
-1.129116 0.176192 1.892721
-0.258200 0.139578 1.043116
-0.431105 0.137593 1.926727
-0.471454 0.133407 1.810370
-0.478934 0.128071 1.550057
-0.435912 0.130231 1.591489
-0.517895 0.134043 1.759229
-0.218295 -0.047555 1.641856
-0.370162 0.138202 1.261216
-1.095297 0.139253 2.224345
-1.111408 0.421916 2.422446
-0.684529 0.134771 1.216733
-0.610028 0.133350 1.385526
-0.632934 0.129877 1.448232
-0.578733 0.136514 1.526991
-1.013418 0.085392 1.748032
-0.565385 0.133310 1.394866
-0.508162 0.136574 1.360710
-0.577321 0.129575 1.452981
-0.308643 0.137316 1.464549
-1.318933 -0.076571 2.667667
-1.333693 -0.086313 2.770079
-1.400090 -0.081284 2.818414
-0.248046 0.139708 1.337480
-0.475020 0.138709 1.216214
-1.278313 0.096149 2.262377
-0.795172 0.128795 1.412070
-0.717670 0.129819 1.321818
-0.453151 0.134985 1.528059
-0.174126 0.115901 1.511281
-2.142002 -0.345891 4.434201
-0.279458 0.136864 1.453576
-0.945371 0.015461 2.379602
-1.266260 0.095302 2.241568
-1.108266 0.140202 2.208759
-1.313434 0.104544 2.794325
-0.172537 0.047065 1.515739
-2.025748 -0.194961 4.323122
-2.140563 -0.222467 4.441129
-0.491803 0.132013 1.478083
-0.280824 0.138856 1.576531
-0.303166 0.132499 0.975514
-0.246394 0.136966 0.949272
-0.760489 0.133482 1.351640
-0.124858 0.135869 1.412191
-0.207418 0.136567 0.923480
-0.631045 0.133534 1.209378
-0.455488 0.132596 1.168306
-0.228131 0.113790 1.602354
-0.439454 0.136544 1.434449
-1.334773 -0.091695 2.758575
-0.287819 0.136512 0.996720
-0.177965 0.139157 1.209381
-0.353502 0.134853 0.911220
-0.821157 0.062919 3.535062
-0.875985 0.131150 3.169725
-0.839294 0.129808 3.187865
-0.588453 0.129719 1.410688
-0.182279 0.100768 1.501655
-0.671185 0.131541 1.246438
-1.178909 0.061537 2.008378
-1.240827 0.118468 2.267946
-1.407824 -0.117780 4.451311
-0.844775 -0.014322 4.341332
-1.010441 -0.068078 4.336491
-0.418957 0.134680 1.532562
-0.663366 0.130161 1.550131
-0.935681 -0.037191 2.220135
-1.355505 -0.138869 2.894962
-0.646537 0.131324 1.574903
-0.608419 0.134989 1.500499
-0.403413 0.139151 1.461838
-0.799585 0.156212 3.407452
-0.864881 0.133591 3.119149
-0.658934 -0.045626 4.099981
-0.438364 0.137225 1.310346
-1.009862 -0.041531 2.227404
-1.004299 -0.038636 2.208021
-0.224373 -0.048536 1.682546
-0.295654 0.137430 1.705069
-0.227763 0.140449 1.148455
-0.804708 0.130116 1.572170
-1.024321 -0.028099 2.103670
-0.390518 0.133837 1.031712
-0.598443 0.132358 1.366372
-0.177322 0.138373 1.028938
-0.507786 0.133206 1.406010
-0.771755 0.130415 1.428529
-0.149501 0.229394 1.422795
-0.239625 0.136008 1.630825
-0.527760 0.141290 1.452583
-0.756727 0.131466 2.715186
-0.340116 0.136528 1.555357
-1.375380 -0.134320 2.849133
-0.760012 0.131978 1.444908
-0.512091 0.133216 1.291250
-0.567727 0.119813 3.443338
-0.576109 0.133361 1.554913
-0.780461 0.131361 1.588245
-0.451302 0.133146 1.246574
-0.341707 0.136544 1.463994
-0.174288 0.066298 1.517695
-0.380705 0.130367 0.881367
-0.460397 0.135176 1.073004
-0.178637 0.142162 1.405485
-0.357217 0.137577 1.176986
-1.202982 0.000801 2.058471
-0.463662 0.132853 1.172033
-0.742087 0.129939 1.320828
-0.215747 0.140633 1.074269
-0.643633 0.129739 1.448432
-0.222187 0.143501 1.457534
-0.679055 0.129578 1.732351
-0.419178 0.136337 1.436925
-0.405748 0.138755 1.623765
-0.354058 0.137696 1.319627
-0.921426 0.096812 2.351075
-1.371527 -0.132801 2.825557
-0.535618 0.134568 1.400859
-0.312858 0.138820 1.294377
-0.367481 0.134286 1.298192
-0.586475 0.131299 1.475544
-0.597725 0.131314 2.143660
-2.106778 -0.313700 4.375006
-0.342603 0.138350 1.472301
-0.588181 0.129938 1.537778
-0.365244 0.133965 1.532576
-0.325550 0.134719 1.437492
-1.434776 0.087109 3.536776
-0.757318 0.100934 3.405051
-0.459760 0.133390 1.504898
-1.161703 0.140682 2.332358
-0.780143 0.133759 3.066231
-1.093220 0.125293 2.028214
-0.331837 0.137644 1.283041
-0.286138 0.137620 1.566700
-1.320380 -0.075909 2.671977
-0.456298 0.138461 1.617149
-2.150910 -0.318276 4.349356
-0.685796 0.133320 1.469308
-0.418122 0.137172 1.302307
-0.351065 0.137509 1.219672
-0.519653 0.134703 1.310607
-1.323594 -0.084640 2.753371
-0.114641 0.141174 0.995720
-0.159655 0.138876 0.965042
-0.316680 0.133973 1.076770
-0.450351 0.132592 1.081115
-0.209954 0.140273 1.138175
-0.696786 0.133326 1.365988
-0.262035 0.137241 1.640392
-0.502343 0.137084 1.440664
-0.647399 0.131377 1.285935
-1.477156 -0.088135 4.388710
-0.911818 0.064453 2.292962
-1.524113 -0.029992 4.463168
-1.503785 0.034179 4.470474
-0.976917 0.131662 2.740134
-0.629654 0.132617 2.672616
-0.599658 0.139177 2.743445
-0.779049 -0.011557 3.709497
-0.614268 0.125844 1.988339
-0.903461 0.008363 2.242826
-0.766800 0.129130 1.634251
-0.234072 0.142922 1.512684
-0.530437 0.132730 1.387212
-0.514392 0.134127 1.046670
-0.619716 0.133106 1.205466
-0.344933 0.134147 1.194669
-0.227018 -0.009215 1.664618
-0.549052 0.132496 1.423678
-0.515553 0.134473 1.046856
-0.348702 0.136184 1.779067
-0.279755 0.138853 1.408380
-0.266850 0.138090 1.369647
-0.167510 0.140266 1.400031
-0.270150 0.140274 1.488456
-0.567220 0.125056 1.327853
-1.434537 0.114439 4.032114
-1.252659 0.120781 4.052107
-0.395735 0.133151 1.110050
-0.197477 0.141824 1.236145
-0.513346 0.131203 1.741659
-0.436765 0.135914 1.621238
-0.610983 0.126480 1.593194
-2.070257 -0.219322 4.568769
-0.667943 0.136582 2.352263
-0.881844 -0.051990 4.271407
-0.618164 0.131433 1.530792
-0.788015 0.132954 1.600878
-0.434715 0.129326 1.487780
-0.376250 0.135383 1.440799
-0.693470 0.132831 1.456543
-0.568316 0.122658 3.437111
-0.376261 0.141279 1.336393
-0.399311 0.137948 1.331485
-1.417302 -0.198947 2.499170
-0.598502 0.134999 1.433654
-0.420256 0.138665 1.458532
-1.056214 -0.073251 1.846794
-0.498478 0.131327 1.179865
-0.464394 0.135405 1.190825
-0.402254 0.137009 1.132440
-0.549819 0.132648 1.263526
-1.525967 0.104220 3.494708
-0.555718 -0.114787 3.947541
-0.469204 0.135274 1.600641
-0.260049 -0.008577 1.906399
-0.321070 0.138930 1.206132
-0.779004 0.129980 1.421868
-0.439911 0.131988 1.040876
-0.473976 0.134881 1.415389
-0.601788 0.133231 1.482667
-0.538769 0.132013 1.275826
-0.159830 0.140771 1.055593
-0.519171 0.135200 1.407832
-0.894901 0.011848 2.274617
-0.254879 0.138487 1.099754
-0.315259 0.133976 0.975201
-0.574243 0.132108 1.307972
-0.325496 0.136961 1.098003
-0.345463 0.134416 1.005088
-0.860625 0.133014 3.071413
-1.256921 0.129563 3.350046
-1.398176 0.121699 3.847258
-0.811623 0.132369 3.111447
-1.069085 0.132380 2.970691
-0.618193 0.100973 3.437316
-0.767369 0.132309 3.407207
-1.473414 -0.005622 4.438813
-1.264946 -0.088126 4.523915
-1.324600 0.117135 4.393574
-0.495125 0.136316 1.601795
-0.528951 0.133674 1.574854
-1.140504 -0.032031 2.299366
-0.588554 0.132042 1.293827
-2.120598 -0.027245 3.680008
-0.187262 0.141657 1.256100
-0.812171 0.120684 2.120097
-0.871308 -0.020341 2.237535
-1.052101 -0.076576 2.866482
-0.487614 0.159674 3.360736
-0.165750 0.143399 1.060703
-0.298018 0.139822 1.538917
-0.451815 0.134450 1.287243
-1.098445 0.132651 4.044672
-1.141241 0.136950 4.056440
-0.748130 0.128058 3.551323
-0.838404 0.130900 3.189297
-0.820165 -0.009517 3.555068
-0.564241 0.132366 1.488869
-0.632365 0.131659 1.462927
-1.002440 0.123652 2.111344
-0.596550 0.130789 2.113988
-0.609133 0.132250 1.208859
-0.646989 0.131218 2.306019
-1.045393 0.128690 2.947383
-0.678214 0.125537 2.074871
-1.257317 -0.103738 2.736170
-0.678568 0.123365 2.001239
-0.701212 0.122259 2.070726
-0.933456 0.129268 1.824395
-0.637091 0.129532 1.512504
-0.354087 0.129905 1.119040
-0.264641 0.137871 1.335149
-0.803059 0.132032 1.605184
-0.236027 0.146287 1.535504
-0.507710 0.134907 1.343146
-0.199162 0.140105 1.415716
-0.671832 0.134693 1.389018
-0.657819 0.133814 1.442710
-1.215790 0.126435 4.032197
-0.173700 0.144899 1.168245
-0.449474 0.137303 1.549554
-0.438743 0.130693 1.397211
-0.277335 0.136027 1.388550
-1.211062 0.122928 3.307616
-0.917805 0.008209 2.269969
-1.005025 0.124284 2.806259
-1.331000 -0.086333 2.741287
-0.565603 0.135175 1.329923
-1.966565 -0.316605 4.379676
-2.130125 -0.313691 4.330387
-1.948003 -0.324292 4.350050
-1.940150 -0.324379 4.336271
-0.435858 0.135571 1.365572
-0.983762 0.143299 4.187237
-1.918626 -0.085769 4.741967
-0.502900 0.133901 1.217897
-0.248384 0.139199 1.263524
-0.771501 0.129944 1.572004
-0.703489 0.128276 1.652120
-0.389290 0.138286 1.313906
-1.527810 -0.042476 4.496480
-1.541255 -0.043039 4.524048
-1.342144 0.035105 4.549209
-1.478169 0.075655 4.488356
-0.517659 0.126566 1.608280
-0.747408 0.123346 1.981580
-0.892882 0.118471 2.083723
-0.343509 0.144820 2.294472
-0.945585 -0.035126 2.168149
-0.565822 0.133728 1.567872
-1.126108 0.159045 2.613810
-0.297021 0.137661 1.140959
-0.353500 0.135867 1.374892
-0.491497 0.135333 1.415332
-0.875428 -0.023036 2.276206
-0.622730 0.130506 2.066291
-1.167457 -0.090034 2.904325
-0.479714 0.131796 1.706336
-2.050663 -0.215841 4.434732
-0.763858 -0.011042 3.621154
-0.820204 -0.012266 3.890764
-0.524037 0.139968 1.158670
-0.727266 0.131020 1.596147
-0.631585 0.132643 1.301344
-0.778561 0.131392 1.438004
-0.578976 0.140277 1.627572
-1.047489 0.059187 2.167137
-0.335999 0.138802 1.574327
-0.454045 0.134857 1.421148
-0.664159 -0.052143 4.147663
-1.388003 -0.113438 3.366290
-0.675947 -0.058433 4.211197
-0.978668 -0.036317 2.211940
-0.728148 0.068898 3.574310
-0.772160 0.122375 2.145242
-0.398898 0.139021 2.679033
-0.462595 0.130077 1.958887
-0.616528 0.133315 1.930575
-1.464428 -0.181231 3.603116
-0.630530 0.129584 1.526115
-2.109541 -0.026763 3.659309
-0.496488 0.127350 2.031589
-0.528336 0.127037 1.859655
-0.774588 0.121653 2.025374
-0.458156 0.139766 1.467099
-2.083310 0.097109 3.765820
-2.134933 0.092838 3.687088
-0.321921 0.134175 1.896181
-0.562194 0.132572 1.379964
-1.399630 -0.092488 2.882313
-1.065150 -0.047889 2.386472
-1.351358 0.022645 4.369858
-1.382215 -0.032872 4.447541
-1.336812 -0.061060 4.462277
-1.337594 -0.036844 4.457786
-0.819976 0.131783 3.548639
-0.700540 0.054911 3.668170
-1.952649 -0.095828 4.815769
-1.139274 0.134668 3.146443
-0.774992 0.133777 3.044636
-0.767081 0.132566 3.409627
-0.691859 -0.008749 3.409528
-0.799336 0.060353 3.478162
-0.362646 0.132672 1.141214
-0.171073 0.039967 1.508283
-1.005920 0.055894 2.095257
-0.517661 0.133672 1.568701
-0.296542 0.137718 1.567827
-2.186789 -0.356237 4.510432
-0.621446 0.133186 1.369220
-0.151107 0.142625 1.212052
-0.552393 0.130528 2.290819
-0.709892 0.131356 2.670934
-1.292182 -0.107285 2.796101
-1.121797 -0.031133 2.270866
-2.140391 -0.270019 4.293858
-0.272398 0.136554 1.164170
-0.406498 0.134956 1.535618
-0.772507 0.133759 3.061749
-0.775547 -0.112015 3.982906
-0.740677 -0.048395 4.184871
-0.747965 -0.008574 3.292758
-0.751722 -0.004002 3.418155
-0.853867 -0.052064 4.093627
-1.498644 0.100129 4.386255
-1.463482 -0.030484 4.422877
-0.383602 0.136651 1.286483
-0.314487 0.135244 1.150040
-0.495989 0.134080 1.514504
-1.601055 -0.023358 4.599472
-1.491974 0.108320 4.374637
-1.593360 -0.026795 4.591158
-0.351805 0.135134 1.368709
-0.407029 0.132983 1.415603
-0.337109 0.133910 1.276134
-0.527570 0.132363 1.492482
-0.355343 0.138040 1.323004
-0.996547 0.048652 4.244824
-1.303461 0.126437 4.149496
-0.620291 0.133312 1.479786
-1.261171 0.098939 2.228725
-0.851024 0.129937 1.940630
-0.489866 0.136256 1.605507
-1.323630 -0.109916 2.862601
-0.474205 0.125635 3.217034
-0.872586 -0.011788 3.951547
-1.438937 -0.048715 4.399584
-1.120928 0.123880 2.010693
-0.229638 0.142451 1.154629
-0.294760 0.139539 1.411722
-0.406110 0.135641 1.167517
-0.501772 0.132650 1.232873
-0.186134 0.142878 1.326113
-0.381941 0.136115 1.226763
-0.235436 0.140971 1.214782
-0.801375 -0.009268 3.540903
-2.144528 -0.343587 4.367018
-0.623942 0.133807 1.313131
-0.302240 0.133845 1.440735
-1.337972 0.183747 2.766726
-0.913762 0.000095 2.240236
-0.813597 0.124558 2.042276
-1.525774 0.093722 3.233330
-0.382438 0.001741 2.996684
-0.312946 0.137424 1.317478
-1.056237 -0.003250 2.248210
-0.297518 0.138024 1.571320
-0.744630 -0.008828 3.429343
-0.812719 0.104498 3.531064
-0.967790 0.130345 2.735419
-1.354852 0.071830 3.518607
-0.694000 0.130169 2.120279
-0.336574 -0.004864 2.899122
-0.884345 0.010876 2.255770
-0.660022 0.125573 1.702261
-0.427501 0.130438 1.588244
-0.480221 0.131022 1.571836
-0.340547 0.140942 2.255419
-0.936644 0.120283 2.094362
-1.211403 -0.069714 2.679434
-0.921451 -0.038485 2.196570
-1.371714 -0.077593 2.745196
-1.475927 0.094101 4.344544
-1.885409 0.012205 4.522988
-0.335691 0.138224 1.681098
-0.419489 0.132438 1.762865
-0.947395 0.119060 2.083906
-0.634973 0.123293 1.785594
-0.881584 -0.000100 2.097941
-0.917299 0.095814 2.343474
-2.024268 -0.314968 4.504253
-0.454965 -0.012060 3.240909
-1.421680 -0.091916 2.760910
-0.422343 -0.002815 3.156319
-1.378711 -0.133675 2.847283
-0.708073 0.128915 1.732001
-0.313664 0.136473 1.271628
-0.555589 0.132078 1.548581
-0.471327 0.133016 1.406625
-0.361952 0.135473 2.913834
-0.543180 0.133040 1.564648
-0.331135 0.136779 1.555301
-0.872682 0.123449 2.025183
-0.512017 0.131962 1.556075
-0.586745 0.136320 1.247210
-0.941123 0.006267 2.327578
-0.426180 0.135424 1.211810
-0.757830 0.128505 2.664922
-1.043447 0.127413 3.012003
-0.639835 0.134090 2.610947
-1.099448 0.127733 3.079225
-1.082959 0.128826 3.046527
-0.627887 0.136865 2.719828
-1.814655 -0.267702 4.641473
-0.994261 0.132190 3.532922
-0.993546 0.151139 4.265352
-0.689863 -0.009586 3.647985
-1.291587 0.106456 3.447055
-1.326804 0.102140 3.472126
-1.624968 -0.344776 4.615774
-0.265107 0.146415 1.697612
-1.357705 -0.083371 4.390101
-1.361504 0.002424 4.405783
-1.949078 0.115479 4.712591
-1.873499 -0.223296 4.828785
-0.439504 0.136869 1.371379
-0.828133 0.133596 2.925141
-0.762828 0.131986 2.879599
-0.737590 0.134353 2.729068
-1.535005 0.128507 4.225961
-1.316385 0.120980 4.006821
-1.366578 0.123124 4.130173
-1.522763 0.124415 4.132895
-1.101035 0.128334 3.915274
-1.194656 0.124998 4.004101
-1.545357 0.121611 4.173733
-1.874224 0.012083 4.507342
-1.328952 0.123654 3.929522
-1.624872 0.120927 4.335302
-1.420732 0.124553 4.016800
-1.307497 0.124327 4.020517
-1.181191 0.126423 4.078792
-1.857656 -0.057239 4.505067
-1.899892 0.060382 4.755838
-1.445159 0.122310 4.122615
-1.457688 0.126302 3.974524
-0.222694 0.060763 1.547747
-0.745704 -0.011336 3.647972
-1.589277 -0.298290 4.668994
-0.986774 -0.322180 4.348857
-0.478727 0.139277 1.449470
-1.335535 0.122641 4.254386
-1.804032 -0.054132 4.761190
-1.164958 0.124817 4.051930
-1.356693 0.074165 4.602000
-1.457055 -0.075388 4.421222
-1.496764 0.044183 4.406697
-0.653554 -0.120183 4.180492
-0.663552 -0.050848 4.161259
-1.883696 -0.221587 4.299158
-0.518255 0.135958 1.283873
-0.557669 0.014390 3.364714
-0.619624 0.104620 3.473819
-0.455455 0.133162 1.638486
-0.922516 -0.024235 1.924619
-0.836391 0.127460 2.070937
-0.399747 0.137449 1.552008
-0.973600 -0.039982 2.154279
-0.199552 0.150854 1.282712
-1.212898 0.119937 4.501644
-1.279015 0.120912 4.334347
-1.929628 -0.085736 4.759821
-0.621443 0.128513 1.602010
-0.341077 0.134648 1.693579
-0.651068 0.128502 1.703208
-0.389157 -0.072417 3.567458
-0.682350 0.128770 1.651292
-0.297208 0.137815 1.495633
-0.447614 -0.292839 4.235591
-0.439323 0.124339 2.284678
-0.937481 -0.038378 2.220333
-0.369485 0.066414 1.556774
-0.432142 0.133643 1.418074
-0.582327 0.134333 1.320078
-0.639133 0.132544 1.544395
-0.651447 0.133270 1.369185
-0.539598 -0.076706 3.920406
-2.024451 -0.217433 4.492938
-0.561077 -0.112849 4.005768
-1.934951 -0.254391 4.363423
-0.452426 0.132549 2.409160
-0.662666 0.134954 1.450785
-0.754816 0.191579 3.348307
-1.774087 -0.260506 4.704854
-0.956464 -0.332789 4.287179
-0.903778 0.125138 2.136111
-0.265058 0.135880 1.455203
-0.295128 0.136917 1.398076
-1.007090 0.130611 2.931422
-0.760604 0.134787 2.737538
-1.421116 -0.034204 3.481273
-1.414304 0.129067 4.054306
-1.144978 0.125083 3.949139
-1.067648 0.129253 4.062400
-1.394966 0.103419 4.412614
-1.496987 0.078649 4.501573
-0.567295 0.134360 1.573606
-0.427337 0.134459 1.904407
-2.394705 -0.377595 4.364567
-0.351181 0.138176 2.847214
-1.636877 0.093293 4.645839
-0.657676 0.133996 1.399288
-0.229994 0.139440 1.483212
-0.460145 0.135990 1.656003
-0.867485 0.136023 1.760712
-0.280104 0.133013 1.292520
-0.452824 0.137353 2.457251
-0.547941 0.130333 1.850057
-0.749730 0.091454 3.665951
-1.707333 0.100305 3.321194
-2.033036 -0.268036 4.564458
-2.004614 -0.213985 4.447632
-1.597424 -0.301713 4.692892
-0.745122 -0.105985 4.168776
-1.257159 0.113220 2.621538
-1.487293 0.038792 4.377625
-1.753991 0.026474 4.757607
-1.171616 -0.086960 4.500005
-1.428362 -0.023667 4.406428
-1.405774 -0.003185 4.383292
-1.099796 0.129041 4.072891
-1.129449 0.129013 3.921934
-0.814398 0.131565 3.048740
-0.837701 0.129319 3.096009
-0.939244 0.197634 3.863890
-0.655841 0.130538 2.305779
-0.400859 0.132669 1.518513
-0.295703 0.152485 1.896675
-0.387501 0.134963 1.517723
-0.748542 0.125544 2.003974
-0.478332 0.128728 3.156410
-2.056790 -0.215533 4.532476
-1.780632 -0.253487 4.645964
-1.755916 -0.254996 4.652951
-0.699948 0.127549 1.713719
-0.393974 0.132702 1.417928
-0.481530 0.133910 1.516587
-1.690415 0.094743 4.692937
-1.769125 -0.104441 4.783855
-0.429313 0.132778 1.486165
-1.222995 -0.072070 2.653079
-0.416667 0.137103 1.378958
-1.987638 -0.213909 4.388616
-1.481354 -0.073472 4.416562
-1.142837 0.056046 4.452947
-1.398982 -0.134954 2.876122
-0.638383 0.127873 2.037422
-0.587314 0.126193 1.976742
-1.298565 -0.091722 2.736354
-0.556919 0.130444 1.984403
-1.496932 0.002930 3.177560
-1.027515 -0.020824 2.612387
-0.540210 0.137392 2.619237
-0.492083 0.138721 2.435466
-0.689643 0.132781 2.527620
-1.460232 0.066577 3.481104
-0.574707 0.130830 2.140624
-0.295864 0.137924 1.672278
-0.577171 -0.063417 4.007913
-0.829692 0.129260 2.797875
-0.650226 0.135449 2.394571
-1.523202 0.115461 4.223722
-1.782882 0.114698 4.618391
-1.174248 0.070135 4.475406
-0.278912 0.137979 1.547093
-0.512004 0.129545 1.467168
-0.608679 0.133348 1.893791
-0.580574 0.121014 1.713573
-0.784797 0.120840 2.016675
-0.217811 -0.000969 1.555258
-0.696276 0.133133 1.462923
-0.230210 0.141726 1.494392
-0.618268 0.128555 1.615254
-0.611149 0.129018 1.713815
-0.524160 0.130326 1.484977
-0.294373 0.134707 1.685201
-0.982110 0.134927 3.664796
-0.313373 0.137806 1.664685
-0.457118 -0.011217 3.257490
-0.458763 -0.059219 3.574282
-0.363494 -0.009272 2.959404
-0.649872 0.122465 1.683281
-1.510750 -0.037402 4.459040
-0.788939 -0.048949 4.025757
-1.770334 -0.059887 4.773875
-1.844871 -0.218449 4.773837
-1.434247 0.024006 4.434360
-0.459034 0.130922 1.585943
-1.065204 0.006437 2.197421
-0.782915 0.078692 3.594835
-1.418353 0.096055 4.454401
-0.568029 -0.024632 3.432711
-0.708260 0.091228 3.706972
-1.112576 0.044503 2.236734
-0.947624 0.125663 2.041304
-0.463112 0.139234 1.446308
-1.207886 0.118241 4.476760
-1.406247 -0.169887 3.481831
-0.772093 0.127171 2.074610
-1.535792 0.118861 4.241886
-1.307453 0.120579 4.040212
-1.490702 0.119865 4.166977
-1.269850 0.133276 4.037501
-1.267799 0.132051 4.027411
-0.657345 0.133977 2.319658
-1.342756 -0.099499 3.288177
-0.372457 0.135520 1.601498
-0.654422 0.125956 1.734254
-0.558818 0.129355 1.609669
-0.689606 0.121826 1.865119
-0.496158 0.133183 1.839152
-0.750695 0.121545 1.852170
-0.665627 0.123997 1.635004
-0.353021 0.139198 1.969776
-0.742476 0.122533 1.798246
-1.358982 -0.037309 4.517083
-1.381819 -0.032010 4.411405
-1.247624 0.132069 4.409888
-1.477950 0.122908 4.086492
-1.342688 0.124282 4.137553
-0.852430 0.118960 1.994145
-2.082564 -0.204550 4.426866
-1.611173 0.124351 4.252620
-1.386692 0.122696 4.070684
-1.136810 0.126750 4.390205
-1.546560 0.121982 4.116396
-1.116997 0.125318 4.140534
-1.210341 0.136989 4.240100
-1.473856 0.121184 4.243340
-1.791316 0.118627 4.479730
-0.610304 0.140784 2.927000
-0.631457 0.138176 3.124678
-1.478434 -0.149664 3.519418
-0.930587 0.119198 2.086779
-1.210507 -0.001468 2.566026
-1.185368 0.130407 3.297598
-1.205184 0.130857 3.398667
-0.367982 0.134194 1.646273
-0.736570 0.088249 3.589680
-1.680956 0.089745 4.678641
-0.744881 -0.010436 3.656695
-0.321943 0.137745 1.920422
-0.679380 0.120417 1.680745
-0.842312 0.124555 1.790308
-1.018195 0.108135 4.273711
-0.916021 -0.026973 3.627611
-0.922008 -0.028593 3.667886
-0.816653 0.097409 3.558351
-1.906137 -0.060638 4.835506
-0.940649 0.131506 3.549303
-0.899015 -0.035910 2.148431
-0.591157 0.125299 1.738626
-0.445861 0.136232 2.164536
-1.555768 -0.341991 4.584885
-0.907474 0.087166 2.281486
-0.784723 -0.110240 4.088056
-1.061533 -0.270952 4.591382
-0.569965 0.127603 1.599391
-1.562155 -0.343154 4.602616
-0.672596 0.124020 1.659575
-0.883174 0.122295 2.118716
-0.829359 0.118135 1.928994
-0.505512 0.128296 1.726898
-0.630382 0.124853 1.653461
-0.386616 0.135627 1.838295
-0.828852 0.118842 1.929590
-0.859961 0.120942 2.002053
-0.865101 0.120793 2.105970
-0.540996 0.127665 1.833541
-1.225545 0.109923 2.575318
-1.237843 0.112693 2.596060
-0.370803 0.137366 1.853128
-0.706424 -0.010099 3.527924
-0.407991 0.131241 1.860497
-0.468652 0.143809 2.195812
-0.872061 0.117767 2.084705
-0.651819 0.134411 2.081999
-0.409961 0.128672 1.739722
-0.459634 0.125967 1.771204
-0.762519 0.121511 2.033120
-1.195405 -0.265765 4.656734
-1.207985 -0.314330 4.605259
-2.058053 -0.217337 4.450481
-0.806194 0.090920 3.780963
-1.486412 0.097566 4.363814
-1.458329 -0.298650 4.754183
-0.900450 0.119834 2.095247
-1.376303 0.074847 4.424787
-1.241964 -0.340134 4.584979
-0.483514 0.130395 1.618151
-0.883021 0.119676 2.094512
-0.851318 -0.052871 4.076952
-1.941832 0.096135 4.749073
-1.279567 0.126258 3.437345
-0.418400 0.133747 1.527048
-0.807655 0.124421 1.880867
-1.065252 0.004431 2.239822
-0.425141 0.123697 1.706742
-0.402443 0.134477 1.770539
-0.998294 -0.100371 4.288428
-1.099331 0.131233 3.504684
-1.125494 0.128346 3.857597
-1.075179 -0.109625 4.413531
-1.400825 0.021663 4.354773
-1.415310 -0.069100 4.455146
-0.678257 0.128672 2.213131
-1.187610 -0.068299 2.593837
-0.591167 0.133262 2.272107
-1.469229 -0.086122 4.373133
-0.568950 0.130272 2.258282
-0.714000 0.121245 1.830857
-1.249340 -0.071494 4.505560
-1.288094 -0.086239 4.395463
-0.622198 0.123694 1.860286
-0.601072 0.127664 1.842553
-0.923949 0.130777 3.059421
-1.286780 -0.090229 4.617782
-1.893912 -0.125976 4.784576
-0.565653 0.137229 2.614515
-0.903698 0.126441 2.403630
-1.153451 0.128313 3.751582
-1.373076 0.123583 3.887207
-0.582182 0.127522 1.878374
-1.250512 0.115122 2.643254
-0.407825 0.134826 1.767942
-0.473801 0.129314 1.888356
-1.814795 0.096634 5.050729
-0.763843 0.083584 3.621143
-0.746885 -0.008330 3.689940
-1.582181 -0.299509 4.646443
-1.704657 0.110235 3.332903
-0.727557 0.123096 2.037483
-0.696997 0.123548 1.997324
-0.490255 0.130516 1.924456
-1.214471 0.110564 2.560020
-0.874485 0.012510 2.231939
-0.433581 0.134191 1.610098
-0.650913 0.128452 1.819389
-0.712809 0.122526 1.834397
-0.738748 0.121984 1.871472
-0.487819 0.140635 2.508693
-1.407423 0.075178 4.422014
-1.724257 -0.036162 4.745774
-1.434055 -0.067446 4.473490
-1.176846 0.119418 4.329828
-1.180156 0.124129 4.176649
-1.246631 0.121984 4.227283
-1.140971 0.127933 4.093243
-0.365787 0.128594 1.567835
-0.920307 0.132621 3.370921
-1.426345 0.101783 3.673591
-0.967852 0.129828 3.553373
-0.937356 0.129884 3.632743
-0.895679 0.133260 3.392814
-0.965412 0.132117 3.413997
-0.981954 0.129866 3.644949
-0.963433 0.132470 3.543449
-0.923434 0.129029 3.597753
-0.971253 -0.048121 4.232749
-0.855995 0.134563 3.249977
-0.817282 0.126014 3.511100
-1.067098 -0.107634 4.365062
-1.469584 -0.004103 4.427484
-1.126093 -0.083588 4.442734
-1.029012 0.129843 3.742213
-0.983358 0.098464 4.201922
-1.942327 0.096789 4.750061
-1.303823 -0.073392 2.646960
-1.017411 0.122650 2.115779
-0.782045 0.122210 2.139692
-0.732678 0.122515 2.098071
-0.751900 0.121754 2.028475
-0.765431 0.121046 1.948802
-1.471667 0.066938 3.496563
-0.668864 0.134155 2.384109
-0.500223 0.140114 2.701078
-0.548641 -0.065116 3.877658
-0.784066 0.151989 3.341249
-1.674494 0.167411 4.625252
-0.598552 -0.116814 3.994752
-1.511656 0.109231 3.166920
-0.537119 0.135926 2.184637
-0.521540 0.130414 2.140891
-0.574972 0.128961 2.120054
-0.558554 0.129564 2.168165
-0.468246 0.123356 1.859366
-0.782652 0.122451 1.965066
-0.777429 0.121839 2.031322
-0.751314 0.120484 1.955851
-0.795848 0.119622 1.945553
-1.919809 0.069039 4.766832
-1.773470 0.114332 4.607425
-1.316014 0.126668 3.980990
-0.612861 0.126323 2.097357
-1.357264 -0.030244 3.325376
-1.035523 -0.041609 2.793865
-0.827315 0.120868 2.001459
-0.801994 0.102921 1.969250
-0.719683 0.123503 1.842535
-0.972976 0.121377 2.739749
-1.030689 -0.073640 2.825274
-0.701466 0.131711 2.469589
-1.218207 0.130501 3.523904
-0.819339 -0.010062 3.572601
-1.307822 0.151635 4.623321
-0.595761 0.130617 2.365683
-0.603851 -0.058612 4.059794
-0.681179 0.123938 2.178379
-0.716192 0.125086 2.180268
-0.453191 -0.058985 3.528220
-0.826068 0.127162 2.301140
-0.801394 0.124452 2.258191
-1.056279 -0.032350 2.564389
-0.479215 0.141091 3.261822
-0.510756 0.129444 1.919739
-1.762616 -0.116960 4.740748
-1.619943 0.088243 4.594068
-0.710193 0.130662 2.667717
-0.461608 0.127459 2.024283
-0.748494 0.123893 2.225272
-0.416232 0.134143 1.954049
-0.560441 0.129070 2.065021
-0.750410 0.123547 2.157199
-1.450626 0.032278 4.412088
-0.623843 0.138519 3.501223
-0.772811 0.029784 3.469605
-1.487117 -0.090043 4.411203
-0.688231 -0.011095 3.665402
-1.802899 -0.061911 4.747601
-0.367034 0.139067 1.738744
-0.858257 0.121005 2.042178
-1.170016 0.124044 4.152920
-1.136872 0.125647 4.137164
-1.176437 0.126449 3.900659
-0.744799 0.092504 3.630913
-0.922845 0.129311 3.489095
-0.971731 -0.052188 4.226713
-1.191523 0.130001 3.734399
-0.943603 0.131406 3.444197
-1.263981 0.128153 3.600441
-1.412464 -0.117472 4.460365
-1.500442 -0.037488 4.411586
-1.179723 -0.044401 4.504633
-1.372325 0.073083 4.408392
-1.517168 -0.026930 4.445618
-1.370866 -0.060364 4.561368
-0.648575 0.132915 2.858063
-0.586827 0.142260 2.925753
-1.297449 -0.124844 2.719244
-0.714164 0.122607 1.802799
-0.645288 0.124721 1.951246
-0.816071 0.121166 2.124001
-0.502702 0.128539 1.884079
-0.718378 0.123966 1.808969
-0.668791 0.122286 1.853791
-0.358397 0.140191 2.222456
-1.297286 0.087641 2.770847
-0.670273 0.126309 2.084397
-0.580632 0.130296 2.212196
-0.530977 0.137175 2.491970
-0.875174 0.126773 2.495137
-0.788468 0.124959 2.148617
-0.921338 0.127593 3.469765
-1.598338 0.143863 4.460933
-0.967862 0.132648 3.830125
-1.503322 0.150252 4.332723
-1.518065 -0.147557 4.470110
-0.774231 0.110163 3.461808
-0.640754 0.128335 2.216042
-0.851059 0.120406 2.111212
-0.526353 0.131182 2.164187
-0.777640 0.125348 2.072005
-0.506539 0.135738 2.523624
-0.429076 0.129769 1.648835
-0.428350 0.130099 1.732794
-0.900644 0.119152 1.975726
-1.325177 -0.085178 4.445035
-1.308325 -0.084097 4.399350
-1.368633 -0.060563 4.422130
-0.980749 -0.014742 4.261714
-0.732511 -0.085689 4.024152
-0.666921 0.122242 1.649953
-1.302927 -0.083198 2.712981
-1.782865 -0.216389 4.715905
-1.482852 -0.025666 4.384557
-1.270088 0.097040 4.520064
-1.405363 -0.019637 4.312051
-0.827447 0.133867 3.075039
-0.819846 0.133045 2.959924
-1.001918 0.129980 3.037191
-1.407374 0.049725 3.527363
-1.643115 0.152423 4.395688
-1.449917 0.165048 4.533833
-1.436402 0.034347 4.389725
-1.494665 -0.090858 4.395415
-1.207438 0.121161 4.281617
-1.568788 0.121869 4.286436
-1.501030 0.120774 4.165114
-1.332784 0.121755 4.067374
-1.151735 0.010296 4.470759
-1.167429 0.104161 4.483358
-1.377251 -0.087375 4.440546
-1.324208 0.047355 4.410137
-1.141460 0.121985 4.440541
-1.777444 -0.044385 4.655427
-1.880873 0.038116 4.766076
-1.289677 0.125499 4.091634
-1.929197 -0.112391 4.811965
-1.530009 0.077510 4.509226
-1.904792 0.124245 4.967189
-1.491825 0.120611 4.170928
-1.521028 0.123839 4.082984
-1.136909 0.128391 4.149966
-1.951795 0.136543 4.950560
-0.925057 0.133681 3.143291
-0.949492 0.124022 3.375568
-0.662985 0.137916 2.764285
-0.990447 0.135499 2.782372
-1.833367 0.119696 4.458423
-1.829267 0.116438 4.616317
-1.128653 -0.083247 4.462274
-1.104823 0.125293 4.304157
-1.308271 0.122980 4.113600
-0.669110 0.122474 1.925590
-0.725872 0.120127 1.963850
-0.729253 0.121192 1.970597
-0.789343 0.122495 2.019806
-0.614508 0.126098 1.959513
-0.702859 0.122472 2.075434
-0.601213 0.128365 2.032531
-0.671619 0.122862 2.061734
-0.452617 0.132932 2.109244
-0.595575 0.123935 1.867327
-0.845664 0.119126 2.100444
-1.322704 0.117991 4.047647
-1.398669 0.113854 4.072908
-1.449603 0.126225 4.037209
-1.695901 0.111425 3.313440
-1.216944 -0.332400 4.497219
-0.594980 0.125617 1.684777
-0.793751 0.121440 1.855900
-0.998868 0.120190 2.091244
-0.852134 0.119618 1.988392
-0.340111 0.137861 1.943617
-0.639176 0.129673 1.901835
-0.494030 0.129005 1.673814
-0.632758 0.122129 1.780885
-1.456358 -0.299018 4.743441
-0.797639 0.117693 1.992888
-0.555749 0.013068 3.418509
-0.639075 0.126990 2.209002
-1.590167 -0.026628 4.585431
-1.401632 0.097780 4.417000
-0.591262 0.121847 1.698972
-0.856874 0.118013 1.986375
-0.584925 0.134912 2.507347
-0.608272 0.132972 2.435035
-1.451760 0.125269 3.967509
-0.685588 0.132545 2.395762
-0.847659 0.130346 2.425834
-0.805245 0.131307 2.373961
-1.375969 -0.046173 4.433079
-0.656311 0.132191 2.656925
-0.934002 0.130728 2.795813
-0.894725 0.130964 2.666988
-0.765568 0.113146 2.744199
-1.297591 0.099909 3.402034
-1.328695 0.158527 4.703286
-1.831241 -0.127530 4.871658
-1.352751 0.123348 4.202333
-1.288842 -0.065526 4.479831
-1.758397 -0.046967 4.622517
-1.331004 -0.083743 4.453039
-1.345985 -0.033989 4.398987
-0.902540 0.105201 4.278953
-1.018065 0.157195 4.356001
-1.023548 0.110459 4.305185
-1.762158 -0.105069 4.765040
-1.410317 0.116600 3.391264
-0.646519 0.134553 2.715460
-0.919653 0.159146 4.307040
-0.663187 0.135147 2.804185
-1.347562 0.106615 4.462785
-1.317052 0.101610 4.370705
-0.485504 0.136725 2.364492
-0.630996 0.117763 2.323665
-0.676139 0.126420 2.314169
-0.770548 0.125891 2.261435
-1.112022 0.079598 2.702726
-1.333471 0.063241 3.264111
-0.565276 0.143461 3.385256
-0.632830 0.131189 2.199438
-0.595211 0.137968 2.704209
-0.567765 0.140152 2.772685
-0.577852 0.136493 2.872823
-0.698241 0.132849 2.464354
-0.801215 0.129441 2.366849
-0.632636 0.129243 2.389170
-0.505842 0.138999 2.859129
-1.375065 -0.027934 3.397019
-1.334490 0.052270 3.410199
-1.236150 0.125718 3.312085
-1.065576 0.125766 3.007684
-0.994909 0.101349 4.278972
-1.451458 -0.074943 4.408046
-0.859309 0.130937 3.099428
-0.769102 0.074522 3.521565
-1.814084 -0.224246 4.777440
-0.598139 0.133468 2.376180
-0.749221 0.130530 2.491874
-0.556732 0.135371 2.592553
-0.888765 0.128357 2.473317
-0.481525 0.139920 2.791656
-1.084137 -0.287976 4.656189
-0.536689 0.126380 2.199993
-0.620508 0.127609 2.127294
-1.370455 -0.059397 4.341972
-1.408756 0.048623 4.498535
-0.804782 0.080849 3.612910
-1.426830 -0.015391 4.425837
-0.722560 0.049006 3.494678
-0.746934 -0.003930 3.569088
-0.434781 0.132696 2.059357
-0.598487 0.129341 2.234952
-0.904731 0.035256 2.283301
-0.790241 0.125753 2.342325
-0.539011 0.130015 2.216124
-0.699793 0.122333 2.066747
-0.568211 0.129433 2.248680
-0.897665 0.113716 2.285726
-1.180708 -0.085808 4.534523
-0.870311 0.002683 2.249569
-0.618269 0.129754 2.235356
-0.467081 0.132754 2.047855
-0.716608 0.123774 2.146440
-0.712130 0.122436 2.101537
-1.194139 0.044831 4.506507
-1.168239 0.105174 4.491906
-1.317032 0.114947 4.259673
-1.465797 0.122614 4.076216
-0.807420 0.123642 2.206669
-0.694535 0.129925 2.450010
-0.580481 0.127668 2.463352
-0.721745 0.121022 2.029553
-0.519060 0.142751 2.810211
-0.588464 0.127800 1.998100
-0.733680 0.121335 2.109678
-0.466286 0.130763 2.108748
-0.555774 0.127213 2.442818
-0.507477 0.128924 2.021335
-0.523004 0.123784 2.104031
-0.862342 -0.022142 2.251035
-0.570682 0.122758 2.135216
-2.118339 -0.208937 4.401875
-0.584785 0.130027 2.240951
-0.941002 0.121037 2.275818
-0.805428 0.121995 2.133066
-0.754067 0.123074 2.030720
-0.443542 0.130168 1.890982
-0.866854 0.121179 2.110055
-0.773633 0.123089 2.117837
-0.752945 0.122758 2.028301
-0.803682 0.123309 2.347806
-0.510663 0.134170 2.466368
-0.674929 0.127066 2.202182
-1.012794 0.118667 2.784957
-0.507380 0.121963 1.974054
-1.090084 0.047267 4.382732
-1.889106 -0.058391 4.812302
-0.823864 0.063847 3.572519
-0.823573 -0.022528 3.426136
-0.817845 0.168886 3.469856
-0.565728 0.130670 2.297269
-0.731720 0.132115 2.793052
-0.571930 -0.016484 3.596838
-0.870756 0.161763 3.246536
-0.373496 0.139272 2.104076
-0.392751 0.135240 2.127522
-0.882160 0.112636 2.259614
-0.917136 -0.035115 2.190012
-0.426360 -0.011135 3.302958
-1.493125 0.108221 3.140221
-1.012963 -0.075564 2.814097
-1.006956 -0.074901 2.800938
-0.987298 -0.054152 4.332422
-1.452180 -0.070876 4.416512
-0.557761 0.062970 1.991045
-1.080076 0.126692 4.113195
-0.403853 0.137097 2.212696
-0.815415 0.122580 2.111430
-0.805534 0.118668 2.170125
-0.674803 0.123945 2.068680
-0.621262 0.123564 2.016568
-0.643869 0.128643 2.174635
-1.036882 0.120550 2.732479
-1.094432 0.134512 4.182694
-1.381755 0.121165 4.065428
-1.253083 0.122518 3.969385
-1.293826 0.123992 4.025187
-1.081945 0.130112 3.971397
-1.570807 0.119327 4.238161
-1.376374 0.123233 4.014041
-1.198000 0.118588 4.312428
-1.108075 0.124950 4.176684
-1.091671 0.047567 4.395551
-1.529882 0.122015 4.113591
-1.759946 -0.059339 4.745742
-1.353233 -0.065820 4.382073
-1.064320 0.123968 3.923603
-1.299079 0.125492 4.032219
-1.994625 -0.095987 4.818899
-0.420945 0.127719 1.863603
-0.405816 0.137667 2.171141
-0.763847 0.123095 2.041919
-0.616894 0.130470 2.132348
-1.254382 -0.026975 3.219892
-1.247012 0.126375 3.393565
-0.456224 -0.062378 3.640404
-0.472790 0.146854 3.284011
-0.629678 0.139531 2.750632
-0.596626 0.140297 2.688574
-1.102890 0.132039 3.049809
-0.615327 -0.010776 3.420191
-1.947615 -0.096468 4.807328
-1.885784 -0.063912 4.724399
-1.678478 0.253583 4.729325
-1.084363 0.131622 3.089931
-0.616197 0.128338 2.108015
-0.454169 -0.012873 3.232372
-1.256955 -0.024474 3.236713
-1.341787 -0.029587 3.302454
-1.297854 -0.028064 3.217096
-1.183591 -0.025306 3.071126
-1.464381 -0.045877 4.501454
-1.439627 -0.019734 4.400911
-1.435455 -0.016104 4.452313
-1.159835 0.120867 4.247457
-1.465802 0.116076 4.141057
-1.170721 0.126987 4.072080
-1.277766 0.098637 4.541356
-1.404004 0.102034 4.670698
-1.553810 -0.012408 3.824779
-0.613479 0.131238 3.464575
-0.984972 -0.015226 4.283900
-0.894655 0.154557 4.194937
-1.340752 -0.035473 4.332189
-1.527154 0.082629 3.895703
-0.834003 0.136155 3.385555
-0.906448 0.133026 3.470235
-0.866443 -0.011154 3.587980
-1.078019 0.132068 3.528267
-0.986391 0.128224 3.809555
-1.065916 0.127809 3.946529
-0.888855 0.132695 3.529889
-0.864928 0.093816 4.060389
-0.762030 0.160865 3.336859
-0.936228 0.125868 2.765244
-0.836586 0.128862 2.482668
-1.329707 -0.031509 4.445674
-1.072416 0.127270 3.645803
-1.074826 0.128519 3.652828
-1.332030 0.131551 3.650694
-1.867821 -0.015950 4.495853
-1.901002 -0.125776 4.793731
-1.170735 0.070505 4.457143
-0.755330 0.122825 2.966326
-0.968262 -0.051122 4.200887
-1.871146 -0.060080 4.521795
-1.583907 0.115911 4.569952
-1.839061 0.117176 4.628794
-0.912836 -0.014577 4.385167
-1.456544 0.144765 4.276751
-1.306363 0.122025 4.108773
-0.901575 0.127498 2.330794
-1.171039 -0.090473 4.512092
-1.496327 0.041573 4.401580
-1.360110 0.163816 4.793335
-0.958190 0.129805 3.670865
-1.293830 0.128815 3.712748
-1.532194 0.126867 3.976051
-1.430317 0.129094 3.785589
-0.867860 -0.010856 3.601670
-0.771345 0.103769 3.421390
-0.725946 0.073571 3.525599
-1.955945 -0.094812 4.820411
-0.897551 0.131793 3.388883
-1.284189 0.125479 3.449708
-0.651237 0.135094 2.494313
-0.682563 0.134972 2.855532
-0.779980 -0.046820 3.946393
-0.990509 0.130295 3.521621
-0.789051 0.132462 2.934561
-1.061272 -0.013500 4.765200
-0.512570 0.136489 2.481377
-0.768866 0.130010 2.477008
-0.588781 0.124872 2.336659
-0.897242 0.034716 2.301636
-1.373013 -0.029706 3.392521
-0.546826 0.137561 2.712584
-0.791551 0.135232 2.775152
-0.584404 0.129045 2.474782
-0.780442 0.125231 2.161215
-0.795679 0.126453 2.129731
-0.722256 0.125742 2.065134
-0.622153 0.129662 2.295314
-1.308454 0.109138 3.490600
-0.745136 0.121992 2.144980
-1.396231 0.100136 4.408977
-1.439948 0.121861 4.385111
-1.842525 -0.218205 4.856126
-0.670590 0.136498 2.532205
-0.976579 0.130839 2.760755
-0.717128 0.132761 2.437992
-1.477415 -0.021917 4.498474
-1.117920 0.051535 2.717102
-1.199325 -0.025157 2.946599
-1.452117 -0.048919 4.436656
-1.251582 0.118713 4.584949
-1.401846 -0.117089 4.442100
-0.990864 0.148284 4.196472
-1.964768 -0.025313 4.527115
-1.056730 -0.080616 4.234812
-1.555343 0.128620 4.116848
-1.075841 -0.083000 4.401182
-1.174495 0.128677 3.943853
-1.142303 0.128018 3.899985
-0.983475 0.131073 3.745330
-1.095024 0.127015 4.140646
-1.036531 0.126863 4.055358
-1.413196 0.127551 3.863592
-1.797810 -0.046177 4.704583
-1.288029 0.121773 4.408852
-1.289934 0.122367 4.413270
-1.271034 -0.081989 4.342609
-1.377753 0.129882 3.766685
-0.993747 0.129051 3.691759
-1.876484 -0.059534 4.532402
-1.517214 0.114881 4.135660
-1.474061 0.118161 4.153244
-1.309470 0.122262 4.114555
-1.419023 0.120410 4.112778
-1.279867 0.123679 3.998337
-1.398482 0.118937 4.103285
-1.144728 0.129143 4.231795
-1.383254 0.045858 4.396140
-1.322018 0.045161 4.405726
-1.312216 0.043464 4.375675
-1.599549 0.126812 4.325190
-1.606856 0.127272 4.042470
-1.316082 0.131063 4.186621
-1.022563 0.128859 3.547664
-1.010199 0.130609 3.582581
-1.013396 0.132806 3.594332
-1.434381 0.050402 3.571241
-0.816576 0.131973 3.055351
-1.195656 0.131998 3.309636
-1.467790 0.127465 4.046313
-1.480943 0.125567 4.028782
-0.817118 0.128999 2.895073
-1.036121 0.132241 3.090415
-0.749478 0.134944 2.761338
-1.397376 0.084951 4.293718
-1.387747 0.102129 4.395015
-1.390586 0.115823 4.087526
-1.220204 0.116697 4.046190
-1.128528 -0.043099 4.436956
-1.682498 0.123352 4.310760
-1.561219 0.121951 4.170419
-0.762353 0.099015 3.360639
-0.889847 0.131339 3.298448
-1.425597 -0.070292 4.347708
-1.453342 0.089079 4.447283
-1.318589 0.131231 3.640557
-1.036434 0.122872 4.032997
-1.537701 0.122892 4.024670
-0.986411 0.127868 3.807710
-1.503529 0.128121 4.050013
-0.740868 0.069017 3.564036
-1.411450 0.154874 4.420454
-1.403674 0.102901 4.674514
-1.811414 -0.214885 4.708457
-1.373394 0.073224 4.411400
-1.312152 -0.089475 4.467697
-1.478351 -0.037468 4.527072
-1.256480 0.127662 3.413311
-1.542886 0.125002 4.088004
-1.573332 0.120164 4.102229
-0.562953 0.134876 2.561223
-1.905160 -0.111232 4.772598
-1.473332 0.014451 4.393803
-0.689247 0.133300 2.500778
-0.607007 -0.117589 4.042876
-0.770501 0.111327 3.474145
-1.842492 -0.272327 4.698038
-0.493586 0.133587 2.240964
-0.836820 0.128497 2.398453
-0.536707 0.134907 2.499819
-0.633584 0.130851 2.474496
-0.823277 0.123675 2.202745
-0.830912 0.128626 2.309883
-0.709588 0.150234 2.921045
-0.801017 -0.010080 3.553029
-0.844162 0.078316 3.726094
-0.621270 0.131940 3.465214
-0.732425 0.053884 3.576870
-1.820503 0.114007 4.433772
-1.041351 0.130192 3.726418
-0.744437 0.128976 2.480788
-1.338977 0.051597 3.414498
-0.622945 0.129476 2.318067
-0.569875 0.120135 3.465340
-1.378257 -0.031326 4.404467
-0.818893 -0.014128 4.045985
-0.798573 0.132408 2.625872
-0.569054 0.139716 2.767017
-1.684856 0.263623 4.748904
-0.989922 0.101251 4.246067
-1.768124 -0.119650 4.749641
-0.512991 0.140951 2.562501
-0.545090 0.134181 2.368723
-0.523615 0.139417 2.809688
-0.777076 0.052260 3.536663
-0.484829 0.136628 2.586147
-0.825378 0.123810 2.142700
-1.168700 -0.025004 2.882991
-0.932601 0.127599 2.650066
-1.454082 0.065772 3.465815
-0.827763 0.124362 2.394637
-0.882390 0.031250 2.277792
-0.957129 0.126882 2.713426
-0.656130 0.129544 2.404719
-1.032755 -0.090148 4.382031
-1.108375 0.127585 3.962742
-1.297723 0.123055 4.336152
-1.237711 0.118902 4.490017
-1.139116 -0.089072 4.518200
-1.680385 0.121721 4.287385
-1.485985 0.122446 4.115525
-1.173278 0.115112 4.394239
-1.144313 0.124458 4.284453
-1.351472 0.121958 4.020308
-1.494830 0.122338 4.398186
-1.504229 0.124869 4.017335
-1.531140 0.127160 4.033119
-1.408302 0.129420 3.873582
-1.180735 0.129196 4.096038
-1.248013 0.121545 3.960659
-1.158833 -0.091047 4.467317
-1.938298 0.004936 4.705328
-1.496006 0.120258 4.080719
-1.192430 0.121349 4.075694
-1.437665 0.125723 4.084703
-1.455375 0.125234 4.020835
-1.209468 0.126267 3.941756
-1.286541 -0.078612 4.343623
-1.102326 0.124232 3.814551
-1.681324 0.121360 4.289465
-1.595035 0.125364 4.023856
-1.024777 0.126070 4.131665
-1.075508 -0.039191 4.402818
-1.242482 0.126712 3.925735
-1.357312 0.124255 3.934450
-1.074567 -0.037472 4.396073
-1.069046 0.126956 3.749080
-1.287960 0.128528 3.962434
-1.898942 -0.054189 4.560236
-1.838455 0.120680 4.445596
-1.788912 0.075771 4.789305
-1.323445 0.123708 4.019536
-1.530791 0.122164 4.070552
-1.718901 0.120431 4.379936
-1.127531 0.126905 4.102975
-1.335994 0.122237 4.073285
-1.437251 0.126878 3.947803
-1.607352 0.125268 4.131198
-1.403069 0.128690 3.847621
-1.891373 0.076829 4.517451
-1.624059 0.130155 4.067307
-1.021384 0.122948 4.009069
-0.986736 0.100454 4.228012
-1.067464 0.123929 3.842073
-1.144072 0.126517 3.872767
-1.128913 0.129996 3.872921
-1.014671 -0.110139 4.429223
-1.973123 0.026166 4.534527
-1.003109 -0.103843 4.340295
-1.248993 0.132318 3.578002
-1.186557 0.129913 3.601911
-1.176136 -0.084701 4.511740
-1.504127 0.100822 4.398542
-1.432204 0.125481 3.939685
-1.537466 0.123661 4.124430
-1.278933 0.125724 3.940036
-1.174280 -0.044200 4.487524
-1.319002 -0.058786 4.416346
-1.261361 0.094977 4.489010
-1.848431 -0.048899 4.775074
-1.303599 -0.066345 4.531293
-1.813069 -0.056534 4.781147
-1.307685 -0.039089 4.571632
-0.825392 0.138155 3.289779
-1.190019 0.043907 4.481069
-1.444348 -0.053928 4.418212
-1.427929 -0.020870 4.381131
-1.321041 -0.028413 4.419122
-1.252155 -0.070745 4.518792
-1.099174 0.125437 3.901787
-1.575099 0.124480 4.133235
-1.198719 0.124252 4.132706
-1.429776 0.035471 4.377400
-1.534992 -0.023850 4.470666
-1.401213 -0.067523 4.421212
-1.386621 0.104503 4.405370
-1.434860 -0.023417 4.422951
-1.412958 -0.023222 4.367447
-1.447053 -0.003837 4.482676
-1.063133 0.007478 4.379750
-1.301867 0.117043 4.331491
-1.532933 0.099164 4.475585
-1.819938 -0.056926 4.792691
-1.785277 0.073615 4.779909
-1.431428 0.073428 4.505183
-1.379142 0.042395 4.386981
-1.150020 0.123996 4.447158
-1.650108 0.113915 4.413616
-1.431684 0.119039 4.221291
-1.841227 0.115606 4.519876
-1.271678 0.121362 4.061014
-1.185391 0.125366 4.204184
-0.964324 0.134158 3.697605
-1.114799 0.127764 4.173995
-1.839507 -0.114233 4.737454
-0.884600 0.127158 3.276175
-1.448421 0.124078 4.407917
-1.866251 -0.107027 4.787224
-1.696705 -0.035047 4.694021
-1.463428 -0.023134 4.347178
-1.371613 -0.084173 4.418339
-1.316624 -0.141646 4.483991
-1.888094 -0.036859 4.499635
-1.039296 0.074806 4.314220
-1.403230 0.128154 3.925158
-1.125082 0.135744 3.127017
-1.884420 -0.058722 4.802584
-1.537255 0.113340 3.906221
-1.217620 0.128516 4.073531
-1.244615 0.130242 3.419968
-0.802073 0.135549 2.919724
-0.815103 0.134424 3.124360
-1.093298 0.132534 3.058093
-0.673493 0.141116 3.122309
-1.830854 0.115680 4.608089
-1.333295 0.119852 4.296786
-1.397762 0.124562 4.019868
-0.813894 0.105714 3.525857
-1.372926 0.074471 3.549353
-1.773630 -0.104977 4.792109
-0.878648 0.128934 3.405404
-0.736476 -0.100502 4.088675
-0.668364 0.139504 3.282181
-1.136597 0.130884 3.278863
-0.994120 0.132716 3.020703
-0.840117 0.133072 3.060072
-1.333014 -0.047147 3.442472
-0.708763 0.137471 3.749355
-1.583082 -0.158527 3.840682
-0.625383 0.142604 2.825290
-0.698768 0.143432 3.529413
-0.657713 -0.045651 4.070943
-1.434555 0.002889 4.434130
-0.792053 -0.096937 4.120038
-0.778069 -0.103467 4.023543
-1.804395 -0.258158 4.693259
-0.725872 0.058382 3.518997
-1.114013 0.126665 4.167314
-1.386662 0.116850 4.012503
-1.476252 0.122824 4.063731
-1.473746 0.121732 4.081682
-1.128956 0.129991 4.118887
-1.886253 0.099956 4.741834
-1.326110 0.097607 4.426265
-1.202852 0.125923 4.059636
-1.748496 -0.112663 4.726664
-1.234894 0.125076 4.089024
-1.125114 0.129440 3.246800
-0.864024 0.136331 3.336410
-0.758308 0.093367 3.424956
-0.949653 0.136204 3.131477
-0.994903 0.135523 3.539900
-0.857949 0.131004 3.059771
-0.855351 0.129907 3.291663
-1.188432 0.132389 3.313700
-1.046677 0.134762 3.144276
-0.811555 0.163610 3.437809
-1.094405 0.134186 3.109315
-1.283721 0.133908 3.359761
-1.142200 0.131942 3.176466
-1.531009 0.120690 4.102548
-1.347558 0.121862 4.185811
-1.914410 0.111625 4.669893
-1.775553 -0.116192 4.771560
-1.604740 0.151996 4.564415
-1.326977 -0.143991 4.515370
-1.397814 0.113350 3.370013
-1.292800 0.129382 3.794944
-1.081659 0.129660 3.964924
-1.396023 -0.112231 4.412177
-0.631326 0.130348 3.488338
-0.688431 -0.012048 3.681825
-0.605857 0.131875 2.623059
-0.886013 0.133198 3.316391
-1.705649 0.175759 4.692223
-1.643066 0.171038 4.658786
-1.893004 -0.059036 4.759842
-1.587090 0.156642 4.525719
-1.897075 -0.063972 4.750605
-1.858620 0.175851 5.098327
-1.608518 0.142716 4.476908
-1.254457 0.088848 4.441073
-0.713275 0.133685 2.709134
-0.642698 0.133672 2.736972
-1.042909 0.075841 4.332776
-1.182137 0.131610 3.967153
-1.502848 0.094654 4.412789
-1.138034 0.009143 4.446162
-1.275173 -0.078700 4.317013
-1.527747 0.083750 4.597043
-0.814455 0.093445 3.538678
-1.298915 0.128407 3.796093
-1.087645 0.130883 3.800226
-1.902413 -0.059445 4.773332
-0.750362 -0.001550 3.400529
-1.010395 0.133285 3.053331
-0.875203 0.134033 3.418327
-1.440704 0.054401 3.535956
-0.595365 -0.112086 3.910613
-0.641696 0.139746 2.874443
-0.621487 0.141114 3.086887
-1.044321 0.129245 3.052979
-1.505928 0.122758 4.040987
-0.691672 -0.011672 3.697652
-0.693902 -0.009654 3.456576
-1.902982 -0.036995 4.520390
-1.005724 0.131635 3.286797
-1.166660 0.133135 3.197028
-0.963817 0.135672 2.942615
-1.145102 0.123430 4.127729
-1.194831 0.125708 4.006284
-1.160793 0.127163 4.093827
-1.432539 0.105168 4.067709
-1.383154 0.095942 4.601803
-1.312205 -0.057965 4.397208
-0.875947 0.133698 3.342114
-0.773216 -0.108476 3.943312
-0.977741 0.131270 3.597769
-0.960060 0.132203 3.326465
-0.857857 0.137961 3.387365
-0.984317 0.130929 3.580366
-0.792252 0.130400 3.075966
-0.849591 0.110502 3.678847
-1.257558 0.124552 3.977859
-1.224656 0.123912 3.967654
-1.342303 0.121664 4.033348
-1.712762 0.119401 4.370778
-1.386361 0.119861 3.629448
