ply
format ascii 1.0
element vertex 408
property float x
property float y
property float z
end_header
-0.400464 -0.230921 0.939838
-0.300351 -0.133287 0.911126
-0.497004 -0.229012 1.075130
-0.542472 -0.234034 1.075167
-0.536244 -0.280210 1.069896
-0.571924 -0.322813 0.953492
-0.354503 -0.177920 0.894978
-0.379473 -0.194864 0.897977
-0.514736 -0.278572 1.061976
-0.412762 -0.332189 1.036162
-0.503037 -0.315846 1.087263
-0.545309 -0.161459 0.939626
-0.347680 -0.131918 0.884245
-0.379061 -0.117985 0.923300
-0.320490 -0.099296 0.881689
-0.322587 -0.129899 0.887254
-0.449683 -0.124597 1.021266
-0.300332 -0.131645 0.876582
-0.353380 -0.164397 0.899028
-0.345756 -0.165149 0.888155
-0.314517 -0.178083 0.953957
-0.330384 -0.169296 0.909950
-0.289248 -0.172192 0.877085
-0.360795 -0.118955 0.931358
-0.423059 -0.334685 1.026433
-0.385832 -0.096903 0.902779
-0.320171 -0.097702 0.971713
-0.267419 -0.127761 0.819226
-0.320865 -0.193586 0.915397
-0.337213 -0.130824 1.063981
-0.255210 -0.333725 1.011179
-0.282368 -0.353030 1.027908
-0.496385 -0.207846 1.073869
-0.501591 -0.202473 1.073635
-0.536517 -0.332464 1.068615
-0.534869 -0.336220 1.077816
-0.139739 -0.048129 0.627339
-0.504872 -0.237269 1.076747
-0.569404 -0.198826 0.969172
-0.286042 -0.376900 1.138250
-0.369637 -0.331641 1.074076
-0.586856 -0.353315 1.059600
-0.530305 -0.287838 1.090163
-0.577863 -0.340202 1.078894
-0.406213 -0.063358 0.751910
-0.539925 -0.284021 1.078759
-0.566614 -0.294709 1.123634
-0.563381 -0.209024 1.079221
-0.537699 -0.304099 1.072073
-0.467499 -0.348786 1.053659
-0.361912 -0.349536 1.053108
-0.556277 -0.162568 1.010961
-0.571367 -0.219568 1.076224
-0.553310 -0.312103 1.102851
-0.367610 -0.329538 1.066949
-0.571263 -0.336648 1.068604
-0.567397 -0.218829 1.071649
-0.289096 -0.062239 0.688981
-0.398479 -0.229351 0.935826
-0.426297 -0.314556 1.022282
-0.371824 -0.333620 1.078256
-0.512387 -0.297647 1.051186
-0.468940 -0.350207 1.057426
-0.584462 -0.143244 1.248987
-0.573829 -0.249230 1.095800
-0.561503 -0.216023 1.059682
-0.219290 -0.054606 0.696361
-0.410422 -0.220098 1.066116
-0.379542 -0.195353 0.901199
-0.533038 -0.301238 1.062728
-0.489473 -0.229612 1.047604
-0.541282 -0.283861 1.079709
-0.590834 -0.355842 1.066100
-0.523003 -0.101560 0.966107
-0.427932 -0.315472 1.025870
-0.430574 -0.341695 1.030853
-0.392533 -0.337316 1.046196
-0.549472 -0.137847 1.051644
-0.571975 -0.190952 0.986928
-0.510516 -0.298197 1.050880
-0.490533 -0.102201 0.944268
-0.544643 -0.207533 1.021055
-0.534793 -0.118849 0.999198
-0.554208 -0.185210 0.959010
-0.258553 -0.338118 1.025794
-0.184578 -0.325968 1.004739
-0.365083 -0.327116 1.062085
-0.490769 -0.229676 1.050734
-0.580782 -0.349741 1.049488
-0.572883 -0.329916 0.972641
-0.371740 -0.334993 1.043707
-0.530252 -0.334258 1.071760
-0.387947 -0.096866 0.836419
-0.402125 -0.200576 0.959258
-0.430449 -0.317050 1.032321
-0.168887 -0.299940 0.942012
-0.522905 -0.327843 1.128903
-0.427486 -0.314428 1.025153
-0.536716 -0.303290 1.068978
-0.523016 -0.305775 1.075424
-0.537674 -0.281198 1.072905
-0.562645 -0.213273 1.051476
-0.511899 -0.277249 1.055874
-0.520751 -0.340495 1.075862
-0.543465 -0.342196 1.095777
-0.562700 -0.215215 1.064036
-0.048450 -0.207777 0.781202
-0.556750 -0.194246 0.949748
-0.509770 -0.307422 1.056251
-0.250457 -0.128656 0.622247
-0.368586 -0.189626 0.875146
-0.381582 -0.196108 0.904208
-0.047879 -0.205184 0.777346
-0.460803 -0.342720 1.038867
-0.171500 -0.303921 0.954505
-0.386195 -0.331876 1.029232
-0.390663 -0.225253 0.918439
-0.456718 -0.236492 1.033481
-0.568293 -0.165905 1.032259
-0.465425 -0.347687 1.050195
-0.501816 -0.234094 1.073271
-0.563518 -0.131545 1.059261
-0.177542 -0.311434 0.961770
-0.048195 -0.206658 0.783113
-0.407005 -0.203839 0.973770
-0.078272 -0.085082 0.605526
-0.578719 -0.248033 1.105495
-0.473157 -0.270788 1.062830
-0.552278 -0.145555 1.066620
-0.242875 -0.322054 1.035773
-0.461864 -0.330604 1.024119
-0.397468 -0.077926 0.901764
-0.580287 -0.269104 1.069805
-0.500780 -0.208581 1.080092
-0.441810 -0.123795 1.005729
-0.370546 -0.332269 1.073045
-0.119961 -0.094291 0.873583
-0.373138 -0.135842 0.883913
-0.078360 -0.087101 0.473333
-0.057887 -0.039763 0.408442
-0.057877 -0.039789 0.407704
-0.079049 -0.034884 0.473427
-0.496306 -0.206413 1.069866
-0.456703 -0.118514 1.010803
-0.067228 -0.069890 0.361898
-0.365874 -0.132034 0.868315
-0.422083 -0.127987 1.008576
-0.554230 -0.239187 1.060432
-0.385140 -0.328662 1.035606
-0.201879 -0.043774 0.618982
-0.407297 -0.197287 0.975685
-0.381814 -0.196813 0.922698
-0.462079 -0.119340 1.026922
-0.379861 -0.058430 0.724020
-0.078313 -0.086805 0.471257
-0.139797 -0.056758 0.677478
-0.127230 -0.178358 0.759725
-0.330333 -0.057394 0.711601
-0.080454 -0.083848 0.465782
-0.078230 -0.087047 0.469280
-0.085351 -0.087222 0.470545
-0.084402 -0.044762 0.487254
-0.081016 -0.084684 0.469912
-0.511872 -0.277713 1.061528
-0.084183 -0.045173 0.490287
-0.095871 -0.083270 0.412846
-0.403838 -0.057099 0.721904
-0.562877 -0.208621 1.077480
-0.561156 -0.208092 1.074025
-0.412041 -0.331446 1.033986
-0.070901 -0.040800 0.467435
-0.059076 -0.073785 0.409018
-0.218994 -0.054324 0.670318
-0.510845 -0.235902 1.101527
-0.528585 -0.130643 1.140950
-0.393186 -0.178711 0.939115
-0.377332 -0.090413 0.885416
-0.552874 -0.144649 1.066928
-0.363042 -0.096610 0.858094
-0.074273 -0.054379 0.460382
-0.056522 -0.075683 0.411563
-0.149287 -0.051564 0.685857
-0.318406 -0.164839 0.795072
-0.392897 -0.095107 0.913189
-0.491329 -0.227139 1.061228
-0.499242 -0.208660 1.077389
-0.515379 -0.089786 0.932286
-0.443613 -0.110717 1.037024
-0.398138 -0.129440 1.012548
-0.358030 -0.057690 0.718650
-0.230465 -0.105051 0.924014
-0.485054 -0.143042 1.035294
-0.243188 -0.133689 1.032193
-0.356051 -0.106049 0.904457
-0.644579 -0.147023 1.282412
-0.550819 -0.200729 1.065318
-0.158842 -0.059622 0.697877
-0.531903 -0.335787 1.073037
-0.541578 -0.137071 1.039266
-0.069591 -0.052266 0.445568
-0.063938 -0.076640 0.416776
-0.071127 -0.055718 0.443870
-0.069661 -0.051646 0.443704
-0.049447 -0.093379 0.501664
-0.048533 -0.088336 0.484618
-0.079312 -0.035918 0.476186
-0.064125 -0.076432 0.416557
-0.059233 -0.074292 0.409560
-0.486089 -0.137807 1.051087
-0.539095 -0.139647 0.928569
-0.375551 -0.193353 0.890410
-0.367013 -0.191234 0.909107
-0.471532 -0.122065 1.045088
-0.557951 -0.317079 0.943550
-0.236610 -0.081196 0.617912
-0.516716 -0.310022 1.067922
-0.073548 -0.053694 0.458814
-0.080429 -0.083771 0.468432
-0.096256 -0.082873 0.412834
-0.085742 -0.087771 0.474093
-0.126944 -0.179367 0.759981
-0.066906 -0.072417 0.339476
-0.142846 -0.073890 0.755441
-0.341115 -0.060663 0.726865
-0.406067 -0.060650 0.741142
-0.078212 -0.086076 0.467638
-0.156534 -0.060368 0.712202
-0.139766 -0.046500 0.637865
-0.375805 -0.057773 0.725839
-0.128291 -0.041245 0.601903
-0.550888 -0.116997 0.946392
-0.237858 -0.307666 1.005661
-0.366967 -0.189674 0.910878
-0.494889 -0.198620 1.057283
-0.261999 -0.062647 0.722248
-0.539902 -0.229360 1.047573
-0.442241 -0.351010 1.057705
-0.558877 -0.129913 1.050040
-0.055153 -0.071575 0.357668
-0.069554 -0.052708 0.450385
-0.080460 -0.083838 0.466624
-0.084258 -0.083751 0.470627
-0.440033 -0.123901 1.003276
-0.515232 -0.279422 1.057974
-0.176865 -0.310288 0.957974
-0.362645 -0.102469 0.898777
-0.511316 -0.231655 1.065459
-0.537231 -0.207065 1.068247
-0.068735 -0.071214 0.449787
-0.065467 -0.039457 0.424912
-0.389866 -0.107416 0.928997
-0.398960 -0.109433 0.950540
-0.072520 -0.077060 0.561506
-0.279882 -0.065697 0.769856
-0.379190 -0.103946 0.904660
-0.462155 -0.119566 1.026976
-0.129407 -0.180856 0.775977
-0.408093 -0.065330 0.763588
-0.127025 -0.086165 0.775526
-0.064974 -0.079148 0.430750
-0.067833 -0.063142 0.459281
-0.070874 -0.055521 0.439340
-0.063907 -0.076163 0.414271
-0.469001 -0.336760 1.040589
-0.811557 -0.185084 1.640016
-0.377772 -0.196014 0.915465
-0.233175 -0.063198 0.741533
-0.576231 -0.339520 1.075038
-0.096741 -0.083273 0.414576
-0.109891 -0.055410 0.647734
-0.074825 -0.054375 0.465355
-0.543107 -0.096587 0.945789
-0.394149 -0.180019 0.940995
-0.104582 -0.085986 0.438147
-0.359727 -0.110381 0.907702
-0.363259 -0.187698 0.907388
-0.409360 -0.115762 0.950642
-0.367855 -0.189924 0.918740
-0.247338 -0.070306 0.779172
-0.564180 -0.133892 1.063083
-0.333105 -0.078314 0.914575
-0.357201 -0.344817 1.039751
-0.095422 -0.082570 0.410018
-0.169889 -0.304585 0.954260
-0.365470 -0.117750 0.923556
-0.463055 -0.117798 1.050671
-0.125019 -0.142249 0.746493
-0.126715 -0.053739 0.669765
-0.126148 -0.086683 0.771798
-0.189482 -0.046145 0.639215
-0.534369 -0.108474 0.980255
-0.226584 -0.055982 0.689226
-0.221365 -0.053617 0.672303
-0.528301 -0.333779 1.070696
-0.146672 -0.068913 0.749260
-0.519432 -0.328879 1.067822
-0.155553 -0.268134 0.851834
-0.253821 -0.050242 0.662899
-0.146549 -0.075425 0.773145
-0.113839 -0.089869 0.488748
-0.319762 -0.057811 0.715647
-0.105279 -0.089660 0.445604
-0.126656 -0.053596 0.664262
-0.140781 -0.086887 0.810796
-0.127773 -0.146906 0.768040
-0.124661 -0.084955 0.755229
-0.418426 -0.073101 0.811534
-0.158109 -0.051229 0.659993
-0.382124 -0.162640 0.945098
-0.350594 -0.218065 0.935780
-0.189993 -0.059172 0.706551
-0.580287 -0.248311 1.109017
-0.213376 -0.277172 0.901547
-0.181258 -0.057616 0.675511
-0.154665 -0.110200 0.857981
-0.147835 -0.076736 0.788258
-0.128013 -0.087540 0.786134
-0.067793 -0.069721 0.345362
-0.403601 -0.150539 0.961791
-0.574413 -0.338209 1.072469
-0.556689 -0.203246 1.076057
-0.208576 -0.102554 1.012275
-0.373020 -0.116960 0.910851
-0.373493 -0.062512 0.738853
-0.161041 -0.059277 0.703113
-0.149949 -0.105618 0.828987
-0.141545 -0.056325 0.675580
-0.188021 -0.045784 0.633510
-0.150546 -0.105740 0.833364
-0.148249 -0.105666 0.810103
-0.095912 -0.083305 0.413006
-0.141654 -0.056488 0.678275
-0.151894 -0.090706 0.823525
-0.472871 -0.098735 0.912924
-0.147715 -0.049471 0.649013
-0.377370 -0.323259 1.004169
-0.379153 -0.327224 1.019653
-0.353585 -0.330268 1.015222
-0.493268 -0.122901 1.069105
-0.084884 -0.059150 0.490530
-0.085649 -0.087071 0.472213
-0.082684 -0.046532 0.465453
-0.372187 -0.057900 0.720921
-0.539143 -0.278129 1.071162
-0.204595 -0.060161 0.745901
-0.149282 -0.050094 0.658526
-0.408671 -0.066955 0.774230
-0.146047 -0.064341 0.724138
-0.346408 -0.058357 0.723361
-0.401678 -0.192793 0.963709
-0.237158 -0.080825 0.919025
-0.128647 -0.048952 0.640178
-0.347573 -0.216490 0.927648
-0.516458 -0.280559 1.059660
-0.362523 -0.113899 0.923938
-0.390585 -0.187962 0.947315
-0.310717 -0.098024 0.851435
-0.341687 -0.129932 0.861004
-0.391218 -0.122357 0.953644
-0.259576 -0.104979 0.990985
-0.412679 -0.213643 1.032069
-0.398050 -0.112904 0.923305
-0.345654 -0.184356 0.905413
-0.323654 -0.101222 0.888194
-0.264200 -0.106457 1.005676
-0.405297 -0.065631 0.760648
-0.276834 -0.054389 0.693255
-0.314728 -0.050273 0.671530
-0.115547 -0.066843 0.739212
-0.136278 -0.045300 0.619695
-0.495613 -0.197548 1.056214
-0.265590 -0.091162 0.966909
-0.138527 -0.083934 0.800506
-0.079194 -0.045229 0.467761
-0.095596 -0.082233 0.409185
-0.096023 -0.081917 0.414881
-0.081916 -0.067676 0.474175
-0.085142 -0.086936 0.469602
-0.581420 -0.131213 1.133379
-0.761047 -0.174059 1.534232
-0.531099 -0.141436 1.030506
-0.523945 -0.101845 0.970829
-0.339118 -0.082201 0.803240
-0.573729 -0.250274 1.058785
-0.512967 -0.308350 1.061898
-0.317943 -0.057605 0.703440
-0.083234 -0.057706 0.474773
-0.316034 -0.087742 0.870586
-0.283760 -0.088321 0.864557
-0.332162 -0.056989 0.707699
-0.216306 -0.281735 0.916956
-0.158867 -0.268242 0.862206
-0.146008 -0.049126 0.640933
-0.568364 -0.165896 1.033055
-0.134766 -0.065671 0.716441
-0.466608 -0.090100 0.903746
-0.228624 -0.117416 0.577365
-0.402222 -0.078591 0.913257
-0.373457 -0.169654 0.901880
-0.286633 -0.090285 0.870438
-0.391300 -0.128103 0.997234
-0.514252 -0.278683 1.067887
-0.555122 -0.138600 1.061813
-0.350048 -0.161590 0.889859
-0.391277 -0.160969 0.935272
-0.278164 -0.097226 1.019789
-0.323062 -0.089430 0.889906
-0.326572 -0.070486 0.829950
