ply
format ascii 1.0
element vertex 2512
property float x
property float y
property float z
end_header
-0.310357 0.034532 1.981865
-0.646354 -0.258193 2.881119
-1.276995 0.256680 2.152142
-0.373093 -0.206324 2.639682
-0.526268 -0.063434 1.952379
-0.282927 -0.271428 2.570929
-0.281427 -0.223270 2.551733
-0.214452 0.166853 2.572779
-0.671554 -0.302579 2.810885
-2.530801 -0.380328 4.038649
-0.681544 0.170939 2.506902
-0.843162 0.243710 2.453933
-0.314912 0.252915 1.682134
-0.780280 0.266641 1.949567
-1.251290 0.281404 2.092472
-1.447319 0.256159 2.341458
-0.221066 -0.049124 2.606759
-0.405370 0.065460 2.046080
-0.453591 0.181215 2.013791
-0.442109 0.229271 1.946036
-0.586229 -0.112964 2.289338
-0.648838 -0.137985 2.591008
-1.278268 0.261203 2.129884
-0.130791 -0.229497 2.199466
-0.142249 0.180290 2.317458
-0.285699 -0.161899 2.576098
-0.311331 -0.145332 2.634503
-0.286043 -0.144463 2.578192
-0.620407 -0.133226 2.591394
-0.440086 0.207447 1.871681
-0.658448 -0.130283 2.822536
-2.432911 -0.040828 3.909213
-0.180382 -0.055039 2.591549
-0.256601 0.244510 1.888177
-0.275848 0.242347 1.894514
-0.582306 -0.138564 2.917840
-0.753582 -0.306935 3.017181
-2.470698 -0.190560 3.874556
-0.123687 -0.191469 2.324129
-0.123886 -0.168017 2.313232
-0.217693 0.248253 1.907925
-0.366310 -0.133840 2.645963
-0.323748 0.177368 2.425041
-0.481165 -0.136362 2.785337
-0.512075 -0.197414 2.747390
-0.587368 -0.201230 2.832646
-0.582609 -0.213389 2.808922
-0.656155 -0.130676 2.877362
-0.634311 -0.130510 2.858351
-0.702697 -0.210529 2.938215
-1.027708 0.227549 2.756591
-2.771670 0.014542 4.362271
-2.509833 -0.039514 3.918327
-0.156184 0.194850 2.357711
-0.466097 -0.036952 1.944855
-0.241790 -0.097236 2.558520
-0.508749 -0.152873 2.728501
-0.254684 -0.115682 2.525114
-0.591251 -0.264923 2.860758
-0.264474 -0.064918 2.570045
-0.626843 -0.136003 2.903420
-0.860126 -0.307010 3.050914
-0.694596 -0.192797 2.900957
-0.414460 0.261879 1.528577
-0.172903 -0.045398 2.493229
-0.539037 0.261333 1.524457
-0.282671 0.254758 1.599970
-0.339079 0.264854 1.438966
-0.196945 0.209229 2.411749
-1.236175 0.280959 2.082140
-0.328482 0.256680 1.389740
-0.590006 0.277911 1.383631
-0.878795 0.284820 1.653940
-0.835317 0.293906 1.621002
-0.819898 0.288321 1.592293
-0.788961 0.276256 1.657970
-0.181293 -0.053215 2.536427
-0.180330 -0.064057 2.078963
-0.195045 0.212066 2.434033
-0.349049 0.214472 1.835616
-0.761543 0.270421 1.678233
-0.408773 0.256664 1.506128
-0.775827 0.271589 1.631759
-1.335704 0.299183 2.216418
-0.366530 -0.041596 1.915310
-0.493907 0.252547 1.787099
-0.196182 0.208620 2.389451
-0.339970 0.255147 1.775990
-0.137117 0.197209 2.412276
-0.130974 -0.230761 2.203782
-0.900957 0.302274 1.398675
-0.797070 0.285214 1.559761
-0.507744 0.271946 1.514630
-0.858382 0.284051 1.628360
-0.283314 0.255173 1.585818
-0.208440 0.244298 1.923531
-0.315500 0.259897 1.336670
-0.494338 0.250291 1.765881
-0.482173 0.241396 1.810544
-1.100608 0.212187 1.797284
-0.406307 0.241701 2.111884
-0.255963 0.237956 1.876618
-0.423438 0.227844 1.945596
-0.296897 -0.088384 1.885364
-1.437982 0.252948 2.322025
-1.260060 0.256490 2.092635
-0.755674 0.268525 1.794474
-0.324565 0.205357 2.355447
-0.941921 0.309228 1.575758
-1.172585 0.274507 2.157430
-1.486838 0.257014 2.423969
-0.432725 0.263900 1.581301
-0.341624 0.255774 1.778172
-0.128886 0.187315 2.353406
-0.411800 0.194694 2.068272
-0.838586 0.284055 1.605554
-0.308394 -0.055628 2.348814
-0.141605 0.178018 2.301237
-0.579557 0.250101 1.912464
-0.412408 0.196622 2.078155
-0.178402 0.235097 2.003943
-0.552670 0.268684 1.557790
-0.331963 -0.148338 2.657125
-0.651741 0.269130 1.675651
-1.347417 0.277075 2.222758
-1.446501 0.249908 2.358377
-1.266655 0.284895 2.102135
-0.312618 -0.030325 2.402003
-0.265379 -0.072920 2.616112
-0.840236 0.268543 1.891925
-2.132095 -0.249709 4.094271
-2.013687 -0.060311 3.746282
-0.441007 0.203399 1.939250
-0.959325 0.271480 2.034025
-0.574438 0.274459 1.534072
-0.325510 0.178818 2.450229
-0.768478 0.272564 1.698385
-0.309665 -0.032395 2.362191
-0.312901 0.034666 2.003107
-1.459894 0.257764 2.360482
-0.792657 0.270528 1.841866
-1.141597 0.272255 2.240608
-1.076881 0.268562 2.161102
-0.512925 -0.066221 1.995547
-0.531050 0.061644 2.118537
-2.342511 0.049194 4.180833
-2.402688 0.096273 4.211225
-1.792709 -0.025286 3.726607
-0.671767 0.246589 2.030267
-1.064592 0.260935 2.290557
-0.519658 -0.158282 2.800463
-0.977174 0.219961 2.811633
-0.693983 0.252086 1.989918
-0.554111 0.234362 2.261076
-0.568751 0.235454 2.248222
-1.458008 0.154816 2.281552
-0.947694 0.273258 2.029673
-0.282085 -0.223381 2.563823
-0.561474 0.240732 2.257281
-0.177219 0.231724 1.984154
-0.291012 -0.069893 2.569806
-0.414408 0.059086 1.941595
-0.291749 -0.226385 2.646367
-0.405971 0.060512 2.024485
-0.363374 0.234997 1.481055
-0.475246 0.221622 2.020632
-0.881022 0.299386 1.513843
-0.301925 0.264879 1.578456
-0.333783 0.226238 1.891493
-1.155652 0.265710 2.380735
-0.427958 0.055952 1.913438
-0.322489 0.043001 1.983788
-0.458542 0.219431 1.907194
-0.192991 0.234934 1.928128
-0.294806 0.258090 1.561128
-0.321862 0.133148 2.430816
-0.148066 0.151481 2.422603
-0.727004 0.276833 1.629299
-0.335937 0.046678 2.019464
-0.446888 0.279526 1.468339
-1.736264 0.255220 3.245819
-1.821471 0.157692 3.981655
-1.891963 -0.139071 3.888359
-0.903186 -0.128284 2.982576
-0.581437 -0.098546 2.304809
-0.943277 0.250158 2.306933
-1.335017 0.172118 3.500578
-0.441622 0.122570 1.965230
-0.364130 -0.040835 1.920394
-0.286455 -0.097499 2.561934
-0.141851 0.179242 2.336190
-0.238280 -0.202852 2.488806
-0.356219 -0.146066 2.479025
-0.820772 0.264237 1.866222
-0.322281 -0.144805 2.641094
-0.238995 0.237305 2.085427
-0.440035 -0.034720 1.937156
-0.292853 -0.077296 1.863164
-0.461532 0.217715 1.928568
-0.322994 0.184050 2.466091
-1.858787 -0.173818 3.872039
-1.939891 -0.113435 3.910806
-0.523991 0.248838 2.254092
-0.429538 0.217098 1.995753
-0.132977 -0.184238 2.267113
-0.200245 -0.066698 2.515006
-0.439476 0.272824 1.438152
-0.283579 -0.208717 2.576952
-0.380240 -0.280082 2.706563
-0.274023 -0.076675 2.778231
-0.576002 -0.139739 2.900144
-2.147070 -0.225703 4.170111
-0.757580 0.271606 1.801765
-2.173108 -0.221309 4.026284
-0.708954 -0.189813 2.933552
-0.240089 -0.216356 2.544297
-0.310442 -0.030884 2.385679
-0.263571 -0.073055 2.884241
-0.349888 -0.031659 1.907286
-0.374003 0.225047 1.901708
-0.370937 -0.270527 2.629766
-0.288450 -0.099058 2.579490
-1.271297 0.214593 2.011557
-0.477625 -0.082912 2.279908
-2.535654 0.026886 4.100121
-0.818565 0.280558 1.664763
-1.284507 0.256156 2.160389
-0.645087 0.256223 1.782301
-0.408103 0.212922 1.934216
-0.598836 0.123998 2.236305
-0.743026 0.254191 2.090975
-1.921517 -0.082275 3.660925
-0.375694 -0.161998 2.651936
-0.346494 0.230874 1.910869
-0.372492 -0.140364 2.688759
-0.233345 0.258568 1.853108
-1.292182 0.248660 2.703552
-0.861525 0.244187 2.185133
-0.286257 -0.084487 1.834062
-0.434746 0.121625 1.936144
-3.273514 0.052611 4.421483
-2.475614 -0.032936 4.286898
-2.629393 0.028384 4.339031
-2.604987 0.031898 4.352981
-2.614434 -0.113565 4.379485
-3.304687 0.162589 4.356595
-0.246028 -0.086957 2.627486
-0.419697 0.123739 1.945830
-0.262648 -0.068835 2.585073
-1.411360 0.113410 2.391643
-0.254788 0.236818 1.893394
-0.409310 -0.004822 1.926865
-0.240440 -0.207674 2.522372
-0.421599 0.255290 1.692114
-0.524292 0.261092 1.845743
-0.772799 -0.116233 2.519428
-1.191025 0.142028 3.116132
-0.506720 0.227152 2.139363
-0.842175 0.253335 2.200224
-0.431287 0.181360 1.995119
-1.796584 -0.088620 3.733154
-0.896114 0.200937 2.921065
-0.454208 0.242144 1.959157
-2.363367 0.040476 4.120738
-1.766369 0.242385 3.292486
-2.398366 0.250425 4.154530
-0.679437 0.271635 1.701432
-0.561487 0.273029 1.581244
-0.894195 0.255145 2.238452
-0.434564 0.128705 2.010094
-0.480757 -0.212340 2.832190
-0.287145 0.257968 1.446196
-0.394772 0.227904 1.930951
-0.750938 0.249354 2.083384
-0.437054 -0.034725 1.925099
-0.360609 -0.137137 2.657773
-0.825669 0.289953 1.603744
-0.695431 0.259186 2.034165
-0.164674 0.234423 2.083086
-0.301845 -0.067835 2.635368
-0.720146 0.286155 1.474953
-0.688084 0.251213 1.990361
-0.314892 -0.269790 2.607738
-1.174884 0.130257 3.135519
-2.353362 -0.119196 4.200509
-1.879205 0.211572 3.844294
-0.542391 0.223599 2.182073
-2.085127 -0.141237 4.003477
-1.938701 -0.002074 3.700654
-2.392247 -0.198279 4.007880
-2.147238 -0.247952 3.958683
-0.731955 0.260298 1.871715
-0.321870 0.258758 1.727167
-0.256078 -0.116925 2.565138
-0.257042 0.198294 2.621330
-1.291563 0.263552 2.148424
-0.491940 0.244352 1.823656
-0.721114 0.270314 1.758471
-0.933371 0.289149 1.722919
-0.447246 0.206688 1.962023
-0.441450 0.201831 1.935457
-0.456051 0.249733 1.784131
-1.166670 0.272429 2.270808
-0.284316 0.239006 1.885055
-1.177198 0.274315 2.285300
-0.854846 0.245513 2.358450
-1.361451 0.110096 2.316150
-0.664004 0.242172 2.055034
-2.387302 -0.237929 3.906095
-0.399947 -0.014514 1.903941
-0.314184 0.038946 1.985377
-0.273415 0.220724 2.024213
-0.360280 0.221596 2.258738
-1.259141 0.288275 2.117810
-0.435508 0.112183 1.942708
-0.686884 0.267100 1.906004
-0.689089 0.259569 1.923666
-0.454562 0.232524 1.871381
-0.592714 -0.146502 2.885303
-2.291794 -0.000891 3.817895
-2.310701 -0.202929 3.863570
-1.730685 0.235558 3.220687
-0.284379 -0.152222 2.565393
-1.416587 0.117924 2.404250
-0.643385 0.236074 2.365334
-1.078973 0.231827 2.391625
-1.478009 0.290688 2.381764
-0.756169 0.277357 1.728357
-1.711572 -0.261941 4.033352
-0.622754 -0.142910 2.628980
-1.651989 0.290370 2.852391
-1.146446 0.257551 2.533410
-1.182012 0.259855 2.497302
-2.306716 -0.081725 4.151878
-1.577305 0.150469 3.913702
-0.470578 -0.040914 1.994774
-0.478199 -0.148991 2.809632
-1.740363 0.185461 3.016668
-0.550215 -0.139572 2.806467
-0.918650 0.289993 1.708225
-0.438369 0.268164 1.601624
-1.068480 0.251176 2.735491
-0.938216 0.248515 2.289931
-1.196309 0.281446 2.202502
-1.798572 0.186208 3.998017
-0.402818 0.061693 1.997873
-0.685028 0.257422 1.913434
-0.662795 0.269957 1.690729
-0.735544 0.282788 1.569882
-0.381434 0.256807 1.565012
-0.312931 -0.072952 1.876276
-2.350538 0.065781 4.187521
-0.668803 -0.231083 2.901182
-0.241489 0.253559 1.810130
-0.447818 0.133613 2.076688
-0.901567 0.256787 2.135706
-0.864970 0.275867 1.808501
-0.599516 0.126527 2.246571
-1.807783 0.248161 3.358079
-0.775157 0.285349 1.745309
-0.334794 0.250671 1.751030
-0.324653 -0.149417 2.604081
-0.397098 -0.035091 1.880432
-0.430834 0.057904 1.936481
-0.470046 -0.205326 2.768876
-0.723140 0.248902 2.046666
-0.541616 0.267827 1.619751
-0.659923 0.272532 2.025486
-2.567079 0.015359 4.328108
-2.484116 0.030789 4.296872
-3.265963 0.339233 4.299621
-3.262060 0.317772 4.323387
-2.267092 -0.097570 4.046316
-0.422158 -0.247338 2.663641
-1.037018 0.290748 1.786345
-0.950276 0.271178 2.091744
-0.549849 -0.134904 2.793526
-0.649983 0.260204 1.971438
-0.987203 0.244494 2.463567
-2.032676 -0.136202 3.982013
-2.332868 0.241943 3.974125
-0.713113 -0.124619 2.591499
-0.432728 0.218247 2.007948
-1.283302 0.263417 2.138771
-0.774511 0.257998 2.026222
-0.469566 -0.157744 2.750281
-0.893033 0.246302 2.232341
-0.820659 0.235447 2.405680
-0.640492 -0.190882 2.833665
-1.136313 -0.151830 3.151968
-1.065450 0.224752 2.658483
-2.667137 -0.197369 4.399082
-2.192586 -0.289450 3.808228
-0.507977 -0.213697 2.734743
-0.716146 -0.136774 2.542621
-0.758138 0.265358 1.877670
-0.320060 0.064587 2.428791
-0.516406 0.258314 1.825481
-0.626186 0.224208 2.283078
-0.731072 0.246847 2.199183
-0.621721 0.222807 2.270911
-0.442763 0.104828 1.961239
-1.121576 0.263881 2.395879
-0.465423 0.220514 1.640299
-1.275893 0.290126 2.119518
-1.141562 0.263244 2.351388
-0.314226 0.060754 2.385932
-0.377484 -0.212586 2.677875
-0.377684 -0.162570 2.672818
-0.926470 0.261709 2.042598
-0.566294 -0.068411 2.075760
-2.370829 0.093697 4.162539
-0.619781 -0.124628 2.706805
-0.507894 -0.259551 2.736997
-0.414679 -0.068151 1.909473
-0.782119 0.275974 1.655428
-0.195349 0.245442 2.006514
-0.217249 0.235875 1.805754
-0.856328 0.259814 2.243394
-0.240796 -0.222028 2.517343
-2.349862 -0.097532 4.177139
-2.293528 -0.131838 3.901515
-1.477144 0.258092 2.945109
-0.781179 0.277146 1.711591
-2.416488 0.268714 4.172365
-2.297575 -0.124762 3.854506
-1.272294 0.245498 2.669672
-0.502293 0.259466 1.804190
-0.865720 0.273867 1.934883
-1.318890 0.255962 2.757997
-0.597433 0.064873 2.240317
-0.715763 0.260623 1.914863
-0.433908 -0.169051 2.742416
-0.467895 -0.219571 2.751684
-2.051416 0.288721 3.324960
-0.580399 -0.094115 2.204882
-2.140158 -0.132221 3.973873
-1.006930 0.224611 2.728216
-2.275693 0.248016 4.085448
-2.321490 -0.270386 3.952482
-0.552777 -0.136974 2.821508
-1.363085 0.253265 2.797238
-0.595697 0.247618 2.017618
-2.312625 -0.084633 4.172821
-0.242343 -0.064755 2.581934
-0.381745 -0.039417 1.901830
-0.638593 0.272395 1.670638
-1.230659 0.144772 3.289964
-2.254292 0.187533 4.036924
-0.409683 0.053531 1.891942
-0.596949 0.180905 2.208626
-1.639191 0.268755 2.803838
-0.528441 -0.062563 1.958832
-0.674622 0.249170 2.093737
-2.338886 -0.029780 4.076057
-0.845412 0.271011 1.903238
-0.791718 0.252636 2.141522
-0.457737 0.182161 2.034444
-1.823866 0.018816 3.681902
-0.938056 0.147542 2.842661
-2.076976 -0.270669 4.094931
-1.961928 0.039368 3.806565
-0.787121 -0.183448 2.959398
-1.714167 -0.145199 3.742002
-0.522254 -0.251591 2.781548
-0.439949 0.226094 1.927054
-2.193484 -0.227052 3.917088
-1.960756 0.238385 3.724009
-0.745129 0.264072 1.903420
-0.579209 -0.145542 2.882906
-0.429901 -0.138924 2.701683
-0.680668 0.249351 1.998562
-0.591004 0.269430 1.606280
-0.719110 0.272847 1.611373
-1.753017 0.257855 3.270855
-0.978513 0.278350 1.954983
-0.792390 0.278711 1.672934
-2.651797 0.015958 4.296468
-2.485315 -0.122550 4.152197
-1.109072 0.260122 2.370267
-0.283082 -0.209699 2.566831
-0.749760 -0.119700 2.616295
-0.666095 -0.126662 2.561420
-2.147567 -0.259259 3.926487
-0.620284 0.259773 1.967388
-0.290969 -0.085233 1.868124
-0.511611 0.258941 1.737760
-0.728506 0.266972 1.959977
-0.736275 0.253547 1.848038
-0.478462 -0.135956 2.772854
-1.929125 0.174631 3.743597
-1.796757 0.009147 3.787864
-0.842016 0.242729 2.419471
-0.795677 -0.186858 2.991144
-1.266273 0.201686 3.379215
-0.649583 0.177255 2.359413
-0.698534 0.176375 2.560662
-0.549407 -0.203357 2.806619
-0.256250 0.197704 2.603636
-0.454086 0.113978 2.030067
-1.001168 0.256227 2.395260
-1.784492 -0.161275 3.794514
-0.415832 0.112861 1.930936
-0.439644 0.168442 1.961032
-0.363214 0.230161 2.282290
-0.916750 0.259707 2.118342
-0.892214 0.254459 2.259932
-0.544610 0.136373 2.209439
-2.090244 -0.082703 3.934196
-2.111244 -0.119652 3.984773
-0.620214 0.230953 2.149728
-0.421346 0.117648 1.959824
-0.800107 0.258179 1.831897
-1.908159 -0.083288 3.639021
-0.754653 -0.252931 3.004567
-2.422834 0.272886 4.180455
-2.173523 -0.294892 3.900037
-2.275429 -0.338319 4.211974
-2.353233 0.017634 3.969951
-0.996968 0.225597 2.706344
-2.368879 0.122057 4.115846
-0.553831 -0.214131 2.827915
-0.522895 -0.065820 2.028124
-0.425121 0.224638 1.931497
-1.776039 0.247296 3.308959
-1.062186 0.273014 2.152951
-0.466964 -0.140092 2.733303
-0.403013 0.196561 2.065510
-0.241614 -0.079083 2.552411
-0.836505 0.250071 2.183956
-0.681325 0.260257 2.044754
-1.421274 0.232083 3.235777
-1.989853 0.218158 3.795916
-1.246097 0.253680 2.663285
-0.868566 0.254746 2.237068
-0.729182 0.245865 2.193867
-1.937097 0.035589 3.751664
-0.410932 0.129886 2.052003
-0.477323 0.246061 1.878373
-0.662904 0.264885 1.831172
-1.939024 0.235182 3.688882
-0.598408 0.058873 2.246816
-0.688122 0.272407 1.727734
-0.286024 -0.069993 1.849431
-0.627722 0.236965 2.181036
-0.408374 0.134121 2.047971
-2.330639 -0.029252 4.065094
-0.426217 -0.135236 2.685183
-0.894910 0.186511 2.617294
-2.530857 0.025512 4.113839
-2.177821 -0.220153 4.032853
-1.348902 0.071072 3.500607
-1.793506 -0.140483 4.026905
-0.596167 0.179538 2.199448
-1.613665 0.301103 2.810529
-1.696805 0.298491 2.915388
-0.584433 -0.008757 2.167938
-0.933512 0.203827 2.655734
-0.574332 -0.143594 2.872200
-2.498051 0.001030 4.144632
-1.154777 0.255470 2.536972
-0.977248 0.280676 1.957454
-2.460869 -0.029175 4.256122
-2.462557 0.047455 4.268541
-0.813180 0.292195 1.781897
-0.253679 0.190393 2.560050
-1.111941 0.248288 2.601753
-0.533246 -0.063020 1.976930
-3.360808 0.281057 4.371269
-2.790950 0.243834 4.538482
-2.651674 0.025169 4.359102
-2.429791 0.101277 4.254477
-3.325293 0.054027 4.344268
-3.234926 -0.085611 4.378435
-3.157066 0.060986 4.378662
-2.800112 0.033345 4.486615
-3.279691 -0.086637 4.470428
-2.869926 0.237781 4.567365
-3.226423 0.004807 4.374071
-2.764614 0.240778 4.520776
-0.926910 0.264715 2.357633
-0.984617 0.251821 2.363571
-2.287346 -0.201515 3.891641
-0.517549 -0.153686 2.782990
-0.655148 0.245774 2.129392
-2.460024 0.013846 4.136634
-0.463932 0.139434 2.168416
-2.775614 -0.036867 4.407723
-3.283686 -0.048941 4.372799
-3.406352 0.027878 4.449929
-3.379897 0.085158 4.339622
-2.943343 0.310342 4.431615
-3.597024 0.103459 4.357025
-3.265282 -0.058712 4.347753
-2.675291 -0.005686 4.350784
-3.241948 0.021924 4.326394
-2.390310 0.190501 4.259017
-0.322027 -0.163547 2.643484
-0.396554 -0.068551 1.890746
-0.385130 -0.040566 1.888297
-0.848099 0.274724 1.766940
-0.504379 0.066751 2.096720
-0.574283 0.046121 2.158615
-0.792405 0.262087 1.992263
-0.615947 0.063890 2.328315
-0.410912 0.127362 2.032487
-2.179601 -0.130135 4.029435
-2.046452 -0.080781 3.738765
-1.905779 -0.022961 3.649610
-2.207018 -0.280998 3.905585
-0.427637 0.178775 1.991357
-0.407522 -0.069523 1.934590
-0.498303 0.064427 2.122155
-2.140493 -0.171047 4.078529
-0.560178 -0.072289 2.100417
-0.622666 -0.139854 2.846503
-2.337930 0.267768 4.215151
-1.931615 -0.181084 4.031802
-0.735138 -0.104568 2.482217
-1.923055 -0.181900 4.009351
-1.901001 -0.166435 3.977550
-1.363297 0.199734 3.437871
-1.849226 0.162691 3.893792
-2.218936 -0.167366 4.101562
-1.052274 0.260830 2.265937
-1.888455 0.211619 3.858458
-0.977688 0.223026 2.783656
-0.978788 0.270823 2.054807
-0.741594 -0.201964 2.950401
-1.781580 -0.019731 3.807356
-1.371810 0.212098 3.498345
-2.138054 -0.240814 4.007722
-0.558683 0.253525 1.840093
-0.322677 0.147315 2.440999
-0.609488 0.252479 1.943040
-0.532243 0.066102 2.181836
-2.172420 -0.134603 4.059487
-2.241314 -0.311256 3.885495
-0.397691 0.052448 2.058956
-1.565835 0.213585 3.899406
-0.941026 0.260302 2.130895
-0.851719 -0.170131 2.887028
-1.879808 -0.239177 4.100708
-1.788606 -0.236191 3.994686
-1.719579 -0.139193 3.703361
-1.347559 0.171139 3.461801
-0.780578 0.252245 2.135983
-2.312716 -0.189024 3.885243
-0.773283 0.262926 1.931634
-0.871346 0.278118 1.819426
-1.130314 0.291553 1.949358
-2.142564 -0.142455 3.981456
-2.236480 -0.236668 4.007993
-2.395441 -0.100333 4.243601
-0.379851 0.257282 1.641679
-0.631699 0.269653 1.653849
-0.448079 0.254871 1.643348
-1.087459 0.253443 2.478385
-2.200644 -0.031592 3.847012
-2.101922 -0.245930 4.035179
-2.214205 -0.145118 4.057721
-0.474112 -0.143411 2.783559
-0.965010 0.248772 2.326155
-0.591530 0.116309 2.190064
-0.714184 0.239125 2.293113
-1.075958 0.266889 2.240971
-0.889297 0.252564 2.226331
-1.062292 0.262372 2.215598
-0.721842 0.249555 2.021125
-0.620048 0.239711 2.097994
-0.673426 0.258988 1.868388
-2.230526 0.303886 3.793954
-0.557535 0.267640 1.707421
-1.056811 0.259585 2.477173
-1.478868 0.248480 2.907215
-0.425806 -0.230137 2.691751
-0.252728 -0.180598 2.535562
-0.782139 0.256129 1.964966
-0.404316 -0.068250 1.905320
-0.429924 -0.199586 2.691590
-2.809553 0.311959 4.259089
-3.438317 -0.068203 4.369444
-3.554203 0.152583 4.466052
-3.620767 0.030349 4.364958
-3.353010 0.029984 4.389617
-2.731970 0.306635 4.227938
-2.890132 0.230860 4.556929
-2.391671 0.259722 4.289066
-2.573301 -0.109260 4.331223
-3.712922 0.393564 4.421274
-3.166919 0.422338 3.986776
-0.760866 -0.192287 3.025778
-0.706532 -0.122165 2.561012
-2.348830 0.045700 4.000300
-0.886196 0.252712 2.247659
-1.592113 0.206912 3.971029
-1.525771 -0.130570 3.570596
-1.761390 -0.129092 3.752188
-0.787532 -0.098592 2.499446
-1.766971 -0.231195 4.034124
-2.131277 -0.141038 3.939977
-0.941373 0.215512 2.979432
-0.690769 -0.097325 2.391691
-2.365875 -0.241227 4.021213
-0.515095 -0.137692 2.766247
-0.651705 0.175953 2.401232
-0.553913 -0.006841 2.058305
-0.576659 -0.193970 2.768994
-0.870976 0.245602 2.207400
-1.145669 0.263914 2.358037
-0.359699 -0.038714 1.899969
-0.748054 -0.143279 2.648343
-0.703000 0.237269 2.194440
-2.241028 0.238337 4.029756
-2.857670 0.161036 4.469881
-3.211379 0.005519 4.326253
-2.523520 -0.081654 4.282915
-3.556747 0.114571 4.377160
-2.735318 -0.099161 4.386001
-2.873411 0.163867 4.490796
-2.540172 -0.009796 4.306918
-2.995713 0.354564 3.996066
-2.438084 0.190534 4.365708
-2.547213 0.030326 4.318701
-2.548548 0.269605 4.308754
-1.041877 0.242125 2.563638
-0.565425 0.046392 2.141649
-2.119408 -0.171388 4.147916
-2.085987 -0.118145 3.979699
-1.815324 0.155874 3.966205
-1.765539 -0.035483 3.920028
-0.413928 0.114644 1.949501
-0.425872 0.038601 1.903062
-0.794529 0.227242 2.417162
-1.884751 0.033989 3.657004
-1.174546 0.268390 2.393755
-1.447279 0.239466 3.294368
-1.881209 0.033160 3.652337
-0.668216 0.166128 2.453655
-1.811785 0.008206 3.815866
-0.404236 0.058517 1.997945
-0.588739 -0.012050 2.203227
-0.366428 0.217468 1.861587
-1.893756 0.254656 3.874185
-0.423200 -0.072551 2.003677
-0.937673 0.211006 2.858088
-2.487423 0.038730 4.317797
-2.481879 -0.010890 4.292835
-3.369390 -0.038235 4.330166
-2.557086 0.014589 4.310279
-2.596910 -0.086648 4.334469
-2.781293 0.237108 4.513879
-0.906156 0.256379 2.188210
-1.249399 0.214559 3.338898
-2.028411 -0.144471 3.969671
-2.162753 -0.231952 4.045077
-2.212483 -0.140976 4.038780
-1.753328 0.191892 4.128585
-0.720394 0.258948 2.081812
-1.876535 -0.167669 3.980224
-0.836740 0.237688 2.365875
-0.537594 0.248646 1.879737
-0.635703 -0.210758 2.803033
-2.349511 -0.131950 3.992169
-2.305389 0.241768 3.995682
-1.775467 -0.232577 4.056016
-1.771200 -0.263754 4.102781
-1.195436 0.142344 3.133288
-1.748402 -0.229257 3.994159
-1.735082 -0.130956 3.832156
-1.736395 -0.097365 3.864607
-1.871103 -0.265619 4.237501
-0.610698 -0.133052 2.789056
-2.153892 -0.134392 4.025907
-1.950223 0.178762 3.781445
-0.939792 0.267085 2.073675
-0.925617 0.153348 2.756807
-0.545320 -0.220069 2.834864
-2.277640 -0.257289 3.833330
-2.229765 -0.256333 4.112912
-0.624158 0.241372 1.907347
-1.648364 0.240607 3.461580
-0.909609 0.200482 2.770220
-2.024702 -0.137947 3.953583
-1.326458 0.190678 3.351596
-2.135917 -0.134373 3.997132
-0.727553 -0.119353 2.562730
-2.441993 -0.258867 3.980677
-0.757236 0.216950 2.520061
-2.429877 -0.097968 3.958893
-2.330189 -0.137626 3.959288
-1.836663 0.273546 3.037763
-1.867681 0.209018 3.825750
-2.380942 -0.112032 3.985366
-2.062013 -0.127606 4.111240
-0.740267 -0.115685 2.564929
-1.911664 0.254925 3.504048
-1.309385 -0.114913 3.311364
-2.439568 0.404425 3.750493
-1.195316 -0.011570 3.115036
-2.164876 -0.128375 4.006649
-0.771028 -0.210880 3.073386
-0.570675 -0.155619 2.823979
-1.246702 0.211710 3.321045
-1.810134 0.154871 3.950495
-1.554146 -0.203531 3.800660
-0.770668 -0.099307 2.510303
-1.513218 -0.124313 3.524036
-3.264705 0.203811 4.320068
-2.609048 0.027311 4.303327
-3.356734 0.334590 4.365846
-2.499623 0.150065 4.318458
-3.316978 0.268352 4.334002
-2.490902 0.039344 4.327684
-0.873999 -0.206275 3.090810
-1.752018 -0.150475 3.771278
-1.767667 0.210124 4.150453
-0.675529 -0.109932 2.379022
-1.778738 -0.137544 3.992117
-1.720561 -0.208307 3.887803
-1.439098 0.261423 2.908134
-0.444171 -0.034046 1.983844
-1.421972 0.302409 2.595286
-0.583846 -0.071142 2.174294
-1.459654 -0.196943 3.619345
-0.893516 0.138422 2.650608
-1.553926 0.263659 3.146452
-1.593013 -0.035918 3.570307
-1.554036 -0.234922 3.687107
-2.714632 0.022307 4.379584
-1.156172 -0.171535 3.381300
-1.301303 0.114087 3.467708
-1.184242 -0.191443 3.353266
-1.304567 0.070520 3.457524
-1.298996 -0.030970 3.259427
-2.854753 -0.019058 4.483953
-3.362569 0.083262 4.398837
-3.144129 0.332640 4.358294
-3.675645 0.119511 4.461145
-2.511844 0.044259 4.255915
-1.688491 -0.216290 4.014487
-1.887188 0.168812 3.809104
-1.482550 -0.190768 3.539079
-0.437067 -0.032278 1.893895
-0.729907 0.233932 2.220283
-0.503652 -0.061995 1.937960
-1.254804 0.253137 2.678384
-1.807136 -0.103205 3.722686
-1.682247 0.241745 3.438617
-3.266886 0.062299 4.443992
-2.553514 0.428229 3.584684
-1.628956 0.229327 3.414232
-3.375458 -0.041750 4.398422
-2.492857 -0.151368 4.240872
-3.697586 0.158816 4.445719
-2.753677 -0.025894 4.403711
-2.539142 -0.125229 4.262049
-3.294873 -0.024713 4.395250
-2.318381 0.328791 3.873921
-3.116174 -0.082952 4.642917
-2.464513 0.010019 4.257943
-2.099017 -0.258475 4.115571
-0.490597 0.241052 1.779898
-0.672515 0.265647 1.774107
-0.720969 0.260229 1.881225
-0.761527 -0.128937 2.522111
-2.072391 -0.226345 4.161375
-1.315653 0.228490 3.512816
-0.595005 -0.113245 2.329521
-1.765580 -0.229612 3.910298
-1.817600 -0.231425 3.968600
-0.491957 0.223708 2.104500
-0.509473 0.239212 2.196567
-0.347535 -0.031830 1.895930
-3.118986 0.346558 4.318163
-3.556325 0.045207 4.367170
-3.720575 0.122528 4.370814
-2.387190 -0.164064 4.252493
-2.469954 -0.033492 4.278108
-3.551283 0.332511 4.274153
-3.643682 -0.020362 4.384176
-2.429091 -0.021102 4.331102
-2.602213 -0.013856 4.343547
-2.559077 0.037722 4.313775
-2.899988 0.276100 4.414770
-2.597760 -0.013284 4.335391
-2.317253 0.113826 4.186371
-2.290056 -0.163127 4.223334
-2.801635 0.314650 4.251159
-2.670815 -0.004839 4.345489
-2.682168 0.026859 4.357245
-2.784514 0.322833 4.132012
-2.847612 0.307010 4.321905
-2.720072 0.314438 4.156093
-0.610870 0.193252 2.291532
-1.278276 0.206253 3.395033
-0.785248 -0.099108 2.482892
-1.456407 -0.111487 3.465586
-1.447464 0.243265 3.162853
-1.198992 -0.009642 3.117891
-1.297954 -0.107619 3.248993
-1.448182 0.235122 3.136094
-1.825799 -0.236458 4.031023
-0.608127 0.214606 2.206458
-0.508735 0.122884 2.091768
-2.339699 -0.086591 4.201554
-3.494396 0.013621 4.366781
-2.578008 -0.061607 4.329451
-3.555268 0.024392 4.366151
-2.766549 0.029295 4.450753
-2.271056 -0.137635 4.185888
-3.582117 0.052716 4.337348
-2.906876 0.277678 4.421731
-3.238024 0.318333 4.322244
-2.791600 0.263228 4.403378
-2.871921 0.079625 4.459106
-2.866601 -0.101293 4.396661
-3.310459 0.160759 4.359370
-3.337146 0.061134 4.353668
-2.868137 -0.120861 4.403784
-3.319411 -0.058977 4.600623
-2.677987 0.095944 4.450458
-1.234245 0.290248 2.271059
-2.508386 0.277063 4.259356
-0.397087 0.049961 2.043946
-0.547294 0.130994 2.176091
-1.613174 0.281716 2.795661
-0.870312 0.201269 2.908980
-1.896296 -0.146616 3.897357
-1.086829 -0.170079 3.077559
-1.086771 0.229326 2.701077
-1.699816 -0.252107 3.943631
-1.774864 -0.238008 4.022196
-1.607157 -0.168396 3.829763
-1.085536 0.253254 2.749045
-1.406650 0.281329 2.466899
-0.426869 -0.157526 2.625929
-1.762775 -0.134893 3.960685
-2.320109 -0.015774 3.916657
-0.410254 -0.071466 1.952612
-1.843311 0.277709 3.427967
-2.863385 0.305514 4.328290
-1.885898 0.266090 3.461828
-3.134866 -0.010492 4.464197
-3.220335 -0.010601 4.550410
-1.921208 0.290787 3.520667
-3.280691 -0.020505 4.653879
-1.651814 0.239406 3.464801
-1.631927 0.012525 3.612002
-1.587657 -0.121276 3.598744
-1.662367 0.291141 3.219084
-1.732681 0.141888 3.669508
-2.403167 -0.127513 4.024344
-1.771295 -0.026161 3.694266
-1.054020 0.243400 2.520624
-1.074913 0.268730 2.271633
-0.514104 0.123403 2.117797
-1.316608 0.067074 3.415826
-1.794698 -0.134359 4.075275
-1.657870 -0.222523 3.930094
-1.270767 0.063524 3.300916
-0.962022 0.177310 2.883761
-1.695929 -0.161361 3.958790
-1.701863 -0.216648 3.981191
-0.739325 -0.116180 2.530141
-2.426768 0.221251 4.112468
-2.089392 -0.233144 4.070632
-2.038740 -0.222521 4.101088
-0.865281 -0.125990 2.735317
-0.620137 0.192649 2.245456
-1.010609 0.248051 2.356135
-0.584778 -0.005143 2.185845
-1.082348 0.253816 2.466218
-2.483703 -0.252983 4.196094
-2.359562 0.190780 4.203628
-2.520664 0.223636 4.246739
-0.531130 0.183789 2.138617
-2.472830 -0.151197 4.076797
-0.723229 -0.128129 2.633437
-0.939852 0.158622 2.808925
-1.975931 -0.118661 3.963203
-1.981853 -0.152913 3.982236
-2.301322 -0.043321 3.903618
-2.264755 -0.260049 3.988745
-1.306975 0.099571 3.452310
-1.052113 0.248544 2.450893
-1.096144 0.262126 2.396177
-3.288293 -0.047078 4.378012
-3.478452 0.359840 4.438627
-3.238325 0.020983 4.390321
-2.482905 0.320180 3.885810
-3.406263 0.042444 4.345528
-3.312161 0.005688 4.439733
-3.477046 0.044333 4.364789
-2.019087 0.221905 3.833711
-1.754093 0.335961 3.166651
-2.705738 -0.132425 4.445014
-1.194250 -0.023007 3.117099
-1.260968 -0.014104 3.277946
-1.217824 0.231825 2.859080
-1.064828 -0.115844 3.019006
-1.294193 0.203022 3.162885
-2.135750 -0.143126 3.969907
-1.915219 -0.134210 3.889191
-1.214968 0.140866 3.244321
-1.819018 0.214131 4.274032
-0.761553 -0.107691 2.633765
-0.858078 -0.224724 3.120957
-1.685088 0.191305 4.040617
-1.114244 0.239948 2.624249
-0.648769 -0.101504 2.417488
-2.577940 -0.020832 4.210649
-1.067436 0.244906 2.436439
-2.327217 -0.199601 3.959509
-2.141644 -0.235152 4.011729
-1.719181 -0.136482 3.721136
-1.524947 -0.180000 3.842528
-1.359520 0.233544 3.033642
-1.450946 0.239692 3.158063
-1.128552 -0.148855 3.131559
-2.500775 -0.116060 4.169995
-0.504179 0.061275 2.137008
-0.595186 0.178958 2.196600
-3.247545 -0.015636 4.386320
-3.681441 -0.026814 4.948279
-2.621744 -0.058432 4.332248
-2.484607 0.153313 4.292459
-3.491761 0.285088 4.430856
-3.319662 -0.069148 4.701508
-3.310633 0.245456 4.355210
-3.324046 -0.043292 4.347635
-2.613393 -0.111133 4.366343
-2.778979 0.020809 4.447908
-2.299899 -0.024131 3.661662
-2.586254 -0.038295 4.329194
-3.218858 0.013864 4.301713
-2.630107 -0.077325 4.290533
-1.739487 -0.047905 3.861780
-1.291739 -0.175804 3.431191
-1.126294 0.230508 2.747119
-1.274193 0.041906 3.355390
-1.737813 -0.120494 3.736796
-1.203784 0.227723 2.834067
-1.011947 0.218205 2.578720
-1.192861 0.056248 3.098078
-0.864665 0.236982 2.291903
-0.547669 0.039408 2.042034
-0.804823 0.207330 2.302242
-0.924179 0.240094 2.347700
-0.582754 0.058674 2.150367
-0.903556 0.198336 2.842496
-0.751970 -0.115390 2.502194
-1.002889 0.224925 2.588354
-0.607992 0.113713 2.208691
-0.590937 0.126100 2.184314
-1.080849 0.243023 2.539569
-1.013679 0.239148 2.556930
-2.594603 0.025125 4.330918
-1.268512 0.041640 3.335654
-1.030273 0.252606 2.386428
-1.706169 -0.020286 3.659705
-2.584682 0.029291 4.169611
-1.932332 -0.153062 3.969777
-2.071201 -0.168051 4.063139
-0.902919 0.139826 2.737446
-0.737258 -0.183918 2.911942
-0.865775 0.230554 2.444653
-0.695048 0.186987 2.468965
-0.662581 -0.173892 2.709001
-1.768454 -0.172531 4.091208
-2.201301 -0.158972 4.050493
-2.572845 0.290860 4.354095
-0.658929 -0.176334 2.852914
-0.812006 -0.253280 4.829830
-0.936611 0.263241 1.991673
-0.423297 0.200234 1.928375
-0.994716 0.261639 2.135132
-1.710329 -0.024231 3.804770
-1.313215 0.163765 3.381047
-1.274119 0.062836 3.406236
-1.615464 -0.172599 3.898323
-1.076034 0.270421 2.152241
-0.973335 0.212836 2.628560
-1.147919 0.224234 2.755321
-1.904890 0.170505 3.835104
-0.784379 -0.103193 2.558338
-1.761957 0.013731 3.860414
-0.431364 0.110251 1.929262
-0.605777 0.219079 2.095292
-0.609147 0.230075 2.054087
-0.537673 0.228158 2.045537
-2.082212 -0.146299 3.942618
-3.096453 0.299257 4.342758
-2.691272 0.238853 4.477346
-3.180592 0.311380 4.327056
-2.860847 0.271159 4.552231
-2.823980 0.277594 4.545856
-3.557263 0.311092 4.423690
-2.505688 0.222942 4.339055
-2.512837 0.279174 4.269228
-2.639734 -0.141912 4.374669
-3.278152 0.334599 4.320275
-0.691252 0.134664 2.398309
-0.778785 0.228531 2.331810
-2.196908 -0.168046 4.058436
-1.453343 -0.114983 3.480281
-1.588480 -0.168969 3.836673
-1.594628 -0.168360 3.851043
-1.373218 -0.181030 3.415093
-1.495180 -0.200106 3.699404
-1.163272 0.076140 3.059144
-2.265547 -0.246988 3.944146
-1.215458 0.257222 2.611113
-0.856629 0.174135 2.736120
-0.817229 0.232280 2.393162
-1.697241 0.010180 3.724694
-1.872636 -0.229682 4.094541
-1.707525 -0.034228 3.832921
-1.159398 0.268351 2.399631
-0.470414 -0.142968 2.765157
-1.171285 0.255926 2.586555
-1.567522 0.286437 2.745458
-1.264369 0.108953 3.364910
-2.298698 0.089792 4.052451
-0.752743 -0.112420 2.659882
-1.571854 -0.115717 3.584248
-1.542254 -0.136326 3.604233
-0.680297 0.237766 2.026898
-0.595636 0.059378 2.224374
-2.897799 0.234694 4.564780
-3.339747 0.286887 4.355770
-2.663499 -0.032399 4.341939
-2.832050 0.225152 4.550819
-3.198293 0.064535 4.363410
-1.117006 -0.035149 2.997380
-1.135466 0.045345 3.014628
-1.101632 0.027989 2.935976
-0.849001 0.173211 2.713948
-1.299099 0.289212 2.444276
-1.984010 0.184425 3.836173
-2.008668 -0.123588 4.008441
-2.387743 -0.205051 4.053141
-0.933293 0.257754 2.106127
-1.954479 -0.124655 3.931929
-0.522573 0.062134 2.109368
-2.259999 -0.138293 4.114255
-3.118784 0.008406 4.469751
-2.555738 -0.178351 4.245130
-3.537610 0.087429 4.479574
-3.252648 -0.047784 4.636407
-1.580309 0.229821 3.456287
-3.012008 0.414891 3.762779
-3.070044 0.409273 3.865161
-2.148840 -0.183329 4.178368
-2.833735 0.266586 4.436789
-0.435954 0.164444 1.941837
-1.952216 -0.174929 4.133249
-1.759507 0.152816 3.445080
-0.612887 -0.133189 2.788612
-1.192470 0.279682 2.305292
-0.586535 0.061117 2.179784
-3.177331 0.031158 4.403071
-3.219077 0.065426 4.447270
-2.846725 0.067141 4.518937
-2.540181 0.050695 4.296189
-0.405960 0.223967 2.027123
-0.399011 0.209196 1.954569
-2.501818 -0.139680 4.292103
-2.610540 -0.034666 4.322255
-2.617822 0.011174 4.330113
-3.325015 0.369766 4.249499
-2.693290 0.296454 4.276831
-2.864823 0.275246 4.560196
-2.858022 -0.080150 4.416136
-2.395679 -0.036332 4.265777
-3.270435 -0.087889 4.461313
-2.843826 -0.014858 4.474914
-3.596555 -0.079330 4.374503
-3.448701 0.132370 4.411032
-3.553740 0.108110 4.353209
-2.542294 0.279435 4.240468
-3.270400 0.033399 4.306096
-2.833205 -0.039481 4.472413
-0.478866 -0.027031 1.946349
-0.716261 0.194098 2.429246
-0.593667 -0.176649 2.679293
-1.685009 -0.099854 3.775421
-0.538685 0.163827 2.382469
-1.258955 0.098795 3.285785
-0.936099 0.211101 2.855453
-2.338235 0.226808 4.003975
-0.863169 0.177015 2.756247
-2.631668 0.028565 4.342906
-3.507459 0.306799 4.401864
-2.669680 0.011279 4.349567
-3.436552 0.098215 4.331697
-2.895094 0.198319 4.564274
-1.169430 0.252708 2.576774
-0.686826 -0.117691 2.595627
-0.588718 0.221498 2.202696
-1.075845 0.260825 2.335036
-1.233994 0.240257 2.910053
-0.832415 0.234215 2.354652
-2.334030 0.123995 4.060652
-1.844429 -0.153626 4.067872
-2.544531 0.028287 4.311244
-2.341581 -0.247031 3.971343
-1.785103 0.188409 4.176779
-1.891011 0.220605 3.848775
-1.823279 -0.243596 4.122443
-2.030954 -0.234110 4.145966
-1.589793 0.203594 3.955272
-1.021573 -0.199788 3.101912
-0.420557 -0.071836 1.972004
-1.756332 -0.146182 3.879733
-2.857075 0.073511 4.460611
-2.424798 0.222396 4.330554
-2.616651 -0.035078 4.331588
-2.613224 -0.062179 4.326787
-0.911945 0.265337 2.147877
-0.400960 0.220172 2.004383
-1.050561 -0.043947 2.809238
-1.099860 0.219964 2.784801
-2.634930 0.015531 4.366663
-3.314626 0.082371 4.342709
-2.652597 -0.060471 4.352182
-3.284253 0.028273 4.337235
-2.787296 0.253503 4.624781
-1.702660 0.247691 3.477398
-1.726920 -0.180194 3.742245
-2.158941 -0.171367 4.102684
-1.847199 -0.177427 3.877531
-1.666450 -0.195112 3.700161
-0.756460 -0.115530 2.480422
-1.938072 0.338528 3.217721
-0.543414 -0.194325 2.768940
-0.962348 0.220714 3.078878
-0.726614 -0.099111 2.455014
-2.376559 -0.171109 4.033390
-2.209584 -0.269133 4.033310
-1.825192 0.203362 3.766227
-1.089396 0.259701 2.384535
-2.315868 0.037207 4.047182
-0.433698 0.196001 1.894932
-0.423441 0.198633 1.928034
-1.687447 -0.257663 3.978344
-1.750726 -0.232520 4.062727
-1.714217 -0.250334 4.047365
-1.071368 0.251581 2.444433
-2.047247 0.274943 3.609863
-0.432708 0.107197 1.910605
-0.540218 -0.007945 1.994748
-1.300227 -0.170799 3.357734
-1.330746 -0.151015 3.372377
-1.793892 -0.231505 3.959706
-3.341428 0.331864 4.355759
-2.477491 0.271049 4.364578
-2.578321 0.015121 4.347491
-2.461730 -0.121126 4.346324
-2.885455 0.145424 4.550348
-2.413960 0.203622 4.311613
-0.890628 0.136354 2.657660
-2.756579 0.093867 4.306401
-0.881911 -0.095628 2.595079
-2.563711 -0.038707 4.099336
-2.604478 0.008673 4.225941
-2.395134 -0.066349 4.068713
-2.740812 0.310168 4.240840
-3.819820 -0.088081 4.341964
-0.540673 -0.129766 2.702453
-0.921248 0.249122 2.253855
-2.236298 0.198845 4.014597
-1.385264 0.101430 3.541867
-1.035248 0.241375 2.549467
-0.584945 -0.124301 2.604285
-0.696656 0.181298 2.433918
-0.675275 -0.111184 2.538425
-1.106130 0.240938 2.679595
-0.534500 -0.182184 2.662028
-2.210774 -0.129414 4.075169
-1.743928 0.007742 3.684842
-0.982114 0.217021 2.540534
-0.873642 -0.078168 2.689427
-1.694832 -0.128055 3.870921
-2.129248 -0.218719 4.079541
-1.219929 0.059713 3.177278
-1.269310 -0.155097 3.291559
-1.206926 -0.138619 3.191385
-1.253184 -0.141813 3.271215
-0.843358 0.169966 2.685442
-1.191323 0.016560 3.119373
-1.197020 0.034162 3.123987
-0.858923 0.218301 2.397916
-1.126095 0.267136 2.446297
-2.470848 0.051600 4.357763
-2.486589 0.227406 4.392119
-2.570310 -0.031018 4.331172
-2.492443 -0.017302 4.272511
-3.310774 0.080334 4.356595
-3.256551 -0.112756 4.396464
-2.739527 -0.029153 4.402106
-3.411149 0.096817 4.317381
-2.716562 0.122980 4.465990
-3.345145 -0.059041 4.315315
-2.934497 0.305323 4.409446
-2.871691 0.273442 4.419126
-2.536578 -0.042574 4.305592
-2.607409 -0.110409 4.361577
-3.379491 -0.062596 4.323822
-2.885696 0.242926 4.549470
-3.497845 0.302906 4.388113
-3.611075 0.240098 4.299022
-0.897026 0.140486 2.663002
-1.941522 -0.080111 3.706737
-1.256065 -0.196913 3.493058
-0.587475 0.169455 2.146520
-0.581031 -0.005265 2.155384
-0.740832 -0.146956 2.667949
-1.155210 0.230486 2.786807
-1.971666 -0.256351 4.431926
-1.195161 -0.192727 3.380433
-1.797000 -0.134492 3.955825
-1.656719 -0.124636 3.666521
-1.142113 -0.183350 3.238449
-1.855662 -0.174158 3.911098
-1.930104 -0.152025 3.909984
-1.186593 -0.166607 3.225748
-1.383766 0.092182 3.698971
-1.274574 0.083660 3.409155
-2.688747 0.016778 4.240211
-1.465062 0.260481 2.906251
-0.876178 -0.079074 2.699723
-1.857327 0.246712 3.823734
-2.028909 0.227752 3.853280
-2.419619 0.257011 4.177824
-2.068454 -0.116476 3.948722
-2.620401 -0.022513 4.186023
-0.756733 -0.111494 2.582505
-2.440991 0.012998 4.067056
-2.420407 0.215793 4.203791
-1.316909 0.108925 3.299709
-0.782005 -0.103780 2.548142
-2.311176 0.210455 4.024638
-1.579589 0.155933 3.934315
-1.839184 -0.132754 4.014551
-2.681600 0.029152 4.355951
-3.493742 -0.060117 4.365047
-1.007071 0.268896 2.294664
-0.560578 0.042030 2.097793
-0.517554 0.238320 2.194294
-0.588501 -0.072528 2.216543
-1.196026 0.083910 3.162035
-0.818756 0.195248 2.554795
-2.485651 -0.065858 4.359859
-2.495365 0.150615 4.306536
-2.105681 -0.202159 4.098330
-2.580825 0.011390 4.334676
-1.412696 -0.150121 3.437339
-1.288450 -0.106213 3.245713
-1.851624 -0.131019 3.951288
-1.203596 -0.155629 3.216444
-1.017331 -0.000504 2.713397
-1.065952 0.138834 2.845013
-0.858906 -0.077487 2.643730
-2.241576 -0.017019 4.097080
-2.479802 0.256194 4.288640
-2.949802 0.336115 4.188044
-2.568697 -0.109685 4.322164
-2.550092 0.283527 4.249388
-2.412232 0.284475 4.080759
-2.529749 0.257403 4.279479
-3.576305 0.341097 4.295349
-2.333573 0.048711 4.170569
-3.468366 -0.035165 4.395103
-1.202718 -0.146976 3.181853
-2.757068 0.082338 4.321111
-0.500361 0.108302 2.003646
-0.541256 0.219578 2.143796
-0.605742 0.153055 2.204907
-0.782434 0.219446 2.382540
-1.522346 0.293938 2.705526
-0.607838 0.208534 2.195076
-1.941780 -0.231195 4.293535
-1.650441 0.328867 2.875270
-1.063269 0.216626 2.637505
-2.455751 0.163729 4.231612
-1.709914 -0.034159 3.845633
-0.606890 0.215917 2.792069
-0.611987 0.151594 2.229181
-1.202173 0.251229 2.611467
-0.582985 -0.120743 2.591330
-0.751684 0.210585 2.475604
-1.075694 0.272078 2.233107
-3.281763 0.016649 4.389219
-3.359872 -0.022733 4.370758
-2.810711 -0.099795 4.425920
-2.786133 0.260126 4.392423
-2.876720 -0.033976 4.442177
-3.336633 -0.069718 4.355180
-3.227531 -0.055358 4.414275
-3.206808 0.015781 4.480881
-2.827746 -0.074484 4.406569
-2.638248 0.086770 4.136893
-2.636291 -0.027596 4.175284
-1.758678 -0.210046 3.924191
-2.160974 -0.211934 4.193390
-3.370887 -0.019579 4.307723
-3.407761 0.148421 4.390367
-0.586843 0.112062 2.159837
-1.711422 0.299633 2.926815
-0.537279 -0.063163 1.968677
-1.846516 -0.132091 3.805477
-2.968317 0.409481 4.088085
-2.510758 0.328919 3.916269
-3.331605 -0.011016 4.673252
-0.873522 0.180347 2.647010
-1.093342 0.199886 2.908031
-2.298271 0.360395 3.407193
-1.840560 0.159095 3.725748
-2.108717 -0.143383 4.048177
-2.032970 -0.077904 3.828391
-2.062654 -0.072263 3.851317
-1.825191 -0.118482 3.787441
-1.619023 -0.124048 3.663913
-1.468258 0.303635 2.720829
-1.850387 -0.125419 3.918546
-0.580088 -0.069368 2.149728
-0.804081 0.139196 2.508549
-1.189206 0.079745 3.159021
-0.963493 0.152303 2.888781
-2.903796 0.096275 4.508086
-1.283852 -0.031759 3.221406
-1.177962 0.128217 3.079917
-1.164515 0.162316 3.068766
-1.314852 -0.114194 3.322653
-1.284954 -0.067752 3.224940
-1.686147 0.295779 3.211353
-1.080248 -0.110814 2.966005
-1.177349 -0.104570 3.108517
-2.584065 0.022573 4.315573
-1.634637 0.182895 3.961863
-1.245776 -0.138285 3.251924
-2.098056 -0.230968 4.085622
-2.367739 0.383361 3.469970
-1.979374 0.042555 3.821632
-1.938443 0.162512 3.770371
-3.478551 -0.013208 4.584187
-3.387937 -0.017026 4.508580
-3.509212 -0.152856 4.571095
-1.649327 0.127368 3.646307
-2.251175 0.305607 3.782448
-1.784176 0.217910 3.834697
-2.418205 -0.053184 4.243959
-3.080710 0.339189 4.184503
-2.498648 0.276634 4.392303
-2.437771 0.104932 4.283763
-2.493584 0.075501 4.369561
-3.417436 0.376634 4.344446
-2.873143 0.093367 4.465465
-3.101873 -0.000972 4.457462
-2.618025 -0.111316 4.328336
-2.827157 -0.066056 4.359765
-1.610415 -0.116549 3.651692
-1.726063 -0.138644 3.848656
-1.663056 -0.125537 3.677488
-1.686941 -0.141348 3.692075
-1.528367 -0.118530 3.568863
-2.804037 0.445108 3.936793
-1.349012 0.216445 3.160181
-1.544736 0.164894 3.657054
-1.627878 0.123423 3.593741
-1.039868 -0.079801 2.832931
-1.071235 -0.082835 2.917717
-1.699060 -0.020329 3.647514
-1.127269 -0.116857 3.050410
-0.706260 0.141226 2.446569
-1.410964 -0.116501 3.440519
-1.134960 -0.129958 3.145199
-1.147611 -0.121966 3.194379
-2.775264 0.080574 4.348387
-1.465292 -0.153578 3.493343
-0.701756 -0.111663 2.455901
-0.808985 -0.081038 2.590749
-0.709591 -0.092387 2.374552
-2.808884 0.222998 4.532814
-2.578946 -0.109710 4.343307
-2.607997 -0.136485 4.320563
-1.637886 -0.204607 3.894703
-0.974697 0.206377 2.613780
-1.046294 0.240638 2.397283
-0.621216 -0.080282 2.195016
-1.216685 0.286479 2.430197
-0.601944 0.146908 2.184656
-1.142441 0.120439 2.997740
-1.148270 0.215014 2.740160
-1.588718 0.268285 3.098208
-1.035432 -0.003940 2.766788
-1.182845 0.082618 3.082150
-1.738892 0.292125 3.301010
-1.207596 -0.041313 3.115660
-1.190024 0.024147 3.105492
-1.175082 -0.012684 3.056973
-1.399447 0.226329 3.174990
-1.628319 -0.160548 3.786542
-1.058134 -0.120847 2.926801
-2.181960 -0.142475 4.035054
-1.193722 -0.135315 3.158954
-1.083523 -0.120575 3.078834
-1.411214 0.288885 2.895160
-2.072369 0.415643 3.644979
-1.282256 0.143553 3.221137
-1.156096 0.013938 3.018268
-1.160165 -0.048188 3.086866
-2.575766 -0.013071 4.347918
-2.960696 0.287311 4.433527
-2.793379 0.148649 4.508704
-2.586300 0.221708 4.373818
-2.423624 0.097950 4.249051
-1.701623 -0.122099 3.641372
-1.510587 -0.133128 3.611606
-1.918704 0.269078 3.516758
-1.983958 -0.137217 3.889820
-2.319704 0.312485 3.986917
-2.461969 -0.161714 4.164292
-2.366658 -0.046112 4.168047
-3.591793 0.319889 4.447952
-3.277619 -0.060982 4.465567
-3.611630 -0.134032 4.388191
-2.055592 -0.148109 4.061269
-2.065249 -0.086874 3.843574
-2.229611 0.316671 3.632289
-2.591622 0.259880 4.381226
-2.851445 0.273233 4.442815
-2.842911 0.270744 4.426392
-2.813228 0.298007 4.335307
-2.219030 -0.172222 4.180846
-2.411292 0.099315 4.233213
-2.201165 -0.182091 4.194735
-2.464359 0.228947 4.345112
-2.275308 0.288339 3.914618
-2.396067 -0.088777 4.260275
-1.537668 0.142539 3.651932
-1.644000 0.281268 3.191729
-2.794885 -0.057285 4.372629
-3.147517 0.305649 4.334276
-3.305310 -0.101034 4.400674
-3.213452 0.010137 4.429530
-2.468057 -0.097570 4.335427
-2.851073 -0.062340 4.362142
-2.893356 -0.026657 4.389986
-1.642074 -0.122744 3.658064
-1.486530 -0.143330 3.532524
-1.695593 -0.142441 3.708698
-0.941942 0.214318 2.487354
-1.385578 -0.153284 3.412244
-0.698527 -0.130629 2.470949
-0.892761 0.224664 2.457927
-1.391987 -0.030523 3.473474
-0.882603 0.210916 2.537054
-1.763388 -0.129613 3.758099
-2.549865 -0.024964 4.148473
-1.047205 -0.115907 2.975033
-2.517108 0.224568 4.345274
-1.490691 -0.200600 3.827945
-1.253073 -0.146925 3.247074
-1.254138 0.221136 3.164332
-1.269429 0.175853 3.217601
-2.378359 -0.089660 4.239702
-2.465047 0.038137 4.274475
-2.414262 0.397525 3.721555
-1.917446 0.241875 3.730660
-2.042305 0.016463 3.832256
-2.287361 0.029119 4.095271
-1.443493 0.139880 3.492281
-1.255208 -0.116912 3.248741
-1.407773 -0.147473 3.428021
-1.189684 -0.025654 3.113518
-1.576094 -0.197443 3.611116
-1.651602 0.295402 3.214882
-0.903530 0.192856 2.648477
-1.140001 -0.151390 3.165514
-1.142579 0.056994 3.033881
-1.177676 -0.122299 3.189757
-0.726261 -0.124317 2.452049
-0.882489 0.204451 2.664614
-0.933754 0.210364 2.465959
-0.924505 0.197988 2.624627
-0.905264 0.213966 2.440258
-0.998557 0.216785 2.559913
-0.713839 -0.094242 2.400043
-1.176027 -0.138657 3.271335
-1.464914 -0.159189 3.560519
-1.015311 -0.107306 2.830865
-1.850574 -0.223411 4.064079
-0.767223 -0.097604 2.490710
-1.224007 0.171448 3.133636
-1.996348 0.103383 3.789517
-1.214478 0.187123 3.239232
-2.818963 -0.183621 4.501195
-2.778304 0.016315 4.462194
-2.415716 0.363602 3.776429
-1.094912 0.213430 2.669507
-1.763386 0.149731 3.882498
-2.363711 -0.153342 4.293396
-2.454730 0.137733 4.239653
-2.478896 0.127984 4.294033
-2.437163 -0.108873 4.319306
-0.871302 0.224879 2.431223
-1.874364 -0.120182 3.884590
-1.808904 -0.172115 3.830146
-2.340375 0.360676 3.508885
-1.862829 -0.176646 3.888797
-3.276059 0.071514 4.376135
-3.619483 0.077008 4.359024
-3.340444 0.285595 4.356821
-2.826048 -0.037243 4.429309
-2.855849 0.082101 4.534931
-2.816081 -0.072624 4.387571
-3.130668 -0.044143 4.530951
-3.095078 -0.037493 4.478462
-3.359457 0.053297 4.370708
-2.542110 0.331396 3.875199
-2.101687 -0.152719 4.077018
-3.211429 0.395506 4.080059
-2.218082 -0.122623 4.153608
-2.473132 0.168589 4.253890
-2.502347 0.205006 4.332206
-3.485050 0.380058 4.228280
-2.197985 -0.058764 4.045846
-2.481304 0.127575 4.298423
-2.605251 -0.107468 4.317255
-2.605663 -0.062456 4.315461
-3.455796 0.317924 4.422496
-3.702791 0.333963 4.412406
-3.152902 0.334930 4.365963
-3.018485 0.348453 4.190580
-3.563703 0.415591 4.294442
-3.892639 -0.155985 4.500417
-2.125739 -0.166692 4.052751
-1.985011 0.182268 3.842479
-2.001827 -0.135166 4.029960
-2.850407 0.083734 4.527738
-2.630595 0.012729 4.349598
-3.179784 0.062823 4.400387
-3.360469 0.084576 4.325036
-3.342456 0.004442 4.360467
-3.222371 0.019815 4.377976
-2.216522 -0.025513 3.588520
-1.809434 0.198231 3.693164
-1.986107 -0.191237 3.836318
-3.355969 0.008750 4.405478
-2.088740 -0.139244 4.009042
-3.522042 0.407125 4.262895
-2.135224 -0.054403 3.932793
-3.060027 0.402333 3.855496
-2.031487 0.097899 3.836257
-1.999296 0.258961 3.738553
-2.128527 -0.119674 4.043841
-2.045703 0.017594 3.838403
-2.035327 0.099460 3.842950
-1.994179 0.188787 3.854367
-2.474036 0.168305 4.260113
-2.771277 0.286348 4.645476
-1.343286 -0.094614 3.365457
-3.152166 -0.074351 4.607985
-2.385960 -0.003525 4.252969
-2.070696 -0.146211 4.014245
-1.623017 -0.188582 3.644633
-1.335423 -0.066593 3.244273
-4.087204 0.485648 5.891206
-1.345133 -0.114840 3.330985
-1.521229 0.233377 3.237832
-1.447304 0.234743 3.252118
-1.417894 0.226328 3.195403
-1.190172 0.197255 3.013340
-1.257821 -0.117549 3.261915
-1.348862 0.186338 3.181828
-1.962910 0.302434 3.589902
-2.424295 0.364358 3.793635
-2.594268 -0.015592 4.308751
-2.838318 0.010620 4.423728
-1.162279 -0.172324 3.166321
-2.819128 0.286450 4.454883
-2.750188 -0.130408 4.418437
-3.171281 -0.016907 4.884584
-1.340426 0.212706 3.136336
-1.146356 0.051168 3.044543
-1.137529 0.197711 2.954024
-1.388925 -0.153135 3.416856
-1.155079 0.186634 2.938550
-2.669827 -0.055982 4.398408
-1.948223 -0.015292 3.822717
-1.213044 -0.148897 3.208422
-1.108519 0.219039 2.695923
-1.866087 0.017560 3.766775
-1.075787 -0.113251 2.992912
-3.061815 0.286350 4.776474
-0.766691 -0.090327 2.420665
-1.370043 0.271887 2.856881
-1.744516 -0.221478 4.033967
-1.546482 -0.053968 3.684064
-0.828075 -0.097222 2.543380
-1.383049 0.231398 3.057048
-2.546032 0.045951 4.300738
-1.091890 0.221591 2.681763
-1.044301 -0.078834 2.850796
-2.132936 -0.128911 3.953824
-1.185470 0.134660 3.168682
-2.795671 0.253474 4.630332
-1.148807 -0.174956 3.195246
-0.966461 0.198243 2.583467
-0.961761 0.198622 2.574345
-2.857919 -0.022723 4.464646
-2.340744 0.239829 4.201256
-1.805791 -0.015452 3.756126
-2.646106 0.243001 4.520245
-1.323597 -0.146763 3.352165
-1.160843 0.121224 3.067047
-1.237414 0.119815 3.104374
-1.127574 0.211458 2.976315
-1.269719 0.125620 3.178982
-3.256148 -0.045288 4.782899
-1.602547 -0.189075 3.632647
-1.905411 -0.108898 3.853890
-2.592199 -0.136242 4.358473
-3.081878 0.334860 4.387484
-1.095561 -0.110184 2.946459
-0.923324 0.195201 2.641373
-1.100190 0.200400 2.937898
-0.832480 -0.155013 2.765934
-3.039564 0.326139 4.723806
-1.400330 0.227090 3.184933
-0.860526 0.194901 2.604493
-1.106525 -0.108196 2.984021
-2.373743 0.219639 4.237847
-1.035376 0.195930 2.764889
-1.567143 0.292560 3.059572
-1.210483 0.228440 2.840618
-2.348652 -0.107730 4.194726
-2.617144 0.322458 4.154548
-1.083578 -0.122142 3.000510
-1.490076 0.204801 3.608866
-2.762086 0.019457 4.426636
-1.184975 -0.134098 3.135547
-1.163510 -0.125988 3.155010
-2.471308 -0.164057 4.176337
-1.866587 0.214535 3.806970
-3.564107 0.041899 4.414662
-3.519219 -0.138179 4.384380
-3.418075 0.082741 4.365478
-3.615207 0.354473 4.585149
-2.656824 -0.137015 4.347572
-3.470678 0.370310 4.219746
-3.105776 0.342132 4.227632
-2.489249 0.153354 4.273922
-3.434041 0.363748 4.953519
-3.007935 0.363229 4.471989
-1.478153 -0.141221 3.505248
-1.748397 -0.127529 3.730515
-1.659567 -0.197015 3.660206
-1.589384 -0.089673 3.562466
-1.331785 -0.117482 3.372059
-1.357979 -0.114043 3.358338
-1.649896 -0.190293 3.667422
-1.313311 -0.110351 3.313462
-3.589287 -0.022895 4.860386
-3.358042 -0.056557 4.767368
-3.408077 0.005282 4.943312
-2.593825 -0.059245 4.343372
-2.306138 0.260246 4.180592
-3.511986 0.244786 4.162693
-2.578425 0.218372 4.353533
-2.558986 0.049998 4.315064
-2.571366 -0.135819 4.318565
-2.030082 -0.008733 3.835757
-3.502442 0.220622 4.193799
-3.294136 -0.068568 4.715476
-3.236106 -0.066919 4.655863
-3.123846 0.015635 4.488986
-1.683389 -0.020485 3.611802
-1.266749 0.191430 3.092827
-3.112011 -0.125346 4.675251
-1.237167 -0.135911 3.227928
-1.602749 -0.127754 3.628690
-1.617880 0.185958 3.959888
-1.637474 0.188393 4.007821
-1.257888 -0.133769 3.238398
-1.507113 -0.117806 3.533846
-1.253718 -0.133708 3.231619
-1.777514 0.220094 3.813355
-2.044545 0.398546 3.402193
-1.392709 -0.141021 3.381337
-1.268600 0.097575 3.181569
-1.764751 0.293681 3.325181
-1.147104 -0.048117 3.054021
-1.219211 -0.144949 3.249664
-1.674306 -0.204997 3.681019
-1.558106 0.295460 3.087118
-1.377104 -0.111596 3.392603
-1.223445 0.206332 3.082495
-1.153191 0.050779 3.068937
-1.137489 0.081547 3.038978
-1.186445 0.140541 3.107995
-1.549979 0.292838 3.074260
-1.206524 0.133460 3.101849
-3.196992 -0.019203 4.568055
-2.761754 -0.084196 4.442238
-2.639700 -0.063470 4.368188
-3.374056 0.087322 4.387335
-2.750620 -0.078109 4.401411
-2.507672 0.181747 4.298017
-3.349726 0.034779 4.365831
-2.840123 -0.074874 4.420290
-3.231650 -0.011485 4.549159
-3.294365 0.006135 4.430372
-2.910454 0.311117 4.308501
-2.715977 -0.125985 4.378777
-2.721710 -0.069747 4.350121
-3.300720 0.364476 4.231082
-1.275660 -0.031516 3.198877
-1.222792 0.216347 3.111058
-1.262765 0.097663 3.169410
-1.554231 0.267000 3.209167
-1.928526 0.362044 3.349253
-1.333762 -0.110786 3.301030
-1.359112 -0.113235 3.389258
-1.434043 -0.109038 3.436709
-1.448547 -0.110122 3.468934
-1.344379 -0.035660 3.284280
-1.250104 -0.148145 3.239795
-1.374325 -0.179292 3.414123
-3.577055 0.040068 4.373088
-3.707062 -0.099226 4.330397
-2.875132 0.347747 4.034611
-3.471078 -0.056590 4.693474
-2.673883 -0.097242 4.308962
-3.272550 0.076075 4.441064
-2.934769 -0.107336 4.396440
-3.668938 0.331719 4.510922
-3.666846 -0.008996 4.921874
-3.273992 -0.087999 4.409194
-2.390926 0.247489 4.276892
-1.385208 -0.142526 3.369258
-2.664358 0.305914 4.482702
-1.286145 -0.084019 3.205456
-2.456478 -0.188090 4.117232
-1.799823 -0.131272 4.004841
-1.746966 -0.134510 3.859927
-2.445227 0.249559 4.227486
-1.601913 0.266507 3.255852
-1.347069 -0.110202 3.355476
-1.438566 -0.119628 3.514449
-2.408672 -0.020451 3.822140
-3.208385 -0.030503 4.751973
-3.412680 0.386523 5.044091
-3.188871 0.345763 4.908255
-1.508387 0.271587 3.129117
-1.369113 -0.181006 3.414416
-1.277730 -0.153949 3.310363
-1.169808 0.125020 3.054660
-1.228440 -0.154147 3.260999
-1.622574 0.288212 3.177845
-1.625047 0.307964 3.154084
-1.509961 -0.133016 3.534070
-1.426812 -0.051785 3.418729
-1.394718 -0.176399 3.431340
-1.280300 0.180909 3.244423
-3.330568 0.094575 4.379578
-3.212136 -0.001592 4.302048
-2.510674 0.187274 4.284929
-2.877808 0.112145 4.459208
-3.038095 0.316737 4.340124
-3.048981 0.296073 4.371386
-1.342848 0.163314 3.268132
-1.225752 0.171977 3.140969
-1.508553 0.260636 3.150948
-1.468774 0.246149 3.080482
-1.292849 -0.086124 3.234130
-1.480151 0.197485 3.378994
-3.080514 0.501391 4.133790
-1.580005 -0.035163 3.567232
-3.203920 -0.100826 4.659787
-3.171452 -0.193408 4.731125
-3.095880 -0.123075 4.653897
-1.609156 0.177481 3.893265
-1.847083 -0.168858 3.983053
-2.644886 -0.134016 4.366298
-2.177341 -0.185189 4.076385
-3.069061 -0.198586 4.684990
-1.873814 0.022600 3.780201
-2.869528 -0.175596 4.444252
-2.626912 -0.058593 4.340304
-2.602258 -0.034603 4.380054
-2.585987 0.204666 4.378565
-2.692540 0.235932 4.475627
-3.163865 0.000462 4.519560
-2.848871 -0.069057 4.396645
-1.180300 -0.043132 3.132227
-1.466773 0.284817 2.942906
-3.069063 -0.017108 4.756169
-1.186595 0.031491 3.093328
-2.816662 -0.178821 4.500479
-1.245237 -0.115653 3.225996
-1.223319 -0.135429 3.201512
-2.305108 0.053694 4.121330
-1.222925 0.040946 3.254031
-1.589360 0.280806 3.132171
-1.627799 0.276449 3.244274
-1.217217 -0.024966 3.184083
-1.268106 0.250364 2.827659
-1.292763 -0.113716 3.274108
-1.128937 -0.128671 3.096955
-1.833373 -0.032250 3.737478
-3.159016 0.287616 4.887846
-2.955669 -0.109632 4.423862
-2.183593 -0.186392 4.087757
-2.553918 -0.133342 4.292771
-1.731319 -0.110270 3.722251
-2.315613 0.335680 3.668009
-3.348029 0.085873 4.371666
-3.359061 0.136248 4.375689
-2.669563 -0.138692 4.367145
-2.763391 0.030110 4.432557
-3.438123 0.025075 4.358729
-2.562140 0.050618 4.319905
-3.417956 0.233713 4.090593
-2.147723 0.289397 3.766877
-2.615973 -0.186502 4.234440
-3.298367 -0.011477 4.737779
-2.968466 -0.113212 4.501817
-2.896298 -0.110357 4.389232
-3.322945 0.005394 4.345886
-2.556978 -0.060123 4.338551
-3.228450 -0.083691 4.368937
-3.237820 0.030368 4.287851
-2.649307 -0.108326 4.338531
-3.311450 0.321991 4.308950
-2.605915 -0.062877 4.326383
-3.441797 0.293616 4.375984
-1.905563 -0.147270 3.867339
-2.739160 0.389290 3.712233
-1.955781 0.041967 3.779382
-3.377865 -0.040803 4.393867
-2.207439 0.250847 4.035823
-3.465657 -0.059588 4.496657
-1.740156 -0.126827 3.712132
-1.930413 -0.014027 3.786972
-1.887212 -0.162234 3.914332
-3.156472 0.350989 3.925153
-2.121138 -0.122380 4.045133
-2.407433 0.332455 3.700887
-3.511301 -0.058862 4.743417
-3.244441 -0.055929 4.754100
-2.834034 0.304429 4.406424
-2.890554 0.313014 4.358145
-2.677293 0.010847 4.361376
-3.114610 0.349756 4.170622
-3.514150 0.023634 4.336618
-3.007408 0.324956 4.317461
-1.033604 0.063553 2.758977
-2.623927 0.352796 3.801602
-2.020719 0.003484 3.820699
-3.100060 0.415963 3.887628
-1.936588 -0.114215 3.917528
-2.187752 -0.124221 4.036924
-2.328873 -0.208375 4.103705
-1.912420 -0.111353 3.841624
-2.145685 0.229598 4.784701
-2.362841 0.147848 4.094560
-1.871444 -0.126346 3.882175
-2.236630 -0.141897 4.086150
-1.027650 0.135833 2.746498
-2.496049 0.261289 4.282198
-2.691869 0.287999 4.336462
-2.469056 -0.097146 4.342129
-2.477401 0.011498 4.282079
-3.628543 0.155947 4.496410
-2.564836 0.280455 4.264612
-2.851368 0.019748 4.464467
-2.869977 0.225756 4.526696
-2.567499 -0.132567 4.324936
-3.196772 0.067230 4.289340
-2.507940 0.030296 4.345312
-3.252173 0.150972 4.315269
-2.564410 0.038479 4.322423
-2.804843 0.284282 4.442400
-2.620154 -0.137936 4.335675
-3.356836 -0.056770 4.622843
-3.538081 0.151798 4.436641
-2.393503 -0.092010 4.253715
-2.328348 0.115814 4.207075
-2.459056 0.251353 4.247604
-2.703085 0.282811 4.138185
-2.714730 0.301007 4.212352
-2.616311 -0.007509 4.357455
-2.513350 0.188684 4.289065
-2.426116 0.102410 4.263277
-2.905140 0.321611 4.227178
-3.485229 -0.027890 4.361646
-2.826302 0.078760 4.531340
-2.781338 -0.024331 4.462847
-2.706333 0.270949 4.472228
-2.449186 -0.083256 4.337578
-3.679188 0.156446 4.433814
-3.160721 0.061710 4.331328
-2.887251 0.283398 4.594104
-2.866878 0.074438 4.450102
-2.571652 0.039795 4.337886
-3.132596 0.062897 4.367755
-2.858956 0.011002 4.449850
-2.881275 -0.026581 4.377543
-3.090975 0.002382 4.487904
-2.820678 0.081602 4.519696
-3.346570 0.343192 4.316156
-3.394309 0.089987 4.362119
-2.808011 0.019893 4.460835
-2.583259 -0.034331 4.338261
-3.221921 0.048431 4.376328
-3.185945 0.002735 4.368781
-2.603606 0.091614 4.367348
-2.264834 -0.157365 4.173260
-2.576478 -0.038907 4.315041
-3.345453 0.011885 4.396940
-3.473475 -0.115376 4.397944
-1.987808 0.217826 3.860241
-2.464846 -0.043051 4.160613
-3.282551 0.391917 4.166137
-3.367699 0.078275 4.575932
-3.355537 0.160948 4.398656
-2.007613 0.258861 3.870709
-2.727317 0.109000 4.467465
-2.736646 -0.100558 4.389840
-3.348381 0.060016 4.319521
-3.474356 0.281326 4.419309
-2.577338 -0.112457 4.314324
-2.975841 0.338002 4.455272
-3.573258 0.075267 4.422174
-2.839826 0.232430 4.453637
-2.454406 -0.120121 4.331043
-3.399960 -0.098809 4.399502
-3.267755 0.009406 4.370520
-3.410831 0.062781 4.336303
-3.141332 0.332120 4.346831
-3.037296 0.322061 4.317623
-3.286257 0.235803 4.340559
-3.544027 -0.077415 4.336756
-2.855560 -0.033849 4.414964
-3.083220 0.361275 4.259885
-2.408493 -0.052720 4.226395
-2.429404 -0.094379 4.273589
-3.442748 -0.071388 4.822041
-2.374429 -0.020895 4.226455
-2.325423 -0.085302 4.192910
-2.803823 -0.101541 4.430874
-3.689701 -0.085431 4.393094
-3.219306 0.064140 4.393913
-2.376253 -0.088656 4.217182
-3.100292 -0.001477 4.504113
-2.423588 -0.097560 4.313380
-2.420521 0.068247 4.319931
-3.227904 0.357523 4.421343
-3.246370 0.379427 4.144415
-3.614808 -0.054551 4.376740
-3.719046 0.348854 4.424106
-2.698301 0.377532 3.678333
-2.157547 0.292127 3.778037
-3.704507 -0.018090 4.332597
-3.698931 0.121172 4.327288
-2.568496 0.341199 3.818215
-2.414909 0.332149 3.679904
-3.626018 0.102057 4.380426
-3.381305 0.089562 4.399763
-3.456213 0.092918 4.361153
-3.684790 -0.076428 4.370199
-3.144193 0.311297 4.389260
-2.959822 0.312157 4.431674
-3.379564 0.097819 4.419662
-3.372422 0.246662 4.412882
-3.275945 -0.131991 4.407989
-3.497598 0.036030 4.392271
-3.273413 -0.077776 4.353889
-2.934724 0.374840 4.073951
-3.272835 -0.054803 4.411258
-3.327966 -0.017238 4.455475
-2.919717 -0.068004 4.342636
-3.646269 -0.101704 4.392940
-3.362564 0.303531 4.370690
-2.198054 0.299645 3.742637
-3.549258 0.391776 4.270888
-2.018824 -0.139527 4.019654
-1.960662 -0.127020 3.945127
-1.948861 0.305525 3.414025
-1.754369 0.258805 3.467109
-3.405759 0.372072 4.337039
-2.431323 0.213889 4.351436
-2.660879 -0.110213 4.356115
-2.743880 -0.055617 4.394852
-2.525419 0.258053 4.274878
-1.962207 0.263529 3.822998
-2.325167 0.375370 3.424485
-1.616297 -0.038004 3.629538
-1.762823 0.148276 3.736962
-2.377338 -0.010864 4.235529
-3.045663 0.298002 4.405258
-2.904059 0.325689 4.138235
-2.943459 0.334866 4.121355
-3.540212 -0.108003 4.398242
-1.825642 0.205626 3.780696
-2.110652 0.280251 3.783841
-2.630962 0.406081 3.692226
-3.577220 0.216795 4.276113
-1.920874 0.039322 3.720384
-2.660360 -0.089198 4.338028
-3.503929 -0.001695 4.737763
-1.835451 0.157959 3.712821
-3.258557 -0.055060 4.398848
-1.911132 0.287716 3.501948
-2.002068 0.299180 3.628698
-3.367400 0.446785 4.181954
-2.105744 0.336339 3.482469
-1.805566 -0.164426 3.772255
-1.701341 -0.130741 3.680805
-1.789741 0.224672 3.672112
-1.531518 0.145835 3.661691
-1.425409 -0.050841 3.412447
-1.838133 -0.087157 3.767018
-2.927357 0.230149 4.603095
-3.420632 0.210893 4.134510
-3.569934 -0.028797 4.364213
-2.919696 0.378429 4.053572
-3.625034 0.111557 4.406166
-3.658077 -0.082573 4.372457
-3.046065 0.358294 4.219813
-3.715043 0.118994 4.399365
-3.422807 -0.045671 4.367955
-3.470279 0.027576 4.414982
-2.525302 -0.194376 4.202465
-2.519091 -0.195359 4.232500
-3.242325 -0.021712 4.613333
-3.347832 -0.052196 4.874333
-2.918395 -0.037896 4.495567
-2.025563 -0.160085 3.988735
-1.695443 0.199996 3.663701
-1.990993 -0.128537 3.904901
-1.844857 0.017149 3.728594
-2.470585 0.048865 4.283829
-2.444757 0.264092 4.226988
-2.627285 0.025697 4.335608
-2.241602 0.275573 3.866991
-1.435846 0.137313 3.494943
-1.780249 -0.015011 3.701328
-1.625293 0.007542 3.587897
-3.209990 0.070194 4.431660
-3.614661 -0.071954 4.855776
-1.715623 -0.170052 3.724015
-1.608873 -0.123333 3.672070
-1.742287 -0.116645 3.751223
-1.719310 0.196572 3.682770
-1.470529 0.195908 3.362129
-2.673124 0.408657 3.726830
-2.519458 -0.035463 4.348643
-2.531072 0.217085 4.469030
-2.511540 0.036400 4.246000
-2.699274 -0.008359 4.282483
-2.415951 0.012476 4.184388
-2.871794 0.309104 4.338353
-3.111018 -0.187065 4.658369
-1.852332 0.160678 3.744406
-3.204633 -0.065288 4.623604
-1.595355 -0.108812 3.593639
-2.087500 -0.187625 3.994210
-1.703439 -0.149524 3.594594
-3.279397 0.002911 4.503650
-1.892952 0.332805 3.325661
-2.166758 -0.141969 4.043033
-2.851309 -0.129096 4.477113
-2.904544 -0.106159 4.422786
-3.693048 0.391491 4.430465
-2.179792 0.293160 3.806833
-2.035408 -0.126249 3.954921
-1.868148 -0.134080 3.847722
-2.165310 0.349146 3.553876
-1.814816 -0.157423 3.816803
-1.854396 0.208031 3.774137
-2.338534 0.290782 3.994786
-2.145350 -0.126458 4.095588
-3.629904 -0.072378 4.354242
-2.955930 -0.081330 4.384791
-3.528099 0.210994 4.243655
-3.538744 0.211888 4.251392
-3.593494 0.045368 4.437760
-3.626297 -0.135641 4.402849
-3.579001 0.045991 4.384152
-3.671853 0.113723 4.410050
-3.663788 -0.102207 4.380472
-3.643630 0.029561 4.380881
-2.849308 0.409315 3.650776
-2.124358 -0.176563 4.112109
-3.418016 -0.148938 4.420648
-3.676726 -0.027448 4.401646
-3.360365 -0.051429 4.406234
-3.354573 -0.135737 4.480895
-2.553035 0.355121 3.765255
-2.007986 -0.128826 3.937556
-3.595255 -0.104571 4.388946
-2.912921 -0.106018 4.377546
-12.730884 0.518238 11.770744
-2.476841 0.343420 3.751040
-1.721380 0.217829 3.582850
-1.729293 -0.147005 3.731444
-2.009379 0.250998 3.796639
-2.992848 -0.195849 4.519766
-3.126507 -0.185723 4.679429
-3.399294 0.368763 4.414787
-3.335649 0.356489 4.359249
-3.374075 0.027683 4.331073
-3.370452 -0.163082 4.441319
-3.378030 -0.024919 4.384396
-1.846165 -0.154265 3.833817
-3.922837 0.391045 4.832616
-2.390174 0.334521 3.885959
-2.582707 0.202598 4.366149
-2.600132 -0.135432 4.353093
-2.789174 -0.056191 4.377161
-3.387872 0.013619 4.330331
-3.209847 0.009698 4.422894
-2.834603 0.266787 4.521643
-2.679309 -0.062818 4.369875
-2.624912 -0.135734 4.338733
-2.678404 -0.014836 4.356785
-2.805801 0.075441 4.502560
-2.483207 0.069878 4.364310
-2.475370 -0.025471 4.356758
-2.458018 0.030732 4.349282
-2.434560 -0.118539 4.312557
-2.739333 0.232195 4.486073
-3.283397 0.365492 4.209079
-3.462074 0.367718 4.354101
-2.475129 -0.033091 4.264534
-2.427193 0.228672 4.353777
-2.261782 0.269338 4.134243
-2.401436 0.226707 4.296540
-2.223169 -0.020855 4.068733
-2.456259 0.291367 4.075281
-2.200978 -0.142945 4.072457
-3.501782 -0.061491 4.382819
-3.652939 -0.102275 4.398790
-3.158491 0.314836 4.403566
-3.560724 0.099347 4.533215
-3.250721 0.065967 4.395075
-1.971353 0.268140 3.842030
-2.207662 -0.059432 4.066199
-2.177791 -0.020618 3.990885
-3.433371 -0.028069 4.659155
-2.885417 0.206005 4.474851
-2.845468 -0.078148 4.398734
-3.227840 0.022782 4.314600
-2.645869 0.009126 4.351925
-3.438642 -0.046841 4.682490
-3.700866 -0.122695 4.318007
-2.208318 -0.162817 4.084695
-2.530182 -0.134354 4.261158
-2.864089 -0.022728 4.497079
-1.848072 -0.033707 3.768186
-3.482386 0.091291 4.380432
-3.505804 -0.144320 4.442781
-3.095818 0.363544 4.274337
-2.436709 -0.082575 4.312716
-2.368159 -0.108970 4.223902
-2.563203 0.338771 3.810169
-2.046833 -0.045635 3.877538
-2.061620 0.018649 3.869358
-2.477937 0.033921 4.286859
-3.592840 0.155584 4.470943
-2.478801 0.297287 4.105037
-2.806184 0.351535 3.951006
-3.706266 0.116719 4.394110
-3.602473 0.040741 4.393038
-2.465155 0.327402 3.849495
-2.611185 -0.008462 4.349802
-2.823754 0.276235 4.447828
-2.609398 -0.140306 4.394419
-2.584787 -0.134746 4.346225
-3.397246 -0.039901 4.349964
-3.196242 0.314978 4.333859
-2.894207 -0.065140 4.414294
-3.379971 0.009522 4.737121
-2.028544 0.106883 3.830770
-2.163554 -0.183179 4.053302
-3.366003 0.087548 4.385061
-3.295930 -0.131885 4.372304
-3.479973 -0.142547 4.420999
-2.488267 0.270923 4.234488
-3.441709 -0.034617 4.372238
-2.346493 0.301128 3.868436
-3.608339 0.239728 4.300034
-2.467454 0.318774 3.853653
-2.158748 0.288218 3.774594
-2.021570 -0.074685 3.823393
-3.237967 0.364308 3.989886
-3.432767 0.234605 4.102740
-3.612808 0.424944 4.326480
-3.624502 0.426812 4.337116
-3.581084 0.037492 4.374614
-2.438769 0.261682 4.215839
-3.710939 0.344888 4.399400
-2.459126 0.337759 3.726580
-1.864048 0.233159 3.660852
-3.147441 0.346680 3.921769
-2.404481 -0.052164 4.216643
-2.723876 0.218446 4.477920
-2.591188 -0.033280 4.359164
-3.594568 0.025897 4.436032
-3.604891 0.012790 4.443357
-2.053970 -0.080109 3.864838
-1.924223 -0.124300 3.842504
-3.083231 0.399548 4.225336
-3.635847 -0.029431 4.369399
-2.790950 -0.125096 4.414793
-2.868458 -0.035262 4.444613
-3.428048 -0.040080 4.652649
-3.580840 0.341598 4.296675
-3.436311 0.313590 4.410818
-3.182426 0.019958 4.391030
-2.822757 0.009197 4.402199
-3.223300 0.072479 4.311598
-3.367141 -0.072323 4.379256
-3.312275 -0.047041 4.373932
-2.874723 0.093786 4.484001
-2.536469 -0.158421 4.310040
-2.692076 0.296658 4.275008
-3.720267 0.064697 4.381263
-3.289340 0.345195 4.317614
-2.761699 0.275916 4.507888
-2.882091 0.020390 4.503472
-1.995085 0.045115 3.853330
-3.548009 -0.059811 4.414657
-3.446652 0.095053 4.354750
-3.456336 0.094173 4.465777
-3.617825 0.037526 4.426618
-3.533001 0.034998 4.396297
-2.026246 0.293695 3.671890
-3.585431 -0.079431 4.364864
-2.234236 0.262054 3.850373
-1.847207 0.202482 3.779275
-2.254511 0.037577 4.047798
-3.526349 -0.113576 4.391467
-3.527285 0.042429 4.347626
-1.842562 0.209027 3.801809
-2.605784 -0.131177 4.311482
-2.144393 -0.088763 4.039549
-2.330168 -0.148396 4.230148
-1.795227 -0.030733 3.665184
-2.609676 0.027583 4.358429
-2.484547 -0.022820 4.305169
-2.583087 -0.060182 4.352455
-2.642351 -0.036409 4.339223
-2.873127 0.270878 4.537284
-2.884905 0.281887 4.553132
-2.589925 -0.009767 4.314827
-2.657341 0.010870 4.330112
-2.812191 0.153210 4.536946
-3.302451 0.271362 4.326503
-3.482641 0.148676 4.409740
-2.766180 -0.010698 4.411212
-2.603618 -0.087608 4.345924
-3.227600 0.048450 4.380886
-3.228091 -0.074203 4.331084
-3.263874 0.320597 4.326396
-3.326550 0.008175 4.324139
-3.098214 0.299815 4.342172
-2.838485 0.290714 4.584511
-3.243952 0.297821 4.303804
-2.499265 -0.024254 4.338613
-2.502028 0.154207 4.196023
-2.635934 -0.058551 4.324600
-3.202289 0.018370 4.406771
-3.485266 -0.022456 4.718687
-2.661867 -0.013962 4.335253
-3.245011 0.317424 4.314260
-2.853095 0.090095 4.457621
-3.199945 -0.036793 4.355562
-3.275636 -0.005181 4.502685
-3.228438 0.046476 4.342368
-2.793011 0.022823 4.442846
-3.137894 0.007530 4.475084
-2.730946 0.206127 4.452065
-2.622393 0.097761 4.426165
-2.535458 -0.007363 4.275589
-3.184047 -0.008953 4.509768
-2.834497 -0.119979 4.401549
-3.321418 0.032531 4.369843
-3.249382 -0.008778 4.575060
-2.750108 -0.055396 4.403386
-2.862586 -0.035564 4.433764
-3.521560 -0.006012 4.799635
-3.258008 0.068661 4.472008
-2.687745 0.241254 4.479679
-2.488233 0.026185 4.364593
-2.695285 0.244679 4.493450
-3.333421 0.034117 4.353508
-3.484984 0.034284 4.361893
-2.575202 0.198380 4.352823
-3.294054 0.114946 4.381536
-3.292776 0.018156 4.361603
-2.718334 -0.099342 4.365890
-2.874183 0.020308 4.493104
-3.439038 -0.087721 4.354905
-3.164488 0.343039 4.108859
-2.659130 0.285849 4.393934
-2.691619 0.295972 4.438060
-2.559388 -0.011856 4.318695
-2.546469 -0.119944 4.328941
-2.596012 -0.061768 4.356059
-2.830914 0.190100 4.449613
-3.299039 0.056421 4.357337
-2.599009 0.014565 4.306876
-2.604114 -0.034174 4.312537
-2.802938 0.092917 4.522665
-3.368170 -0.042439 4.394393
-2.663655 0.097093 4.441305
-3.326132 -0.003283 4.545530
-3.261067 0.004101 4.483238
-3.332496 0.095052 4.381795
-3.018000 0.290194 4.376479
-2.515292 0.144754 4.290973
-2.654369 0.230741 4.462359
-3.491403 -0.027626 4.366358
-2.862549 0.084240 4.543968
-3.211051 0.319399 4.352377
-3.008570 0.312727 4.324964
-2.719970 0.243687 4.497190
-3.418043 -0.014821 4.349305
-2.493782 0.153300 4.274541
-3.269906 0.128730 4.303635
-2.728190 -0.132804 4.417108
-3.244118 0.067709 4.467669
-2.753439 -0.036369 4.379723
-2.552807 -0.014395 4.306892
-2.482095 0.040437 4.286488
-2.692323 0.320998 4.064585
-2.741459 -0.097944 4.409158
-3.196926 -0.035957 4.582750
-3.211982 -0.066038 4.634976
-2.867991 0.353898 4.017496
-3.605397 0.029743 4.353350
-3.429429 -0.081307 4.379310
-3.508968 -0.106937 4.373472
-3.549320 0.313483 4.423539
-2.206470 -0.142087 4.129528
-2.255611 0.244473 4.095448
-3.486249 0.391550 4.205894
-2.606282 0.013104 4.320251
-3.325830 0.060128 4.346144
-3.265006 0.234516 4.322315
-2.215857 -0.020245 4.053766
-2.438491 0.291708 4.111617
-2.275276 -0.138270 4.196804
-2.384437 0.286521 4.112294
-2.262475 -0.154454 4.188148
-2.638650 -0.135296 4.321136
-3.448404 -0.118364 4.394743
-3.533598 0.290205 4.464619
-3.542290 0.032987 4.401016
-2.597204 0.317889 4.011934
-3.650456 -0.101258 4.370341
-3.050922 0.318577 3.844838
-2.313956 0.295579 3.900254
-2.606050 -0.110806 4.309794
-3.259356 -0.000025 4.341203
-3.512179 0.100069 4.391118
-3.439872 0.092048 4.400181
-3.330968 0.166048 4.376970
-3.417123 -0.123839 4.419510
-3.794025 -0.026923 4.427516
-2.808281 0.320476 4.243380
-2.139078 -0.180061 4.143387
-2.057137 -0.077866 3.892585
-3.680954 0.066835 4.316657
-2.685507 0.334447 4.109036
-3.618454 0.222564 4.304585
-3.570405 -0.069154 4.368190
-3.323828 0.353986 4.346125
-3.748184 -0.121247 4.361113
-3.104044 0.334422 3.883475
-2.306396 0.259152 4.179073
-2.417656 0.341424 3.645536
-2.207941 0.309043 3.693246
-2.579916 0.310340 4.056047
-3.081544 0.367200 4.234654
-2.336661 -0.148956 4.241128
-2.361654 0.318178 3.808189
-3.757845 -0.013774 4.387931
-3.638739 -0.002081 4.365276
-3.602597 0.052047 4.351122
-3.502967 0.395252 4.216447
-3.666820 0.118342 4.303653
-3.620650 0.326835 4.330202
-3.370217 -0.140461 4.439560
-3.544514 0.153044 4.456176
-3.145997 0.343967 4.339354
-2.034501 0.111194 3.846429
-3.517611 0.319207 4.512714
-2.816353 -0.015699 4.453216
-2.169371 -0.056736 3.991550
-2.056985 0.269867 3.882798
-2.501309 0.220362 4.329573
-2.047860 -0.077507 3.873900
-2.981196 0.367119 4.133051
-2.480880 0.052405 4.306454
-3.225260 0.378006 4.122252
-2.687633 0.323236 4.053416
