ply
format ascii 1.0
element vertex 2100
property float x
property float y
property float z
end_header
-0.115951 0.132337 0.530947
-0.256912 0.126937 0.491559
-0.136000 0.133122 0.582966
-0.076529 0.136166 0.534463
-0.249515 0.128097 0.575775
-0.669044 0.110626 1.289059
-0.708709 0.090484 1.226929
-0.695524 0.035100 1.335925
-0.656213 0.060884 1.045798
-0.647928 -0.043267 1.271228
-0.647226 -0.016916 1.341894
-0.666008 -0.011542 1.346114
-0.744302 0.015613 1.308479
-0.224274 0.127851 0.542642
-0.304981 0.131963 0.872212
-0.246108 0.131110 0.658002
-0.193717 0.009319 1.226529
-0.032947 0.046248 0.555680
-0.192159 0.066413 1.310775
-0.128580 -0.027661 1.307046
-0.117543 0.135662 0.563340
-0.141116 0.135771 0.671075
-0.193252 0.131255 0.659047
-0.651956 0.003036 1.323773
-0.068527 0.034999 0.889726
-0.168235 0.033655 1.083743
-0.189924 0.045126 1.193248
-0.101492 -0.006578 1.263409
-0.128357 -0.000423 1.356982
-0.203696 0.058514 1.258363
-0.071210 0.051856 0.861221
-0.082652 0.052130 0.913528
-0.164020 0.001803 1.301814
-0.091242 0.134311 0.498432
-0.218935 -0.031445 1.458742
-0.228938 0.072581 0.966422
-0.172105 0.070928 0.708730
-0.178921 0.129279 0.521686
-0.291863 0.127734 0.616101
-0.573647 0.121895 1.047058
-0.155831 0.131148 0.618174
-0.154050 -0.008571 1.519466
-0.138614 -0.000365 1.406720
-0.318911 0.129758 0.831318
-0.626702 0.120797 1.250598
-0.645050 -0.033879 1.346563
-0.645432 -0.007374 1.335720
-0.422083 0.127338 0.673182
-0.070205 0.075011 0.575590
-0.083560 0.076180 0.602523
-0.106646 0.135143 0.546748
-0.119661 0.065211 0.600005
-0.259176 0.120620 1.045828
-0.238711 0.136160 0.851804
-0.159551 0.130710 0.497571
-0.226404 0.126643 0.512952
-0.442021 0.124293 0.871618
-0.387320 0.125037 0.636866
-0.701001 0.054068 1.219246
-0.660560 -0.048006 1.162945
-0.660079 0.062295 1.067063
-0.180147 0.026179 1.196758
-0.187548 0.033406 1.223199
-0.196777 0.058905 1.219191
-0.201552 0.128525 0.551590
-0.660884 0.011315 1.327743
-0.670205 0.009918 1.316028
-0.073925 -0.004571 1.274934
-0.042057 0.050444 0.565033
-0.298923 0.251451 0.932619
-0.275293 0.238805 0.843385
-0.077161 0.038853 1.603673
-0.484038 0.020399 1.108101
-0.426909 0.006047 0.766616
-0.480426 0.046494 0.786551
-0.499170 0.019261 0.969784
-0.506898 0.053410 0.952345
-0.444497 0.070463 0.783602
-0.456812 0.033686 0.774247
-0.519438 -0.031645 0.879855
-0.533413 -0.054735 0.961776
-0.531989 -0.048927 0.976160
-0.480043 0.003288 0.824070
-0.475868 0.104181 0.982545
-0.424762 0.085402 0.748773
-0.475962 0.230197 1.108112
-0.518417 0.237516 0.984591
-0.501048 0.244757 1.379388
-0.023509 0.052006 1.745432
-0.145276 0.274940 1.587917
-0.136475 0.268634 1.647518
-0.222116 0.257642 1.566832
-0.246632 0.269040 1.487869
-0.222298 0.275235 1.419951
-0.451753 0.168018 0.994575
-0.468763 0.107939 1.134200
-0.441188 0.168796 0.992500
-0.476951 0.092507 0.930357
-0.461862 0.093203 0.886786
-0.486319 -0.012578 0.890588
-0.023537 0.064618 1.646983
-0.542279 0.107649 1.215185
-0.557836 0.093685 1.207077
-0.505113 -0.027666 1.095295
-0.415513 0.098679 0.709913
-0.474903 -0.025259 0.819867
-0.104854 -0.003377 1.311834
-0.470107 0.155176 0.983411
-0.465938 0.161397 0.977174
-0.616134 -0.059434 1.330331
-0.443725 0.080235 0.840524
-0.687359 -0.067128 1.394215
-0.495027 -0.032573 0.976285
-0.178560 0.266304 1.251655
-0.259104 0.250314 1.221217
-0.037244 0.248054 1.345059
-0.449938 0.116765 1.022961
-0.427811 0.116062 0.696086
-0.513389 0.220290 1.449726
-0.506488 -0.033209 0.984523
-0.499420 -0.034746 0.974219
-0.433656 0.080414 0.747076
-0.533885 -0.044414 0.987243
-0.427066 0.087507 0.686671
-0.027880 -0.025065 1.655152
-0.075771 0.119282 1.469990
-0.086356 0.135917 1.562141
-0.095086 0.196979 1.528172
-0.217594 0.253988 0.901233
-0.473020 0.238930 1.292306
-0.454665 0.086171 1.035241
-0.465085 0.093725 1.066462
-0.485366 0.044099 0.948538
-0.460647 0.042141 0.785814
-0.434297 0.087217 0.720801
-0.522591 -0.041063 0.912650
-0.431412 0.094436 0.700474
-0.104398 0.156634 1.491641
-0.230421 0.250772 0.942325
-0.324343 0.253602 1.256170
-0.416386 0.203878 1.302662
-0.422715 0.136281 1.071537
-0.537263 0.198776 1.293776
-0.485471 0.003435 1.134390
-0.476489 0.112412 1.026529
-0.492542 0.091793 1.021400
-0.502960 0.071967 0.948876
-0.493086 0.046709 0.907684
-0.518390 -0.048134 0.970792
-0.459791 0.035077 0.820710
-0.445935 0.049346 0.771997
-0.532757 -0.043925 0.948048
-0.424063 0.007188 0.712763
-0.535931 -0.057845 0.930002
-0.404924 0.090698 0.687672
-0.486721 0.107595 1.223722
-0.633802 -0.069388 1.241333
-0.479265 -0.013483 0.865967
-0.095512 -0.002976 1.320197
-0.288674 0.248959 1.134298
-0.415732 0.244200 1.287680
-0.440733 0.233630 1.024444
-0.554521 0.103819 1.239901
-0.469859 0.080548 0.933859
-0.477825 0.112313 0.919222
-0.408648 0.035302 0.712419
-0.448303 -0.011246 0.758876
-0.071676 -0.015771 1.651247
-0.092190 0.131897 1.519630
-0.098388 0.134746 1.509761
-0.118736 0.268852 1.057721
-0.130707 -0.005484 1.215761
-0.223483 0.123301 0.572804
-0.372794 0.124864 0.612335
-0.389071 0.122818 0.676462
-0.070688 0.139836 0.563588
-0.267437 0.126567 0.517286
-0.247205 0.128999 0.616500
-0.207749 0.127639 0.559261
-0.044788 0.030740 0.654767
-0.307737 0.124569 0.571147
-0.191017 0.128292 0.537142
-0.343032 0.124772 0.616313
-0.049279 0.036152 0.633893
-0.205934 0.125462 0.552809
-0.455367 0.121850 0.719754
-0.167324 0.137732 0.640237
-0.037096 0.031657 0.576634
-0.082640 0.060741 0.528626
-0.483712 0.124108 0.803838
-0.069666 0.137958 0.555704
-0.068799 0.073063 0.563266
-0.134834 0.129801 0.643208
-0.065450 0.080113 0.605649
-0.209406 0.124729 0.485304
-0.065446 0.137242 0.565996
-0.066407 0.078595 0.593154
-0.297264 0.127888 0.519988
-0.324685 0.126174 0.555518
-0.427720 0.124032 0.729330
-0.400512 0.122956 0.610108
-0.030318 0.017021 0.541128
-0.089834 0.134528 0.501787
-0.167598 0.129501 0.506540
-0.706280 0.012236 1.199859
-0.056639 0.096439 0.692687
-0.535717 0.121288 0.870413
-0.252051 0.126664 0.617590
-0.401138 0.125715 0.644670
-0.426719 0.127859 0.731056
-0.298851 0.132093 0.639981
-0.163276 0.137368 0.632404
-0.043304 0.050625 0.580037
-0.205044 0.128473 0.518057
-0.055032 0.066433 0.516355
-0.281307 0.126689 0.537982
-0.302464 0.126356 0.525978
-0.417725 0.131027 0.852984
-0.708612 0.125898 1.239812
-0.158159 0.070324 0.691604
-0.339722 0.131902 0.819362
-0.315599 0.118778 0.585859
-0.352009 0.127681 0.631503
-0.124676 0.143255 0.672442
-0.672636 0.077102 1.284112
-0.327614 0.126153 0.719860
-0.290495 0.128706 0.674182
-0.654714 0.106049 1.263632
-0.554556 0.059186 1.275823
-0.715074 0.126396 1.250233
-0.161867 0.128743 0.597392
-0.587355 0.117145 0.935016
-0.050851 0.071954 0.534836
-0.460360 0.128589 0.777709
-0.210233 0.128736 0.564009
-0.261353 0.128373 0.633547
-0.412870 0.122617 0.659899
-0.291212 0.125643 0.989425
-0.153880 0.066302 0.678210
-0.172426 0.071133 0.732937
-0.160439 0.131932 0.569095
-0.770353 0.095450 1.283486
-0.367053 0.122674 0.604244
-0.287729 0.126623 0.667008
-0.178775 0.120498 0.721921
-0.288507 0.125021 0.638757
-0.056007 0.051813 0.882171
-0.464486 0.127678 0.797210
-0.159137 0.046490 0.733065
-0.084722 0.052453 0.934525
-0.756846 0.014882 1.323687
-0.083605 0.065227 0.540474
-0.198747 0.128683 0.635453
-0.363080 0.126939 0.769676
-0.174305 0.127578 0.699394
-0.192267 0.130626 0.655609
-0.776266 0.014047 1.317103
-0.429954 0.128461 0.911571
-0.236680 0.129732 0.716495
-0.271914 0.127183 0.551449
-0.721025 0.116766 1.199117
-0.129941 0.074419 0.669219
-0.094062 0.132163 0.521330
-0.319565 0.132711 0.597473
-0.168642 0.125854 0.662382
-0.170234 0.096358 0.698983
-0.435524 -0.009963 1.277983
-0.423842 0.023841 1.304673
-0.683135 0.016674 1.324290
-1.092619 -0.078619 1.687823
-0.412529 0.036425 1.207237
-0.401771 0.138098 0.963603
-1.766436 0.193281 2.894625
-0.372297 0.037569 1.202391
-0.426781 0.052077 1.275021
-0.428511 -0.022029 1.259249
-0.436911 0.039357 1.290524
-0.137563 -0.009075 1.345729
-0.203311 0.100807 0.829247
-0.461747 0.129948 1.035111
-0.161026 0.045880 0.702377
-0.198355 -0.001082 1.422760
-0.714170 -0.025744 1.245351
-0.094546 0.005200 1.228787
-0.401541 0.122768 0.669270
-0.122673 0.135893 0.548014
-0.653478 0.124730 1.161904
-0.702457 0.039589 1.354353
-0.587588 0.027848 1.449330
-0.599862 0.029121 1.432861
-0.595368 -0.001904 1.431174
-0.619375 -0.009461 1.385416
-0.112187 0.072500 0.628751
-0.227045 0.129738 0.589694
-0.336728 0.128383 0.613100
-0.241562 0.123900 0.560173
-0.222093 0.128035 0.692507
-0.449710 0.126553 0.762773
-0.330513 0.124522 0.721095
-0.130301 0.071444 0.644685
-0.544427 0.126168 0.888346
-0.215630 0.080738 1.360566
-0.208137 0.132100 0.683911
-0.074920 0.040564 0.899771
-0.314812 0.127071 0.532060
-0.048981 0.075787 0.554651
-0.139580 0.049552 0.664721
-0.071413 0.010521 1.032590
-0.212449 0.128129 0.678728
-0.170941 0.130061 0.585948
-0.206313 0.001587 1.396303
-0.147666 0.039837 1.667557
-0.514869 -0.035420 0.999747
-0.191786 0.186248 1.633654
-0.187053 0.065356 1.511392
-0.100342 0.166459 1.524581
-0.669011 0.113678 1.039981
-0.061542 0.014868 1.126897
-0.039422 0.058707 0.438981
-0.377350 0.127696 0.791448
-0.277542 0.126834 0.653656
-0.069686 0.051489 0.862427
-0.179354 0.132340 0.719273
-0.060095 0.014236 1.094652
-0.255702 0.128192 0.735294
-0.770313 -0.022708 1.317626
-0.192280 0.124672 0.640320
-0.090276 0.072884 0.606706
-0.351264 0.123586 0.629971
-0.148378 0.133507 0.601507
-0.617504 0.118132 1.099915
-0.714771 0.116067 1.188713
-0.235752 0.128238 0.665959
-0.315447 0.138880 0.670931
-0.381229 0.125407 0.791841
-0.407333 0.130324 0.705405
-0.260531 0.128972 0.676145
-0.279731 0.132262 0.781877
-0.225486 0.130162 0.702046
-0.314989 0.127879 0.705779
-0.410599 0.129912 0.707175
-0.138746 -0.000824 1.374706
-0.474827 0.124848 0.915735
-0.452403 0.136893 0.817159
-0.315513 0.124118 0.619653
-0.057488 0.032685 0.924779
-0.173057 0.133360 0.602567
-0.176384 0.130233 0.632926
-0.475304 0.121533 0.790307
-0.344415 0.123395 0.646669
-0.378125 0.118545 0.767644
-0.078045 0.036928 0.977427
-0.178058 0.023147 1.200109
-0.545336 0.132190 1.026578
-0.087974 0.005691 1.152843
-0.156572 0.082423 1.380512
-0.759914 0.132755 1.427905
-0.752022 0.012973 1.275575
-0.264922 0.132177 0.645767
-0.184732 0.129494 0.559841
-0.423586 0.128168 0.769170
-0.678704 0.048535 1.323673
-0.649573 0.008145 1.335695
-0.359465 0.128365 0.998278
-0.599106 0.082592 1.339394
-0.355393 -0.006846 1.260181
-0.573880 0.060143 1.316529
-0.396024 0.129349 1.053158
-0.273240 0.050169 1.014278
-0.494550 0.127505 1.190241
-0.291658 0.131058 0.796007
-0.117186 -0.000156 1.332991
-0.711839 0.088665 1.192192
-0.360348 0.124627 0.728649
-0.097003 0.075143 0.627649
-0.531217 0.128395 1.124553
-0.271149 0.127439 0.645259
-0.356343 0.127267 0.761156
-0.428882 0.125708 0.717529
-0.433561 0.121716 0.706801
-0.348315 0.123861 0.598626
-0.074662 0.074667 0.580068
-0.335702 0.129817 0.809506
-0.514334 0.144893 0.865492
-0.223269 0.088199 0.919955
-0.227703 0.037030 0.951364
-0.272633 0.124953 0.757884
-0.581990 0.126184 1.191733
-0.228116 0.124898 0.801011
-0.154849 0.068143 0.673602
-0.583810 0.136200 0.941791
-0.313650 0.130925 0.789235
-0.195709 0.051521 1.202537
-0.132483 0.023856 1.171253
-0.332027 0.132032 0.970897
-0.347552 0.046562 1.273998
-0.225686 0.068252 0.934533
-0.247769 0.022011 1.150355
-0.529950 0.112031 1.370888
-0.375961 0.099818 1.241288
-0.365157 -0.019809 1.294065
-0.598670 0.134209 1.567517
-0.756586 0.033581 1.306229
-0.746098 -0.020432 1.297273
-0.746990 -0.021180 1.302455
-0.728979 0.038338 1.338341
-0.762679 0.019630 1.341330
-0.391533 0.122967 0.680197
-0.656414 0.143507 1.189724
-0.206234 0.079440 0.901490
-0.232604 0.039940 0.966535
-0.457719 0.140685 0.976013
-0.535309 -0.000071 1.303131
-0.561146 0.000912 1.353117
-0.765083 0.014568 1.299635
-0.756246 -0.019991 1.301048
-0.758191 -0.021596 1.298607
-0.523304 0.126056 1.109568
-0.085740 0.032469 1.291127
-0.282740 0.101232 1.021188
-0.289551 0.025407 1.344904
-0.392979 0.127113 0.769687
-0.259771 0.010924 1.247881
-0.298022 0.004915 1.280754
-0.130340 0.043693 1.281189
-0.126438 0.042628 1.247912
-0.324499 0.126659 0.570346
-0.268787 0.127382 0.550087
-0.295492 0.132781 0.577427
-0.754890 0.056554 1.306886
-0.152490 0.000664 1.193238
-0.149422 0.131153 0.628648
-0.134765 0.049357 1.362010
-0.655310 -0.023203 1.155822
-0.643169 0.012289 1.313406
-0.052764 0.065032 0.496745
-0.055423 0.073179 0.547991
-0.102047 0.079891 0.648497
-0.125055 0.076736 0.727792
-0.451668 0.124305 0.763402
-0.611157 0.114777 1.368932
-0.322819 -0.007008 1.294994
-0.700732 0.145053 1.147495
-0.616068 0.148275 0.979454
-0.691565 0.085947 1.160571
-0.712823 0.090632 1.232690
-0.359690 0.125028 0.640502
-0.850768 0.104349 1.439865
-0.109811 0.080368 0.664194
-0.672132 0.005971 1.346866
-0.172116 -0.020811 1.369484
-0.372325 0.124342 0.657977
-0.128563 0.074559 0.656966
-0.480977 0.209475 1.522910
-0.556077 0.002960 1.388983
-0.632043 0.028490 1.549155
-0.311296 -0.016692 1.387992
-0.310965 0.058279 1.244553
-0.760465 -0.004605 1.299310
-0.748428 -0.002528 1.305743
-0.771341 0.031952 1.296497
-0.720517 0.033847 1.308057
-0.733399 0.034454 1.311752
-0.753861 0.032392 1.296346
-0.938232 0.122949 1.289319
-1.323243 0.102163 1.562479
-0.753319 0.084698 1.302308
-0.659541 0.015808 1.348595
-0.688595 0.013115 1.342406
-0.770034 -0.023176 1.332179
-0.842190 0.116475 1.307448
-0.680169 -0.027280 1.340046
-0.702135 0.107506 1.327040
-0.461933 -0.024159 1.295252
-0.603033 0.090304 1.561012
-0.580701 -0.023424 1.457638
-0.515616 -0.011089 1.293046
-0.521217 -0.022807 1.284033
-0.563480 0.124933 1.479299
-0.485005 0.026056 1.276743
-0.557927 0.127352 1.413885
-0.477953 -0.007287 1.281773
-0.475763 -0.030024 1.314451
-0.505779 -0.021371 1.289527
-0.428397 -0.006701 1.259171
-0.498102 -0.031714 1.339934
-0.362496 0.026907 1.221363
-0.365852 0.040464 1.232886
-0.267016 0.059423 0.976557
-0.321121 -0.025088 1.350021
-0.457596 0.164840 0.992236
-0.489092 0.209186 0.971665
-0.171305 0.093843 0.698923
-0.208855 0.008640 1.205289
-0.128464 -0.000124 1.397004
-0.216689 0.131063 0.801858
-0.574812 0.059284 1.294397
-0.269954 0.102563 1.070875
-0.615724 0.007826 1.353334
-0.344076 0.131702 0.869892
-0.248327 -0.006229 1.193173
-0.303896 0.121343 1.000071
-0.242170 0.109023 0.973756
-0.717320 0.132487 1.352417
-0.360450 0.131637 0.894099
-0.627151 0.113600 1.304896
-0.511302 0.132710 0.984339
-0.326101 0.039093 1.188711
-0.486734 0.069002 1.267224
-0.411954 0.149605 0.993907
-0.369856 -0.019142 1.312635
-0.142694 0.279089 1.605458
-0.138815 0.257996 1.667215
-0.518204 0.086227 1.312633
-0.446157 0.177006 1.557286
-0.295016 0.102573 1.238717
-0.457868 0.240701 1.328430
-0.487401 -0.024650 1.069452
-0.430176 0.242359 1.392062
-0.247047 0.265262 1.480695
-0.611330 0.014269 1.333286
-0.648905 0.006698 1.347340
-0.504543 -0.002172 1.295165
-0.582928 0.129907 1.207901
-0.534949 -0.006112 1.329262
-0.797133 0.090219 1.330931
-0.487330 -0.001714 1.274993
-0.376094 0.134014 0.800389
-0.130687 0.043177 1.259074
-0.666755 -0.043221 1.303478
-0.193244 0.032191 1.281136
-0.191517 0.056039 0.816587
-0.462295 0.120743 0.894087
-0.792462 -0.027201 1.387118
-0.273106 0.131147 0.771087
-0.388760 0.125731 0.802492
-0.177260 -0.001380 1.255260
-0.099187 0.067727 0.579380
-0.182051 -0.000205 1.310155
-0.184310 0.033667 1.304000
-0.561539 0.124391 1.034200
-0.181072 0.030244 1.189301
-0.370651 0.128839 0.902119
-0.271219 0.006062 1.285043
-0.253642 0.054774 1.046697
-0.387382 0.127586 0.922471
-0.292819 0.128404 0.704043
-0.235946 0.050229 0.971111
-0.283750 0.127427 0.672129
-0.070429 0.036543 1.004427
-0.328314 0.123604 0.642254
-0.769037 0.055832 1.332161
-0.170642 0.140987 0.655964
-0.160097 0.045261 0.689134
-0.098719 0.066139 0.571917
-0.681131 -0.000530 1.334347
-0.065007 0.043751 0.878361
-0.144632 -0.007946 1.297326
-0.232580 0.128895 0.595158
-0.178259 0.097832 0.728725
-0.437754 0.002010 1.254909
-0.967463 0.034371 1.444161
-1.179862 -0.089560 1.750584
-0.427789 -0.014350 1.250366
-0.447224 0.036900 1.278484
-0.396857 0.026803 1.213290
-0.452037 0.094630 1.258688
-0.428793 -0.008785 1.256825
-1.051806 -0.076276 1.587207
-0.453921 0.139661 1.160413
-0.994323 -0.015674 1.483711
-0.372359 0.037984 1.169541
-1.064052 -0.078163 1.604349
-0.325651 0.125907 1.048512
-0.319614 0.130389 0.882179
-0.113373 0.134597 0.627208
-0.209333 0.035882 1.020333
-0.096908 -0.005698 1.296230
-0.634167 -0.063068 1.270778
-0.234621 0.130357 0.825873
-0.307168 0.004220 1.306269
-0.214209 0.291105 1.431184
-0.461543 0.242278 1.509098
-0.491476 0.082823 1.306499
-0.186229 0.262977 1.290459
-0.230055 0.085331 1.336619
-0.238377 0.051949 1.337174
-0.342262 0.252049 1.517438
-0.445884 0.086213 0.826776
-0.099099 0.168183 1.498228
-0.483615 0.226658 1.118135
-0.133856 0.264671 1.098135
-0.456832 0.051011 0.796450
-0.199122 0.266270 1.321640
-1.104517 0.115114 1.579485
-0.879367 0.051453 1.341377
-1.436347 0.172740 1.819014
-1.344189 0.099655 1.798944
-0.687402 0.081002 1.330047
-0.074685 0.037335 0.928393
-0.443653 0.130016 1.007389
-0.191576 0.064459 1.148414
-0.508977 0.128573 0.972202
-0.235947 0.071130 1.012539
-0.683125 0.071214 1.304473
-0.197568 0.127225 0.763056
-0.425665 0.076190 0.781420
-0.724288 0.092752 1.250778
-0.411064 0.131796 0.964739
-0.308250 0.126100 0.919186
-0.253122 0.119942 1.014865
-0.085823 0.040349 0.694943
-0.107301 0.009243 1.249537
-0.179351 0.062382 1.034527
-0.130685 -0.000301 1.387088
-0.202716 0.054322 1.264324
-0.266005 0.220372 1.384287
-0.453724 0.021125 0.964871
-0.147916 0.040161 1.692382
-0.148339 0.055464 1.632409
-0.506030 0.238242 1.420163
-0.301453 0.126265 1.245173
-0.389895 0.213060 1.508844
-0.426748 0.042041 1.256112
-0.418650 0.034589 1.229655
-0.304137 -0.012998 1.383543
-0.318820 -0.040481 1.765982
-0.299491 -0.011979 1.359607
-0.683883 -0.024367 1.175187
-0.406691 0.129743 0.955087
-0.148411 0.070753 0.683780
-0.539507 0.077748 1.364796
-0.339071 0.115822 1.250904
-0.496818 0.103973 1.129159
-0.529126 -0.043425 0.941694
-0.448117 0.033002 0.760841
-0.233256 0.126581 0.591817
-0.416874 0.124168 0.760465
-0.668047 0.076394 1.275445
-0.431950 0.128829 0.783916
-0.653856 -0.033023 1.363995
-0.195450 0.124865 0.754358
-0.334115 0.133561 0.779479
-0.257346 0.043792 1.087854
-0.182591 0.086660 0.765567
-0.632396 0.009036 1.276909
-0.703852 0.077601 1.335467
-0.211168 -0.027866 1.344779
-0.047638 0.073018 1.557524
-0.146110 0.035660 1.636776
-0.111990 0.037624 1.620311
-0.151437 0.056241 1.650354
-0.318293 0.248982 1.325646
-0.152095 0.040089 0.660701
-0.593677 0.135507 1.496007
-0.310920 -0.005184 1.312940
-0.276012 0.095739 0.990080
-0.601793 0.012778 1.323498
-0.198735 0.001659 1.371088
-0.300924 0.120969 0.670967
-0.099904 0.059252 0.970045
-0.801198 -0.023143 1.261866
-0.717186 -0.000426 1.310763
-0.648906 0.121731 1.289161
-0.328343 0.134040 0.733736
-0.093974 0.053183 0.906571
-0.546943 0.091974 1.298833
-0.221487 -0.003072 1.295528
-0.322786 0.135500 1.271467
-0.434632 0.225196 1.178772
-0.620752 0.090707 1.495236
-0.431134 0.093377 0.778751
-0.398239 0.199732 1.485426
-0.427554 0.095874 0.723198
-0.427372 0.087295 0.759599
-0.465073 0.074529 0.747939
-0.477367 0.006021 1.255288
-0.473902 0.024502 1.245433
-0.498498 -0.011759 1.324161
-0.150255 -0.000010 1.365452
-0.201383 0.034432 0.967864
-0.412445 0.126418 0.835834
-0.277175 0.005053 1.307395
-0.284351 0.049229 1.026983
-0.361832 0.021731 1.281951
-0.600379 0.135385 1.534706
-0.197037 0.033747 0.947668
-0.386181 -0.007360 1.415107
-0.364597 0.098937 1.234544
-0.341404 0.044787 1.225166
-0.363071 -0.015289 1.234438
-0.349206 0.106895 1.258183
-0.356524 0.095676 1.205278
-0.349477 0.072258 1.212159
-0.398626 0.033573 1.242168
-0.362862 0.075833 1.268293
-0.351207 0.039674 1.185859
-0.353321 0.070269 1.218265
-0.363087 0.047472 1.222457
-0.407526 0.022018 1.244473
-0.372255 0.097924 1.225720
-0.661289 0.010524 1.359185
-0.759640 -0.024487 1.323335
-0.607593 -0.002702 1.566936
-0.506816 0.097451 1.306045
-0.414929 0.103366 1.297148
-0.503545 0.101775 1.287197
-0.397248 0.105505 1.295235
-0.532101 0.076234 1.342423
-0.761973 0.014511 1.298675
-0.701869 0.066344 1.336602
-0.330175 0.249323 1.524030
-0.509941 0.121190 0.973402
-0.624000 0.117907 1.397440
-0.396761 0.126259 0.741835
-0.096456 0.055791 0.940350
-0.826935 -0.029808 1.413356
-0.238415 0.130312 0.720757
-0.234116 0.035058 1.034630
-0.328184 0.128929 0.959759
-0.616216 0.111672 1.283999
-0.291920 0.128918 0.995817
-0.264059 0.129185 0.865213
-0.375871 0.005308 1.222995
-0.297863 0.046697 1.252883
-0.290265 0.044161 1.210225
-0.586228 0.080590 1.336255
-0.245209 0.076734 0.950160
-0.238853 0.006765 1.109407
-0.239845 0.007270 1.113306
-0.713485 0.033571 1.256768
-0.517887 0.118148 0.844732
-1.245113 0.111211 1.494632
-2.169846 -0.193049 2.410666
-1.182004 0.100996 1.614421
-1.328967 0.097888 1.786065
-0.353153 0.128865 0.878582
-0.465012 0.107586 1.139711
-0.219006 0.041655 1.324504
-0.429452 0.088677 1.316366
-0.546601 0.241028 1.577228
-0.463349 0.088208 1.322092
-0.654706 0.018760 1.383130
-0.713476 -0.017498 1.316101
-0.530933 -0.015756 1.324941
-0.519650 0.023086 1.304932
-0.522072 0.002216 1.255949
-0.164600 0.047176 0.729525
-0.676328 0.015323 1.365975
-0.681650 -0.023384 1.211338
-0.483926 0.095177 1.300151
-0.483796 0.121833 1.413124
-0.708599 -0.023453 1.243840
-0.660040 -0.005909 1.267415
-0.677464 -0.004455 1.236519
-0.680800 0.033886 1.259549
-0.685320 0.030760 1.251662
-0.672123 0.011843 1.263332
-0.666910 0.008132 1.267093
-0.257169 0.126341 0.845418
-0.437429 0.121437 0.740818
-0.534422 0.133206 1.263481
-0.278105 0.007372 1.260632
-0.384149 0.127522 1.138813
-0.458488 0.063549 1.287693
-0.380600 0.136492 1.046932
-0.777422 -0.012819 1.290239
-0.707878 -0.007837 1.211322
-0.647644 0.008787 1.374002
-0.650212 0.001749 1.368578
-0.717053 0.001434 1.161319
-0.571952 -0.007529 1.455762
-0.540658 -0.000198 1.505738
-0.541259 0.126276 1.135034
-0.789539 0.130830 1.366209
-0.690348 0.005873 1.348940
-0.918473 -0.035286 1.521782
-0.677765 -0.017650 1.334467
-0.691117 0.127661 1.359010
-0.754858 0.118317 1.312091
-1.246483 0.163341 1.601343
-1.648918 0.087392 1.884210
-1.239680 0.104340 1.510648
-0.107190 0.270897 1.552715
-0.697594 0.010467 1.369299
-0.710705 0.108432 1.339516
-0.279675 0.154962 0.963819
-0.256868 0.018804 1.236588
-0.285281 0.126129 0.981289
-0.433431 0.131175 0.929895
-0.233961 0.092330 0.955567
-0.347697 0.052874 1.214699
-0.357566 0.038433 1.212049
-0.402601 0.003891 1.228882
-0.300937 0.013174 1.170645
-0.392741 -0.022319 1.335448
-0.325869 -0.000698 1.231571
-0.330111 0.002377 1.232076
-0.595713 0.125471 1.526863
-1.020871 0.095480 1.608178
-0.493391 -0.019602 1.316864
-0.530297 -0.033089 1.366768
-0.494764 -0.009503 1.318724
-0.573001 -0.025119 1.476584
-0.148007 -0.007515 1.322899
-0.276635 0.142327 0.806628
-0.246200 -0.010175 1.301923
-0.247540 -0.001690 1.260876
-0.211477 0.025038 1.316455
-0.623881 0.031467 1.423487
-0.347794 -0.010050 1.350641
-0.175223 0.117227 0.707852
-0.334029 0.012953 1.255543
-0.305891 -0.008826 1.412683
-0.355158 -0.006722 1.368791
-0.197780 0.006314 1.216722
-0.745418 0.015619 1.297949
-0.806321 0.027341 1.264166
-0.331851 0.013929 1.296376
-0.659452 -0.064006 1.556118
-0.145285 0.058391 0.902276
-0.332637 0.096682 1.177398
-0.274920 -0.002159 1.134834
-0.309105 -0.004812 1.175020
-0.299431 0.040987 1.138330
-0.321510 0.044627 1.232367
-0.475874 0.018967 1.171948
-0.547092 -0.007811 1.351420
-0.516676 -0.008897 1.301239
-0.515091 -0.024801 1.393958
-0.576180 0.078485 1.290980
-0.273095 0.122945 0.961858
-0.765723 0.136423 1.325775
-0.314323 -0.013371 1.434114
-0.260974 0.075684 1.082762
-0.444355 -0.021980 1.299685
-0.492758 -0.011017 1.362665
-0.409444 0.046511 1.217395
-0.427035 0.026281 1.269115
-0.358050 -0.009591 1.230633
-0.557400 0.154524 0.969551
-0.206023 0.037914 0.908835
-0.263052 0.046904 0.982351
-0.229517 0.108563 0.951000
-0.276116 0.142696 0.910932
-0.219088 0.063783 0.930643
-0.239594 0.108944 0.954797
-0.501379 -0.014625 0.905518
-0.773727 0.032483 1.302762
-0.353694 -0.029080 1.379650
-0.288335 -0.012570 1.382438
-0.727254 0.014555 1.276490
-0.664387 -0.057726 1.325306
-0.747365 -0.046239 1.452849
-0.630577 -0.027554 1.317047
-0.267535 0.048582 0.994451
-0.369570 0.129027 0.901957
-0.656588 0.174765 1.031957
-0.363227 0.134879 0.803929
-0.589078 0.141918 1.089681
-0.474694 0.128801 1.498256
-0.229640 0.065551 0.968206
-0.337081 0.139440 1.129071
-0.262609 -0.007622 1.283363
-0.475544 0.130437 0.925834
-0.454956 0.134389 0.902738
-0.379808 0.132677 0.764293
-0.493036 0.124907 0.816265
-0.229935 0.053846 1.236046
-1.008505 -0.070287 1.510096
-0.435998 0.001879 1.238400
-0.520972 -0.018465 1.307718
-0.458462 0.049723 1.306884
-0.408217 0.039909 1.238160
-0.409446 0.036065 1.191724
-0.372537 0.005295 1.210797
-0.091084 0.172367 1.521069
-0.514454 -0.026282 0.945881
-0.577209 0.041781 1.459007
-0.545169 0.042105 1.493034
-0.545385 0.050775 1.518275
-0.638217 0.031647 1.393847
-0.628924 0.032613 1.396325
-0.272856 0.225935 1.401666
-0.180526 -0.008989 1.212862
-0.177441 0.025503 1.169746
-0.129427 0.043120 0.730109
-0.231534 0.072515 0.974537
-0.367890 0.134820 0.787951
-0.348138 0.127202 1.084798
-0.442726 0.101594 1.295127
-0.447751 0.090280 1.322205
-0.439431 0.091412 1.316819
-0.388297 0.048116 1.243824
-0.224184 0.056426 1.313160
-0.201234 -0.009437 1.316214
-0.214859 0.002837 1.274797
-0.233319 0.130980 1.274804
-0.301385 0.113574 1.229035
-0.596818 0.036541 1.607316
-0.328008 0.022957 1.220905
-0.455949 0.104365 1.303353
-0.621923 0.038261 1.580283
-0.552152 0.157988 0.900826
-0.280323 0.129901 0.751368
-0.232724 0.128356 0.816716
-0.239762 0.052887 0.993244
-0.730227 0.076853 1.323778
-0.592578 0.157321 1.114485
-0.411982 0.140292 0.938322
-0.298079 0.131067 0.804534
-0.205887 0.087173 0.900933
-0.242315 0.005157 1.138178
-0.363613 -0.007363 1.296080
-0.194672 -0.005731 1.074913
-0.390119 0.142097 0.820194
-0.208016 0.124550 0.771289
-0.573411 -0.009437 1.348582
-0.269307 0.005596 1.259344
-0.374195 -0.007456 1.261681
-0.573589 0.025271 1.343242
-0.253258 0.020595 1.186025
-0.585174 0.127745 1.198120
-0.095587 0.261706 0.962059
-0.155251 0.272872 1.187625
-0.236929 0.245472 0.959007
-1.105296 0.124319 1.489534
-1.165704 0.128664 1.556429
-1.161089 0.122667 1.559758
-0.282886 0.257188 1.250316
-0.262494 0.261294 1.055197
-0.467522 0.075718 0.873442
-0.151394 0.067552 1.624894
-0.260781 0.240986 1.225346
-0.428139 0.086363 0.686295
-0.344602 0.126165 1.284935
-0.507944 0.113498 1.286791
-0.236992 0.120070 1.277740
-0.501056 0.132758 1.325042
-0.526172 0.021514 1.261357
-0.239345 0.252670 1.651248
-0.136742 0.009004 1.417429
-0.160624 0.049953 0.682980
-0.475172 -0.012208 0.868211
-0.516286 0.174604 1.064713
-0.360489 0.025368 1.201825
-0.222054 0.078177 0.948123
-0.585015 -0.024785 1.414321
-0.377379 -0.016871 1.284339
-0.534722 0.122836 1.490366
-0.645487 0.163288 1.079775
-0.226651 0.127905 0.909709
-0.690683 0.163004 1.079583
-0.630603 0.167480 0.997351
-0.269397 0.135500 0.885791
-0.691498 0.000022 1.332281
-0.806144 0.026137 1.262551
-1.603367 0.125675 1.834174
-0.797798 0.125304 1.290350
-0.865673 0.123503 1.334098
-1.060135 0.133676 1.421526
-0.905401 0.111948 1.358285
-1.021231 0.131459 1.377196
-0.552673 -0.027041 1.342728
-0.568507 -0.024943 1.378134
-0.570461 0.133636 1.587643
-0.715728 0.089233 1.200331
-0.537522 0.152185 0.898073
-0.284728 0.142675 0.924205
-0.262275 0.037534 1.141198
-0.278345 0.099633 1.000050
-0.275922 0.078410 0.990397
-0.284754 0.085942 1.146250
-0.139594 0.252464 1.632643
-0.437292 0.247068 1.401320
-0.220916 0.307698 1.492519
-0.429314 0.069198 0.816493
-0.589797 0.011055 1.301642
-0.419241 0.039891 1.264066
-0.469272 0.213231 1.319100
-0.248192 0.284069 1.525826
-0.532485 0.058439 1.121407
-0.547110 0.087381 1.202242
-0.527963 -0.035000 1.208679
-0.554806 0.094206 1.312073
-0.347165 0.256330 1.342583
-0.237843 0.109968 1.304917
-0.776042 0.051134 1.312107
-0.760171 -0.004709 1.298456
-0.278160 -0.034714 1.486122
-0.321006 0.004372 1.377635
-0.297296 0.016331 1.339288
-0.196940 -0.007749 1.340615
-0.564574 -0.036763 1.462008
-0.539081 -0.034096 1.441192
-0.539170 -0.033919 1.420727
-0.383343 0.004876 1.247146
-0.503711 0.100072 1.105025
-0.217610 0.069224 1.313291
-0.438891 0.250712 1.163018
-0.780976 0.012024 1.365337
-0.220346 0.090288 1.235417
-0.330765 -0.009441 1.334767
-0.561629 -0.008242 1.319034
-0.326704 -0.018647 1.284401
-0.355727 -0.000903 1.250813
-0.468342 0.147809 1.021765
-0.248945 0.076213 0.980949
-0.305894 0.137529 0.943761
-0.593818 0.063679 1.363950
-0.424119 0.121305 1.436812
-0.609068 0.137505 1.584008
-0.582685 0.134248 1.479147
-0.278870 0.251672 1.582916
-0.539191 0.047464 1.416793
-0.501439 0.201376 1.176784
-0.471214 0.068397 0.982822
-0.459872 -0.026636 0.966986
-0.499800 -0.019943 1.333972
-0.306463 -0.004111 1.272527
-0.374988 -0.011097 1.296328
-0.423146 -0.014587 1.236435
-0.799399 0.186231 1.214699
-0.367803 0.040891 1.242911
-0.331957 -0.019526 1.310840
-0.567950 -0.005583 1.374280
-0.634872 0.123256 1.270900
-0.925448 0.142136 1.245805
-0.501006 0.094072 1.094977
-0.536860 0.112935 1.094948
-0.205544 0.270514 1.348385
-0.194981 0.082725 1.551627
-0.530993 0.095451 1.309406
-0.545370 -0.022969 1.307655
-0.474338 0.206115 1.505498
-0.558357 -0.020411 1.410643
-0.529569 0.064930 1.121340
-0.094351 0.203164 1.518893
-0.452008 0.091796 0.721861
-0.420091 0.086092 0.700625
-0.091350 0.216785 0.838935
-0.244616 0.130390 1.332890
-0.207725 0.048763 1.324449
-0.408236 0.240630 1.278718
-0.329702 -0.018777 1.319672
-0.608780 -0.001407 1.403715
-0.747140 -0.005520 1.142968
-0.643745 -0.016034 1.376558
-0.688265 0.021293 1.230911
-0.680236 0.006994 1.243006
-0.669543 -0.008129 1.249427
-0.284860 0.008415 1.298717
-0.338288 -0.019976 1.327116
-0.576472 0.117344 1.480154
-0.610688 0.086682 1.391456
-0.587884 0.131873 1.337399
-0.857816 0.169948 1.292760
-0.950208 -0.015265 1.430483
-0.379889 0.059845 1.330785
-0.500399 0.131710 1.519097
-0.376871 -0.006800 1.328189
-0.578442 -0.009686 1.364563
-0.344414 0.018901 1.214036
-0.676841 -0.063209 1.607647
-0.339123 0.000693 1.258253
-0.696721 0.061865 1.342753
-0.544888 0.086962 1.198748
-0.312853 0.250995 1.216092
-0.660723 0.001313 1.316544
-0.422207 -0.003636 1.279816
-0.455720 -0.026132 1.341120
-0.346479 0.102314 1.225484
-0.377703 0.039353 1.224988
-0.617468 0.010466 1.401985
-0.628065 0.009913 1.389284
-0.619025 0.034634 1.413532
-0.574310 0.126905 1.475870
-0.307810 0.012427 1.193606
-0.593423 0.133738 1.518295
-0.337362 -0.031862 1.440299
-0.471421 0.227036 1.633660
-0.264788 0.014021 1.270901
-0.483210 0.059873 1.258340
-0.505034 0.046900 1.333497
-0.456454 0.177720 1.567734
-0.485421 0.173704 0.975933
-0.682631 0.123456 1.293264
-0.208736 0.011488 1.197816
-0.227329 0.111724 1.290431
-0.544525 -0.033022 0.973358
-1.070852 0.111856 1.326652
-1.005236 0.136857 1.349831
-0.709272 -0.003531 1.182152
-0.439594 0.045997 0.758174
-0.211705 0.233898 0.867059
-0.125835 0.281749 1.112064
-0.476531 0.141246 0.997193
-0.184661 0.065291 1.522421
-0.515425 -0.048143 0.982422
-0.067427 -0.001054 1.717596
-0.332789 -0.012227 1.440086
-0.350253 -0.014216 1.365499
-0.715554 -0.000797 1.322728
-0.690101 0.011883 1.333649
-0.396655 0.197557 1.477582
-0.517159 0.057960 1.095793
-0.349466 0.257952 1.548036
-0.234265 0.098326 1.322145
-0.104242 0.271956 1.458061
-0.129833 0.041555 1.617895
-0.359819 0.268722 1.526120
-1.259721 0.129356 1.664533
-0.690286 0.014735 1.340781
-1.306488 0.110891 1.557798
-0.828511 0.102416 1.304058
-0.472746 0.080064 0.939565
-0.283954 0.024639 1.309924
-0.400234 0.049333 1.349642
-0.507508 0.128298 1.479258
-0.642215 -0.033182 1.540517
-0.431788 0.249605 1.140257
-0.450453 0.114725 1.015774
-0.112898 0.299863 1.113484
-0.273721 0.253142 1.087928
-0.631767 0.296350 1.232158
-0.488202 0.180319 0.982713
-0.458027 0.238277 1.480801
-0.435941 0.139944 1.092040
-0.201900 0.092576 1.534940
-0.436354 0.078956 0.799680
-0.450918 0.068812 0.796184
-0.515043 0.129107 0.935073
-0.453460 0.128276 0.858100
-0.453365 0.035265 0.801142
-0.330027 0.127051 0.953054
-0.275205 0.133569 0.890480
-0.236675 0.021619 1.085770
-0.295876 0.113439 1.080579
-0.316613 0.043692 1.210117
-0.317771 -0.011356 1.261751
-0.342379 0.068611 1.181671
-0.280447 0.219398 1.269914
-0.555452 0.216001 1.567722
-0.495946 0.210170 0.986221
-0.455349 0.121769 1.105677
-0.223481 0.051851 1.337728
-0.474209 0.103587 1.330817
-0.432933 0.125194 1.038079
-0.308422 0.087612 1.320356
-0.511447 0.063989 1.329489
-0.518634 0.133223 1.353727
-0.303773 0.084619 1.298627
-0.593671 0.011373 1.308429
-0.622029 -0.014391 1.380879
-0.584862 -0.007004 1.431724
-0.609681 -0.005601 1.395535
-0.631250 -0.008630 1.360258
-0.460967 0.120654 1.040505
-0.517386 0.098791 1.098024
-0.277087 0.221847 1.258876
-0.581625 -0.000841 1.598179
-0.171501 -0.008528 1.892645
-0.395271 0.042603 1.259073
-0.358753 0.243149 1.533417
-0.376793 0.266989 1.441703
-0.462146 0.239582 1.276231
-0.597025 0.003561 1.349786
-0.546344 0.078075 1.410772
-0.530467 -0.021857 1.245948
-0.628311 0.120878 1.409016
-0.795081 0.151720 1.208317
-1.049225 0.135573 1.296099
-0.526746 -0.005069 1.326850
-1.016919 0.130017 1.270827
-0.854676 0.157946 1.298051
-0.656764 0.152529 1.193520
-1.017512 0.147528 1.481429
-0.854123 0.184774 1.221704
-0.865038 0.192953 1.229548
-0.640056 0.143897 1.165608
-0.513519 0.122252 1.481575
-0.521607 -0.003945 1.275588
-0.512471 0.000262 1.228889
-0.505130 0.021905 1.269045
-0.298868 -0.000647 1.319507
-0.249930 0.017217 1.295777
-0.364017 0.106906 1.284467
-0.458468 0.245558 1.343109
-0.634913 0.094844 1.527499
-0.101445 0.138546 1.547601
-0.105331 0.077282 1.553763
-0.433759 0.093383 0.787334
-0.125662 0.060595 1.641361
-0.115582 0.075341 1.557853
-0.383055 0.255702 1.456456
-0.459535 0.112079 1.289200
-0.188895 0.270361 1.295159
-0.583096 -0.001607 1.601702
-0.191687 0.275547 1.315829
-0.293376 0.492958 2.180373
-0.425741 0.002496 1.212753
-0.493028 0.042983 0.956770
-0.164953 -0.007470 1.326234
-0.716427 -0.015737 1.298234
-0.555625 0.109793 1.243662
-0.396321 -0.026693 1.344178
-0.245512 0.259252 1.097090
-0.244963 0.257637 0.994345
-0.481690 0.036284 0.857256
-0.756919 0.147682 1.231370
-0.652854 -0.013730 1.354019
-0.278811 0.229470 1.245350
-0.216823 0.108282 1.572367
-0.448238 0.094050 0.828289
-0.340775 0.254280 1.329116
-0.076649 -0.002005 1.691910
-0.486096 0.078327 1.063443
-0.472892 0.003454 1.070521
-1.467466 0.079437 1.692240
-1.080907 0.104869 1.556507
-1.418450 0.155759 1.874803
-1.353084 0.156823 1.743021
-0.901834 0.178909 1.345892
-0.603684 0.025829 1.401611
-0.553760 0.027578 1.273613
-0.814055 0.132671 1.263653
-0.659884 -0.025370 1.305147
-0.876927 0.105876 1.326917
-1.268139 0.113307 1.721005
-0.875333 0.030836 1.339661
-0.994377 0.120948 1.359039
-0.791729 0.130218 1.368091
-1.291039 0.132722 1.742418
-0.637838 0.029320 1.371475
-0.758928 0.035558 1.320916
-1.249873 0.122691 1.698774
-0.483259 -0.026831 1.295260
-0.465027 0.024223 1.220826
-0.888379 0.071296 1.347182
-0.499405 0.154281 1.122782
-0.849009 0.145468 1.293102
-0.711834 0.148409 1.269242
-0.571446 0.075161 1.276034
-0.331261 -0.006802 1.278311
-0.471817 0.249485 1.089560
-0.373075 0.041098 1.252843
-0.711589 0.037610 1.339128
-0.643532 0.009193 1.381478
-1.363824 0.154027 1.760268
-1.226854 -0.042202 1.701605
-1.209577 -0.045674 1.683985
-0.305728 0.057567 1.222731
-0.556628 0.236409 1.568084
-0.347687 0.271201 1.507393
-0.474017 0.040989 1.354176
-0.449424 0.064747 1.339165
-0.211809 -0.010835 1.314645
-0.856718 -0.030847 1.483373
-0.903322 -0.033785 1.500315
-0.841385 -0.030383 1.460535
-0.338726 0.097731 1.191583
-0.327372 -0.007258 1.240157
-0.634513 0.207456 1.564745
-0.327187 0.061618 1.223512
-0.565401 -0.033826 1.428421
-0.368749 0.079808 1.243354
-0.486054 0.037674 1.404670
-0.393985 0.218428 1.528077
-0.226670 0.098173 1.297666
-0.214575 0.025669 1.326472
-0.099495 0.165171 1.467785
-0.161136 0.275334 1.215964
-0.106187 0.264780 1.526322
-0.510439 0.093784 1.061657
-0.458261 0.238205 1.224313
-0.092677 0.122322 1.524829
-0.110004 0.142495 1.501816
-0.983266 0.086584 1.250847
-0.730602 0.036605 1.326185
-0.510113 0.234010 0.969451
-0.501382 0.118301 0.960539
-0.420704 0.005903 0.755299
-0.850369 0.028455 1.309788
-0.812235 -0.007738 1.271231
-0.821662 0.027407 1.279428
-0.848016 0.029732 1.314960
-0.850541 0.023004 1.311021
-0.447888 0.085666 0.866778
-0.499951 -0.012511 0.911855
-0.108459 0.255280 1.484655
-0.518469 0.004679 1.533447
-0.505288 0.123323 1.477687
-0.356422 0.135037 1.333238
-0.306954 0.054561 1.249588
-0.305512 0.103842 1.216876
-0.508634 0.113261 1.278117
-0.222105 0.068763 1.294858
-0.473415 0.109390 1.143103
-0.607464 0.227966 1.536641
-0.471835 0.242420 1.572557
-0.633496 0.208330 1.558634
-0.422548 0.134905 1.467422
-0.375307 0.083510 0.636643
-1.825271 0.199935 2.251574
-0.379849 0.049012 1.265987
-0.528217 -0.022217 1.337221
-0.800691 0.133330 1.383503
-0.774612 0.088849 1.312241
-1.932705 0.144586 2.194009
-0.205586 0.027950 1.329735
-0.308000 0.230831 1.419880
-0.248706 0.260630 1.630612
-0.211619 0.105370 1.537959
-0.973738 0.128160 1.323548
-0.808569 0.133244 1.252473
-0.691615 0.026642 1.229935
-0.676109 -0.006644 1.239273
-0.689619 0.027804 1.233065
-0.650876 -0.000509 1.288189
-0.707555 -0.003176 1.315961
-0.630598 0.167462 1.160925
-0.448188 0.143692 1.035935
-0.412255 0.047416 1.229489
-0.632110 0.006240 1.392771
-0.708339 0.077233 1.355691
-1.392077 0.151681 1.797893
-0.603777 0.190345 1.547108
-0.528990 0.092251 1.307906
-0.314821 -0.019947 1.418675
-0.625426 -0.018864 1.572220
-1.197632 0.124025 1.442047
-0.553509 0.117061 1.259299
-0.517784 0.116455 1.206151
-0.813436 0.138393 1.210125
-0.640037 -0.029524 1.336009
-1.148292 0.117355 1.401681
-0.785522 0.142615 1.220865
-0.541877 0.001750 1.297571
-0.820953 0.131110 1.318514
-0.635976 -0.005962 1.315475
-1.049696 0.155091 1.377486
-0.548284 -0.034863 1.354654
-0.719893 -0.045712 1.394792
-0.446288 0.135483 1.140429
-0.495331 -0.027190 1.388231
-0.479529 -0.026453 1.344651
-0.431589 0.017292 1.271818
-0.433508 0.016042 1.284165
-0.383435 0.037937 1.196004
-0.398957 0.022401 1.223978
-0.220751 0.117534 1.521651
-0.302004 -0.000304 1.350013
-0.591502 -0.022201 1.472889
-0.241407 0.150684 1.438804
-0.406219 0.134062 1.303092
-0.502463 0.218601 1.590016
-0.444120 0.165029 1.002506
-0.294025 0.074129 1.301686
-0.647068 0.015738 1.341009
-1.234884 0.133380 1.632911
-0.827226 -0.008857 1.288319
-1.311973 0.138926 1.717317
-1.063095 0.118322 1.330145
-0.692780 0.105734 1.329651
-1.226740 0.136775 1.617066
-0.054288 0.093426 1.455937
-0.072487 0.126063 1.506580
-0.152579 0.067466 1.650038
-0.115323 0.075398 1.560824
-0.265408 0.246945 1.244977
-0.362562 0.231731 0.930316
-0.478334 0.007045 0.841819
-0.752926 -0.006546 1.134921
-0.550115 0.084267 1.321947
-0.188770 0.277794 1.311012
-0.254107 -0.012886 1.344151
-0.408555 0.084021 0.682228
-1.185933 0.104391 1.446727
-1.711470 0.108532 1.951797
-1.712358 0.129527 1.973134
-1.967513 0.140267 2.223885
-0.543828 0.134678 1.376738
-0.482960 0.204236 1.528879
-0.102789 0.269120 1.002761
-0.031991 0.000766 1.016460
-0.129770 0.280350 1.589796
-0.531284 -0.034910 1.217255
-0.261074 -0.011775 1.313956
-0.359576 0.247406 1.526937
-0.529270 0.195074 1.283669
-0.269776 0.184623 1.505932
-0.510050 0.240878 1.394434
-0.247864 0.133130 1.297158
-0.430022 0.035608 1.230759
-0.550228 -0.027048 1.478037
-0.596650 0.174779 1.117643
-0.372768 0.103109 1.275458
-0.231833 0.243918 1.620094
-0.426923 0.086730 0.759829
-0.496459 0.160998 1.007771
-0.091142 0.172054 1.507977
-0.746477 0.116339 1.302347
-0.058249 0.087687 1.638222
-0.565893 0.080623 1.451374
-0.280823 -0.017120 1.365820
-0.681428 0.027482 1.343926
-0.694366 0.006274 1.231653
-0.494322 0.038894 1.355223
-0.407238 0.102684 1.302394
-0.359458 0.082910 1.229534
-0.450423 0.065497 1.342514
-0.472108 0.096782 0.916955
-0.101876 -0.003448 1.794812
-0.506390 -0.030447 1.099265
-0.526157 0.193734 1.271990
-0.375318 0.203594 1.315679
-0.654121 0.028491 1.371343
-0.435052 0.088653 1.359496
-0.992086 0.179189 1.273777
-1.195393 0.156861 1.551190
-0.912053 0.159907 1.367577
-0.494306 0.146374 1.103666
-0.467033 -0.005205 1.269139
-0.467704 -0.007512 1.292925
-0.463990 -0.022560 1.301566
-0.782409 0.015304 1.341717
-0.448310 0.047418 1.279060
-1.247762 0.121423 1.696939
-0.321662 0.258548 1.263049
-0.466258 0.248174 1.527757
-0.231421 0.118432 1.233528
-1.338354 0.084452 1.646111
-0.370935 -0.022430 1.247801
-0.463476 0.050420 1.321666
-0.451000 0.036474 1.295894
-0.638264 0.168789 1.182098
-0.422058 -0.007982 1.234272
-0.459638 0.045103 1.355080
-0.584593 0.019200 1.282689
-0.798011 -0.022441 1.258074
-0.492575 0.238630 1.357733
-0.463475 0.168328 1.003373
-0.262246 0.216876 1.348199
-1.426825 0.124892 1.662267
-0.611027 0.007416 1.318140
-0.811952 0.169706 1.243412
-0.523490 0.129973 1.125606
-0.833631 0.163655 1.265385
-0.772552 0.152184 1.251512
-0.869316 0.150416 1.316826
-0.759515 0.172372 1.189304
-0.474894 0.057524 1.236489
-0.899780 -0.006854 1.377604
-0.493587 -0.019318 1.277263
-0.566237 0.129721 1.434636
-0.595954 0.142578 1.239280
-0.640376 0.153657 1.170640
-0.948477 0.076844 1.413076
-0.630316 0.033351 1.402710
-0.641291 0.060197 1.336060
-0.574721 0.101199 1.455065
-0.703449 0.043470 1.370191
-0.538285 0.051007 1.521850
-0.567205 0.043660 1.471611
-0.061872 -0.001146 1.426538
-1.067753 0.119038 1.451802
-1.107442 0.128958 1.581131
-1.022909 0.084171 1.502104
-0.591306 0.140577 1.230171
-1.047614 0.035633 1.538049
-0.461530 0.096547 1.287306
-0.853298 0.186023 1.277058
-0.533843 0.165291 1.181061
-0.802308 0.160128 1.286420
-0.061441 0.100827 1.541929
-0.453684 -0.026497 0.955297
-0.112494 0.146098 1.521263
-0.509787 -0.034155 1.110298
-0.411901 0.433960 1.672130
-0.387991 0.215922 1.360678
-0.270952 0.264940 1.558306
-0.942617 0.133074 1.397568
-0.677139 0.156175 1.229156
-1.208008 0.139347 1.647561
-0.491936 -0.000946 1.258346
-0.895004 0.195179 1.329533
-0.508019 0.118807 1.195428
-0.696562 0.144437 1.239677
-0.495027 0.003739 1.265563
-1.813484 -0.117846 2.296729
-1.312130 0.088170 1.769397
-0.765673 0.089142 1.322838
-0.571237 -0.008416 1.338534
-0.967975 0.182185 1.240511
-0.692226 0.144150 1.234810
-1.211517 0.113443 1.659958
-0.786256 0.161867 1.213408
-0.935961 0.110563 1.209823
-0.785606 0.112392 1.306960
-1.389219 0.126298 1.614548
-0.259095 -0.013613 1.340905
-0.509544 -0.025531 1.177054
-0.341664 0.059596 0.591791
-1.139760 0.142732 1.504042
-1.463690 0.129178 1.695954
-0.896369 0.152251 1.354259
-1.047948 0.104432 1.319227
-0.816288 0.124692 1.266170
-0.768225 0.088525 1.315648
-0.609111 0.124217 1.236416
-0.619390 0.151030 1.283000
-0.727376 0.133745 1.286854
-0.811243 0.093321 1.349264
-0.626384 0.139855 1.278736
-0.553617 0.072321 1.261296
-0.675298 -0.035739 1.326117
-1.138347 0.128128 1.522550
-1.523675 0.162759 1.940751
-0.779279 0.187953 1.184119
-0.839445 0.178531 1.265655
-0.605858 0.161549 1.128935
-0.667559 0.148787 1.208739
-0.648513 0.149822 1.181430
-0.842593 0.063235 1.300791
-0.749837 -0.026660 1.348018
-0.811079 0.120014 1.341307
-0.784526 0.179326 1.201427
-0.548664 0.119935 1.437189
-0.461871 0.005718 1.207452
-0.208725 0.226032 0.851520
-0.491040 0.046056 0.856029
-0.056676 0.223895 1.150434
-1.119414 0.134373 1.492552
-1.020434 0.118010 1.396184
-0.939754 0.128742 1.282781
-1.033403 0.106791 1.296846
-0.748968 0.050547 1.305511
-0.930476 0.126900 1.274292
-0.931794 0.149956 1.241230
-1.029846 0.139626 1.373937
-1.149266 0.120453 1.630113
-0.107958 0.076871 1.569213
-0.472132 0.186713 1.621027
-0.304213 0.051009 1.390981
-0.301238 0.049736 1.373160
-1.441548 0.153424 1.855219
-0.791056 -0.006354 1.291547
-1.494665 0.158548 1.912380
-0.871452 0.028715 1.332945
-0.494422 0.022079 1.235104
-1.088451 0.180152 1.386037
-0.978603 0.184948 1.253409
-0.496336 0.007045 1.304974
-0.833072 0.133973 1.332378
-0.569053 0.099318 1.271252
-0.526384 0.020648 1.289087
-0.428079 0.185181 1.481242
-0.402626 0.133104 1.294270
-0.414460 0.211722 1.292423
-0.634450 -0.014781 1.568166
-0.465149 0.035981 1.373448
-0.362955 0.008050 1.242403
-0.408250 0.018844 1.299000
-0.501898 0.031236 1.455577
-0.450325 -0.000091 1.390137
-0.309765 0.026650 1.224973
-0.479418 0.043355 1.335875
-0.428694 0.097608 1.330819
-0.309028 0.036085 1.220461
-0.536105 0.046834 1.410018
-0.304427 0.057649 1.313827
-0.316247 0.238190 1.538090
-0.264014 0.041136 1.470800
-0.316632 0.094518 1.593405
-0.568952 -0.031770 1.326887
-0.092447 0.185766 1.469665
-0.365593 0.087946 1.255917
-0.336764 0.018238 1.233423
-0.579239 -0.033359 1.338000
-0.383534 0.151331 1.440198
-0.216810 0.036701 1.311286
-0.235522 0.299375 1.517544
-0.333773 0.143386 1.294947
-0.326544 0.273637 1.587692
-0.511284 0.096845 1.110540
-0.458376 0.203827 1.281375
-0.322175 0.060605 1.084960
-0.712485 0.003049 1.206593
-0.412505 0.054219 1.320603
-0.748304 -0.006953 1.135979
-0.644653 -0.060687 1.428660
-0.484654 0.221157 1.356536
-0.501282 -0.033540 1.090567
-0.675594 -0.069577 1.518289
-0.441492 0.163582 0.998297
-0.511715 0.120936 1.131212
-0.737160 0.031803 1.296323
-0.780375 0.086032 1.308281
-0.896612 0.114657 1.250934
-0.919179 0.076476 1.355422
-0.441310 0.125668 0.830815
-0.490324 0.176012 0.983008
-0.520575 0.212231 1.212183
-0.502346 -0.028914 1.058500
-0.682928 -0.062852 1.337612
-0.296321 0.254997 1.163374
-0.408959 0.240087 1.279774
-0.178522 0.059708 1.391309
-0.425737 0.242039 1.232022
-0.763374 0.048394 1.293120
-0.677250 0.121964 1.331896
-0.470607 -0.029729 0.980227
-0.228673 0.125271 1.254437
-1.779660 0.167260 2.242434
-0.859724 0.032066 1.324912
-0.799438 -0.006314 1.267124
-0.858042 0.020834 1.320541
-0.453654 0.093043 0.855704
-0.494352 0.225108 0.976512
-0.874290 0.124448 1.341895
-0.674398 -0.019171 1.316105
-1.102959 0.128793 1.480228
-0.888749 0.121866 1.337727
-1.105783 0.094490 1.382994
-1.049512 0.134356 1.407794
-0.888946 0.134786 1.211773
-0.983660 0.099963 1.239028
-0.908631 0.142784 1.149369
-1.138430 0.088724 1.401037
-0.387687 0.202445 1.427102
-0.526138 0.133878 1.367149
-0.237310 0.243499 1.611585
-0.097981 -0.012918 1.535645
-0.040221 0.039323 1.579702
-0.064437 0.073711 1.601395
-0.427385 0.104288 0.792258
-0.610995 0.083479 1.368859
-0.770930 0.143633 1.344744
-0.800490 0.145426 1.236782
-0.530335 -0.021193 1.288744
-0.447011 0.167078 1.007095
-0.130742 0.062683 1.697012
-0.654094 0.013971 1.293281
-0.671776 0.042015 1.282105
-0.471007 0.043923 0.823762
-0.150111 0.042216 1.666682
-0.288127 0.117452 1.186916
-0.459455 0.062623 0.826584
-0.572850 0.112564 1.277855
-0.547861 0.108915 1.233755
-0.601098 0.119098 1.216489
-0.557408 0.013130 1.225321
-0.587435 0.024437 1.376787
-0.688900 0.102967 1.322305
-1.116942 0.107438 1.594494
-1.028962 -0.065996 1.527954
-0.227173 0.068572 1.381848
-0.239319 0.126107 1.295346
-0.484076 0.108082 1.001147
-0.496479 -0.030582 1.029013
-0.260382 0.238048 1.214010
-0.769298 0.134678 1.216832
-0.612448 0.117305 1.230955
-0.599829 0.012901 1.440438
-0.425031 0.081927 1.350726
-0.247437 -0.001859 1.256154
-0.588413 0.035249 1.585747
-0.468894 0.068319 0.977643
-0.720944 0.136676 1.187492
-1.122478 0.114481 1.378984
-0.454901 0.174702 1.557572
-0.504786 0.065168 1.319612
-0.289350 -0.019381 1.383999
-0.767374 -0.023023 1.341329
-0.937001 0.166759 1.569182
-0.846916 0.134634 1.208368
-0.498638 0.228166 0.984232
-0.262571 0.273825 1.064240
-0.200655 0.270657 1.337159
-0.998605 0.126271 1.256684
-0.913338 0.072368 1.373278
-0.716196 0.070616 1.357925
-0.688747 0.113136 1.307774
-0.617107 0.130315 1.254519
-1.100318 0.133537 1.470412
-1.278768 -0.102630 1.767601
-0.968114 0.120487 1.329124
-1.351359 0.108209 1.808704
-1.355898 0.146756 1.760901
-1.784503 0.126669 2.060410
-0.787837 0.091651 1.334057
-0.500905 0.061167 1.307749
-0.850766 0.136345 1.211772
-0.910903 0.143204 1.150772
-1.131656 0.111056 1.388220
-1.008136 0.128085 1.264106
-0.559948 0.055883 1.287537
-1.212417 0.118823 1.456205
-0.570867 0.100734 1.275686
-0.578405 0.115055 1.291350
-0.929935 0.136903 1.258898
-0.559589 0.127629 1.171579
-0.854368 0.129500 1.177687
-0.945495 0.145977 1.263992
-0.924796 0.153821 1.387557
-0.523208 0.074563 1.341774
-0.110064 0.158747 1.534993
-0.524040 0.101558 1.183806
-0.469391 0.236370 1.282439
-0.246741 0.136315 1.301843
-0.237085 0.050388 1.317114
-0.330689 0.001235 1.212857
-0.072421 0.020472 1.284026
-0.384963 0.257121 1.464767
-0.118924 0.056505 1.556050
-0.261293 0.214103 1.367944
-0.222733 0.123167 1.491220
-0.200037 0.091305 1.509119
-0.618513 -0.025585 1.455420
-0.352652 0.074479 1.190690
-0.243064 0.266899 1.131641
-0.468269 0.129430 1.140905
-0.476225 0.115890 0.975259
-0.465042 0.128722 1.134013
-0.261655 0.174594 1.490966
-0.530453 0.075675 1.380576
-0.522046 0.121087 1.008557
-0.923707 0.114532 1.283675
-0.996178 0.123271 1.358515
-0.952112 0.135582 1.287819
-0.657684 0.120692 1.301401
-0.873228 -0.032303 1.508475
-1.672286 0.104228 1.919099
-0.758033 0.122883 1.322307
-1.195472 0.103141 1.445042
-0.714326 0.128552 1.264461
-0.577392 0.126390 1.208627
-0.693039 0.126820 1.231476
-0.903291 0.133289 1.231756
-0.840764 0.124566 1.169012
-0.625139 0.092405 1.506129
-0.570231 0.031561 1.543247
-0.327039 -0.025479 1.465359
-0.433202 0.087508 1.354366
-0.323328 -0.025567 1.444910
-0.370417 0.078974 1.246704
-0.168585 0.269879 1.227252
-1.740884 0.129603 1.998455
-0.925218 0.137402 1.404586
-0.259236 0.278136 1.551115
-0.524262 0.259364 1.438127
-0.295027 -0.019433 1.424222
-0.309826 -0.001289 1.212198
-0.638225 -0.022520 1.579715
-0.505406 0.037942 1.429967
-0.347374 0.050325 1.224409
-0.327545 0.023013 1.212112
-0.545549 0.126862 1.324356
-0.216404 0.253190 1.555496
-0.429603 0.132637 1.302526
-0.216908 0.050166 1.275707
-0.299289 0.014158 1.335492
-0.205034 0.295684 1.411481
-0.108848 -0.005724 1.616491
-0.553323 0.000803 1.483637
-0.558092 -0.009558 1.475938
-0.554515 0.048389 1.500330
-0.430182 0.082587 0.760835
-0.479528 0.221103 0.930510
-0.430633 0.167092 1.500513
-0.533456 0.002954 1.519284
-0.593679 0.030568 1.445655
-1.125802 0.136160 1.600786
-0.423665 0.060447 1.345661
-0.428403 0.063270 1.365209
-0.486627 0.205423 1.539552
-1.008936 0.132168 1.361354
-0.881672 0.126706 1.215383
-0.711711 -0.005180 1.193554
-0.734966 -0.007256 1.161332
-0.298003 0.052817 1.268208
-0.680169 0.236606 1.577767
-0.510613 0.058825 0.956562
-0.177063 0.067888 1.563455
-0.260357 0.167893 1.539304
-0.967574 0.111181 1.341712
-0.920448 0.111359 1.197885
-0.911358 0.077560 1.195855
-0.908715 0.117402 1.261684
-0.061100 -0.000432 1.328025
-0.452074 0.085580 0.853970
-0.355868 0.262987 1.650914
-0.513616 0.038109 1.446256
-0.470275 0.107803 1.138301
-0.526889 0.211618 1.230646
-0.423849 0.121489 1.017066
-0.703431 0.010476 1.266855
-0.943645 0.113695 1.309342
-0.875150 0.068046 1.336500
-0.144639 0.269274 1.145276
-0.250045 0.256866 1.011551
-0.748431 -0.024812 1.326013
-0.930172 0.123819 1.323551
-0.464365 0.212781 0.923206
-0.607862 0.008431 1.084458
-0.091056 0.252577 0.924660
-1.014029 0.087176 1.457369
-1.315859 0.155660 1.699399
-1.187583 0.131426 1.579061
-1.647986 0.131428 1.872165
-1.128162 0.129644 1.509270
-0.857663 0.048016 1.185210
-0.921877 0.078974 1.203721
-0.744034 0.103401 1.301508
-0.838156 0.121893 1.267266
-0.900438 0.066572 1.485059
-0.916057 0.152222 1.482435
-1.281212 0.141030 1.678251
-0.967148 0.095782 1.247206
-0.657382 0.006884 1.392877
-0.854367 0.118980 1.317261
-0.832355 0.062468 1.285883
-0.974026 0.117347 1.341016
-0.606967 -0.018147 1.564463
-0.304861 -0.014826 1.353555
-0.185474 0.295791 1.344097
-0.972560 0.129063 1.430987
-0.122313 0.263782 0.936645
-0.029311 0.000536 0.758760
-0.079877 0.258855 0.902602
-0.368069 0.063538 0.637337
-0.551662 -0.025828 1.313737
-0.620317 0.039001 1.522000
-0.359780 0.100667 1.266648
-0.512222 0.097754 1.292961
-0.612770 -0.013386 1.472770
-0.258824 -0.013213 1.336741
-0.447147 -0.003409 1.386234
-0.538144 -0.002908 1.579170
-0.397390 0.049442 1.270980
-0.562927 -0.001924 1.623447
-0.500539 0.037639 1.402472
-0.555771 -0.000548 1.532843
-0.308940 -0.004577 1.252415
-0.280325 0.191264 1.341711
-0.526362 0.074621 1.372682
-0.486708 0.035057 1.375401
-0.490296 0.003531 1.144055
-0.271573 -0.013649 1.332214
-0.237025 0.104674 1.283111
-0.237868 0.017331 1.295313
-0.329929 0.231631 1.589468
-0.518906 0.086677 1.239154
-0.412002 0.236507 1.088979
-0.586493 -0.035501 1.375800
-0.618225 0.232399 1.569325
-0.219723 0.267652 1.389080
-0.440889 0.231846 1.363797
-0.592727 0.026834 1.438808
-0.593107 -0.034260 1.521289
-0.272642 -0.005422 1.268895
-0.336280 0.261628 1.302014
-0.596408 0.245505 1.606532
-0.353101 0.128945 1.307278
-0.519366 0.083451 1.333666
-0.326400 0.060777 1.218716
-0.617527 0.036459 1.567496
-0.637863 -0.008906 1.573296
-0.474306 0.085639 1.319637
-0.463215 0.045392 1.332347
-0.477133 0.036480 1.393981
-0.250135 0.197712 1.314658
-0.508804 0.205166 1.191345
-0.380706 0.023885 1.260568
-0.584814 0.036785 1.576831
-0.622708 -0.010377 1.581520
-0.499153 0.107899 1.135199
-0.238114 0.167744 1.277569
-0.253342 0.288145 1.552398
-0.252523 0.271020 1.508394
-0.502824 0.003812 1.166779
-0.570651 -0.031587 1.328592
-0.315515 0.257403 1.526746
-0.497858 0.022460 1.132436
-0.231456 0.083647 1.292339
-0.512300 0.049717 1.343068
-0.483915 0.077744 1.345272
-0.334153 -0.006913 1.197494
-0.221176 0.066752 1.292991
-0.382456 0.213679 1.342713
-0.614311 0.231322 1.551627
-0.431211 0.086233 1.348474
-0.446589 0.063106 1.334778
-0.294726 0.040064 1.326683
-0.261886 0.039907 1.441077
-0.420199 0.087393 1.367376
-0.569710 0.003356 1.417092
-0.675949 0.209385 1.578844
-0.527509 0.058463 1.113797
-0.490170 0.153913 0.992674
-0.406793 0.035216 1.294824
-0.409816 0.027524 1.304991
-0.640965 0.096494 1.541049
-0.599568 0.040355 1.562702
-0.593667 -0.021808 1.519976
-0.462928 0.041600 1.314437
-0.551088 0.088831 1.167429
-0.249247 0.200999 1.359628
-0.675514 0.005027 1.359452
-0.707663 -0.002377 1.177593
-0.594212 -0.022540 1.431020
-0.239630 0.142033 1.538303
-0.253704 0.140740 1.403031
-0.131522 0.256957 1.071402
-0.106581 0.259797 1.500863
-0.511615 -0.002759 1.546130
-0.359696 0.190285 1.263072
-0.276992 0.253064 1.232538
-0.447393 0.234476 1.210224
-0.104949 0.157281 1.499832
-0.553691 -0.001887 1.617328
-0.472478 0.101707 1.296548
-0.330292 0.013794 1.193717
-0.640626 0.052983 1.557824
-0.189875 0.187018 1.637800
-0.470090 0.218774 1.583489
-0.441904 0.045615 1.334996
-0.488980 0.207792 1.542023
-0.506589 0.071277 1.285936
-0.493051 0.040446 1.375744
-0.652315 0.028558 1.585921
-0.357954 0.243881 1.516507
-0.088236 -0.002056 1.534118
-0.146271 0.072742 1.627448
-0.526516 -0.021130 1.246899
-0.628354 0.024770 1.536079
-0.493599 0.093011 1.071634
-0.384659 0.198476 1.410476
-0.530677 0.101381 1.116237
-0.208245 0.277411 1.381419
-0.301873 0.059218 1.285500
-0.557152 0.075460 1.421919
-0.377738 0.258526 1.510612
-0.493310 0.040165 1.381264
-0.621145 -0.003693 1.577087
-0.342698 0.092615 1.211949
-0.598703 0.024597 1.582315
-0.630787 -0.013773 1.558915
-0.528017 0.045974 1.523552
-0.546420 -0.003089 1.486322
-0.559089 0.207840 1.407396
-0.252201 0.132348 1.337989
-0.540348 0.051379 0.984839
-0.748035 -0.002399 1.329082
-0.296106 0.248968 1.158527
-0.456494 0.244370 1.416237
-0.491991 0.076236 1.069876
-0.291361 -0.018700 1.409567
-0.463071 0.048624 0.968671
-0.551798 0.002273 1.504278
-0.215377 0.026089 1.349531
-0.454768 0.086454 1.328298
-0.555627 0.094194 1.322517
-0.629720 -0.014055 1.557893
-0.304669 0.072539 1.220166
-0.207588 0.025825 1.311704
-0.504958 0.081334 1.346832
-0.301028 0.219488 1.542894
-0.536802 0.086087 1.331624
-0.228729 0.213301 1.619088
-0.470167 0.206016 1.331324
-0.309724 0.241191 1.542582
-0.258906 -0.012990 1.334665
-0.258505 0.144489 1.293463
-0.401551 -0.014893 1.283536
-0.407614 0.178189 1.424613
-0.430955 0.080290 1.370952
-0.355244 0.263208 1.504249
-0.560038 0.082118 1.378497
-0.542549 0.127268 1.309548
-0.254272 0.164059 1.269457
-0.506727 0.068325 1.326019
-0.433509 0.115590 1.285331
-0.294676 0.020445 1.431992
-0.312195 0.250463 1.576315
-0.407237 0.176484 1.416820
-0.591348 0.257788 1.656845
-0.344093 0.243999 1.555673
-0.329809 0.093173 1.227531
-0.233659 0.044975 1.325261
-0.297233 0.076666 1.272883
-0.512589 0.116370 1.291901
-0.421714 0.179255 1.459369
-0.231130 -0.009896 1.325378
-0.562864 0.023381 1.360380
-0.581631 -0.020623 1.434169
-0.643435 -0.008785 1.583355
-0.301667 -0.019322 1.332409
-0.558344 0.142138 1.366147
-0.519098 0.118691 1.305568
-0.516310 0.135972 1.335660
-0.514978 0.039452 1.433719
-0.541687 0.083227 1.300874
-0.570819 -0.021102 1.389945
-0.508102 0.238768 1.607871
-0.301995 0.217350 1.535004
-0.242627 0.183741 1.258416
-0.261475 0.039540 1.432574
-0.304957 -0.001936 1.235217
-0.304875 0.053862 1.217822
-0.534389 -0.035592 1.223847
-0.363834 0.959282 3.553331
-0.477527 0.004049 1.101706
-0.293738 0.022080 1.449936
-0.211548 0.034798 1.291279
-0.335487 0.027255 1.157770
-0.370409 0.026916 1.238240
-0.447964 0.034024 1.349677
-0.468621 0.003207 1.430574
-0.471353 0.069354 1.307847
-0.461818 0.075609 1.315231
-0.294730 0.041287 1.340066
-0.540191 0.092787 1.321753
-0.640940 0.033462 1.592645
-0.646068 0.054213 1.568548
-0.523443 0.018001 1.253388
-0.280265 0.211449 1.379475
-0.289227 0.015658 1.324351
-0.345845 0.024083 1.276169
-0.662033 0.041839 1.674131
-0.270217 -0.003032 1.256510
-0.434603 0.263146 1.634415
-0.318055 0.262948 1.543740
-0.531841 0.021959 1.265509
-0.615086 0.102683 1.430019
-0.391679 -0.016766 1.258461
-0.248506 0.007652 1.277300
-0.408245 0.018592 1.298496
-0.392202 0.081751 1.301523
-0.266796 -0.002326 1.249748
-0.245334 -0.009667 1.293197
-0.283829 0.061775 1.576603
-0.532987 0.239266 1.493894
-0.203461 0.012424 1.289545
-0.328449 0.006816 1.212998
-0.449454 0.233762 1.466227
-0.526095 0.212016 1.541120
-0.427149 0.079540 1.359417
-0.436639 0.078004 1.399551
-0.393059 0.015789 1.277935
-0.397830 -0.001216 1.275381
-0.771403 0.652084 3.284308
-0.610553 -0.013753 1.526530
-0.568819 -0.001443 1.639006
-0.370125 0.051197 1.220988
-0.330314 0.017850 1.125512
-0.326141 0.088144 1.210023
-0.364483 0.060860 1.214269
-0.562274 0.082858 1.382419
-0.409015 0.002078 1.315937
-0.522685 0.209422 1.531067
-0.522497 0.088758 1.319864
-0.424231 0.108098 1.312603
-0.448335 0.065957 1.314397
-0.327202 0.019800 1.258605
-0.407304 0.092853 1.321861
-0.308978 0.074248 1.218724
-0.371341 0.017187 1.252133
-0.468509 0.037260 1.381754
-0.335928 0.044686 1.218644
-0.324406 0.019685 1.189454
-0.483127 0.066508 1.307510
-0.660106 0.024247 1.638720
-0.623182 0.021468 1.686536
-0.632727 0.028819 1.753812
-0.606489 -0.017885 1.552106
-0.426243 0.046709 1.332641
-0.460429 0.023615 1.360641
-0.506072 0.050211 1.348422
-0.432393 0.076347 1.336498
-0.298695 0.211669 1.517994
-0.388164 0.127159 1.346166
-0.419381 0.083004 1.295042
-0.604647 0.032192 1.639243
-0.450064 0.019858 1.340462
-0.603745 0.039870 1.626181
-0.443649 0.068131 1.315832
-0.481756 0.088702 1.343093
-0.400057 0.065761 1.290901
-0.566913 0.060630 1.462937
-0.411323 0.051317 1.298284
-0.636259 0.019367 1.558939
-0.601973 0.035160 1.548766
-0.449425 0.059658 1.272955
-0.420322 0.084126 1.308456
-0.347399 0.062412 1.241087
-0.522657 0.045538 1.395678
-0.416974 0.043701 1.316824
-0.572073 -0.014348 1.652211
-0.352713 0.017033 1.582858
