ply
format ascii 1.0
element vertex 2664
property float x
property float y
property float z
end_header
-0.335670 -0.120739 1.011298
-0.317195 -0.101080 0.937213
-0.214229 -0.136724 1.067052
-0.371958 -0.159661 1.165205
-0.336688 -0.079730 0.848513
-1.176005 -0.482697 1.940480
-0.213985 -0.251370 1.506390
-0.485230 -0.098907 0.939114
-0.754780 -0.224980 1.420060
-0.739345 -0.200882 1.334437
-0.635745 -0.107859 0.984671
-0.065021 -0.237169 1.462862
-0.335481 -0.091068 0.912411
-0.616226 -0.124887 1.066013
-0.206931 -0.076109 0.831502
-0.409335 -0.055849 0.761072
-0.143707 -0.116936 0.995118
-0.161904 -0.130338 1.043636
-0.150317 -0.140890 1.083405
-0.174325 -0.113622 0.981832
-0.212568 -0.125421 1.019508
-0.236557 -0.123386 1.017179
-0.297085 -0.103059 0.943595
-1.201038 -0.478006 2.050364
-1.090868 -0.353844 1.861768
-0.351971 -0.113490 0.985216
-0.367597 -0.112046 0.974254
-0.418170 -0.085502 0.878611
-0.122756 -0.242926 1.469563
-0.202092 -0.057874 0.762598
-0.419405 -0.116420 0.993263
-0.437801 -0.067550 0.819904
-0.533922 -0.078635 0.864856
-1.253462 -0.351465 1.927520
-0.123550 -0.090096 0.893476
-0.283184 -0.038774 0.695040
-0.501611 -0.083051 0.887869
-0.567752 -0.089442 0.902033
-0.186057 -0.138705 1.077395
-0.245971 -0.106804 0.949778
-0.224226 -0.075671 0.833281
-0.242767 -0.074686 0.833404
-0.241393 -0.284696 1.608801
-0.183728 -0.122055 0.984489
-1.389935 -0.778053 2.300592
-0.046430 -0.354318 1.702035
-0.241094 -0.030366 0.659638
-0.133085 -0.059865 0.795223
-0.120371 -0.034904 0.689087
-0.377057 -0.063877 0.799018
-1.166490 -0.358544 1.847542
-0.447103 -0.055011 0.779936
-0.094737 -0.073127 0.835902
-0.480355 -0.136940 1.076602
-0.583055 -0.213632 1.369016
-0.754699 -0.259969 1.546862
-0.440397 -0.101446 0.933897
-0.681333 -0.228209 1.420693
-0.618014 -0.209131 1.348251
-1.163806 -0.430439 1.928306
-1.166292 -0.380949 1.935378
-0.515652 -0.080391 0.883492
-0.037614 -0.070452 0.836240
-0.441346 -0.054985 0.771177
-0.484923 -0.049997 0.752371
-0.037355 -0.069117 0.823013
-0.412053 -0.059747 0.788508
-0.398067 -0.058033 0.772838
-0.063272 -0.031134 0.688023
-0.430006 -0.057186 0.786705
-0.481529 -0.051771 0.771250
-0.414225 -0.058065 0.775195
-0.499653 -0.080804 0.876611
-0.499043 -0.061167 0.816307
-0.383626 -0.057194 0.747618
-0.409888 -0.057474 0.764041
-0.076636 -0.062916 0.795392
-0.483412 -0.068170 0.808705
-0.047662 -0.096483 0.927533
-0.353966 -0.045771 0.723952
-0.135958 -0.060410 0.789301
-0.397491 -0.060026 0.778740
-0.122064 -0.067921 0.818785
-0.099466 -0.070996 0.821804
-0.356748 -0.062506 0.773256
-0.130613 -0.058847 0.764056
-0.126920 -0.070076 0.829604
-0.391406 -0.057712 0.760872
-0.553650 -0.080914 0.892818
-0.480538 -0.052339 0.771277
-0.290544 -0.088361 0.883035
-0.501798 -0.097561 0.937396
-1.177318 -0.376669 1.923933
-1.165142 -0.438146 1.927444
-1.143012 -0.294241 1.892992
-1.142485 -0.366097 1.871822
-1.103133 -0.357187 1.879989
-0.110329 -0.070773 0.815773
-0.270725 -0.121507 1.009946
-0.498281 -0.082764 0.881413
-0.264483 -0.048796 0.737218
-0.170489 -0.051912 0.746946
-0.262771 -0.048301 0.731393
-0.171855 -0.052163 0.751349
-0.120320 -0.034771 0.689710
-0.172988 -0.157522 1.150732
-0.508685 -0.222922 1.403371
-0.487461 -0.249113 1.491958
-0.443917 -0.086092 0.885304
-0.410127 -0.058960 0.782622
-0.315347 -0.068999 0.814899
-0.399120 -0.090804 0.892169
-0.168632 -0.086798 0.881505
-0.097306 -0.221927 1.375983
-0.098045 -0.210436 1.361964
-0.229995 -0.091277 0.904237
-0.206379 -0.080006 0.847566
-0.377564 -0.094610 0.921365
-0.055089 -0.141675 1.088339
-0.194880 -0.042368 0.468563
-0.076712 -0.092285 0.895978
-0.067805 -0.052644 0.746864
-0.398847 -0.077859 0.851663
-0.409980 -0.076283 0.842647
-0.497067 -0.101043 0.955299
-0.115309 -0.196135 1.290135
-0.095872 -0.213777 1.373635
-0.462902 -0.072672 0.841560
-0.188306 -0.041759 0.453086
-0.762026 -1.122250 4.070844
-0.890013 -0.581723 2.175189
-1.565122 -1.220118 4.360207
-1.475494 -1.168686 4.178331
-0.140498 -0.215164 1.365089
-0.269500 -0.120795 0.997827
-0.554911 -0.197057 1.300023
-0.189810 -0.096519 0.906890
-0.172732 -0.172617 1.202154
-0.535871 -0.103072 0.948624
-0.085664 -0.101527 0.938877
-0.428957 -0.058421 0.797011
-0.383457 -0.072290 0.832599
-0.169927 -0.114041 0.999357
-0.177274 -0.062635 0.799395
-0.507336 -0.080734 0.875123
-0.278410 -0.080710 0.836476
-0.440328 -0.055238 0.769854
-0.080679 -0.103280 0.962389
-0.314717 -0.068826 0.814945
-0.217325 -0.062332 0.798621
-0.098786 -0.122648 1.032030
-0.166541 -0.050607 0.734547
-0.485239 -0.083604 0.885374
-0.068021 -0.058114 0.775606
-0.310420 -0.068290 0.800261
-0.399248 -0.088376 0.874415
-0.208257 -0.095436 0.910370
-0.440156 -0.102948 0.945315
-0.091844 -0.088014 0.883409
-0.549021 -0.104431 0.965957
-0.107096 -0.048222 0.732511
-0.050708 -0.047524 0.737784
-0.226096 -0.076457 0.838521
-0.426037 -0.074768 0.839170
-0.284733 -0.071008 0.812429
-0.256303 -0.073986 0.829540
-0.087914 -0.122401 1.017616
-0.078189 -0.155147 1.186377
-0.327572 -0.084653 0.859881
-0.571736 -0.102948 0.956765
-0.114718 -0.074572 0.888118
-0.193218 -0.147269 1.112756
-1.186143 -0.395917 1.865736
-0.549030 -0.104686 0.967668
-0.142354 -0.094004 0.906978
-0.471308 -0.148076 1.125677
-0.167579 -0.102342 0.947203
-1.161852 -0.389240 1.831240
-0.279593 -0.080640 0.837094
-0.181124 -0.079207 0.832765
-0.331695 -0.098716 0.925558
-0.242288 -0.075442 0.824442
-0.211168 -0.243802 1.446582
-0.181426 -0.277390 1.482609
-0.686382 -0.204124 1.324975
-1.177892 -0.457375 1.912683
-0.213663 -0.250313 1.494569
-0.387047 -0.078933 0.864845
-0.201862 -0.058357 0.760410
-0.251096 -0.058165 0.771558
-0.213462 -0.078501 0.855621
-0.551291 -0.116340 1.011426
-0.496864 -0.062368 0.799074
-0.324981 -0.088552 0.886131
-0.385706 -0.072078 0.826411
-0.170645 -0.087277 0.887617
-0.090298 -0.123254 1.028959
-0.182988 -0.090449 0.893044
-0.273955 -0.072583 0.828131
-0.148739 -0.104533 0.952970
-0.419718 -0.079893 0.855172
-0.547408 -0.142273 1.104630
-0.617928 -0.139589 1.102253
-0.190503 -0.111579 0.967651
-0.050410 -0.047258 0.734090
-0.074591 -0.148143 1.137183
-0.424792 -0.073618 0.835808
-0.286193 -0.070184 0.813719
-0.171276 -0.052194 0.747705
-0.391582 -0.084115 0.869738
-0.319536 -0.077007 0.838923
-0.256924 -0.073812 0.833296
-0.601653 -0.159339 1.163769
-0.272823 -0.089297 0.892600
-0.246703 -0.076141 0.844214
-0.113874 -0.091396 0.921369
-0.228415 -0.425899 1.576852
-1.410480 -0.791486 2.334908
-0.403634 -0.107308 0.957614
-1.064273 -0.499936 2.594245
-0.472037 -0.136513 1.061091
-0.279183 -0.100376 0.928902
-0.677398 -0.203048 1.331671
-0.495363 -0.224295 1.393176
-1.238972 -0.528963 2.396784
-0.397074 -0.135292 1.057599
-0.365181 -0.112026 0.967436
-0.488238 -0.134132 1.062373
-0.159796 -0.082413 0.836983
-0.487232 -0.084514 0.890387
-0.184463 -0.109099 0.944031
-0.448247 -0.087980 0.897678
-0.702815 -0.201529 1.328350
-0.646548 -0.232399 1.436144
-0.211045 -0.085057 0.867548
-0.598972 -0.120204 1.049514
-0.433657 -0.074960 0.852490
-0.515817 -0.120296 1.015413
-0.153458 -0.227110 1.407306
-0.474646 -0.110699 0.978143
-0.722225 -0.201239 1.334225
-0.539743 -0.116904 1.009545
-0.232396 -0.305239 1.597492
-1.124226 -0.409718 2.191690
-0.316205 -0.076683 0.832171
-1.269506 -0.726717 2.185185
-1.244572 -0.491829 2.118667
-0.340981 -0.098700 0.934962
-0.660096 -0.187619 1.271086
-0.434834 -0.115907 0.990571
-0.666201 -0.169516 1.218694
-0.230195 -0.467595 1.585295
-1.217294 -0.478894 2.071701
-0.597617 -0.156701 1.152970
-0.140085 -0.116406 0.989150
-1.111169 -0.351421 1.889019
-0.125490 -0.119825 1.016557
-0.536367 -0.117940 1.013305
-0.657890 -0.207981 1.338748
-0.233626 -0.098963 0.906990
-0.169781 -0.208173 1.343543
-1.304649 -0.721076 2.546005
-0.300048 -0.118893 0.999481
-0.308348 -0.087435 0.872132
-0.435361 -0.116389 0.992048
-1.177533 -0.484853 1.942310
-0.275154 -0.160695 1.154991
-0.540358 -0.248519 1.506883
-0.553502 -0.227339 1.417575
-2.100906 -0.826586 3.681039
-2.112461 -0.798886 3.541692
-0.572752 -0.188708 1.264493
-0.171686 -0.081842 0.867116
-0.552670 -0.142948 1.112646
-0.251947 -0.084915 0.876496
-0.253717 -0.094514 0.912120
-0.143218 -0.117700 1.002560
-0.135543 -0.202601 1.313334
-0.411224 -0.092360 0.916373
-0.832925 -0.243113 1.503578
-0.194384 -0.110153 0.965512
-0.192477 -0.097964 0.918259
-0.209497 -0.084971 0.863537
-0.085084 -0.102094 0.944402
-0.669532 -0.170094 1.222989
-0.674052 -0.165124 1.197231
-0.489097 -0.080169 0.860420
-1.182801 -0.379392 1.928958
-1.156377 -0.298640 1.916444
-0.428477 -0.103119 0.927450
-0.370571 -0.092702 0.898295
-0.952213 -0.390366 2.027047
-0.327910 -0.178547 1.233629
-0.507289 -0.134504 1.071144
-0.607550 -0.233810 1.454873
-1.327150 -0.721725 2.183751
-0.683232 -0.205445 1.343397
-0.506778 -0.082881 0.892019
-0.425119 -0.348423 1.853456
-1.076992 -0.600951 2.352856
-0.470327 -0.391592 2.017349
-0.602104 -0.348953 1.847081
-0.570875 -0.410744 2.088008
-0.937124 -0.380333 1.995106
-0.678874 -0.305823 1.702655
-0.610242 -0.310327 1.718104
-0.816182 -0.319398 1.769380
-0.388081 -0.996522 3.389693
-2.094269 -0.860043 3.515733
-0.382291 -1.016727 3.388406
-0.923459 -0.557053 2.171258
-0.896288 -0.491001 2.231415
-2.404995 -1.424024 4.101603
-1.108391 -0.547353 2.188222
-0.350625 -0.195581 1.294914
-1.099565 -0.543766 2.169277
-0.370104 -0.109797 0.966822
-0.319007 -0.160448 1.164341
-0.120442 -0.116900 0.988604
-0.243253 -0.102594 0.916238
-0.107638 -0.069802 0.802462
-0.310874 -0.070107 0.820408
-0.678648 -0.205918 1.339845
-0.292276 -0.102528 0.932879
-0.484698 -0.084281 0.887956
-0.094195 -0.073255 0.836667
-0.216268 -0.089893 0.879131
-0.341398 -0.095217 0.903229
-0.121075 -0.244227 1.475816
-0.198035 -0.111814 0.979363
-0.378273 -0.077554 0.856854
-0.254394 -0.073430 0.826212
-0.598657 -0.119760 1.046143
-0.422085 -0.081387 0.859640
-0.487642 -0.100044 0.940921
-0.487152 -0.099707 0.941696
-0.069376 -0.057731 0.774548
-0.406957 -0.090034 0.893144
-0.188884 -0.322594 1.490870
-0.187428 -0.276941 1.489143
-0.191658 -0.111690 0.970695
-0.098434 -0.124247 1.047165
-0.572461 -0.173506 1.215149
-0.813210 -0.333217 1.801799
-0.241384 -0.122680 0.988669
-2.147722 -0.879134 3.594551
-0.330855 -0.261392 1.532175
-0.286741 -0.184817 1.245213
-0.231715 -0.313503 1.579910
-0.509504 -0.416420 2.105132
-0.484358 -0.493347 2.413265
-0.212973 -0.136586 1.063589
-1.124675 -0.424830 2.199654
-1.115849 -0.369089 1.964408
-0.152581 -0.226451 1.401809
-0.410487 -0.081945 0.868543
-0.593662 -0.294347 1.648475
-1.425799 -1.474121 4.341480
-1.821272 -1.413990 4.460371
-1.628632 -1.467724 4.321126
-1.348661 -0.780212 2.681093
-1.313383 -0.769366 3.342538
-0.218994 -0.111567 0.981398
-0.178130 -0.079868 0.852700
-0.166662 -0.079902 0.848960
-0.182477 -0.089667 0.886652
-0.107057 -0.063751 0.791475
-0.464611 -0.072814 0.843881
-0.415832 -0.060356 0.795924
-0.376631 -0.070483 0.818271
-0.623962 -0.210287 1.355334
-0.271948 -0.126418 1.028049
-0.636754 -0.236574 1.457645
-0.205537 -0.094531 0.900806
-0.324214 -0.118201 1.002284
-0.645323 -0.207235 1.345505
-0.344410 -0.088867 0.891161
-0.235404 -0.095241 0.902633
-0.718754 -0.229298 1.437350
-0.152159 -0.141465 1.090242
-0.525307 -0.148281 1.118021
-0.183943 -0.109291 0.951037
-0.414783 -0.085117 0.858057
-0.356789 -0.096386 0.922723
-0.480429 -0.131693 1.051112
-0.118918 -0.212272 1.362623
-0.182958 -0.091151 0.895963
-0.178526 -0.129239 1.030758
-0.232502 -0.350140 1.584566
-0.601596 -0.218033 1.395360
-0.586629 -0.216067 1.380413
-0.434238 -0.107176 0.960598
-0.254750 -0.144536 1.099411
-0.225460 -0.192141 1.278955
-0.152504 -0.087775 0.879819
-0.548247 -0.115724 1.009055
-0.416949 -0.086386 0.876901
-0.144318 -0.093980 0.912365
-1.130284 -0.442028 1.840046
-1.140537 -0.364363 1.869978
-0.195654 -0.139474 1.076894
-0.204723 -0.079424 0.850234
-0.426469 -0.088432 0.898781
-0.252918 -0.101666 0.919130
-0.231506 -0.320895 1.591887
-1.175694 -0.492646 1.942873
-1.287928 -0.731559 2.185800
-0.362432 -0.075607 0.823160
-1.286302 -0.664486 2.120019
-0.127575 -0.237573 1.444370
-0.236356 -0.248290 1.496073
-0.141416 -0.096001 0.921530
-0.313670 -0.100151 0.923584
-0.390258 -0.093533 0.910673
-0.201947 -0.092429 0.898830
-0.190198 -0.112266 0.979929
-0.499369 -0.120722 1.018216
-0.313147 -0.189144 1.260047
-0.846805 -0.298249 1.704549
-0.617458 -0.210107 1.350925
-0.549564 -0.229751 1.420669
-0.754864 -0.801965 3.486014
-1.264235 -0.774415 2.611121
-0.580817 -0.409343 2.071070
-0.465252 -0.429621 2.254577
-0.606914 -0.418017 2.113216
-0.565337 -0.343231 1.815117
-0.352980 -0.113875 0.987140
-0.227231 -0.469524 1.582732
-0.453616 -0.104924 0.954736
-0.083422 -0.099413 0.909702
-0.540392 -0.113159 0.993208
-0.489888 -0.119456 1.001578
-0.158891 -0.222179 1.371529
-1.092379 -0.382691 2.002769
-1.331355 -0.723658 2.191091
-1.458205 -1.012641 4.268242
-1.368512 -1.151983 4.260433
-1.042172 -0.886321 3.914610
-1.167901 -0.853985 3.781901
-1.426069 -0.882126 3.894568
-1.090745 -0.852258 3.789401
-0.263441 -0.105305 0.947493
-0.506637 -0.134240 1.068294
-0.376709 -0.112202 0.977847
-0.352707 -0.114015 0.983703
-0.584082 -0.192420 1.279188
-0.265715 -0.198792 1.301730
-0.369725 -0.130079 1.042283
-0.326482 -0.176084 1.215794
-0.211420 -0.248924 1.494290
-0.441627 -0.193180 1.290693
-0.601082 -0.227977 1.463294
-0.131698 -0.272323 1.508539
-0.523673 -0.193214 1.292226
-0.155196 -0.131572 1.045760
-1.260940 -0.718659 2.168481
-0.918338 -0.439903 2.245875
-0.932408 -0.446143 2.277589
-0.470517 -0.083333 0.874826
-0.427002 -0.080433 0.868037
-0.289615 -0.101769 0.927324
-0.262701 -0.105024 0.951294
-0.482709 -0.127097 1.042857
-0.419103 -0.130757 1.048209
-0.239530 -0.124423 1.022053
-0.199285 -0.092339 0.892540
-0.494730 -0.134501 1.066732
-1.180350 -0.560387 1.935002
-0.186473 -0.290564 1.492755
-1.227471 -0.581529 2.007854
-1.116047 -0.365222 1.921669
-1.092955 -0.360307 1.887595
-0.206341 -0.128352 1.035854
-0.142583 -0.190115 1.267727
-0.737972 -0.203699 1.346546
-0.476233 -0.137114 1.069439
-0.870784 -0.217920 1.405298
-0.273475 -0.086181 0.870534
-0.497476 -0.117515 1.005493
-1.098241 -0.363433 1.877522
-1.130713 -0.289919 1.877705
-0.258049 -0.128825 1.044536
-0.370836 -0.130289 1.044468
-0.434162 -0.355270 1.897985
-0.474187 -0.328002 1.784676
-0.480862 -0.265395 1.531925
-0.437949 -0.275249 1.572341
-0.520406 -0.312835 1.735621
-0.225506 -0.465951 1.574053
-0.370800 -0.183661 1.255214
-1.183133 -0.395981 1.864329
-1.099135 -0.412569 2.188257
-1.108160 -0.190664 2.452980
-0.477324 -0.126188 1.032177
-0.684978 -0.166753 1.212510
-0.678411 -0.207195 1.353394
-0.611160 -0.213984 1.374879
-0.173664 -0.113786 0.980750
-0.634382 -0.232977 1.434619
-0.580306 -0.248504 1.512204
-0.186619 -0.329363 1.489629
-1.017039 -0.343218 1.713989
-0.566570 -0.217678 1.383726
-0.509154 -0.207243 1.351379
-0.578816 -0.236036 1.438924
-0.310071 -0.238980 1.451125
-1.330257 -0.729786 2.561196
-1.345653 -0.765359 2.657624
-0.506953 -0.222100 1.399946
-1.173418 -0.388760 1.945286
-1.412062 -0.771215 2.705850
-0.248968 -0.205369 1.328810
-1.106494 -0.546815 2.179974
-0.475440 -0.168600 1.212267
-1.283409 -0.458998 2.214466
-0.796455 -0.220159 1.400006
-0.718626 -0.197889 1.312830
-0.665745 -0.204765 1.340200
-0.454818 -0.253723 1.512381
-0.176367 -0.275493 1.490209
-2.166878 -1.425479 4.200310
-0.280869 -0.237375 1.440305
-0.953250 -0.576499 2.305523
-1.271308 -0.454748 2.194107
-1.112016 -0.407250 2.173498
-1.320223 -0.587967 2.730494
-0.176695 -0.343144 1.476645
-2.046098 -1.254163 4.131780
-2.162058 -1.308170 4.239024
-0.295795 -0.236752 1.440021
-0.493355 -0.242556 1.463487
-0.282628 -0.267321 1.559568
-0.302947 -0.116875 0.977577
-0.316414 -0.068926 0.820506
-0.245978 -0.107320 0.953186
-0.761436 -0.200910 1.342737
-0.126206 -0.231862 1.399516
-0.206934 -0.102088 0.928033
-0.631522 -0.167515 1.204891
-0.455909 -0.162607 1.164343
-0.730581 -0.200922 1.333220
-0.213035 -0.125314 1.017055
-0.200634 -0.093083 0.897609
-0.547532 -0.114789 1.004333
-0.230741 -0.299674 1.577810
-0.305084 -0.116665 0.989584
-0.440743 -0.228304 1.422333
-1.346839 -0.767540 2.645122
-0.257569 -0.128147 1.039167
-0.349610 -0.123499 1.020989
-0.287572 -0.118928 0.999042
-0.178463 -0.174593 1.204702
-0.352964 -0.096529 0.916280
-0.831985 -0.833960 3.433254
-0.883577 -0.671774 3.098341
-0.847003 -0.678790 3.115377
-0.230317 -0.318504 1.582973
-0.737243 -0.203840 1.347211
-0.589786 -0.224614 1.398158
-0.184900 -0.287379 1.477015
-0.671837 -0.177948 1.240310
-0.688695 -0.171486 1.219567
-1.184073 -0.429240 1.959827
-1.245341 -0.439932 2.225500
-1.426751 -1.229976 4.273353
-0.860664 -1.117103 4.191939
-1.027732 -1.163168 4.173918
-0.298801 -0.238982 1.452907
-0.420663 -0.256130 1.516526
-0.665166 -0.258306 1.533211
-0.944436 -0.586212 2.137821
-1.369362 -0.847900 2.764669
-0.648401 -0.264076 1.557374
-0.566170 -0.217591 1.383423
-0.609926 -0.242282 1.486332
-0.404743 -0.233890 1.449329
-0.807381 -0.711380 3.334148
-0.872226 -0.656599 3.050091
-0.674879 -1.089820 3.950057
-0.439182 -0.195471 1.302655
-1.018734 -0.590240 2.143985
-1.013023 -0.582569 2.125997
-0.231757 -0.477289 1.613116
-0.155666 -0.111389 0.973224
-0.512511 -0.135231 1.081004
-0.347795 -0.194725 1.284522
-0.297960 -0.301644 1.683386
-0.227984 -0.156160 1.146381
-0.806534 -0.260168 1.554998
-1.032366 -0.544765 2.028029
-0.390433 -0.127756 1.032515
-0.267567 -0.120328 1.002083
-0.599537 -0.210291 1.356082
-0.177184 -0.128541 1.030236
-0.185795 -0.110072 0.954315
-0.509037 -0.222260 1.394251
-0.287255 -0.238607 1.435902
-0.368247 -0.181860 1.245175
-0.773062 -0.223513 1.416236
-0.244457 -0.253647 1.507744
-0.148297 -0.143650 1.434117
-0.164736 -0.101502 0.937815
-0.241721 -0.285297 1.611113
-0.729428 -0.198937 1.316252
-0.682054 -0.204741 1.340556
-0.371603 -0.117316 0.980026
-0.594245 -0.237139 1.448739
-0.528949 -0.225991 1.441399
-0.762700 -0.556806 2.659024
-0.341884 -0.262437 1.538732
-1.388937 -0.831067 2.721664
-0.761341 -0.226579 1.432417
-0.512921 -0.192351 1.283442
-0.900917 -0.440895 2.247782
-0.576749 -0.762230 3.358513
-0.282776 -0.239342 1.451888
-0.577871 -0.258866 1.538341
-0.782321 -0.263806 1.570757
-0.654166 -0.208024 1.357466
-0.451995 -0.182503 1.240057
-0.343141 -0.238669 1.450509
-0.177922 -0.325037 1.483531
-0.380171 -0.092361 0.886385
-0.548878 -0.117012 1.006466
-0.190574 -0.111885 0.973526
-0.460398 -0.135250 1.072994
-1.307110 -0.728644 2.178777
-0.179766 -0.222563 1.394869
-0.357571 -0.162764 1.173660
-0.232831 -0.303424 1.585613
-1.209995 -0.500206 1.992530
-0.464087 -0.163101 1.168039
-0.743027 -0.196842 1.311994
-0.686738 -0.230590 1.434421
-0.756465 -0.225854 1.421726
-0.215697 -0.137063 1.074740
-0.645081 -0.232867 1.434815
-0.223452 -0.233575 1.445641
-0.681529 -0.305722 1.709093
-0.420489 -0.229706 1.424597
-0.407679 -0.276228 1.605613
-0.354929 -0.199752 1.311433
-0.926965 -0.491225 2.298997
-1.384958 -0.823589 2.699275
-0.536801 -0.218841 1.389731
-0.642494 -0.235275 1.448330
-0.576937 -0.219431 1.407098
-0.313622 -0.193252 1.287190
-0.368363 -0.197111 1.289897
-0.652896 -0.232132 1.445063
-0.588001 -0.239974 1.461195
-0.601681 -0.413028 2.106462
-2.130563 -1.380015 4.151368
-0.344017 -0.239057 1.459004
-0.589971 -0.257391 1.520949
-0.366990 -0.258306 1.516158
-0.326944 -0.233999 1.424383
-1.444705 -0.794118 3.443423
-0.766648 -0.765286 3.317330
-0.901138 -0.671735 3.101299
-0.461385 -0.249070 1.489624
-1.165870 -0.437386 2.293181
-0.787323 -0.645044 2.998721
-1.096729 -0.375206 1.995215
-0.332585 -0.190921 1.276006
-0.263402 -0.204515 1.320062
-0.287938 -0.265817 1.549773
-1.331701 -0.730225 2.565535
-0.458193 -0.273400 1.599332
-2.174711 -1.376558 4.125571
-0.228502 -0.154486 1.138857
-0.687205 -0.233663 1.456059
-0.418920 -0.193995 1.294804
-0.351579 -0.174077 1.214844
-0.520510 -0.195730 1.302549
-1.335451 -0.759687 2.641886
-0.434549 -0.103360 0.936894
-0.301131 -0.083296 0.858667
-0.184331 -0.089854 0.894760
-0.114329 -0.118947 0.998655
-0.159277 -0.111962 0.968596
-0.316784 -0.141355 1.075795
-0.450457 -0.140127 1.080120
-0.210149 -0.154154 1.136342
-0.697814 -0.206542 1.356321
-0.264124 -0.285971 1.620754
-0.503615 -0.227660 1.428704
-0.648208 -0.189013 1.278325
-1.495010 -1.183200 4.220843
-0.918042 -0.507647 2.234443
-1.540615 -1.145098 4.308009
-1.518550 -1.085607 4.331644
-0.982890 -0.557014 2.683971
-0.635489 -0.548155 2.617748
-0.605582 -0.561031 2.687744
-0.792584 -0.952284 3.582232
-0.604605 -0.349537 1.855908
-0.617803 -0.377545 1.955104
-0.911053 -0.549014 2.171438
-0.768895 -0.278276 1.614558
-0.235549 -0.248118 1.498794
-0.790065 -0.263269 1.561130
-0.531623 -0.217217 1.376056
-0.640429 -0.235316 1.449415
-0.566086 -0.217909 1.388918
-0.232074 -0.297863 1.576898
-0.514305 -0.127939 1.047487
-0.671718 -0.164622 1.191121
-0.763913 -0.226896 1.435614
-0.620195 -0.167226 1.200961
-0.345451 -0.171003 1.189802
-0.322002 -0.143678 1.086149
-0.583428 -0.216286 1.376025
-0.233251 -0.434605 1.606016
-0.538019 -0.219758 1.393712
-0.550371 -0.226392 1.411280
-0.515457 -0.127621 1.047761
-0.214630 -0.132530 1.035121
-0.351292 -0.320586 1.754719
-0.589763 -0.222666 1.394568
-0.280947 -0.223718 1.397174
-0.267927 -0.214759 1.359524
-0.181024 -0.276345 1.478838
-0.511116 -0.221144 1.391155
-0.320341 -0.121539 1.006589
-0.168676 -0.223285 1.389069
-0.232546 -0.429946 1.591532
-0.271598 -0.243391 1.474840
-0.568388 -0.208206 1.316874
-0.594290 -0.212234 1.361670
-0.318610 -0.191705 1.279325
-1.445517 -0.896283 3.928879
-1.263607 -0.900369 3.949170
-0.395952 -0.148603 1.108010
-0.596291 -0.157882 1.155823
-0.342739 -0.238505 1.454691
-0.722357 -0.230469 1.442451
-0.197991 -0.178425 1.231312
-0.515873 -0.311143 1.717900
-0.438753 -0.277459 1.602549
-0.613061 -0.274480 1.573652
-2.092158 -1.340197 4.362850
-0.672487 -0.460138 2.309541
-0.898503 -1.134297 4.114770
-0.619875 -0.253307 1.514700
-0.789874 -0.265338 1.583398
-0.330859 -0.190711 1.281411
-0.579142 -0.214016 1.363336
-0.436399 -0.249242 1.471946
-0.377618 -0.232817 1.427934
-0.336907 -0.191799 1.295763
-0.694843 -0.230611 1.443632
-0.577236 -0.757851 3.353240
-0.377086 -0.200031 1.328635
-0.400201 -0.201337 1.323115
-1.431351 -0.801481 2.367074
-0.599769 -0.225200 1.421744
-0.421581 -0.233036 1.446071
-1.064557 -0.520812 1.768354
-0.498960 -0.165646 1.175334
-0.538112 -0.117774 1.008213
-0.464817 -0.165494 1.186852
-0.402444 -0.150509 1.130658
-0.550549 -0.184664 1.256658
-0.240708 -0.284164 1.595888
-1.535235 -0.764166 3.407569
-0.573057 -1.119874 3.784517
-0.471122 -0.271836 1.582609
-0.478721 -0.266102 1.550494
-1.126141 -0.424618 2.193288
-0.267132 -0.495821 1.839798
-0.652365 -0.233448 1.446358
-0.582351 -0.213008 1.366329
-0.321507 -0.170019 1.202027
-0.780296 -0.222004 1.409717
-0.439891 -0.130556 1.041065
-0.339198 -0.238161 1.449189
-0.494919 -0.138244 1.079416
-0.252903 -0.144660 1.093031
-0.290418 -0.267232 1.562789
-0.475228 -0.224010 1.403620
-0.699526 -0.201684 1.334536
-0.603281 -0.239535 1.468631
-0.539566 -0.188774 1.268331
-0.159730 -0.133626 1.056536
-0.260278 -0.202103 1.300403
-0.520369 -0.220494 1.396570
-0.441707 -0.131110 1.045347
-0.902516 -0.554136 2.203014
-0.144787 -0.116839 0.998545
-0.151216 -0.141594 1.089882
-0.254966 -0.144668 1.098938
-0.314993 -0.115034 0.977702
-0.575141 -0.196045 1.299530
-0.325591 -0.143738 1.097108
-0.345282 -0.121531 1.006789
-0.867813 -0.644886 3.003826
-1.265066 -0.709586 3.273460
-1.408296 -0.842308 3.752109
-0.818994 -0.657250 3.042142
-1.075843 -0.613607 2.907150
-0.627693 -0.777461 3.347993
-0.775837 -0.735281 3.327591
-1.489174 -1.116651 4.290628
-1.283374 -1.224134 4.350644
-1.336865 -0.990515 4.278253
-0.497008 -0.270415 1.584089
-0.530796 -0.265040 1.557508
-0.944112 -0.586180 2.139471
-1.149325 -0.596138 2.216423
-0.598311 -0.235844 1.439576
-0.589397 -0.192043 1.285904
-2.133939 -0.922750 3.554571
-0.187857 -0.184046 1.250503
-0.816252 -0.411256 2.081730
-0.879686 -0.576238 2.158763
-0.494750 -0.495172 2.419986
-1.064253 -0.788748 2.752225
-0.495265 -0.704526 3.288794
-0.165593 -0.132252 1.062175
-0.347577 -0.121962 1.013183
-0.223860 -0.458470 1.565484
-0.299652 -0.256153 1.523557
-0.452620 -0.191784 1.279673
-1.109098 -0.891237 3.944508
-1.151802 -0.888960 3.957145
-0.757248 -0.777314 3.465595
-0.846089 -0.678132 3.117041
-0.833065 -0.909105 3.433774
-0.565795 -0.243015 1.474259
-0.633817 -0.235086 1.449271
-0.296828 -0.237771 1.446225
-1.006333 -0.400868 2.074741
-0.600413 -0.405867 2.077667
-0.609652 -0.169225 1.203977
-0.651520 -0.453894 2.263413
-1.052177 -0.611775 2.883597
-0.682048 -0.398532 2.038825
-1.269664 -0.775489 2.620077
-0.682193 -0.381511 1.967153
-0.705112 -0.399986 2.034055
-1.265479 -0.774497 2.612765
-0.439801 -0.227552 1.418102
-0.936175 -0.322886 1.798830
-0.638781 -0.249874 1.496614
-0.598655 -0.238523 1.458542
-0.354442 -0.155219 1.115698
-0.265599 -0.206079 1.326143
-0.804953 -0.266931 1.587372
-0.237494 -0.250737 1.521713
-0.508685 -0.204307 1.333982
-0.200377 -0.226637 1.404290
-0.645861 -0.236370 1.460478
-0.672916 -0.211888 1.378825
-0.659128 -0.227056 1.430398
-1.226524 -0.890762 3.931276
-0.173891 -0.158492 1.166450
-0.451157 -0.257165 1.533727
-0.440058 -0.224309 1.384850
-0.278533 -0.221367 1.377282
-0.288721 -0.264607 1.542418
-1.219254 -0.706247 3.230595
-0.925495 -0.555810 2.197664
-1.011432 -0.580520 2.746018
-1.342857 -0.757981 2.629804
-0.566500 -0.199019 1.321493
-0.728391 -0.201302 1.329952
-1.990502 -1.387901 4.154614
-2.153738 -1.367783 4.108365
-1.972051 -1.388146 4.123940
-1.964153 -1.384871 4.110582
-0.436924 -0.211469 1.355550
-0.994685 -0.921120 4.084534
-1.937531 -1.260403 4.564219
-0.503448 -0.172908 1.212747
-0.249050 -0.186659 1.257257
-0.773344 -0.261207 1.554672
-0.705697 -0.285485 1.631362
-0.609601 -0.241491 1.483297
-0.390111 -0.196726 1.306190
-0.597506 -0.209844 1.352319
-0.347673 -0.195355 1.300571
-1.544776 -1.165692 4.336954
-1.558332 -1.173018 4.363480
-1.357233 -1.109607 4.407332
-1.491865 -1.050916 4.359583
-0.519826 -0.280888 1.587903
-0.750935 -0.374528 1.948414
-0.896860 -0.401725 2.046322
-0.347741 -0.446142 2.254685
-0.954089 -0.570454 2.088188
-0.567626 -0.262159 1.550914
-1.130807 -0.493680 2.569625
-0.297264 -0.154995 1.138670
-0.354624 -0.215875 1.364328
-0.492729 -0.223076 1.403746
-0.884020 -0.588761 2.195425
-0.626417 -0.393040 2.031626
-1.180073 -0.808377 2.785699
-0.482109 -0.302332 1.683818
-2.071987 -1.302595 4.234238
-0.777063 -0.929281 3.496994
-0.834404 -0.998872 3.757254
-0.524193 -0.151098 1.157200
-0.691102 -0.231278 1.439332
-0.368962 -0.158622 1.157714
-0.436380 -0.191842 1.278745
-0.729185 -0.267654 1.578106
-0.632422 -0.192226 1.293477
-0.779873 -0.224841 1.425665
-0.551189 -0.226783 1.410504
-0.438958 -0.192254 1.284363
-0.292736 -0.268402 1.566136
-0.580811 -0.270966 1.610316
-1.053347 -0.476334 2.112057
-0.531877 -0.266078 1.562886
-0.337775 -0.265278 1.557627
-0.455326 -0.226078 1.409103
-0.680456 -1.108341 3.994433
-1.402864 -0.944764 3.226565
-0.692644 -1.130575 4.054201
-0.987352 -0.582055 2.130290
-0.738990 -0.840941 3.472370
-0.776301 -0.417253 2.106306
-0.404670 -0.550007 2.624766
-0.465964 -0.370002 1.927207
-0.619645 -0.355281 1.901267
-1.481993 -1.069556 3.437962
-0.477074 -0.224067 1.409713
-0.632271 -0.253537 1.509748
-2.122798 -0.917218 3.534666
-0.500184 -0.390566 1.996834
-0.531402 -0.345371 1.830826
-0.500459 -0.390853 2.003598
-0.778311 -0.386777 1.990367
-0.459467 -0.233150 1.454769
-0.729406 -0.200425 1.330344
-0.508453 -0.222817 1.402870
-2.093546 -0.826003 3.669577
-2.144980 -0.808270 3.592622
-0.239813 -0.282834 1.598372
-0.325003 -0.353656 1.867201
-0.563346 -0.214612 1.369131
-1.412144 -0.798626 2.764651
-1.074756 -0.636131 2.296154
-1.366134 -1.074838 4.230927
-1.398795 -1.147739 4.291653
-1.354241 -1.180027 4.298404
-1.354338 -1.155463 4.300354
-0.828953 -0.771039 3.464232
-0.712121 -0.879562 3.559283
-1.972087 -1.288326 4.633006
-1.146582 -0.655069 3.077729
-0.782095 -0.639564 2.977852
-0.775550 -0.735668 3.329994
-0.704257 -0.874137 3.292952
-0.810036 -0.822274 3.377558
-0.363003 -0.158066 1.137861
-0.633625 -0.208904 1.357749
-0.438444 -0.211791 1.357600
-0.175400 -0.348102 1.467597
-1.011623 -0.462007 2.041634
-0.519488 -0.263757 1.551525
-0.298340 -0.265727 1.550925
-1.351757 -0.768489 2.651545
-2.212211 -1.454013 4.271407
-0.622519 -0.209596 1.359131
-0.186891 -0.150824 1.123586
-0.816121 -0.261596 1.568677
-0.353723 -0.194897 1.294168
-0.151529 -0.172679 1.208084
-0.556925 -0.453226 2.248210
-0.715725 -0.546721 2.616089
-0.443499 -0.277417 1.591830
-1.304832 -0.793503 2.677161
-1.130497 -0.588392 2.189064
-0.294096 -0.267395 1.563788
-2.162662 -1.315861 4.084459
-0.272766 -0.162767 1.160709
-0.813413 -0.329704 1.809595
-0.408212 -0.257000 1.519503
-0.779674 -0.644091 2.994365
-0.792853 -1.120309 3.820190
-0.772101 -0.738588 3.318031
-0.756976 -1.112266 4.031617
-0.759911 -0.842117 3.180433
-0.763998 -0.870141 3.302733
-0.869891 -1.089006 3.942961
-1.511284 -1.000229 4.267406
-1.479874 -1.136790 4.268750
-0.384370 -0.191344 1.279261
-0.314823 -0.159203 1.146876
-0.497615 -0.249897 1.499212
-1.214410 -0.483393 2.075094
-1.617841 -1.171941 4.441645
-0.901615 -0.588020 2.193810
-1.504348 -0.989491 4.258287
-1.610213 -1.173314 4.432696
-0.352927 -0.215024 1.358160
-1.018999 -0.589451 2.143648
-0.408360 -0.227746 1.403090
-0.337933 -0.192588 1.268386
-0.529151 -0.244968 1.477614
-0.629208 -0.210181 1.370838
-0.356217 -0.200261 1.314788
-1.010287 -1.027078 4.115633
-1.314588 -0.918780 4.044875
-0.621764 -0.238198 1.465937
-0.295405 -0.222613 1.389624
-1.266074 -0.448045 2.182629
-0.854180 -0.354679 1.910955
-0.491766 -0.271581 1.587639
-1.336583 -0.812432 2.740814
-0.455050 -0.238675 1.460686
-0.482277 -0.700464 3.141134
-0.886974 -1.012739 3.816269
-1.455757 -1.149022 4.241435
-1.124402 -0.371258 1.978029
-0.291123 -0.267596 1.566566
-0.229825 -0.155778 1.152869
-0.295939 -0.223509 1.400635
-0.406464 -0.160826 1.164192
-0.502409 -0.178033 1.226881
-0.186951 -0.201068 1.318430
-0.328994 -0.261399 1.525372
-0.382507 -0.176410 1.221442
-0.235881 -0.172657 1.210598
-0.677278 -0.206426 1.347610
-0.814224 -0.905708 3.420090
-2.169094 -1.405751 4.136036
-0.624793 -0.194372 1.305134
-0.623779 -0.209945 1.360093
-0.303679 -0.236328 1.427203
-0.369971 -0.182129 1.248764
-0.587821 -0.239608 1.462339
-1.342465 -0.503669 2.724483
-0.921569 -0.556039 2.166829
-0.817286 -0.387282 2.007586
-1.534379 -0.706477 3.152422
-0.393162 -0.765416 2.895848
-0.313833 -0.200592 1.309137
-1.064110 -0.557405 2.174181
-0.299320 -0.266311 1.554381
-0.757082 -0.877899 3.312260
-0.822388 -0.793018 3.440152
-0.831395 -0.767893 3.446914
-0.823621 -0.792864 3.447797
-0.973786 -0.557313 2.679042
-1.365167 -0.806358 3.421620
-0.697865 -0.405408 2.083937
-0.347143 -0.747740 2.799748
-0.891923 -0.550475 2.184522
-0.662504 -0.302306 1.678925
-0.429523 -0.274439 1.569230
-0.482147 -0.268162 1.553728
-0.428572 -0.349337 1.850908
-0.344744 -0.439833 2.215953
-0.940594 -0.401529 2.057227
-1.222622 -0.729188 2.573947
-0.930161 -0.581738 2.114676
-1.383328 -0.749435 2.635995
-0.890388 -0.548949 2.181156
-1.488590 -0.995851 4.225477
-1.900824 -1.109915 4.378047
-0.337872 -0.293552 1.660588
-0.422095 -0.318044 1.738358
-0.951336 -0.399700 2.046850
-0.637831 -0.326823 1.758720
-0.888891 -0.520189 2.029242
-0.922839 -0.490330 2.291382
-2.048591 -1.417056 4.275557
-0.466932 -0.840114 3.128388
-1.433727 -0.765960 2.647636
-0.433759 -0.810138 3.048977
-1.392242 -0.829872 2.720057
-0.710552 -0.305471 1.708689
-0.314410 -0.189592 1.264614
-0.469400 -0.224546 1.404017
-0.416947 -0.230346 1.425366
-0.557372 -0.259028 1.531818
-0.226541 -0.191814 1.274947
-0.472599 -0.223610 1.394663
-0.368691 -0.615383 2.850467
-0.545000 -0.262611 1.547539
-0.557238 -0.259027 1.531440
-0.332900 -0.262428 1.538710
-0.876317 -0.382286 1.991006
-0.281046 -0.268579 1.563945
-0.285334 -0.261780 1.534404
-0.592904 -0.236489 1.446079
-0.513847 -0.262287 1.538867
-0.587300 -0.175866 1.241988
-0.949068 -0.571991 2.252880
-0.426693 -0.171976 1.206984
-0.319580 -0.159871 1.163523
-0.339312 -0.237039 1.442693
-0.763701 -0.546590 2.609718
-1.050503 -0.629830 2.945664
-0.645401 -0.530448 2.558612
-1.106718 -0.645420 3.010870
-1.274644 -0.711473 3.287906
-1.090086 -0.636335 2.979516
-0.633778 -0.556355 2.664439
-1.838255 -1.412822 4.419577
-1.003102 -0.761757 3.449794
-1.004534 -0.933553 4.162042
-0.703154 -0.936881 3.523014
-1.300710 -0.756110 3.361275
-0.606381 -0.408070 2.092919
-1.336124 -0.765811 3.384495
-1.650675 -1.485792 4.374066
-0.267150 -0.291879 1.678405
-0.423181 -0.229499 1.421661
-1.375479 -1.182259 4.222988
-1.376965 -1.103401 4.260410
-1.962309 -1.057665 4.588185
-1.896533 -1.416939 4.612209
-1.972077 -1.288577 4.632340
-0.583101 -0.213344 1.367980
-0.440554 -0.211622 1.361509
-0.717781 -0.547642 2.632022
-0.834785 -0.607263 2.862598
-0.769384 -0.598801 2.817961
-0.743541 -0.558150 2.673110
-0.625022 -0.778757 3.355592
-1.546264 -0.930234 4.120101
-1.327138 -0.886667 3.905720
-1.377702 -0.915222 4.025584
-1.533800 -0.910371 4.029118
-1.111335 -0.861754 3.818433
-1.205335 -0.885441 3.903692
-1.556612 -0.923052 4.067911
-1.889590 -1.106281 4.362864
-1.339344 -0.863679 3.831809
-1.636704 -0.963446 4.224056
-1.431382 -0.882927 3.916665
-1.318211 -0.887235 3.919783
-1.192108 -0.903820 3.976145
-1.874933 -1.173068 4.342618
-1.914821 -1.123433 4.615473
-1.456247 -0.911878 4.018361
-1.468121 -0.869248 3.876426
-0.226571 -0.336843 1.511293
-0.342545 -0.238204 1.445196
-0.674035 -0.258200 1.533910
-0.606332 -0.238948 1.460821
-0.759022 -0.937025 3.522751
-1.613909 -1.455713 4.437396
-1.011132 -1.412327 4.119833
-0.479980 -0.228480 1.437692
-1.347137 -0.948779 4.145303
-1.822178 -1.238013 4.590576
-1.175828 -0.898848 3.949727
-1.370891 -1.085198 4.468503
-1.474683 -1.179886 4.255476
-1.511024 -1.059593 4.272623
-0.671853 -1.182835 4.008442
-0.679863 -1.110636 4.007897
-1.904749 -1.277568 4.101210
-0.518980 -0.187620 1.277052
-0.569318 -0.843874 3.255189
-0.629156 -0.783374 3.384196
-1.428973 -0.764074 2.639894
-0.457574 -0.284076 1.618559
-0.209735 -0.246339 1.474934
-0.929841 -0.497380 1.855745
-0.840096 -0.391289 2.036101
-0.401454 -0.259033 1.535954
-0.326163 -0.176124 1.214231
-0.350158 -0.173751 1.210863
-0.982177 -0.570769 2.073635
-0.199986 -0.181735 1.278634
-1.225523 -1.018938 4.382940
-1.290978 -0.972758 4.221869
-1.948592 -1.264701 4.581510
-0.623493 -0.274517 1.582732
-0.581088 -0.297470 1.656736
-0.343400 -0.300095 1.671733
-0.653476 -0.299971 1.680567
-0.404006 -0.984937 3.427845
-0.472614 -0.277991 1.599200
-0.684549 -0.285376 1.630614
-0.298740 -0.246881 1.481232
-0.368588 -0.613942 2.850792
-0.470958 -1.369490 4.016098
-0.444047 -0.460728 2.240261
-0.632606 -0.780766 3.398818
-0.946268 -0.587359 2.137711
-0.373182 -0.329679 1.522013
-0.433454 -0.227057 1.405740
-0.281593 -0.267391 1.557016
-0.326351 -0.233867 1.423542
-0.583204 -0.196816 1.311828
-0.640855 -0.255186 1.528201
-0.516735 -0.205694 1.362080
-0.652506 -0.208677 1.359228
-0.384900 -0.192000 1.276476
-0.555793 -1.076516 3.768135
-2.046041 -1.319960 4.289941
-0.578572 -1.132966 3.841271
-1.957124 -1.324497 4.154947
-0.347003 -0.746762 2.794389
-0.530505 -0.246120 1.484124
-0.368546 -0.258990 1.518683
-0.345670 -0.275025 1.564686
-0.327742 -0.234544 1.425538
-0.457372 -0.484744 2.362656
-0.609417 -0.239461 1.465999
-0.663972 -0.227918 1.438510
-0.761438 -0.663126 3.286044
-1.797735 -1.423443 4.482506
-0.980902 -1.407399 4.057405
-0.907758 -0.408584 2.098685
-0.267971 -0.240685 1.460033
-0.266508 -0.239144 1.441568
-0.296330 -0.222488 1.386777
-0.692553 -0.234677 1.465443
-1.013778 -0.606835 2.868541
-0.766565 -0.559293 2.681486
-1.434196 -0.897201 3.358291
-1.424969 -0.888480 3.954033
-1.155474 -0.872468 3.850454
-1.078471 -0.899968 3.960635
-1.407652 -1.006755 4.293338
-1.510641 -1.050936 4.373193
-0.683258 -0.233076 1.446838
-0.569101 -0.262996 1.556621
-0.443945 -0.226523 1.411524
-0.395460 -0.230086 1.420779
-0.420946 -0.228698 1.411602
-0.281228 -0.238290 1.444704
-0.450980 -0.253025 1.502391
-0.636077 -0.251398 1.507363
-0.430400 -0.352607 1.875603
-2.420104 -1.431040 4.125755
-0.357607 -0.595783 2.786791
-1.004989 -0.581646 2.114642
-0.982640 -0.566594 2.690315
-1.650598 -1.070376 4.516825
-0.658822 -0.215617 1.388511
-0.555932 -0.263727 1.546947
-0.436266 -0.227469 1.411823
-0.620074 -0.253797 1.512571
-0.231462 -0.243943 1.469413
-0.462248 -0.285762 1.636227
-0.869811 -0.301660 1.738841
-0.281035 -0.199279 1.283770
-0.457812 -0.492575 2.410348
-0.550874 -0.339158 1.822484
-0.760275 -0.842352 3.566803
-1.716006 -0.717912 3.239645
-2.056280 -1.387132 4.345910
-2.025951 -1.305422 4.247010
-1.622234 -1.464994 4.459616
-0.762950 -1.163561 4.001145
-1.263100 -0.536306 2.565674
-0.340451 -0.261644 1.533857
-1.501599 -1.057515 4.243113
-1.769918 -1.160652 4.607850
-1.189961 -1.219380 4.327516
-1.444520 -1.126910 4.254506
-1.421291 -1.101758 4.237396
-1.110651 -0.902008 3.970829
-1.139743 -0.862043 3.825145
-0.821562 -0.641677 2.981385
-0.845090 -0.655469 3.026536
-0.947506 -0.785987 3.786204
-0.660387 -0.454243 2.263037
-0.402576 -0.254925 1.502370
-0.298292 -0.336832 1.872334
-0.389157 -0.252874 1.502154
-0.752090 -0.378186 1.970615
-0.486097 -0.681632 3.083405
-2.078459 -1.327493 4.328736
-1.803869 -1.401204 4.427479
-1.779230 -1.405156 4.433745
-0.762051 -1.171604 3.986830
-1.102606 -0.418227 2.159736
-0.526034 -0.247284 1.489307
-0.407901 -0.256899 1.520709
-0.702402 -0.302269 1.690649
-0.395326 -0.228981 1.405215
-0.399106 -0.256864 1.520370
-0.483174 -0.251001 1.501126
-0.673726 -0.258408 1.534360
-0.590777 -0.257303 1.524395
-1.704247 -1.079721 4.562881
-1.788755 -1.293424 4.599282
-0.430898 -0.245640 1.471263
-1.234179 -0.724303 2.547926
-0.417747 -0.213993 1.368805
-2.008765 -1.290502 4.189974
-1.498903 -1.176156 4.251561
-1.157075 -1.069912 4.319076
-1.412646 -0.838031 2.747649
-0.642031 -0.387658 2.003120
-0.590807 -0.374943 1.943897
-1.310565 -0.762798 2.623523
-0.560335 -0.373666 1.952288
-1.507851 -0.780446 3.074897
-1.037212 -0.669668 2.521215
-0.545754 -0.532162 2.567112
-0.496939 -0.484518 2.389807
-0.694922 -0.508714 2.477982
-1.470515 -0.798788 3.384423
-0.578674 -0.413342 2.103321
-0.298037 -0.292653 1.651848
-0.593303 -1.085359 3.856229
-0.835999 -0.578380 2.738573
-0.654962 -0.472699 2.350041
-1.534817 -0.942573 4.114511
-1.795856 -1.038560 4.496404
-1.191112 -0.903986 3.972975
-1.188167 -1.061272 4.344537
-0.280634 -0.260581 1.530905
-0.513577 -0.241549 1.452379
-0.703906 -0.287979 1.635530
-0.611664 -0.345920 1.865723
-0.583254 -0.311835 1.688377
-0.788507 -0.385022 1.981792
-0.435387 -0.313848 1.728664
-0.488561 -0.493588 2.416005
-0.223421 -0.398520 1.502510
-0.697663 -0.231898 1.449882
-0.231655 -0.244632 1.480804
-0.620367 -0.278001 1.595521
-0.613597 -0.303327 1.690799
-0.526231 -0.247386 1.489322
-0.525772 -0.245081 1.469825
-0.296682 -0.299153 1.663488
-0.450751 -0.273120 1.578538
-0.991361 -0.793672 3.577815
-0.315515 -0.290313 1.644548
-0.469122 -0.843544 3.144627
-0.473245 -0.972046 3.438114
-0.374394 -0.766896 2.856919
-0.652374 -0.300661 1.659752
-1.527447 -1.151548 4.302051
-0.804655 -1.070179 3.877988
-1.788698 -1.247791 4.601209
-1.867582 -1.398791 4.560297
-1.449188 -1.087975 4.293874
-0.678108 -0.292818 1.643265
-0.641523 -0.298388 1.658017
-0.461022 -0.272504 1.567249
-1.072621 -0.534626 2.127679
-0.793540 -0.835301 3.494933
-1.431385 -1.024062 4.331867
-0.580998 -0.898903 3.310768
-0.718977 -0.854360 3.606208
-0.617234 -0.413767 2.126353
-1.119068 -0.506774 2.175696
-0.651934 -0.299405 1.678096
-0.395406 -0.254735 1.495226
-0.454621 -0.253361 1.507324
-0.951227 -0.382264 2.007423
-0.666048 -0.227690 1.440963
-0.464360 -0.228132 1.434570
-0.440684 -0.234002 1.433149
-0.318102 -0.264188 1.545770
-1.220469 -1.014256 4.358451
-1.423079 -1.028737 3.323565
-1.782579 -1.404455 4.434995
-0.775844 -0.394296 2.039339
-1.547375 -0.943657 4.132980
-1.352724 -0.949806 4.158259
-1.318342 -0.895965 3.937830
-1.502001 -0.924493 4.060734
-1.280393 -0.884042 3.938370
-1.278340 -0.882663 3.928301
-0.495565 -0.249212 1.492506
-0.298634 -0.246976 1.479874
-0.390795 -0.228852 1.399765
-0.661846 -0.454484 2.277338
-0.579363 -0.414331 2.107585
-0.629800 -0.782228 3.390024
-1.356965 -0.912287 3.154581
-0.683795 -0.287147 1.636336
-0.374409 -0.274491 1.583148
-0.657012 -0.310393 1.709901
-0.560897 -0.277420 1.590118
-0.692773 -0.347368 1.835338
-0.498992 -0.335006 1.812503
-0.753799 -0.342593 1.822983
-0.667905 -0.286219 1.613584
-0.356221 -0.367047 1.939691
-0.745360 -0.327873 1.771133
-1.375946 -1.170710 4.357576
-1.488811 -1.117705 4.291000
-1.398243 -1.137540 4.256978
-1.259566 -0.982457 4.297603
-1.488877 -0.901021 3.983750
-1.353816 -0.916678 4.032925
-0.856084 -0.379124 1.959793
-2.103535 -1.288773 4.229688
-1.622614 -0.939062 4.145046
-1.397603 -0.899642 3.968096
-1.148870 -0.985542 4.276810
-1.557595 -0.907782 4.012639
-1.408051 -0.894945 3.955416
-1.128194 -0.922681 4.035250
-1.221543 -0.934676 4.134774
-1.485404 -0.943501 4.134761
-1.803673 -0.998552 4.363545
-0.616849 -0.606819 2.865465
-0.638786 -0.660051 3.055770
-1.494817 -1.016977 3.365375
-0.934541 -0.400776 2.049600
-0.348469 -0.446680 2.257506
-1.219430 -0.633901 2.482132
-1.193327 -0.697136 3.222767
-0.829742 -0.772296 3.456660
-1.213491 -0.722382 3.320562
-0.370135 -0.287515 1.626029
-0.319413 -0.264098 1.550833
-0.638863 -0.298216 1.653050
-0.746931 -0.826016 3.492266
-1.694878 -1.081097 4.547743
-0.758206 -0.938443 3.531405
-0.571385 -0.258202 1.525521
-0.429288 -0.270728 1.568581
-0.325015 -0.356500 1.891538
-0.681918 -0.301165 1.656879
-0.698750 -0.287758 1.628156
-0.845072 -0.321106 1.764355
-1.030390 -0.976555 4.159045
-0.929630 -0.942136 3.499650
-0.935807 -0.953986 3.538147
-0.826616 -0.806833 3.464679
-1.924694 -1.260761 4.661029
-0.949589 -0.768148 3.465241
-0.370649 -0.259423 1.526807
-0.699341 -0.287884 1.629761
-0.907487 -0.567380 2.068773
-0.593806 -0.313908 1.713722
-0.449816 -0.417889 2.127346
-1.581312 -1.476997 4.344706
-0.913031 -0.482863 2.229238
-0.802359 -1.145629 3.922231
-1.085332 -1.423747 4.367614
-0.455301 -0.253615 1.510707
-0.572051 -0.276136 1.579779
-1.587794 -1.482545 4.361551
-0.350608 -0.321180 1.761976
-0.459786 -0.289901 1.630893
-0.674960 -0.292381 1.637345
-0.887178 -0.407383 2.081073
-0.832807 -0.363650 1.896576
-0.508068 -0.310335 1.702862
-0.632717 -0.291155 1.631502
-0.389422 -0.335447 1.811911
-0.832283 -0.363136 1.897333
-0.863586 -0.379055 1.967972
-0.869107 -0.406024 2.068308
-0.543945 -0.337639 1.805816
-1.231421 -0.528367 2.520067
-1.243714 -0.530736 2.540862
-0.373621 -0.338054 1.826629
-0.719286 -0.905762 3.406994
-0.423441 -0.352934 1.870066
-0.410991 -0.344853 1.832292
-0.472503 -0.418062 2.159600
-0.876070 -0.403235 2.047012
-0.864097 -0.404932 2.058266
-0.655444 -0.392544 2.047915
-0.412591 -0.315937 1.714995
-0.462434 -0.325347 1.744878
-0.766279 -0.389257 1.997767
-1.219247 -1.432004 4.432561
-1.232975 -1.465181 4.370293
-2.079473 -1.307922 4.249086
-0.817151 -0.871155 3.677941
-1.499046 -0.997218 4.245024
-1.483332 -1.481781 4.519096
-0.904429 -0.403191 2.057833
-1.356748 -1.110581 4.412174
-1.280536 -1.223055 4.345560
-1.389829 -1.038011 4.297611
-1.267579 -1.483890 4.344135
-0.485625 -0.280695 1.598305
-0.424008 -0.353637 1.876185
-0.887009 -0.403634 2.057018
-0.939296 -0.584076 2.126660
-0.867305 -1.085528 3.926638
-1.955733 -1.086006 4.618370
-1.954161 -1.085019 4.615948
-1.288113 -0.734806 3.356992
-0.420111 -0.255615 1.510956
-0.810762 -0.345692 1.851650
-0.357542 -0.368160 1.945310
-0.606376 -0.309458 1.707198
-1.006085 -0.403090 2.078694
-1.072879 -0.547565 2.168107
-0.522944 -0.263663 1.540420
-0.409902 -0.257007 1.518103
-0.539457 -0.261561 1.536456
-0.356637 -0.260716 1.529946
-0.427782 -0.311762 1.681910
-0.405028 -0.318538 1.746236
-1.016305 -1.182205 4.119077
-1.108055 -0.752453 3.422658
-1.135573 -0.846100 3.762825
-1.093872 -1.221481 4.237772
-1.415554 -1.070506 4.216284
-1.432904 -1.183772 4.289717
-0.682508 -0.431383 2.173161
-1.198487 -0.706266 2.491564
-0.595540 -0.444661 2.230990
-1.486973 -1.177433 4.206293
-0.573364 -0.444573 2.216782
-0.717049 -0.338365 1.802189
-0.910026 -0.481781 2.222810
-1.267248 -1.203746 4.337178
-1.305993 -1.188340 4.227168
-0.625322 -0.346171 1.830910
-0.604030 -0.338320 1.814738
-0.931131 -0.642186 2.991895
-1.305600 -1.249920 4.440829
-1.914091 -1.310956 4.594844
-0.571174 -0.530392 2.562602
-0.908617 -0.476750 2.357375
-1.163134 -0.817849 3.660536
-1.383299 -0.851549 3.791086
-0.585282 -0.348275 1.849226
-1.256483 -0.540288 2.587115
-0.410389 -0.317378 1.743838
-0.476930 -0.352126 1.858936
-1.829831 -1.167311 4.909357
-0.774436 -0.837932 3.521539
-0.760272 -0.944982 3.564065
-1.606767 -1.451233 4.415276
-1.713100 -0.711438 3.253520
-0.731303 -0.389824 2.002264
-0.587578 -0.407378 2.061177
-0.700596 -0.379810 1.963487
-0.493476 -0.359880 1.894171
-1.220278 -0.524084 2.505419
-0.881935 -0.542985 2.161895
-0.435577 -0.276319 1.591332
-0.678999 -0.310113 1.715337
-0.578289 -0.296997 1.651104
-0.653746 -0.330173 1.792754
-0.513994 -0.308911 1.699656
-0.884721 -0.405139 2.063976
-0.715836 -0.338080 1.805935
-0.741915 -0.347508 1.841694
-0.600930 -0.348583 1.847054
-0.457181 -0.487397 2.377641
-0.492891 -0.501791 2.461006
-1.064360 -0.557146 2.174114
-1.420918 -1.036113 4.295132
-1.741882 -1.218867 4.580060
-1.451663 -1.186418 4.307930
-1.188873 -0.975847 4.216746
-1.191493 -0.931458 4.070050
-1.258186 -0.944833 4.118634
-1.151915 -0.907223 3.990346
-1.190948 -0.976439 4.224742
-0.367810 -0.272626 1.548817
-0.928574 -0.721342 3.293186
-1.436371 -0.815689 3.579327
-0.976843 -0.770073 3.468835
-0.946647 -0.791457 3.545389
-0.831618 -0.911702 3.440793
-0.904018 -0.727086 3.314405
-0.973833 -0.731762 3.334820
-0.991272 -0.793411 3.557335
-0.972317 -0.765069 3.459921
-0.932626 -0.783587 3.511325
-0.987630 -1.118062 4.078766
-0.863793 -0.689857 3.176656
-0.826283 -0.766940 3.426472
-1.085562 -1.207204 4.191451
-1.485262 -1.112351 4.280068
-1.144154 -1.202519 4.272917
-1.038667 -0.817375 3.651432
-0.995572 -0.968223 4.087079
-1.956213 -1.085617 4.619496
-1.314989 -0.721760 2.541968
-0.643813 -0.298135 1.658848
-1.021342 -0.402573 2.078818
-0.795493 -0.384138 1.980257
-0.786166 -0.415699 2.100940
-0.736659 -0.405966 2.060644
-0.755641 -0.388110 1.993305
-0.768895 -0.367745 1.916228
-1.481991 -0.802136 3.399488
-0.673590 -0.470719 2.339669
-0.506005 -0.551876 2.646709
-0.564357 -1.053985 3.729892
-0.791744 -0.698705 3.269061
-0.496152 -0.497295 2.443959
-1.686080 -0.992446 4.516315
-0.616102 -1.132900 3.829740
-1.519596 -0.674661 3.092261
-0.541121 -0.420882 2.147011
-0.525540 -0.415281 2.103277
-0.578916 -0.409801 2.082972
-0.569506 -0.410586 2.085188
-0.562663 -0.422157 2.129531
-0.894090 -0.405590 2.075360
-0.471436 -0.350508 1.829373
-0.786130 -0.370134 1.932362
-0.781168 -0.388062 1.996170
-0.754825 -0.370506 1.922838
-0.799328 -0.367437 1.912832
-0.627373 -0.346258 1.835011
-1.934531 -1.117379 4.628410
-1.786418 -1.036328 4.485685
-1.326516 -0.874483 3.882249
-0.616780 -0.405412 2.060506
-0.886244 -0.560924 2.191281
-1.369691 -0.854684 3.208530
-1.046452 -0.736606 2.691110
-0.830952 -0.379873 1.967260
-0.806019 -0.389539 1.931405
-0.722710 -0.339059 1.814073
-0.457206 -0.491703 2.406162
-0.979233 -0.566951 2.680916
-1.042618 -0.775812 2.713113
-0.706559 -0.494361 2.421705
-1.226975 -0.754866 3.441463
-0.832319 -0.914204 3.450561
-1.319979 -1.017294 4.509020
-0.600546 -0.471371 2.320690
-0.620030 -1.093448 3.907676
-0.685433 -0.426854 2.138382
-0.720408 -0.425270 2.140632
-0.467501 -0.960020 3.393671
-0.830624 -0.451600 2.258301
-0.805878 -0.443752 2.216031
-1.066108 -0.667545 2.471975
-0.487022 -0.697028 3.188416
-0.513981 -0.359125 1.889412
-1.782437 -1.294503 4.554379
-1.633622 -1.062284 4.465456
-0.716033 -0.546548 2.612803
-0.465288 -0.389527 1.989680
-0.775369 -0.416857 2.103241
-0.752894 -0.437209 2.183902
-0.419489 -0.366101 1.923421
-0.564187 -0.395816 2.029800
-0.754571 -0.419825 2.118079
-1.465252 -1.073758 4.274571
-0.632537 -0.757645 3.419474
-0.784334 -0.850295 3.361265
-1.464773 -1.074096 4.279641
-1.505101 -1.190604 4.242107
-0.701628 -0.942902 3.539436
-0.831583 -0.908902 3.429903
-1.821210 -1.242028 4.575429
-0.776175 -0.738500 3.345672
-0.369390 -0.306833 1.716592
-0.590573 -0.314024 1.709160
-0.478344 -0.301435 1.669586
-0.763760 -0.388991 1.999145
-0.593961 -0.348861 1.853695
-0.862027 -0.389454 2.006732
-1.181273 -0.925662 4.047075
-1.148040 -0.920940 4.032154
-1.205108 -0.885296 3.903683
-1.186706 -0.857700 3.804105
-0.755189 -0.832382 3.533219
-0.931634 -0.755134 3.406462
-0.988198 -1.120409 4.071883
-1.201082 -0.810710 3.644518
-0.952162 -0.740887 3.363721
-1.273075 -0.775731 3.514935
-1.431413 -1.231900 4.282194
-1.516972 -1.139601 4.256163
-1.196907 -1.179273 4.343059
-1.385841 -1.035569 4.281306
-1.533524 -1.137779 4.291830
-1.388624 -1.204130 4.394405
-0.655071 -0.595469 2.796988
-0.593335 -0.605718 2.864558
-1.310301 -0.790363 2.598400
-0.717073 -0.329765 1.775446
-0.648706 -0.368147 1.919104
-0.820151 -0.411696 2.085639
-0.773316 -0.363727 1.902511
-0.505826 -0.350967 1.854710
-0.721271 -0.329937 1.781773
-0.511488 -0.308014 1.690742
-0.696170 -0.346017 1.830145
-0.671912 -0.344559 1.824442
-0.756232 -0.370468 1.925077
-0.588695 -0.347609 1.840770
-0.362488 -0.431511 2.183990
-1.304462 -0.598637 2.703375
-0.674123 -0.400478 2.048196
-0.584873 -0.432268 2.172324
-0.536067 -0.499600 2.444115
-0.880429 -0.500964 2.445729
-0.792544 -0.415184 2.110296
-1.389184 -1.038002 4.289937
-0.930104 -0.751818 3.387343
-1.610005 -0.974639 4.351238
-0.977784 -0.839169 3.736836
-0.978269 -0.851759 3.752061
-1.514382 -0.937822 4.228732
-1.537839 -1.260557 4.284183
-0.783506 -0.770639 3.374599
-1.038975 -0.772538 2.702481
-0.645039 -0.433499 2.175748
-0.768716 -0.367126 1.914984
-0.855100 -0.408145 2.073219
-0.530415 -0.420452 2.125992
-0.781430 -0.395226 2.036370
-0.511793 -0.509876 2.474223
-0.505835 -0.414672 2.092670
-0.431337 -0.290765 1.627577
-0.430908 -0.312254 1.708742
-0.904206 -0.372828 1.942231
-0.862253 -0.404581 2.053895
-1.343213 -1.199156 4.275451
-1.326171 -1.186722 4.231551
-1.385889 -1.168251 4.259877
-0.996307 -1.093094 4.115435
-0.749257 -1.106786 3.866698
-0.669302 -0.291757 1.627570
-1.314605 -0.748384 2.603179
-1.805332 -1.383480 4.504659
-1.498964 -1.121660 4.233064
-1.268165 -1.207204 4.336295
-1.283390 -1.044243 4.394996
-1.421074 -1.099163 4.164325
-0.834638 -0.645920 3.007428
-0.826643 -0.617050 2.896016
-1.009011 -0.635035 2.970504
-1.418311 -0.828520 3.424531
-1.654290 -0.948208 4.290612
-1.461322 -0.977202 4.426596
-1.151461 -0.889132 3.956522
-1.450895 -1.066350 4.253460
-1.653980 -0.947268 4.294789
-1.512611 -1.187085 4.226676
-1.354044 -0.916616 4.031456
-1.826172 -1.240812 4.597279
-1.219229 -0.960809 4.170750
-1.557484 -0.922465 4.068851
-1.580437 -0.951403 4.176904
-1.512294 -0.922847 4.059209
-1.343730 -0.901179 3.964459
-1.441560 -0.881928 3.912057
-1.167297 -1.118453 4.324438
-1.180440 -1.030677 4.361021
-1.395311 -1.198675 4.270736
-1.473170 -1.178689 4.252327
-1.380797 -1.184132 4.229748
-1.338460 -1.062186 4.276139
-1.153833 -1.003076 4.324202
-1.351050 -0.916319 4.025530
-1.794946 -1.201892 4.490869
-1.896461 -1.148109 4.619513
-1.300624 -0.905051 3.988702
-1.949087 -1.303975 4.624949
-1.543709 -1.053110 4.380408
-1.918726 -1.116494 4.836173
-1.503118 -0.924767 4.064747
-1.531900 -0.898023 3.980761
-1.148048 -0.921612 4.045229
-1.965311 -1.099010 4.823476
-0.932464 -0.661117 3.073649
-0.958002 -0.730043 3.295549
-0.668995 -0.565908 2.707773
-0.996463 -0.563897 2.725806
-1.845601 -0.990830 4.343399
-1.842167 -1.035062 4.495022
-1.146775 -1.207190 4.291885
-1.116622 -0.965502 4.193216
-1.949507 -1.085293 4.610142
-1.319361 -0.912669 4.009330
-0.672488 -0.363001 1.893831
-0.767148 -0.386506 1.990536
-0.792931 -0.415762 2.101614
-0.729432 -0.373629 1.930378
-0.732807 -0.374258 1.937182
-0.883135 -0.404630 2.062074
-0.793017 -0.384112 1.985262
-0.617931 -0.369813 1.927333
-0.706770 -0.400957 2.038663
-0.604844 -0.386940 1.998389
-0.675481 -0.397887 2.025420
-0.532917 -0.344935 1.833468
-0.456459 -0.406540 2.073117
-0.598729 -0.348501 1.837675
-0.849703 -0.406736 2.062468
-1.333685 -0.899972 3.944395
-1.409827 -0.908424 3.967993
-1.460270 -0.885812 3.936913
-1.704243 -0.705481 3.235001
-1.697269 -1.079711 4.552002
-1.242035 -1.454341 4.261298
-1.699157 -1.078339 4.554440
-0.597422 -0.299521 1.661815
-0.796855 -0.342474 1.826715
-1.002785 -0.399093 2.054418
-0.855748 -0.377004 1.954407
-0.343257 -0.361906 1.914034
-0.601314 -0.313011 1.703796
-0.642280 -0.350713 1.872649
-0.496378 -0.296192 1.651739
-0.635632 -0.326786 1.753862
-1.481333 -1.479403 4.508619
-0.736460 -0.373169 1.936395
-0.801344 -0.381533 1.958051
-0.567631 -0.859163 3.306791
-0.643373 -0.433017 2.168594
-1.606996 -1.171755 4.427197
-1.414487 -1.013153 4.296134
-0.593861 -0.306947 1.674531
-0.860524 -0.377899 1.952060
-0.479004 -0.301803 1.674219
-0.602650 -0.312993 1.707642
-0.590112 -0.504286 2.458575
-0.613240 -0.486749 2.388322
-1.462199 -0.868588 3.869361
-0.690395 -0.474836 2.350566
-1.789929 -1.246179 4.600011
-0.852573 -0.480289 2.379628
-0.809960 -0.467071 2.329627
-1.518259 -1.092812 4.338449
-1.392865 -1.156999 4.274213
-0.662091 -0.543758 2.602582
-0.940221 -0.573549 2.737343
-0.900483 -0.540974 2.612850
-0.772149 -0.581776 2.682321
-1.306729 -0.750581 3.316119
-1.340945 -1.030816 4.588109
-1.094308 -1.222313 4.241767
-1.851805 -1.336784 4.678311
-1.364137 -0.934113 4.095280
-1.306477 -1.190218 4.314023
-1.775857 -1.196370 4.458347
-1.349027 -1.199687 4.283575
-1.362432 -1.137217 4.244341
-0.914880 -0.983940 4.162925
-1.029206 -0.950554 4.251246
-1.035792 -0.982332 4.190063
-1.781740 -1.289340 4.580923
-1.418911 -0.728563 3.310461
-0.652451 -0.556938 2.659688
-0.813315 -0.905373 3.418771
-0.930600 -0.938681 4.204110
-0.669419 -0.578930 2.745588
-1.360361 -1.017998 4.342446
-1.329665 -0.999776 4.252111
-0.639666 -0.432822 2.162350
-0.490159 -0.468208 2.320723
-0.635969 -0.471903 2.276904
-0.680821 -0.459836 2.270145
-0.775016 -0.444056 2.219425
-1.119244 -0.593837 2.634826
-1.343104 -0.749197 3.173537
-0.573434 -0.724396 3.308550
-0.482858 -0.491635 2.406560
-0.658520 -0.431388 2.162042
-0.636979 -0.426654 2.160425
-0.981747 -0.558521 2.690141
-0.601027 -0.552138 2.649522
-0.573781 -0.568557 2.716118
-0.584330 -0.597797 2.811912
-0.703284 -0.491993 2.416933
-0.805957 -0.467138 2.322260
-0.637530 -0.477774 2.343150
-0.512229 -0.593812 2.799076
-1.387683 -0.870555 3.278383
-1.344958 -0.797670 3.311777
-1.244271 -0.704020 3.235726
-0.600877 -0.551305 2.635466
-1.072653 -0.629689 2.941146
-1.007320 -0.985114 4.162280
-1.086564 -1.427697 4.378209
-1.469028 -1.176192 4.242846
-0.866657 -0.654198 3.030337
-0.758797 -0.829806 3.496399
-0.779581 -0.820694 3.423041
-1.836980 -1.406172 4.562160
-0.602883 -0.471277 2.331576
-0.888324 -0.498870 2.450162
-0.754409 -0.499966 2.443094
-0.496675 -0.484267 2.386747
-0.562228 -0.526732 2.540878
-0.893891 -0.493397 2.425117
-0.487650 -0.576085 2.734065
-0.641493 -0.479315 2.356305
-1.108633 -1.456375 4.425865
-0.541010 -0.434094 2.159362
-0.624498 -0.411728 2.089779
-0.568754 -0.420632 2.126024
-1.387386 -1.146274 4.182776
-1.831385 -1.400473 4.561852
-1.423262 -1.081568 4.362145
-0.815405 -0.837306 3.513028
-1.442831 -1.124000 4.275392
-1.439912 -1.123592 4.246999
-0.865726 -0.653681 3.025291
-0.733663 -0.839633 3.390284
-0.759760 -0.909371 3.448496
-0.438455 -0.394314 2.024813
-0.602830 -0.438602 2.194117
-0.911728 -0.533521 2.217510
-0.886067 -0.560818 2.190780
-0.622942 -0.411053 2.086975
-0.603300 -0.438434 2.194463
-0.795000 -0.464637 2.297579
-0.543290 -0.434707 2.175892
-0.703677 -0.398921 2.030226
-0.572613 -0.442911 2.207288
-0.588250 -0.407892 2.064589
-0.987088 -0.571107 2.716452
-0.902508 -0.458604 2.240187
-0.499354 -0.390523 2.002566
-0.586636 -0.407045 2.064353
-1.914250 -1.302010 4.589114
-1.199144 -1.226974 4.361183
-0.878098 -0.557162 2.176356
-0.507556 -0.415847 2.104550
-0.633601 -0.426554 2.150801
-0.622594 -0.437762 2.194687
-0.470699 -0.390382 2.013838
-0.720736 -0.417747 2.107624
-0.716133 -0.407509 2.063896
-1.208862 -1.093221 4.368078
-1.181253 -1.031895 4.369542
-1.328872 -0.958089 4.148345
-1.476700 -0.898974 3.973706
-0.811736 -0.430997 2.166086
-0.699608 -0.491196 2.402308
-0.541847 -0.434155 2.166505
-0.585710 -0.499985 2.414191
-0.787068 -0.414708 2.101233
-0.668814 -0.399570 2.034936
-0.725521 -0.389929 1.994047
-0.642671 -0.479218 2.363220
-0.525160 -0.577131 2.752856
-0.591990 -0.378902 1.964945
-0.737735 -0.410090 2.071551
-0.533257 -0.415593 2.102186
-0.470181 -0.408127 2.072125
-0.560950 -0.495777 2.394153
-0.511088 -0.386082 1.987380
-0.483116 -0.491457 2.403635
-0.527053 -0.412075 2.065965
-0.870822 -0.581727 2.171300
-0.574854 -0.419842 2.095989
-0.719432 -0.425456 2.140921
-2.139326 -1.285535 4.204545
-0.589136 -0.439875 2.200039
-0.847322 -0.410421 2.086267
-0.791822 -0.384022 1.984191
-0.945590 -0.447770 2.232676
-0.943168 -0.447541 2.228588
-0.796077 -0.416127 2.109846
-0.809522 -0.413542 2.094570
-0.757778 -0.387359 1.995824
-0.446669 -0.352818 1.861583
-0.870863 -0.406663 2.072360
-0.685360 -0.400130 2.049111
-0.588760 -0.408246 2.068896
-0.777654 -0.409411 2.080031
-0.726915 -0.389333 1.993917
-0.756657 -0.387067 1.993402
-0.752141 -0.437902 2.185022
-0.603309 -0.438871 2.197508
-0.589682 -0.440284 2.200832
-0.808523 -0.468048 2.302287
-0.515750 -0.496418 2.418537
-0.679186 -0.430184 2.162158
-1.019275 -0.580200 2.724016
-0.511011 -0.380535 1.939912
-1.104329 -1.061621 4.248797
-1.907523 -1.253041 4.639141
-0.834802 -0.842710 3.469678
-0.836361 -0.888113 3.305895
-0.825512 -0.714836 3.397769
-0.836292 -0.888354 3.306415
-0.570274 -0.454395 2.254524
-0.737969 -0.577076 2.734300
-0.585271 -0.933521 3.471399
-0.877785 -0.662299 3.180446
-0.774192 -0.737788 3.334766
-0.500962 -0.391135 2.008678
-0.377175 -0.401262 2.069483
-0.396619 -0.410707 2.091149
-0.886944 -0.453299 2.214633
-0.925731 -0.576902 2.109201
-0.688729 -0.427392 2.145988
-0.438539 -0.856113 3.188447
-0.591518 -0.348337 1.846508
-1.501003 -0.669219 3.066147
-1.024911 -0.775258 2.701755
-1.018840 -0.771369 2.689197
-1.004198 -1.149307 4.173517
-1.469668 -1.174443 4.252081
-1.219692 -1.431264 4.431211
-0.563063 -0.440502 1.941196
-1.091150 -0.915279 4.009070
-0.490991 -0.468484 2.319279
-0.407976 -0.430711 2.173927
-0.819410 -0.407087 2.073864
-0.809855 -0.426368 2.129496
-0.678659 -0.398556 2.032420
-0.492000 -0.359223 1.887732
-0.624960 -0.386879 1.981800
-0.647994 -0.422371 2.135851
-1.043111 -0.564099 2.673913
-0.566916 -0.409454 2.076659
-1.105538 -0.925369 4.078270
-1.392691 -0.899893 3.962605
-1.263681 -0.877214 3.869735
-1.304571 -0.889148 3.924156
-1.092407 -0.875129 3.873025
-1.582350 -0.941274 4.129631
-1.387068 -0.884710 3.913496
-1.209978 -0.971549 4.199804
-1.119418 -0.932664 4.070034
-1.105954 -1.064615 4.261260
-1.540912 -0.907482 4.009878
-1.778196 -1.240248 4.574145
-1.370494 -1.163356 4.219773
-2.162087 -1.308405 4.241985
-1.074785 -0.869143 3.825210
-1.309806 -0.889379 3.931356
-2.014063 -1.288133 4.636140
-0.424048 -0.348701 1.834425
-0.409771 -0.419323 2.133951
-0.698335 -0.379369 1.958691
-0.421091 -0.317808 1.733639
-0.767595 -0.389975 2.006680
-0.679945 -0.381060 1.963017
-0.812198 -0.380660 1.965828
-0.737564 -0.390343 1.999227
-0.620825 -0.410378 2.095389
-0.612144 -0.439644 2.202938
-1.266375 -0.826995 3.107134
-1.255408 -0.724231 3.314624
-0.471035 -0.992324 3.501141
-0.480521 -0.697400 3.211317
-0.480724 -0.697180 3.213792
-0.635607 -0.561725 2.694886
-0.602320 -0.545794 2.635032
-1.109933 -0.633535 2.983592
-0.627850 -0.880973 3.302445
-1.967042 -1.286892 4.624669
-1.904034 -1.235651 4.552805
-1.688063 -0.936157 4.639198
-1.091571 -0.644860 3.022163
-0.620098 -0.406141 2.071334
-0.616098 -0.375847 1.947556
-0.466128 -0.838706 3.119930
-1.268939 -0.828874 3.124037
-1.354119 -0.848529 3.186508
-1.309849 -0.826120 3.104310
-1.195023 -0.788732 2.963641
-1.481484 -1.172016 4.340644
-1.455652 -1.121371 4.250240
-1.451569 -1.131321 4.300807
-1.171528 -0.953542 4.137511
-1.477121 -0.922111 4.034628
-1.181602 -0.901823 3.969771
-1.506389 -0.923245 4.051139
-1.291098 -1.048015 4.416000
-1.417665 -1.074817 4.542252
-1.567489 -0.961639 3.696166
-1.274309 -0.710094 3.283579
-0.644718 -0.589486 2.789521
-0.622245 -0.755449 3.382154
-1.000622 -1.099203 4.136751
-0.905330 -0.914710 4.094567
-1.356999 -1.121460 4.179428
-1.511456 -1.187099 4.223809
-1.538479 -0.889036 3.789225
-0.842260 -0.724110 3.307922
-0.915072 -0.747106 3.389152
-0.879490 -0.917949 3.465301
-1.086814 -0.758355 3.445572
-0.996353 -0.837590 3.715890
-1.076358 -0.871341 3.848353
-0.954339 -0.741663 3.367498
-0.897712 -0.763391 3.446612
-0.876801 -0.939250 3.948758
-0.769455 -0.689606 3.267044
-0.806909 -0.705262 3.317397
-0.942468 -0.570246 2.706568
-0.841753 -0.496776 2.434089
-1.346262 -1.147388 4.290013
-1.081774 -0.793642 3.557815
-1.074777 -0.869235 3.821882
-1.084174 -0.794193 3.564932
-1.341187 -0.783614 3.564596
-1.883921 -1.130538 4.344471
-1.921206 -1.312943 4.603763
-1.184578 -1.056273 4.326982
-0.762457 -0.630358 2.899312
-0.984607 -1.112774 4.047207
-1.888558 -1.179779 4.358084
-0.984959 -0.771662 3.463851
-1.000112 -0.838869 3.719889
-1.596748 -1.030311 4.449215
-1.851983 -1.037317 4.507299
-0.928865 -1.126846 4.234454
-1.467570 -0.929885 4.173084
-1.146797 -0.920941 4.034902
-1.184300 -0.902947 3.977303
-1.317462 -0.912391 4.004413
-0.906201 -0.456887 2.287302
-1.189525 -1.225923 4.338275
-1.510640 -1.060797 4.267002
-1.372530 -1.048212 4.676560
-0.967614 -0.800851 3.582260
-1.303303 -0.803412 3.623674
-1.542588 -0.867042 3.878318
-1.439995 -0.818279 3.694589
-0.880949 -0.921175 3.478605
-0.843824 -0.655133 3.032122
-0.780650 -0.766402 3.333896
-0.736482 -0.823849 3.426532
-1.975371 -1.288459 4.637764
-0.905916 -0.727430 3.310235
-1.292800 -0.738639 3.368747
-0.656346 -0.498898 2.446277
-0.688980 -0.591889 2.795201
-0.795352 -1.047775 3.801863
-0.999363 -0.760757 3.438375
-0.795784 -0.611881 2.871258
-1.789248 -1.248446 4.603690
-0.908057 -0.727962 3.313883
-1.971933 -1.277008 4.625745
-1.078599 -1.220330 4.602285
-0.517647 -0.498021 2.433640
-0.774007 -0.496068 2.428674
-0.593622 -0.469577 2.291144
-0.904324 -0.539007 2.235050
-1.052185 -0.611515 2.882649
-1.385664 -0.871155 3.273572
-0.552703 -0.556040 2.657328
-0.797625 -0.567771 2.718040
-0.484591 -0.489439 2.391974
-0.589635 -0.501513 2.425602
-0.439198 -0.394803 2.025704
-0.588417 -0.407759 2.069851
-0.784559 -0.418412 2.122503
-0.799642 -0.408642 2.092471
-0.769381 -0.442317 2.209736
-0.726032 -0.394592 2.029635
-0.626698 -0.453303 2.252581
-1.317655 -0.764356 3.404085
-0.749297 -0.418301 2.105856
-1.408994 -1.008946 4.288978
-1.388595 -1.168494 4.261747
-1.452007 -0.980574 4.271727
-1.865530 -1.419975 4.639821
-1.165922 -0.855019 3.779570
-0.675791 -0.506841 2.483305
-0.982650 -0.563169 2.703670
-0.722071 -0.484716 2.391520
-1.493841 -1.147753 4.344031
-1.125966 -0.624495 2.641448
-0.592296 -0.436123 2.170333
-1.210293 -0.755839 2.843477
-1.469073 -1.158476 4.277232
-1.264529 -1.040670 4.463214
-1.420722 -1.227084 4.264615
-1.001680 -0.918508 4.094772
-0.831561 -0.912175 3.443897
-1.981203 -1.145013 4.372586
-1.971951 -1.141708 4.358588
-1.073978 -1.147608 4.072638
-1.566193 -0.901249 4.014830
-1.093754 -1.192555 4.232758
-1.031978 -0.979473 4.168427
-1.184861 -0.866812 3.846390
-1.152540 -0.856953 3.803737
-0.993125 -0.818254 3.654595
-1.106184 -0.921678 4.035719
-1.047407 -0.901307 3.953101
-1.423208 -0.840483 3.769457
-1.815532 -1.215816 4.537950
-1.899927 -1.109286 4.376846
-1.300236 -0.991012 4.294078
-1.302140 -0.991533 4.298505
-1.033545 -0.981493 4.180059
-1.288630 -1.170992 4.177166
-1.282238 -1.224935 4.351007
-1.093219 -0.917039 4.012692
-1.387361 -0.814063 3.676346
-1.003254 -0.806020 3.602372
-1.893917 -1.181857 4.368489
-1.528527 -0.920445 4.029293
-1.190543 -0.903810 3.973034
-1.485364 -0.923033 4.046969
-1.320583 -0.913577 4.010070
-0.933873 -0.755826 3.415332
-1.090409 -0.851155 3.779548
-1.322746 -0.910989 4.000988
-1.430138 -0.911880 4.008272
-1.290528 -0.882867 3.898094
-1.409611 -0.911406 3.998648
-1.156142 -0.941906 4.124478
-1.397473 -1.058370 4.262448
-1.336315 -1.063220 4.271302
-1.326454 -1.057331 4.241804
-1.611191 -0.955839 4.215725
-1.617452 -0.881827 3.942839
-1.327212 -0.923600 4.081975
-1.450504 -1.065694 4.254118
-1.464211 -1.171086 4.247413
-1.031539 -0.768017 3.463270
-1.019259 -0.775730 3.497399
-0.989190 -0.792964 3.563254
-1.022436 -0.776570 3.509330
-1.118085 -0.637177 3.009531
-1.445449 -0.838507 3.467180
-0.823752 -0.642939 2.987883
-1.203611 -0.698440 3.234843
-1.088537 -0.854196 3.793364
-1.478449 -0.886476 3.946093
-1.456508 -0.887204 3.942724
-0.903404 -0.726649 3.314376
-1.491585 -0.883396 3.928718
-0.823791 -0.604202 2.832327
-1.043332 -0.645720 3.022615
-0.755526 -0.565625 2.704471
-1.410137 -0.993663 4.173732
-1.400407 -1.003633 4.275981
-1.401746 -0.910540 3.982592
-1.231256 -0.903672 3.942278
-1.145450 -1.161866 4.277853
-1.694151 -0.953146 4.201195
-1.572446 -0.921426 4.064857
-0.771572 -0.755475 3.273960
-0.897898 -0.704613 3.222753
-1.466588 -1.172547 4.252349
-1.456310 -1.155634 4.246678
-1.195568 -1.179360 4.343074
-1.442829 -1.156758 4.185689
-1.540133 -1.140147 4.300197
-1.466527 -1.027984 4.323310
-1.440693 -0.818613 3.696335
-1.327723 -0.781663 3.554674
-1.047338 -0.899359 3.930470
-1.548380 -0.883344 3.924260
-1.083765 -0.757994 3.437650
-0.996376 -0.837454 3.714017
-1.514169 -0.885816 3.949967
-1.030543 -0.768157 3.457608
-0.751664 -0.837808 3.462525
-1.422738 -0.958663 4.314322
-1.420792 -1.225813 4.258393
-1.417325 -1.074979 4.546161
-1.833801 -1.379308 4.497960
-1.386917 -1.036184 4.284251
-1.506664 -1.188047 4.221710
-1.361574 -1.157065 4.306908
-1.330394 -1.209545 4.296175
-1.495310 -1.170161 4.367617
-1.264909 -0.727851 3.334062
-1.433548 -0.883842 3.919232
-1.270478 -0.887322 3.930178
-1.553736 -0.897600 3.985990
-1.584355 -0.905121 3.998583
-0.568346 -0.518908 2.510515
-1.924884 -1.293304 4.587144
-1.488374 -1.085596 4.252369
-0.694414 -0.501258 2.452193
-0.624750 -1.145904 3.876045
-0.779790 -0.772820 3.386802
-1.866415 -1.431198 4.473105
-0.497874 -0.438958 2.200643
-0.841690 -0.475268 2.352666
-0.541886 -0.503668 2.451128
-0.638745 -0.498338 2.425973
-0.827572 -0.429510 2.162363
-0.543323 -0.505125 2.460324
-0.835458 -0.452322 2.267142
-0.715812 -0.593410 2.862528
-0.813933 -0.909648 3.431588
-0.855252 -0.868036 3.621820
-0.694691 -0.508301 2.473552
-0.630016 -0.754722 3.382982
-0.743689 -0.855981 3.470961
-1.832809 -0.990280 4.318069
-1.050934 -0.812599 3.636313
-0.749629 -0.498722 2.431967
-1.349477 -0.799311 3.315770
-0.627578 -0.459365 2.274509
-0.595342 -0.469395 2.293831
-0.754152 -0.500025 2.447025
-0.578967 -0.767569 3.379853
-1.394638 -1.135178 4.250442
-0.833710 -1.040987 3.906668
-0.804178 -0.531564 2.573168
-0.575061 -0.567472 2.710536
-1.694233 -0.931370 4.660735
-0.923793 -0.753514 3.398019
-1.002218 -0.976807 4.130459
-1.788050 -1.299255 4.562289
-0.518240 -0.514754 2.513144
-0.626029 -0.459306 2.275616
-0.549808 -0.470117 2.324366
-0.529803 -0.580088 2.751502
-0.788221 -0.845882 3.431873
-0.620931 -0.437246 2.188772
-0.824542 -0.428671 2.156962
-0.586868 -0.501712 2.435250
-0.490295 -0.525841 2.534755
-0.829450 -0.413739 2.104418
-1.179444 -0.740029 2.781976
-0.938375 -0.538786 2.595773
-1.464333 -0.795768 3.369426
-0.832736 -0.478519 2.347874
-0.889486 -0.536575 2.211069
-0.963145 -0.555243 2.656865
-0.661064 -0.480870 2.358330
-0.641908 -0.479596 2.356062
-1.050812 -1.195675 4.212251
-1.433869 -0.883860 3.918481
-1.118865 -0.874593 3.864107
-1.309626 -0.970641 4.224237
-1.250312 -1.016235 4.371534
-1.157598 -1.227037 4.344422
-1.691999 -0.948712 4.178189
-1.497028 -0.908779 4.011698
-1.185660 -0.996818 4.277819
-1.156048 -0.960105 4.174114
-1.362233 -0.888254 3.919127
-1.506902 -0.981991 4.284678
-1.307070 -0.970214 4.221471
-1.514840 -0.880456 3.917568
-1.541735 -0.881598 3.933503
-1.418301 -0.841406 3.779572
-1.191639 -0.905631 3.993518
-1.258608 -0.876029 3.861037
-1.177177 -1.215195 4.294841
-1.954558 -1.162790 4.552446
-1.506978 -0.901583 3.977553
-1.203472 -0.907604 3.971877
-1.448524 -0.898951 3.982606
-1.386270 -0.884700 3.913358
-1.176692 -0.898789 3.954864
-1.179979 -0.865550 3.835428
-1.466008 -0.882361 3.920864
-1.387889 -0.884641 3.913972
-1.219879 -0.867629 3.843867
-1.304041 -1.167567 4.179078
-1.112371 -0.839540 3.720102
-1.692955 -0.949575 4.180108
-1.605621 -0.879164 3.924324
-1.035957 -0.922199 4.026544
-1.291080 -0.883776 3.907330
-1.092218 -1.150698 4.245705
-1.456604 -0.886899 3.942028
-1.252810 -0.862131 3.828630
-1.009008 -1.024853 4.106329
-1.423337 -0.840489 3.770638
-1.098679 -0.878027 3.872019
-1.367695 -0.863595 3.836828
-1.068413 -0.869275 3.849962
-1.091205 -1.147314 4.239634
-1.078790 -0.820839 3.657460
-1.298354 -0.868646 3.864709
-1.099123 -0.878415 3.878675
-1.916320 -1.183301 4.396838
-1.850613 -0.986411 4.331285
-1.069040 -0.815192 3.650890
-1.150522 -0.856562 3.795454
-1.803581 -1.120325 4.651382
-1.334166 -0.887138 3.918733
-1.541660 -0.896144 3.968356
-1.730872 -0.972912 4.267375
-1.138544 -0.911112 3.999429
-1.346947 -0.902160 3.970304
-1.306399 -0.889353 3.930635
-1.447579 -0.862322 3.850695
-1.119550 -0.874872 3.866243
-1.371169 -0.863957 3.841379
-1.618327 -0.906773 4.028008
-1.412995 -0.835518 3.754292
-1.150689 -0.856153 3.797745
-1.457291 -0.888263 3.947423
-1.904982 -1.045929 4.389491
-1.909371 -1.254812 4.639818
-1.634660 -0.885014 3.967635
-1.032205 -0.893492 3.907327
-1.030350 -0.767882 3.458831
-0.998989 -0.972979 4.112804
-1.077631 -0.847937 3.746475
-1.154250 -0.851290 3.777068
-1.139002 -0.848389 3.778064
-1.033695 -0.981670 4.180095
-0.936265 -0.756375 3.422812
-1.147253 -1.207989 4.290284
-1.147517 -1.208803 4.294336
-1.417864 -0.839646 3.763080
-1.033459 -1.227719 4.252572
-1.542887 -0.883629 3.938995
-1.988161 -1.097011 4.393133
-1.021403 -1.198883 4.168284
-1.420159 -0.839943 3.764653
-1.954536 -1.162656 4.551735
-1.257896 -0.766301 3.494291
-1.195638 -0.776550 3.516529
-1.194460 -1.220119 4.339452
-1.516791 -1.002598 4.279472
-1.442543 -0.861703 3.842474
-1.548488 -0.908496 4.020800
-1.289326 -0.865790 3.842318
-1.191398 -1.174789 4.326569
-1.929806 -1.312276 4.614922
-1.336208 -1.166404 4.254572
-1.274610 -1.038417 4.364438
-1.843689 -0.992583 4.342496
-1.866466 -1.235339 4.605503
-1.321438 -1.203956 4.363563
-1.831350 -1.245262 4.609258
-1.324917 -1.188000 4.409608
-0.833248 -0.697563 3.215915
-1.204676 -1.087626 4.343256
-1.461378 -1.158739 4.258092
-1.443917 -1.117657 4.230800
-1.444243 -1.120865 4.234809
-1.337418 -1.137748 4.265142
-1.787248 -1.293113 4.593273
-1.504466 -0.899900 3.982021
-1.270090 -1.206379 4.350161
-1.109505 -0.861102 3.804650
-1.586115 -0.908952 4.029653
-1.209886 -0.919423 4.027712
-1.444195 -1.062250 4.241824
-1.551348 -1.140814 4.316884
-1.418646 -1.173832 4.257304
-1.399254 -1.004059 4.286593
-1.399032 -1.003780 4.284590
-1.451068 -1.130777 4.270551
-1.428967 -1.116790 4.216920
-1.464900 -1.132162 4.253823
-1.462934 -1.127038 4.333355
-1.078475 -1.100002 4.235493
-1.313917 -0.975121 4.218191
-1.545912 -1.023396 4.353549
-1.838270 -1.248446 4.620330
-1.796081 -1.202928 4.491446
-1.799973 -1.120068 4.641735
-1.221632 -0.696869 3.234570
-1.525620 -0.987078 4.293651
-1.445265 -1.058723 4.375085
-1.393425 -1.059449 4.252690
-1.526614 -0.998713 4.288380
-1.452246 -1.127423 4.255890
-1.445865 -1.127711 4.256539
-1.162359 -1.002616 4.331145
-1.662409 -0.989841 4.297959
-1.443227 -0.941014 4.112757
-1.853794 -1.010509 4.401713
-1.282635 -0.901595 3.957992
-1.196793 -0.937264 4.096981
-1.508628 -0.921967 4.052983
-0.973723 -0.803419 3.609236
-1.126052 -0.929064 4.068191
-1.859211 -1.288893 4.552186
-0.892687 -0.703014 3.200139
-1.460499 -0.984118 4.294357
-1.885927 -1.294114 4.602218
-1.714121 -1.205121 4.530269
-1.479341 -1.110052 4.197553
-1.389506 -1.189977 4.250100
-0.904328 -0.742411 3.404890
-1.336364 -1.264013 4.298388
-1.904777 -1.151144 4.342771
-0.970742 -0.764452 3.457378
-1.052551 -1.018659 4.189594
-1.952131 -1.161982 4.548446
-1.413453 -0.856152 3.829033
-1.083933 -0.815146 3.649297
-1.132295 -0.649381 3.059196
-1.902812 -1.250967 4.629653
-1.792820 -1.251398 4.612388
-1.438123 -0.817197 3.581493
-1.547766 -0.861840 3.807389
-0.904878 -0.727199 3.314140
-1.228446 -0.899429 3.971740
-1.096601 -0.917280 4.010702
-1.253001 -0.727416 3.341117
-0.808661 -0.604691 2.857779
-0.822463 -0.658521 3.055158
-1.100361 -0.635471 2.991685
-0.680716 -0.655437 3.054398
-0.685916 -0.589622 2.795630
-1.843745 -1.033615 4.486885
-1.345129 -0.962536 4.185518
-1.408432 -0.884348 3.919546
-1.821089 -1.239315 4.590389
-1.845133 -1.035524 4.495519
-1.292251 -0.866671 3.849729
-0.823510 -0.790460 3.435443
-1.383273 -0.811289 3.452064
-1.415719 -0.822842 3.427043
-1.793304 -1.295959 4.607129
-0.775986 -0.738615 3.331131
-0.887159 -0.734999 3.325379
-0.911283 -0.729107 3.323252
-0.753865 -1.137720 3.925181
-1.124470 -0.872766 3.863498
-0.676216 -0.698623 3.208355
-1.144493 -0.693160 3.204620
-1.001080 -0.628330 2.955262
-0.847270 -0.642453 2.992813
-1.346344 -0.902058 3.317139
-1.260721 -0.724714 3.332595
-0.718358 -0.820704 3.659141
-1.600840 -1.106013 3.673712
-0.631501 -0.578251 2.767767
-0.707401 -0.758149 3.448246
-0.673554 -1.082342 3.922003
-1.450078 -1.108292 4.288173
-0.809436 -1.140884 3.956596
-0.795286 -1.122533 3.861662
-1.827924 -1.417331 4.472028
-0.835334 -0.645695 3.003884
-0.811047 -0.710164 3.335730
-0.733528 -0.836951 3.396902
-0.736803 -0.836801 3.416215
-1.125272 -0.928412 4.061451
-1.397522 -0.890188 3.910392
-1.487099 -0.895243 3.961741
-1.484690 -0.901024 3.978784
-1.485036 -0.885146 3.924807
-1.139941 -0.912222 4.015602
-1.900044 -1.081973 4.612169
-1.339033 -1.017809 4.304762
-1.213705 -0.898734 3.957594
-1.768153 -1.287089 4.541841
-1.943320 -1.262603 4.574317
-1.245865 -0.906294 3.985872
-1.132938 -0.686550 3.173239
-0.872085 -0.710358 3.260615
-0.767919 -0.777729 3.334593
-0.780905 -0.767706 3.335705
-0.956938 -0.654937 3.062984
-0.806333 -0.603896 2.849398
-1.345397 -0.901316 3.315380
-0.822059 -0.658105 3.050010
-1.003677 -0.760332 3.457400
-1.066534 -0.615355 2.906351
-0.865151 -0.643879 2.992051
-0.880922 -0.652344 3.027781
-0.863430 -0.705187 3.215703
-1.196394 -0.699317 3.238843
-1.054011 -0.656972 3.075323
-0.819338 -0.900101 3.421540
-1.796071 -1.115443 4.634819
-0.819253 -0.711786 3.365428
-1.101608 -0.647138 3.041585
-0.847513 -0.679107 3.120507
-0.843935 -0.654914 3.036743
-1.291771 -0.707173 3.284067
-1.149692 -0.665411 3.106027
-1.431045 -0.911528 4.008271
-1.542035 -0.905864 3.998874
-1.358926 -0.931403 4.078919
-1.468641 -0.883594 3.926300
-1.927606 -1.051262 4.545823
-1.353713 -0.916541 4.030149
-1.795460 -1.301400 4.584381
-1.616557 -0.993465 4.453308
-1.346892 -1.274134 4.328121
-1.406425 -0.726530 3.289049
-1.302558 -0.824224 3.703197
-1.092110 -0.873893 3.866656
-1.898953 -1.101051 4.376740
-1.632300 -1.063471 4.473774
-1.469763 -1.176308 4.244162
-1.191504 -1.217286 4.325552
-1.414659 -1.214790 4.236957
-0.640196 -0.761982 3.404937
-1.308949 -0.752484 3.321997
-0.701914 -0.948078 3.555050
-0.611542 -0.536668 2.569610
-1.897828 -1.184401 4.373107
-1.889634 -1.180522 4.360975
-0.894079 -0.707581 3.240550
-1.717237 -1.000907 4.583270
-1.654686 -0.998514 4.549526
-1.911246 -1.239942 4.588325
-1.408473 -1.008434 4.290757
-1.598645 -0.979425 4.417079
-1.915418 -1.242198 4.578139
-1.871626 -1.101982 4.976041
-1.620271 -0.979610 4.366405
-1.267703 -1.032085 4.316529
-0.719182 -0.554292 2.653597
-0.648734 -0.563477 2.680221
-0.873792 -0.654544 3.042528
-1.056201 -1.022376 4.207795
-1.192504 -0.869816 3.869681
-1.515734 -1.012284 4.291626
-1.153544 -1.113561 4.300335
-1.292583 -1.161061 4.153315
-1.541596 -1.069938 4.466827
-0.824456 -0.805615 3.444643
-1.308701 -0.825294 3.704076
-1.097460 -0.829808 3.707940
-1.442467 -0.882627 3.914868
-1.920711 -1.243578 4.601281
-0.762506 -0.863237 3.286343
-0.756514 -0.803482 3.485569
-1.017452 -0.635799 2.986979
-0.883622 -0.733526 3.339170
-0.926537 -0.720993 3.292248
-0.818630 -0.898250 3.412629
-1.054833 -0.607593 2.882638
-1.451530 -0.825316 3.434165
-0.612479 -1.106590 3.749699
-0.648066 -0.593315 2.814554
-0.667042 -0.565454 2.697814
-0.628601 -0.647683 3.020000
-1.051475 -0.638671 2.985715
-1.516683 -0.888585 3.939867
-0.705201 -0.951733 3.570444
-0.831036 -0.909724 3.433179
-0.706496 -0.887163 3.338161
-1.919739 -1.156251 4.362834
-1.013679 -0.698106 3.212000
-1.174184 -0.668921 3.126283
-1.015132 -0.698566 3.213628
-0.970423 -0.606049 2.880506
-0.998565 -0.838952 3.721724
-1.088770 -0.795168 3.575700
-0.987096 -1.116647 4.063726
-1.430313 -0.911825 4.008947
-1.156294 -0.920405 4.022497
-1.205498 -0.885318 3.905985
-1.109609 -0.923854 4.058538
-1.558686 -0.907901 4.014430
-1.538515 -0.907329 4.007569
-1.171752 -0.907570 3.990782
-1.443905 -0.914526 3.960842
-1.318511 -0.887471 3.916449
-1.441306 -1.138984 4.250209
-1.194219 -1.178698 4.339405
-1.396740 -1.063394 4.474061
-1.329321 -1.160833 4.236278
-1.450647 -1.121176 4.244455
-0.928983 -0.721807 3.297011
-0.884097 -0.714051 3.265484
-0.790281 -1.106682 3.782863
-0.758141 -0.778962 3.479380
-0.986850 -0.779929 3.512120
-0.968162 -0.709112 3.250290
-0.866061 -0.722178 3.310225
-1.245388 -0.721425 3.333756
-0.993370 -0.775560 3.495249
-0.799556 -0.650478 3.007295
-0.859619 -0.824554 3.584564
-1.268129 -0.877326 3.878463
-1.235221 -0.876204 3.868321
-1.449460 -0.910947 4.008752
-1.353123 -0.892175 3.931610
-1.724731 -0.971699 4.258240
-1.395742 -0.787886 3.541242
-0.836607 -0.886544 3.302174
