ply
format ascii 1.0
element vertex 2365
property float x
property float y
property float z
end_header
-0.425118 0.151919 1.275095
-0.294310 0.095959 0.483837
-0.306078 0.153650 1.031667
-0.296591 0.142959 0.653339
-0.309173 0.069560 0.560310
-0.327384 0.165530 0.784406
-0.150737 -0.026889 0.991378
-0.286417 0.164863 0.699315
-0.375984 0.138011 0.658549
-0.277010 0.019625 0.591445
-0.709068 -0.029944 1.130863
-0.283257 0.001515 0.556793
-0.724657 -0.050857 1.150088
-0.355608 0.136482 0.642871
-0.332270 0.087536 0.631024
-0.362693 0.098447 0.651821
-0.352444 0.096848 0.640978
-0.350848 0.164312 0.874925
-0.352936 0.167017 0.892205
-0.335346 0.160189 0.874114
-0.332954 0.162797 0.890759
-0.400333 0.149568 0.805797
-0.517364 0.153014 1.247218
-0.336250 0.075093 0.690457
-0.537535 0.153718 1.223237
-0.401148 0.143971 0.813884
-0.171803 -0.030000 2.329176
-0.107234 0.103344 1.768430
-0.222257 0.074472 2.476360
-0.175035 0.075967 3.010899
-0.304144 0.053602 2.397159
-0.324281 0.062734 2.495599
-0.297960 0.078067 2.375898
-0.185826 -0.253098 2.651093
-0.150432 0.149611 0.837978
-0.163662 0.150973 0.687087
-0.150135 0.153697 0.684919
-0.204254 0.155164 0.750521
-0.244718 0.154329 0.881276
-0.058495 0.129676 1.011535
-0.294655 0.159295 2.286394
-0.164298 0.144294 1.007677
-0.382689 0.153378 0.772423
-0.074999 0.119810 1.203998
-0.295380 0.155104 0.673409
-0.700442 -0.058688 1.127815
-0.724903 -0.069411 1.153896
-0.195904 0.153806 0.883605
-0.375766 0.140704 1.394956
-0.384202 0.152453 1.443766
-0.157938 0.160800 0.784070
-0.275701 0.150901 1.115753
-0.355548 0.188223 0.765235
-0.163390 -0.032590 2.222002
-0.125869 0.127476 1.130259
-0.123539 0.129623 1.083931
-0.297888 0.108265 1.853153
-0.300276 0.124693 1.750737
-0.219551 0.145557 0.937814
-0.318357 0.146283 1.233244
-0.306875 0.145122 1.196867
-0.286701 0.156821 0.653280
-0.294030 0.146899 0.640240
-0.305694 0.085422 0.629669
-0.700912 -0.017893 1.117456
-0.712124 -0.008099 1.136771
-0.195155 -0.070069 3.342135
-0.053983 0.137784 1.032510
-0.042842 0.139649 1.008113
-0.159242 0.103172 2.415143
-0.121921 0.101366 1.976594
-0.177538 0.073597 2.437289
-0.126970 0.120983 1.125976
-0.320621 -0.105138 1.683092
-0.118933 0.141045 0.628225
-0.330926 0.133095 1.598527
-0.385063 0.153962 1.747940
-0.361204 0.142856 1.476630
-0.216254 0.152433 0.829334
-0.218197 0.153537 0.813661
-0.455887 0.159945 1.097631
-0.427164 0.165610 1.006396
-0.409611 0.163922 0.957690
-0.373460 0.173983 0.837980
-0.459934 0.147195 0.986490
-0.365310 0.102676 0.736524
-0.180817 0.067828 2.934255
-0.291170 0.097914 2.428112
-0.142437 0.146288 0.819622
-0.222422 0.138886 1.227325
-0.362935 -0.054153 1.815609
-0.328390 -0.044634 1.633063
-0.399875 0.128705 1.551247
-1.015987 0.719730 3.622848
-0.214297 0.157139 0.720108
-0.279734 0.140159 0.845128
-0.373000 0.154274 0.864057
-0.346053 0.152817 0.787562
-0.556957 0.156991 1.212620
-0.312292 0.021556 0.686673
-0.284753 0.058826 0.600350
-0.426119 0.045851 0.815510
-0.421432 0.047106 0.801636
-0.356867 0.151683 0.652645
-0.357680 0.137295 0.658840
-0.363668 0.101469 0.654010
-0.742774 -0.021487 1.193732
-0.183328 -0.233373 2.572844
-0.176471 -0.144678 2.456960
-0.181580 0.046374 2.490577
-0.162001 0.075016 2.248125
-0.194760 0.092818 2.299550
-0.305269 -0.209516 2.446175
-0.284218 0.466415 2.725699
-0.298513 -0.089746 2.377911
-0.318066 0.105298 2.337892
-0.309662 0.104595 2.351944
-0.127474 0.150737 0.849212
-0.181239 0.142471 1.114377
-0.322771 -0.047882 1.684491
-0.161669 0.150331 0.857584
-0.142075 0.150716 0.716543
-0.156239 0.154911 0.696324
-0.312019 0.121481 1.315599
-0.351182 0.138002 1.507200
-0.200337 0.153329 0.814072
-0.362590 0.115187 1.483346
-0.245061 0.150205 1.022476
-0.211484 0.154900 0.787083
-0.232723 0.152199 0.884450
-0.192321 0.157616 0.698920
-0.253320 0.154702 0.845897
-0.367524 0.157881 1.218838
-0.239483 0.162805 0.676761
-0.291987 0.159079 0.809363
-0.293282 0.160013 0.795918
-0.372103 0.160010 1.002053
-0.495194 0.137190 1.123383
-0.464458 0.167160 0.996113
-0.453257 0.170687 0.957777
-0.415991 0.132931 0.882560
-0.312021 0.080192 0.612367
-0.294062 0.077153 0.482910
-0.732206 -0.032843 1.163833
-0.040435 0.109375 1.028170
-0.698091 -0.063909 1.126059
-0.332711 0.121659 0.626240
-0.306695 0.121198 0.571407
-0.289516 0.126450 0.703549
-0.311274 0.121774 0.647820
-0.409574 0.138819 1.115831
-0.261845 0.160050 1.134586
-0.268441 0.137078 0.823699
-0.254029 0.143660 0.854972
-0.017850 0.219346 1.452562
-0.113709 0.121789 1.121749
-0.223991 0.149557 1.004363
-0.277366 0.120662 0.497088
-0.105595 0.186719 0.992181
-0.149617 0.175794 1.182977
-0.152751 0.176507 1.142283
-0.403812 0.133732 1.065311
-0.338252 0.103093 0.724475
-0.344245 0.107287 0.741720
-0.137400 0.162944 0.840078
-0.210799 0.165176 1.155268
-0.176825 0.155976 0.750066
-0.303661 0.153645 1.231126
-0.332526 0.170444 1.266568
-0.244974 0.145103 0.732555
-0.283203 0.133563 0.790814
-0.272927 0.133801 0.680328
-0.400665 0.125602 0.947204
-0.350623 0.125924 0.754252
-0.303082 0.087619 0.615157
-0.344342 0.109770 0.600579
-0.314156 0.102628 0.539643
-0.017241 0.219668 1.103875
-0.177024 0.186424 1.082010
-0.147327 0.170563 0.867539
-0.175040 0.182987 1.042302
-0.213738 0.158928 1.143766
-0.047281 0.005881 1.189255
-0.283836 0.170062 1.163580
-0.321277 0.172506 1.299368
-0.363470 0.144110 1.146131
-0.343210 0.153138 1.094659
-0.382353 0.137902 1.066371
-0.342569 0.132699 0.924766
-0.356366 0.129167 0.901637
-0.435415 0.131126 1.099918
-0.229914 0.146871 1.015484
-0.189667 0.184043 1.305767
-0.208471 0.145512 0.687649
-0.014314 0.203762 1.465978
-0.241576 -0.089091 1.204011
-0.508500 0.114225 0.843139
-0.422586 -0.014602 0.881814
-0.369132 0.057853 0.910724
-0.372063 0.050145 1.064782
-0.384123 0.014285 0.885623
-0.401863 0.000746 0.926904
-0.422076 -0.028677 0.911195
-0.362441 0.090754 0.925050
-0.265412 -0.012032 1.091081
-0.196625 -0.009588 1.039939
-0.171444 0.037305 0.783589
-0.236717 -0.017007 1.155084
-0.184632 -0.054242 1.054260
-0.155574 -0.063952 1.177967
-0.197237 0.072815 0.823013
-0.240187 0.078525 0.868501
-0.324550 -0.034495 1.195234
-0.308781 0.076264 1.082899
-0.092527 -0.017826 1.015743
-0.272537 -0.035195 1.252479
-0.315340 -0.030109 1.214294
-0.132968 -0.002891 1.063281
-0.304910 -0.040770 1.292293
-0.165587 0.071870 0.792095
-0.188964 0.032144 0.787339
-0.228292 0.017145 0.871444
-0.161869 0.018838 0.779931
-0.251079 0.078528 0.893136
-0.229601 0.072002 0.845275
-0.049743 -0.021730 1.061915
-0.314804 0.018709 1.158460
-0.421895 0.013798 0.907651
-0.420767 0.014051 0.887014
-0.172953 -0.071756 1.236372
-0.150354 -0.055563 1.046157
-0.250016 -0.038686 1.214671
-0.255744 -0.031870 1.212248
-0.211712 0.075153 0.819121
-0.206876 0.066494 0.821935
-0.367826 0.019527 0.868280
-0.034379 0.035268 0.427830
-0.127956 -0.044000 1.068826
-0.178688 -0.056991 1.044777
-0.174335 0.060178 0.785691
-0.317089 0.021274 1.106857
-0.365636 0.077052 0.911667
-0.364914 0.016017 0.894249
-0.421088 -0.011950 0.950460
-0.448348 0.080472 0.855957
-0.298095 -0.047617 1.261569
-0.190470 -0.097807 1.142325
-0.216753 0.023411 0.835218
-0.218680 0.015826 0.814542
-0.068401 -0.097819 1.069243
-0.116599 -0.021992 0.997402
-0.257582 -0.095981 1.220941
-0.261640 -0.085821 1.222757
-0.267909 -0.083311 1.237021
-0.265601 -0.036444 1.190885
-0.300916 -0.043950 1.307186
-0.212193 0.014640 0.858357
-0.321698 0.006711 1.151532
-0.252466 0.027195 0.888843
-0.434084 -0.047995 0.941197
-0.426104 -0.041738 0.915559
-0.047223 -0.031947 1.129861
-0.056934 -0.101916 1.089414
-0.086159 -0.034782 0.940781
-0.128181 -0.050872 1.242291
-0.115425 -0.062585 1.030417
-0.141940 -0.051866 1.133691
-0.185447 -0.064780 1.139912
-0.082864 0.034629 0.490155
-0.179627 0.155974 0.726995
-0.054226 0.151191 0.700144
-0.339482 0.137109 0.599430
-0.368499 0.150284 0.648850
-0.342220 0.133831 0.583174
-0.133916 0.147245 0.685427
-0.361170 0.153244 0.641008
-0.087828 0.146003 0.844003
-0.155797 0.150112 0.756335
-0.183257 0.156505 0.678677
-0.143605 0.161116 0.741947
-0.045507 0.129474 0.952036
-0.118165 0.137692 0.619142
-0.044165 0.092421 0.876908
-0.177626 0.154126 0.718669
-0.300954 0.119717 0.508845
-0.293662 0.039581 0.482913
-0.283811 0.152207 0.643461
-0.319154 0.079955 0.658017
-0.288159 0.117033 0.586448
-0.167259 0.154114 0.798852
-0.323964 0.117735 0.546026
-0.381385 0.144385 0.644339
-0.338595 0.140177 0.623506
-0.127727 -0.002515 0.241832
-0.282902 0.146171 0.630572
-0.319557 0.120833 0.590466
-0.164652 0.169903 0.822668
-0.259347 0.129650 0.582727
-0.377894 0.161233 0.670013
-0.083812 0.113623 1.081518
-0.319316 0.139862 0.659840
-0.216951 0.147910 0.992656
-0.136166 0.133491 0.665160
-0.321308 0.123127 0.542696
-0.288922 0.006017 0.488107
-0.191066 0.151009 0.863531
-0.362455 0.153507 0.678751
-0.060949 0.121792 1.154680
-0.304190 0.158731 0.674743
-0.056284 0.106172 1.044572
-0.277610 0.109804 0.471162
-0.134612 0.146598 0.686264
-0.213679 0.159714 0.736132
-0.098832 0.152013 0.901086
-0.053490 0.131565 1.178083
-0.058185 0.117560 1.124279
-0.058359 0.114112 1.001677
-0.279608 0.156129 0.656250
-0.049372 0.115147 1.080030
-0.054653 0.091076 0.522677
-0.269298 0.106470 0.457286
-0.064705 0.114401 1.094984
-0.338772 0.148806 0.699709
-0.352032 0.115324 0.647106
-0.363994 0.110200 0.664280
-0.374994 0.153168 0.765472
-0.325894 0.107775 0.667186
-0.239349 0.154633 0.838639
-0.134003 0.157387 1.250288
-0.247153 0.184204 0.965572
-0.297144 0.093592 0.609139
-0.073331 0.124808 1.184572
-0.612913 0.110029 1.452643
-0.640767 0.091141 1.494143
-0.315705 -0.107314 1.649831
-0.334327 0.081611 0.674276
-0.437135 0.075935 1.709986
-0.374410 0.071768 1.476077
-0.275758 0.058171 0.583224
-0.340187 0.142979 0.677528
-0.346379 0.147462 0.714862
-0.293061 0.155912 0.895959
-0.275274 0.021844 0.558337
-0.751480 -0.038431 1.209511
-0.203816 0.142707 1.185175
-0.260464 0.150678 1.002832
-0.382634 0.161333 0.889418
-0.465335 0.114526 0.982957
-1.523072 -0.029067 2.834791
-0.572608 0.013921 1.455192
-0.304236 0.043517 2.355191
-0.449142 -0.115463 1.719032
-0.509437 0.059614 1.608598
-0.519292 0.064663 1.521035
-0.498727 -0.099783 1.677816
-0.817000 0.489848 3.395550
-0.475866 0.160220 1.154627
-0.384556 0.152485 1.155636
-0.588361 0.138147 1.275325
-0.268093 0.149924 1.090803
-0.498024 0.143740 1.241699
-0.474042 0.169884 1.747007
-0.289760 0.082570 2.448754
-0.305114 0.067106 0.574903
-0.657730 0.117524 1.533790
-0.457303 0.035231 0.968158
-0.102084 0.019267 0.578528
-0.016620 0.200448 1.487085
-0.317244 0.116985 0.627046
-0.011965 0.243816 1.435396
-0.204472 0.149380 0.776221
-0.016562 0.215756 1.438823
-0.377316 0.145257 0.680515
-0.370716 0.127388 0.755357
-0.405702 0.024410 1.569865
-0.312798 -0.062775 2.408992
-0.344307 0.138912 1.607300
-0.353214 0.086234 1.499463
-0.519860 0.149164 1.477396
-0.342663 -0.097245 1.569399
-0.306876 0.200113 1.731564
-0.302966 0.013515 1.870549
-0.332699 0.036716 2.206729
-0.492918 0.148689 1.530570
-0.561998 0.122297 1.466161
-0.538611 0.132741 1.467606
-0.261560 0.154032 1.079952
-0.234579 0.159035 0.788706
-0.440948 0.361354 2.028052
-0.283584 -0.002549 0.485969
-0.241070 0.149826 0.733237
-0.384426 0.158142 0.783471
-0.226390 0.157748 0.782906
-0.169796 0.144508 0.966912
-0.164151 0.145035 0.770679
-0.288694 -0.004649 0.566822
-0.420859 0.094287 0.859929
-0.074941 0.124335 1.153822
-0.275491 0.036306 0.558469
-0.408937 0.164900 0.775521
-0.340700 0.134915 0.647893
-0.344517 0.072122 0.708534
-0.391348 -0.069048 1.514587
-0.376961 -0.076714 1.572526
-0.354566 -0.065417 1.477429
-0.390987 0.122706 1.505360
-0.664022 0.132485 1.479455
-0.441851 0.163909 1.050814
-0.264642 0.149806 0.968912
-0.228266 0.079367 3.698279
-0.443573 0.165299 1.002576
-0.356704 0.161335 1.020502
-0.570464 0.026134 1.397756
-0.562997 0.074770 1.467537
-0.582107 0.027167 1.421408
-0.588078 0.032450 1.440194
-0.594848 0.062524 1.465650
-0.559840 0.072498 1.460400
-0.474827 -0.050859 1.746800
-0.312490 0.112979 0.667708
-0.297690 0.136377 0.748141
-0.111364 0.165354 1.005703
-0.041235 0.212289 1.147628
-0.275920 0.122546 0.551362
-0.042907 0.215573 1.167238
-0.318354 0.176701 0.967795
-0.215332 0.148361 0.930554
-0.215903 0.196169 1.027456
-0.241156 0.149585 1.010257
-0.301211 0.125565 1.726076
-0.563961 0.161992 1.204378
-0.448867 0.169115 1.064256
-0.570671 0.074286 1.439404
-0.601115 0.069607 1.475232
-0.376444 0.170539 0.851470
-0.150435 0.135181 0.710323
-0.297068 0.013215 0.596369
-0.546280 0.045304 1.764633
-0.204249 0.153221 0.910003
-0.308897 0.144333 1.122397
-0.499426 0.061327 1.465389
-0.931047 -0.042520 1.778539
-0.303452 0.048596 2.313148
-0.926220 -0.015158 1.640902
-0.318381 0.003379 0.581544
-0.269567 0.175133 0.822727
-0.312727 0.083096 0.529081
-0.335691 0.132587 0.637522
-0.360094 0.136890 0.615879
-0.445458 0.142295 0.951325
-0.351881 0.037542 0.675980
-0.310712 0.087597 0.635676
-0.320155 0.002436 2.581046
-0.499045 0.091098 1.504573
-0.332708 0.145965 1.275592
-0.354607 0.089400 1.514825
-0.550633 0.155798 1.227104
-0.336016 -0.049298 1.672857
-0.330811 -0.092995 1.520829
-0.364177 0.163790 0.824830
-0.315512 0.088867 0.648563
-0.256297 0.156838 0.856319
-0.298181 0.160755 0.834967
-0.316841 0.164816 0.850952
-0.125874 0.167271 0.860584
-0.574817 0.098611 1.465983
-0.499195 0.034509 1.638183
-0.594571 0.120305 1.470607
-0.419808 0.161254 1.262599
-0.201041 0.139804 1.164432
-0.405235 0.155858 0.691048
-0.150706 0.148516 0.885856
-0.350892 -0.070686 1.459557
-0.320352 0.041012 2.372456
-0.337846 -0.102360 1.596442
-0.547489 0.151748 1.194914
-0.295583 0.117664 1.836813
-0.309890 0.193238 2.444748
-0.404334 0.154862 1.138445
-0.224420 0.152361 0.892256
-0.302211 -0.143714 1.861116
-0.332674 0.092074 0.605772
-0.280699 -0.004538 0.554405
-0.122973 0.110390 0.806642
-0.212511 0.163915 0.952554
-0.254255 0.076478 2.463899
-0.118334 0.186296 1.119620
-0.290067 0.134434 0.861589
-0.127391 0.122095 1.137200
-0.307208 0.163468 0.793039
-0.411985 0.147335 0.804417
-0.906960 -0.039663 1.649462
-0.583014 0.097881 1.486553
-0.580053 -0.002554 1.469916
-0.544117 0.091618 1.483043
-0.408246 0.126629 0.872783
-0.392111 0.145436 0.790098
-0.210503 0.136938 0.893765
-0.391613 0.172434 0.892955
-0.234772 0.140975 1.150148
-0.069648 0.113234 1.082071
-0.302868 0.160831 0.782113
-0.490403 0.146037 1.467428
-0.348404 0.145453 1.636561
-0.366603 0.118755 1.504967
-0.483119 0.128768 1.489386
-0.798206 -0.029855 1.636364
-0.778863 -0.051788 1.644605
-0.467197 0.146833 1.690673
-0.312972 0.156321 1.000406
-0.305080 -0.129649 2.447184
-0.495776 0.147022 1.663957
-0.484484 0.147435 1.500088
-0.260231 0.147484 0.788561
-0.425240 0.171816 0.990989
-0.369823 0.193672 1.121809
-0.129571 0.117545 1.685067
-0.277265 -0.000432 0.485123
-0.189014 0.162986 0.841102
-0.017655 0.248202 1.404672
-0.309818 0.028243 0.589303
-0.281954 0.128044 0.715318
-0.325568 0.131275 0.695298
-0.482157 0.180757 1.449312
-0.395021 0.150663 1.277435
-0.137941 0.139935 1.125635
-0.254709 0.066364 0.573297
-0.480887 0.112339 1.696921
-0.464955 -0.113084 1.713041
-0.478331 0.127901 1.018502
-0.230262 0.143493 1.103609
-0.266034 0.042443 0.530824
-0.116114 0.126555 1.098482
-0.194207 0.158487 0.887691
-0.270910 0.152296 0.999991
-0.183455 0.139716 1.110469
-0.643229 0.126147 1.497760
0.205843 0.360815 2.222917
-0.279798 -0.005612 0.544253
-0.270258 -0.016946 0.604281
-0.200201 0.160076 0.909345
-0.513954 0.160741 1.291625
-0.259225 0.142922 1.161833
-0.289924 0.111573 1.822118
-0.293865 0.093478 1.801373
-0.303233 0.167901 2.336566
-0.198799 0.142709 0.870045
-0.422244 0.166273 0.990317
-0.434453 0.168997 0.908442
-0.753829 -0.025782 1.581479
-0.659732 0.111025 1.448709
-0.736425 -0.008894 1.593288
-0.340307 -0.095629 1.539762
-0.472328 0.025512 1.784469
-0.505524 0.080792 1.496007
-0.320319 0.159939 0.913945
-0.300261 0.150615 1.188384
-0.255534 0.136897 1.321660
-0.101444 0.116198 1.108742
-0.267498 0.158689 0.797929
-0.272501 0.018885 0.584401
-0.287417 0.060625 0.611149
-0.312579 0.161741 0.834398
-0.226214 0.145226 0.781129
-0.398185 0.120314 0.912184
-0.311317 0.127248 0.802106
-0.178454 0.188067 1.089849
-0.179401 0.170633 0.919432
-0.279854 0.057617 0.599040
-0.300670 0.071808 1.844780
-0.369565 0.144402 1.326473
-0.247757 0.152645 1.035147
-0.118805 0.122484 1.079684
-0.112695 0.142256 1.331467
-0.110635 0.138900 1.296286
-0.370467 0.141197 1.451262
-0.487797 0.152304 1.233757
-0.301895 0.161079 0.915883
-0.100169 0.152733 1.368942
-0.304077 0.061562 0.626862
-0.125286 0.123898 1.166362
-0.129801 0.142957 1.152202
-0.257932 0.143939 0.944667
-0.268741 -0.089873 1.248565
-0.158747 0.036762 0.776341
-0.237663 0.026698 0.860562
-0.276589 0.104576 0.575310
-0.419891 0.021079 0.884054
-0.179721 0.091273 0.516231
-0.321719 0.152089 1.255525
-0.294545 0.146781 1.163715
-0.414176 0.167085 1.025759
-0.145399 0.145102 1.015136
-0.165793 0.149336 0.835646
-0.091472 0.136265 0.814540
-0.874259 -0.016068 1.471980
-0.213186 0.169281 0.958473
-0.112478 0.168439 1.028804
-0.217952 0.169669 0.945617
-0.231832 0.151144 0.807163
-0.387982 0.159153 0.764915
-0.298950 0.117367 1.877130
-0.201309 0.140395 1.169810
-0.124794 0.122961 1.182053
-0.127292 0.154279 1.211734
-0.103949 0.115280 1.674571
-0.298461 0.018630 0.662348
-0.315016 0.157004 0.893378
-0.276298 0.153410 0.942595
-0.582883 0.167857 1.333528
-0.293391 0.118692 1.676945
-0.243220 0.177273 2.353711
-0.266836 0.079973 2.586210
-0.304970 0.109456 1.913235
-0.290531 -0.137530 1.790202
-0.234002 0.159301 2.256306
-0.198001 0.097833 2.443559
-0.917566 -0.078281 1.551365
-0.792292 -0.014544 1.412003
-0.331639 0.156734 1.001745
-0.417815 0.171598 0.970719
-0.380664 -0.044399 1.655766
-0.577821 0.016790 1.540677
-0.508533 0.123031 1.469702
-0.594601 0.110872 1.444327
-0.552770 0.015597 1.580299
-0.384285 0.170900 1.647727
-0.519080 0.151287 1.219539
-0.177461 0.082230 2.512614
-0.235686 0.159130 2.274698
-0.931763 -0.090889 1.566397
-0.316304 0.131011 1.692753
-0.365256 0.150316 1.173621
-0.292900 -0.182436 2.336720
-0.286036 0.047598 0.566294
-0.256865 0.159608 0.896027
-0.270459 0.145679 1.090465
-0.340686 0.165891 1.030614
-0.333875 0.157542 1.007439
-0.281689 0.145066 1.121998
-0.327112 0.160899 0.842430
-0.259590 0.133844 1.525895
-0.227210 0.166990 1.003608
-0.220821 0.133886 1.201972
-0.321481 0.082815 1.675074
-0.539507 0.041027 1.277550
-0.221066 0.142972 1.150060
-0.119555 0.137182 1.093792
-0.234219 0.144668 0.815548
-0.387738 0.068528 0.728924
-0.328975 -0.107277 1.647544
-0.406509 0.147383 1.499354
-0.361442 -0.098723 1.555624
-0.353245 -0.102559 1.528273
-0.479384 0.050601 1.163289
-0.454710 0.159547 1.081967
-0.542954 0.148743 1.465863
-0.445804 0.145434 1.612935
-0.390742 0.017474 1.510663
-0.481184 -0.036594 1.779593
-0.299473 0.139561 1.464144
-0.299629 0.142550 1.475769
-0.651142 0.130703 1.453085
-0.056270 -0.026905 0.650406
-0.274574 0.144838 1.182202
-0.400389 0.161126 1.034022
-0.271894 -0.021811 0.611002
-0.385642 0.165496 0.885362
-0.394466 0.135594 0.952945
-0.177887 0.087120 2.405273
-0.557846 0.237500 1.286564
-0.536794 0.188351 1.292390
-0.346175 -0.108512 1.621620
-0.610245 0.173340 1.321475
-0.098202 0.128294 1.224989
-0.114409 0.158784 1.364067
-0.158890 0.018674 0.788389
-0.193237 0.050207 0.806655
-0.119706 -0.019399 0.966429
-0.159970 0.067936 0.780074
-0.114668 0.021209 0.851078
-0.278056 0.165602 1.139354
0.077183 0.311355 1.742074
-0.323086 0.149579 1.111744
-0.660674 0.155742 1.462754
-0.183163 0.147169 0.945480
-0.296850 -0.167743 2.372716
-0.441239 0.125482 1.716201
-0.510198 0.136791 1.613236
-0.374989 -0.061244 1.470304
-0.526532 0.056198 1.273389
-0.562280 0.123173 1.467337
-0.602175 0.062080 1.477312
-0.386485 -0.056089 1.496155
-0.314383 0.149276 1.146156
-0.346957 0.141010 1.309051
-0.345824 -0.039596 1.471828
-0.411678 0.002482 0.916685
-0.141588 -0.031954 1.008993
-0.404651 -0.001279 0.898517
-0.459468 -0.037832 1.762972
-0.319542 0.131093 1.654158
-0.289188 0.097074 2.407229
-0.173145 0.047992 2.490727
-0.321393 -0.096087 1.600895
-0.495278 0.153949 1.255493
-0.264293 0.104865 2.433579
-0.374533 0.158904 1.115638
-0.378834 0.163348 1.256167
-0.237442 0.169523 2.308592
-0.335340 0.055212 2.086249
-0.580794 0.108986 1.484750
-0.292713 0.150007 1.052996
-0.143510 0.138925 1.189126
-0.383077 -0.090444 1.481292
-0.401041 0.162355 0.982738
-0.316836 0.044549 0.700256
-0.364603 0.151361 1.202891
-0.362180 0.142029 1.506546
-0.375982 -0.087843 1.448569
-0.532080 0.152285 1.328798
-0.545178 0.157201 1.723778
-0.314559 0.152427 1.061005
-0.487134 0.158510 1.118848
-0.629042 0.110231 1.438636
-0.575905 0.076307 1.462084
-0.593119 0.107764 1.453225
-0.471356 -0.101893 1.701817
-0.612756 0.099404 1.459588
-0.619619 0.123742 1.484615
-0.523644 0.079092 1.495977
-0.324511 0.047813 0.713598
-0.400668 0.012681 1.545568
-0.431640 0.154994 1.590522
-0.383483 -0.073200 1.487272
-0.590208 0.068504 1.453344
-0.237402 -0.059405 2.362481
-0.605641 0.128127 1.528199
-0.867638 -0.017659 1.633497
-0.569013 0.149439 1.432164
-0.367749 -0.066248 1.502489
-0.434155 -0.034973 1.609972
-0.451271 0.021252 1.662654
-0.539076 0.125348 1.456107
-0.877323 -0.037845 1.645036
-0.857607 -0.030145 1.640458
-0.500756 0.102070 1.253997
-0.188937 0.258174 1.603721
-0.626577 0.094278 1.382013
-0.293130 0.141002 1.146610
-0.540905 0.025524 1.238929
-0.429808 0.153739 1.233432
-0.382993 0.151493 1.150646
-0.515760 0.125082 1.633121
-0.537567 0.147317 1.153223
-0.499520 0.088221 1.478937
-0.468492 0.140710 1.192669
-0.300219 -0.003661 2.389325
-0.304348 0.128616 1.757101
-0.177005 0.082312 2.373758
-0.915550 -0.014850 1.547073
-0.297601 -0.115816 2.371060
-0.326084 0.033574 2.311174
-0.192247 0.091584 2.598979
-0.306198 -0.101643 1.584345
-0.297695 0.036811 1.838405
-0.321254 -0.055856 1.709565
-0.295809 -0.082607 2.550285
-0.260027 0.144277 1.170290
-0.416393 0.163363 0.867783
-0.189940 0.043115 2.626376
-0.295595 0.015673 1.820640
-0.478723 0.151769 1.016351
-0.416043 0.159830 0.981276
-0.432841 -0.001272 0.947012
-0.449792 0.157131 0.945498
-0.166786 0.147169 1.089661
-0.469075 0.145786 1.681633
-0.264350 0.141699 1.220864
-0.107742 0.101345 1.366848
-0.205167 0.132966 0.869589
-0.424230 0.158153 1.168539
-0.290535 0.171270 1.200991
-0.194341 0.144056 0.859480
-0.460940 0.002937 0.982487
-0.470316 0.161907 1.136304
-0.204956 0.150524 1.218916
-0.471998 -0.025746 1.735713
-0.519298 0.079000 1.636784
-0.485203 0.178089 1.272117
-0.118868 -0.093275 1.070446
-0.127079 -0.067374 1.090672
-0.336563 0.088763 0.885811
-0.279731 -0.038531 1.316192
-0.364824 0.043625 0.918311
-0.143019 0.030109 0.780900
0.088736 0.330310 2.074826
0.114349 0.341377 2.122333
0.092320 0.274798 2.189243
-0.482622 0.128766 1.484166
-0.384481 -0.024193 1.486534
-0.528249 0.137416 1.127209
-0.372768 -0.037434 1.493089
-0.254744 0.072093 2.413932
-0.401142 0.148550 1.213420
-0.236603 0.031149 2.353660
-0.349232 0.155429 0.991687
-0.527996 0.113227 1.477702
-0.251403 0.145573 1.108047
-0.546722 0.140512 1.194071
0.077953 0.295204 2.038115
0.090004 0.332958 2.088462
0.253916 0.273271 2.396202
0.275798 0.272489 2.522934
-0.181042 0.008127 0.844771
-0.180857 -0.058418 1.068428
-0.099520 0.037265 0.534395
-0.095426 0.034480 0.504314
-0.351155 -0.004987 0.962512
-0.530439 0.134379 1.629280
-0.537703 0.020337 1.185934
-0.426316 0.029460 1.678919
-0.338158 -0.033382 1.585103
-0.405004 0.141444 0.834855
-0.304926 0.075869 2.481934
-0.363481 0.115460 1.484829
-0.523896 0.153528 1.233158
-0.301325 0.073502 2.442093
-0.571412 0.065373 1.424576
-0.358644 -0.041945 1.720317
-0.431526 0.157306 1.078668
-0.469305 0.148783 0.995626
-0.342596 0.152027 1.090743
-0.460567 0.120512 0.983400
-0.466340 0.124565 0.993582
-0.305644 0.000435 0.686878
-0.501871 0.065447 1.571232
-0.522849 0.064709 1.558102
-0.361897 -0.044175 1.758345
-0.747497 -0.073736 1.611000
-0.250411 -0.030408 2.518648
-0.570355 0.020263 1.517776
-0.330726 -0.049467 1.714771
-0.180614 0.075379 2.474359
-0.506472 -0.056040 1.704173
-0.294948 0.037179 1.797486
-0.442166 0.138664 1.086223
-0.517819 -0.031473 1.734356
-0.512834 0.051842 1.545500
-0.778074 -0.081149 1.654010
-0.259272 0.083017 0.870891
-0.401458 -0.013472 0.923416
-0.118195 -0.066415 1.064209
-0.142221 -0.074706 1.181451
-0.122003 -0.054911 1.241898
-0.097348 0.035685 0.515512
-0.256043 0.101350 0.511443
-0.100702 -0.042652 1.077524
-0.096299 0.081037 0.524174
-0.077733 -0.063248 1.147926
-0.346277 -0.041086 1.565408
-0.356392 0.019691 2.318379
-0.216048 0.146410 0.988009
-0.419671 0.156983 1.560395
-0.298372 0.160871 2.322389
-0.318718 0.168889 1.282322
-0.583452 0.145273 1.661486
-0.587447 0.155776 1.691464
-0.104853 0.165124 0.761581
-0.099192 0.155670 0.743994
-0.504389 -0.029309 1.698599
-0.385867 -0.050015 1.833083
-0.542696 0.082396 1.477133
-0.281976 0.115258 3.336440
-0.452312 0.062867 1.719480
-0.407205 0.097700 1.579094
-0.423827 0.151172 1.213594
-0.514347 -0.059449 1.725547
-0.865275 -0.055273 1.584588
-0.551268 -0.096409 1.680372
-0.503680 -0.046289 1.694010
-0.625141 0.088454 1.456572
-0.312784 0.149191 1.221733
-0.605268 0.080392 1.484018
-0.460688 -0.121898 1.738027
-0.345775 -0.040918 1.567849
-0.289282 0.094261 0.548263
-0.155183 -0.059766 1.289003
-0.453892 0.004926 0.834104
-0.178537 0.009160 0.851760
-0.349274 -0.044105 1.171031
-0.279426 0.092416 0.724894
-0.387584 0.087519 0.860574
-0.289155 0.092562 0.738541
-0.425972 0.153548 1.337606
-0.224400 0.145913 2.064549
-0.575824 0.146345 1.230385
-0.205442 0.148292 1.024939
-0.353666 0.147297 1.195967
-0.585921 0.020753 1.549140
-0.565371 0.018830 1.444677
-0.608954 0.022882 1.499348
-0.334610 -0.033812 1.617617
-0.242068 0.207361 1.554488
-0.501571 0.031369 1.612055
-0.609614 0.146800 1.251337
-0.510556 0.143122 1.174605
-0.690659 0.155517 1.378352
-0.427782 0.142945 1.283041
-0.559664 0.018497 1.538278
-0.014647 -0.084911 1.548412
-0.200903 0.005274 0.874891
-0.185036 0.008948 0.854163
-0.354918 0.113455 0.617147
-0.015009 0.207532 1.521818
-0.097161 0.057006 0.521621
-0.235196 0.089548 0.563186
-0.466421 -0.045788 0.975349
-0.133068 0.086291 0.517647
-0.297765 0.093971 0.654254
-0.252544 0.093920 0.599018
-0.193589 0.006263 0.861781
-0.420673 0.060200 0.884032
-0.477230 0.106929 1.154597
-0.370723 -0.070574 1.460626
-0.576172 0.152983 1.457184
-0.503809 0.040407 1.692534
-0.525445 0.065431 1.499117
-0.743806 -0.046227 1.593678
-0.745223 -0.008636 1.584183
0.219840 0.378895 2.306514
-0.118922 -0.044137 1.065378
-0.175566 0.005967 0.852945
-0.340961 0.177024 1.292307
0.099663 0.357901 2.243676
0.255605 0.274756 2.411363
0.271007 0.230358 2.429946
0.275708 0.266283 2.474481
0.253427 0.285902 2.473300
0.225335 0.238184 2.311270
-0.442139 0.104432 0.798795
-0.457017 0.082082 0.843626
-0.365170 0.103388 0.759731
-0.430504 0.018156 0.920444
-0.435239 0.022833 1.625847
-0.559769 0.042816 1.327828
-0.365854 -0.068199 1.433741
-0.474253 -0.050646 1.743672
-0.426360 0.188373 1.613406
-0.037055 0.196576 1.127253
-0.366579 0.099654 1.564296
-0.319142 0.144348 2.118211
-0.437993 0.027094 1.660848
-0.133797 -0.028931 0.954820
-0.266302 0.154752 1.033488
-0.086336 0.014853 0.626767
-0.151909 -0.028012 1.008020
-0.113423 -0.024219 1.055679
0.021457 0.259037 1.776781
-0.347754 0.124283 0.847132
-0.035497 0.213720 1.382241
-0.342499 0.142676 1.050503
-0.435451 0.148365 1.266364
-0.400808 0.147965 1.206110
-0.259970 0.142332 1.353808
-0.716674 -0.010350 1.533425
-0.353259 -0.073509 1.483573
-0.631752 0.080431 1.485134
-0.336732 -0.045559 1.695721
-0.522046 0.109751 1.646971
-0.354632 0.152768 1.178452
-0.366213 0.144229 1.477886
-0.496761 0.149288 1.485937
-0.260404 0.129453 1.305395
-0.329326 -0.092986 1.499835
-0.272070 0.139667 1.383112
-0.361189 -0.040408 1.538829
-0.398387 0.050037 1.542720
-0.057567 0.032425 0.426715
-0.415827 -0.003562 0.940308
-0.137478 0.087687 0.632942
-0.300261 0.099149 0.667162
-0.157668 0.082220 0.634899
-0.251225 0.026874 0.884863
-0.432921 -0.011904 0.818970
-0.059178 0.042812 0.554444
-0.332281 0.111497 0.582075
-0.430137 -0.014350 0.892822
-0.059379 0.012980 0.964948
-0.462135 0.102190 0.851502
-0.334754 0.132302 1.549537
-0.482497 -0.118609 1.781664
-0.482205 0.159545 1.173926
-0.522132 0.127626 1.647291
-0.552783 0.096273 1.457709
-0.534077 0.187358 1.097060
-0.409252 -0.039258 1.581897
0.226817 0.260665 2.305425
0.231497 0.266202 2.339646
0.257714 0.379470 2.402048
-0.206063 0.071426 0.864241
-0.398486 -0.032535 0.952647
-0.236680 0.015034 0.930124
-0.257126 0.145507 1.091156
-0.538198 0.020287 1.187799
-0.353391 0.146741 0.755796
-0.129585 -0.029918 0.975166
-0.460525 -0.006490 0.780460
-0.193767 0.088086 0.601745
-0.450443 0.029330 0.856834
-0.113841 -0.020252 0.984747
-0.128712 0.008141 0.972400
-0.316748 0.129862 0.810831
-0.352328 0.158973 1.121132
-0.306482 0.066243 0.678889
-0.321419 0.044044 0.706886
-0.637204 0.112451 1.457461
-0.478063 0.146430 1.498404
-0.649782 0.126350 1.483772
-0.353634 -0.060279 1.439489
-0.288764 0.018304 0.641865
-0.281541 0.019116 0.618407
-0.604204 0.071790 1.491255
-0.670924 0.096117 1.528859
-0.406062 0.157836 1.219692
-0.375005 0.100818 0.767807
-0.390118 0.013963 0.897932
-0.195545 0.084355 0.691768
-0.152992 0.066849 0.788474
-0.108061 -0.055168 0.984455
-0.118781 -0.041708 1.023482
-0.091496 0.019644 1.121848
-0.280136 0.156473 1.023213
-0.518357 0.113397 1.232984
-0.418397 0.092375 0.884603
-0.167162 0.085331 0.464382
-0.219705 0.195747 0.981822
-0.261602 0.152150 1.091753
-0.439502 -0.039525 1.724322
-0.381119 0.149756 1.144397
-0.563921 0.143421 1.207564
-0.293190 0.108801 1.085050
-0.208327 0.035855 0.806672
-0.225405 0.051702 0.837225
-0.060579 -0.057584 1.057426
-0.333532 0.161649 1.243165
-0.644188 0.351268 2.034243
-0.088211 0.181883 1.135533
-0.395654 0.127093 0.976297
-0.266250 0.142277 0.873596
-0.489739 0.130830 1.214740
-0.228204 0.156882 0.959741
-0.478087 0.125714 1.185955
-0.277652 0.182994 0.959997
-0.208889 0.162765 0.905201
-0.553733 0.007952 1.771179
-0.576679 0.047835 1.843471
-0.563513 0.011424 1.766716
-0.553878 -0.001813 1.742025
-0.300074 0.151106 1.233031
0.242701 0.361240 2.320759
-0.252267 0.089722 0.682815
-0.371827 0.002399 0.710406
-0.177214 0.026688 0.779807
-0.384500 0.110526 0.692661
0.055647 0.275740 1.850236
-0.854169 -0.069136 1.602683
-0.645372 0.130112 1.442652
-0.505775 -0.001310 1.700479
-0.527640 0.150529 1.205925
-0.282565 0.136458 1.401685
-0.641622 0.148140 1.425007
-0.558852 0.151476 1.408007
-0.566117 0.153836 1.425852
-0.390054 0.155275 1.172640
-0.324038 0.150425 1.145055
-0.297011 0.176386 2.274275
-0.498281 0.049832 1.107597
-0.289669 0.140019 1.568274
-0.741314 -0.048846 1.591196
-0.305250 0.132847 0.835985
-0.105940 0.188099 1.002959
-0.442372 0.141257 1.227662
-0.517555 0.115483 1.249165
-0.014982 0.209142 1.474510
-0.395635 0.123643 0.937797
-0.044087 0.221312 1.193318
-0.205214 0.143505 0.678269
-0.127087 0.160917 0.795412
-0.129658 0.172228 0.808923
-0.323770 0.104188 0.613034
-0.323227 -0.107256 1.686322
-0.654832 0.357880 2.066446
-0.119248 -0.025623 1.182990
0.000781 -0.089448 1.644816
-0.323371 0.162942 1.222816
-0.389995 -0.044801 0.825811
-0.153834 0.010955 0.850089
-0.221765 0.108951 1.014896
-0.537854 0.069279 1.551530
-0.615089 0.146238 1.362086
-0.434231 0.149046 1.726950
-0.487042 0.112194 1.684101
-0.380868 0.175541 1.566142
-0.197913 0.166940 1.188626
-0.449945 0.144463 1.248676
-0.397586 0.136908 1.123638
-0.236059 0.136675 0.705691
-0.132355 0.180878 0.909792
-0.321266 0.052935 2.469394
-0.490275 0.022166 1.536413
-0.316698 -0.094091 2.524660
-0.337823 -0.038457 1.652197
-0.182991 0.136627 1.097218
-0.522386 0.112736 1.491520
-0.378610 -0.032263 1.465787
-0.372680 0.002376 0.822438
-0.455384 -0.091959 1.527495
-0.584524 0.029932 1.425123
-0.609924 0.123098 1.494034
-0.418875 0.158355 1.152866
-0.219468 0.143526 0.714139
-0.235954 0.125692 0.651747
-0.185840 0.159703 0.778740
-0.315388 0.109876 0.566353
-0.049765 0.036208 0.454302
-0.291683 0.134394 0.843735
-0.232251 0.168142 1.021334
-0.243994 0.155759 0.942407
-0.261363 0.003114 1.058988
-0.588266 -0.033825 1.478610
-0.290729 0.138370 1.094571
0.084245 0.256357 2.149658
-0.011845 -0.079083 1.585976
-0.511845 0.063362 1.481793
-0.741815 -0.049830 1.574414
-0.189129 0.031750 0.786509
-0.387418 0.066072 0.902187
-0.320190 -0.033088 1.263790
-0.311235 -0.029599 1.191687
-0.329171 0.079617 1.068274
-0.227505 0.023902 0.845879
-0.238749 0.042833 0.858029
-0.365522 0.093794 0.839451
-0.153915 0.019182 0.763803
-0.448915 0.069670 0.956675
-0.567974 0.122973 1.211341
-0.112413 0.189440 1.018395
-0.164117 0.165713 0.808316
-0.202525 0.151703 0.746892
-0.145363 0.215529 1.102494
-0.226993 0.145271 1.004193
-0.377744 0.096572 0.670063
-0.399964 0.094337 0.897142
-0.155156 0.073104 0.764956
0.262828 0.260850 2.386302
-0.517854 0.141859 1.634490
-0.126811 -0.070888 1.200469
-0.067584 0.079423 0.475692
-0.196807 0.094143 0.521811
-0.264685 0.107919 0.530068
-0.152840 -0.029594 1.031442
-0.074995 -0.039049 0.898700
-0.136172 0.020922 0.806822
-0.299752 -0.054065 1.316671
-0.281492 0.098753 0.641867
-0.598115 0.094754 1.430863
-0.555345 0.143634 1.405551
-0.592863 0.118747 1.422402
-0.046256 -0.029797 1.079207
-0.485324 0.030294 1.793647
-0.499555 0.128118 1.796107
-0.494934 0.112922 0.844477
-0.281140 0.066264 0.981621
-0.151707 0.172776 1.163087
-0.180847 0.183294 1.289562
-0.369913 0.138943 0.858489
-0.325918 0.241927 1.419048
-0.283628 0.128517 0.714635
-0.543143 0.043395 1.660059
-0.555748 0.044926 1.728380
-0.378308 0.132783 1.569948
-0.397742 0.148812 1.541830
-0.562629 -0.016410 1.492464
-0.549516 -0.046095 1.698542
-0.472755 0.062764 1.679718
-0.235273 0.090582 0.662737
-0.152598 0.066536 0.783520
-0.381704 0.045929 0.883529
-0.414275 -0.067416 1.644328
-0.560121 0.043532 1.723643
-0.237054 0.142951 1.027922
-0.312889 0.094784 0.733222
-0.330810 -0.037327 1.084649
-0.352431 0.071716 1.014487
-0.209442 0.036350 0.810423
-0.324103 -0.018825 1.130299
-0.325629 -0.012245 1.146980
-0.163655 0.087653 0.562382
-0.066912 0.034349 0.456879
-0.630874 0.095373 1.389484
-0.473786 0.031293 1.519181
-0.518786 -0.047924 1.732108
-0.509318 0.036327 1.637743
-0.475718 0.025826 1.753363
-0.160814 0.012073 0.813634
-0.399490 0.044088 1.556844
-0.505170 0.089560 1.494095
-0.669030 0.083274 1.592506
-0.899422 -0.033061 1.634054
-0.232008 -0.077077 1.186579
-0.333609 0.008343 1.092711
-0.334351 0.022728 1.084860
-0.403246 0.055874 0.906114
-0.261911 -0.090700 1.234726
-0.374337 0.419098 2.812393
-0.549946 0.034013 1.776334
-0.745396 0.621918 3.450474
-1.018648 0.764797 4.891064
-0.581194 -0.016064 1.471497
-0.447366 0.056047 0.850450
-0.210704 0.091494 0.583288
-0.273442 0.145620 0.936238
-0.205140 0.181080 1.125378
-0.831901 0.447877 2.616462
-0.114214 -0.006047 0.454404
-0.452787 -0.037925 1.737547
-0.239122 -0.032584 2.366489
-0.427609 -0.112058 1.663907
-0.475552 0.053548 1.663924
-0.374044 0.282946 1.673620
-0.318956 0.069085 0.702080
-0.310747 0.066042 0.687051
-0.562744 -0.004236 1.491520
-0.349016 0.083377 0.995010
-0.631169 0.152090 1.388691
-0.612790 0.088869 1.358624
-0.758224 -0.025962 1.589309
-0.184592 0.167849 0.929003
-0.332397 0.122305 0.721861
-0.456671 0.136362 1.240683
-0.314971 0.137031 0.865145
-0.292457 0.135747 0.866865
-0.191466 0.025001 0.794224
-0.338971 -0.049319 1.166367
-0.198669 -0.030694 1.063971
-0.408303 -0.035689 1.018255
-0.161714 0.009055 0.875743
-0.260023 0.077485 0.919047
-0.299706 -0.056814 2.384644
-0.477233 0.147488 1.499210
-0.559474 0.009637 1.476266
-0.578677 0.013348 1.489864
-0.532376 0.010490 1.585976
-0.536204 0.010395 1.598692
-0.554959 -0.035055 1.710288
-0.578122 0.031168 1.805765
-0.464993 0.114728 1.733697
-0.405847 0.048368 1.593993
-0.321304 0.100923 3.041078
-0.461382 0.145281 1.676667
-0.352836 -0.057660 1.753227
-0.892153 0.738214 4.118086
-0.603757 0.065793 1.227254
-0.121408 -0.011374 0.955530
-0.536466 0.164751 1.679287
-0.555127 0.163892 1.800210
-0.133394 0.187830 1.087537
-0.529947 0.100609 1.470429
-0.342911 -0.093951 2.958276
-0.548201 0.046461 1.851662
-0.482180 0.065157 1.707066
-0.354306 -0.056058 1.937379
-0.511447 0.081058 1.481596
-0.326456 0.044846 0.716104
-0.370518 0.048843 0.860347
-0.326598 0.090963 0.781777
-0.482377 0.110089 1.213589
-0.400335 -0.040123 0.873024
-0.068628 0.036514 0.475173
0.052487 -0.106329 1.899918
0.299966 0.062425 2.562306
0.241922 0.277217 2.374360
-0.020765 -0.071195 1.516852
-0.093321 -0.089612 1.080089
-0.120024 -0.099992 1.140103
-0.067123 -0.051650 0.980908
-0.058329 0.014464 0.924015
-0.074347 -0.059444 1.104642
-0.289218 0.221655 1.275831
-0.384570 0.146695 1.507852
-0.539076 0.003771 1.789451
-0.476169 -0.057271 1.754134
-0.299755 0.122244 1.889314
-0.128370 -0.063361 1.057232
-0.263517 0.095961 0.612893
-0.275032 -0.061510 1.299794
-0.103735 0.048515 0.547702
-0.153119 0.078171 0.613639
-0.275454 -0.044853 1.359312
-0.210950 0.063371 0.832798
-0.284357 -0.086398 1.354959
-0.114958 -0.043466 1.070740
-0.087445 0.167498 1.194460
-0.246036 0.171121 1.038123
-0.290810 0.133048 0.826492
-0.400364 0.128487 0.988277
-0.288595 0.135936 0.898108
-0.212728 0.131257 0.602623
-0.338912 0.110557 0.642834
-0.233535 0.156514 1.050618
-0.122557 -0.034017 1.223551
-0.553993 0.169282 1.731133
-0.592344 0.146540 1.689745
-0.546879 0.169886 1.713088
0.258976 0.378783 2.413251
-0.200743 0.020445 0.812500
-0.303905 0.000355 0.683770
-0.315373 0.022891 0.692820
-0.481727 0.152216 1.221624
-0.896383 -0.059071 1.632703
-0.585527 0.167410 1.264548
-0.326792 -0.058570 1.725447
-0.264415 -0.062490 1.223611
-0.387777 -0.032348 0.928810
-0.370711 0.086638 1.061158
-0.185032 0.084667 0.613235
-0.339084 0.117477 0.592911
-0.343548 -0.068786 1.422685
-0.450217 0.002540 0.957301
-0.447137 0.003620 0.849599
-0.440986 -0.006532 0.748753
-0.422351 0.094330 0.892310
-0.123364 -0.012841 0.983156
-0.073179 -0.097928 1.128145
-0.095479 -0.049379 1.036192
-0.115398 -0.024378 1.073697
-0.496710 -0.006860 0.835345
-0.563126 0.071809 1.468420
-0.437378 -0.021774 0.846549
-0.866248 -0.042351 1.652475
-0.260813 -0.033151 1.175651
-0.514991 -0.066096 1.734205
-0.652498 0.097244 1.432358
-0.353713 -0.095574 1.508501
-0.506246 0.111414 1.070140
-0.436159 0.149412 1.373703
-0.885722 -0.074032 1.652766
-0.108156 0.169525 1.064323
-0.327500 0.172435 1.312993
-0.352527 -0.044202 1.187688
-0.206098 0.082942 0.699412
-0.315103 0.100768 0.687156
-0.130911 0.074788 0.715795
-0.147726 -0.046592 1.037241
-0.221462 0.153142 0.969246
-0.109448 -0.104312 1.153644
-0.117293 -0.015847 1.011745
-0.126612 -0.067829 1.075023
-0.919658 0.500763 2.898508
-0.078474 0.191771 1.173229
-0.248320 0.139210 0.833973
-0.560646 0.004924 1.716030
-0.525701 0.130950 1.657492
-0.456602 0.055109 1.737170
-0.474445 0.038580 1.745394
-0.407377 -0.034221 1.526413
-0.125217 0.080802 0.489828
-0.152608 0.085207 0.467514
-0.154214 -0.062701 1.137525
-0.313290 0.072656 0.673300
-0.061472 -0.022137 1.088611
-0.048096 0.033148 0.423196
-0.265002 0.091920 0.513801
-0.452497 0.099809 0.756885
-0.444095 0.096562 0.824778
-0.308609 0.083561 0.836761
-0.198700 -0.063517 1.172049
-0.280642 -0.023592 1.162538
-0.235881 0.077113 0.854385
-0.321350 -0.058583 1.351654
-0.292924 -0.024518 1.222829
-0.564348 0.164082 1.215073
-0.561575 0.157817 1.405885
-0.789666 -0.078742 1.640821
-0.209063 0.087448 0.620235
-0.175210 0.084035 0.643804
-0.334134 0.093436 0.798084
-0.265883 -0.060711 1.260306
-0.245530 0.049088 0.894435
-0.246285 -0.025783 1.140402
-0.363010 0.152183 1.616649
-0.741337 -0.031189 1.574138
-0.346150 -0.050408 1.770096
-0.514796 0.059703 1.604423
-0.732285 0.652114 3.450229
-0.626210 0.095737 1.420814
-0.111648 0.159370 1.099526
-0.335879 0.136174 0.717348
-0.300856 0.123196 0.550141
-0.317531 0.106268 0.599713
-0.228629 0.127772 0.545537
-0.405764 0.088295 1.590457
-0.545020 -0.054793 1.664580
-0.534430 0.020321 1.612495
-0.111677 0.165279 1.110017
-0.247537 0.137712 1.050645
0.075230 0.261502 2.180668
-0.614047 0.149483 1.255952
-0.707255 0.135393 1.402184
-0.508220 0.048088 1.229222
-0.244969 0.130989 0.672135
-0.306018 0.126450 0.746443
-0.299941 0.017496 1.095215
-0.205738 0.162313 1.113007
-0.823310 -0.027051 1.584198
-0.368029 0.145009 1.378745
-0.859382 -0.036567 1.613266
0.002336 -0.094175 1.708800
0.056368 -0.108185 1.924207
-0.483149 0.062093 1.506950
-0.623400 -0.081458 1.602733
-0.416501 0.077663 0.942860
-0.832853 -0.070964 1.604671
-0.143420 -0.058895 1.057580
-0.143679 0.089583 0.543340
-0.233268 0.066321 0.851611
-0.113782 0.081241 0.576737
-0.081430 -0.013489 0.792774
-0.584008 -0.031945 1.470045
-0.889548 -0.057271 1.619601
-0.358294 0.008668 0.890684
-0.320346 -0.041354 1.167854
-0.346591 0.012055 0.922102
-0.331624 0.029722 1.084640
-0.379663 -0.006377 1.040492
-0.380541 -0.017937 1.023871
-0.387070 -0.018217 1.039498
-0.370230 0.007660 0.919360
-0.219219 0.020218 0.867173
-0.184512 0.204604 1.291547
-0.149046 0.207760 1.116501
-0.164980 0.089014 0.568003
-0.169283 0.081921 0.648723
-0.521194 0.144355 1.354272
-0.199711 0.081156 0.742079
-0.351933 -0.017565 1.144242
-0.397243 0.016805 0.853260
-0.124321 -0.014097 1.002216
-0.350390 -0.034867 1.670870
-0.074207 0.197801 1.096941
-0.251758 0.178221 1.084016
-0.403261 0.126548 0.976518
-0.131070 -0.007421 0.364357
-0.543012 -0.053798 1.654812
-0.556447 0.006870 1.779011
-0.501997 -0.000616 1.692257
-0.507901 0.065327 1.657509
-0.364193 0.138328 1.037807
-0.222075 0.169257 0.898669
-0.280649 0.131780 0.783713
-0.216988 0.090768 0.541882
-0.091062 -0.050350 1.096379
-0.560122 0.139390 1.630033
-0.240051 0.166835 1.033629
-0.377104 0.132637 0.983940
-0.428182 -0.015123 0.952718
-0.412003 0.155038 1.104266
-0.535555 0.142138 1.186849
-0.522853 0.025193 1.094543
-0.461237 0.020317 0.982369
-0.538659 0.136969 1.176617
-0.451541 0.107582 0.962448
-0.561449 -0.041657 1.631660
-0.552000 0.011291 1.645250
-0.394658 0.105500 0.735489
-0.134699 0.064604 0.828604
-0.328826 0.003503 1.108985
-0.555296 -0.039418 1.731627
-0.538902 0.042355 1.648736
-0.514709 0.018291 1.560419
-0.547549 -0.036751 1.669129
-0.543675 -0.018207 1.659934
-0.570371 -0.045264 1.656439
-0.571910 -0.036970 1.531104
-0.135340 -0.016511 1.189682
-0.363418 0.042995 0.897106
-0.198764 0.053899 0.813472
-0.201031 -0.030465 1.073132
-0.429659 0.145834 1.351495
-0.275787 0.147592 1.422780
-0.326691 0.056468 2.582762
-0.581259 0.120006 1.455143
-0.099188 0.073638 0.532219
-0.263424 0.092297 0.604780
-0.362758 -0.053566 1.915685
-0.524201 0.039041 1.608344
-0.315510 0.199726 2.400175
-0.137059 0.080628 0.603070
-0.374264 0.053309 0.870364
-0.343307 0.099479 0.723149
-0.410748 0.063011 0.865321
-0.266961 0.601260 3.199749
-0.539608 0.127711 1.464585
-0.862556 -0.034607 1.648134
-0.153201 0.180774 0.971772
-0.014733 0.234779 1.167313
-0.339383 0.102978 0.727313
-0.101231 0.177798 1.069340
-0.458205 0.030169 0.842087
-0.050237 0.006506 0.895868
-0.141248 0.028391 0.887636
-0.403465 -0.033641 0.965908
-0.565331 0.053430 1.401638
-0.582028 0.095696 1.417308
-0.792116 -0.007054 1.617373
-0.589787 0.077865 1.438552
-0.519105 0.033972 1.211431
-0.285383 0.170727 1.166808
-0.190889 -0.088953 1.162748
-0.189757 0.024780 0.786341
-0.322185 -0.103158 1.695031
-0.626827 -0.081928 1.610931
-0.303366 0.124067 0.608041
-0.241718 0.127309 0.593043
-0.330570 0.106724 0.564553
-0.083550 0.022449 0.206710
-0.482622 -0.059300 1.769813
-0.380845 -0.043759 1.844132
-0.391866 -0.046974 1.914097
-0.547169 0.034993 1.403505
-0.623854 0.165759 1.795573
-0.205813 0.178761 1.127945
-0.342697 0.135841 0.985514
-0.346745 0.139616 1.019787
-0.078550 0.188007 1.152305
0.012562 0.265768 1.560085
-0.039507 0.220459 1.225116
-0.221271 0.041698 0.851650
-0.256382 0.082238 0.866102
-0.143841 0.084051 0.525180
-0.329537 0.097897 0.703274
-0.287885 -0.093514 1.391465
-0.428790 -0.050197 0.899416
-0.441445 -0.012682 0.918637
-0.272490 0.094934 0.661859
-0.394662 0.013522 0.907302
-0.429834 0.146094 1.484023
-0.593337 0.042246 1.457353
-0.525547 0.150841 1.311016
-0.146601 -0.047187 1.224450
-0.414752 0.139013 1.173394
-0.281536 0.168388 1.150526
-0.387594 0.139076 1.047646
-0.574615 0.014089 1.484693
-0.879920 -0.021561 1.654416
-0.298915 0.019629 1.114092
-0.321992 -0.047591 1.393829
-0.430382 0.111194 0.754479
-0.184278 0.085948 0.628512
-0.527878 0.123331 1.322043
-0.344758 0.132100 0.927376
-0.477673 0.109163 1.202547
-0.512867 0.172998 1.628595
-0.295434 0.108456 1.206779
-0.606897 0.174769 1.756314
-0.362919 0.137757 1.032590
-0.036884 0.189284 1.279482
-0.263392 0.118633 0.602336
-0.302479 0.107452 0.626152
-0.172918 0.119508 0.743136
-0.145085 0.162538 1.128775
-0.176451 0.183883 1.049557
-0.317676 0.144115 1.887077
-0.380388 0.077816 1.496464
-0.070442 0.202677 1.109036
-0.301989 0.152853 1.226081
-0.328206 0.166054 1.338466
-0.283578 0.012761 1.282665
-0.269766 0.006939 1.174009
-0.419171 0.099212 1.659616
-0.486979 0.089748 1.776784
-0.473706 0.024619 1.741228
-0.541296 0.031880 1.752677
-0.406836 -0.069576 1.623061
-0.462849 -0.035011 1.779786
-0.261330 0.002046 1.042364
-0.568349 -0.015971 1.506155
-0.334315 -0.057883 1.753591
-0.777962 -0.009039 1.618388
-0.770674 -0.007451 1.579915
-0.263382 0.148440 1.387791
-0.700213 0.132753 1.390420
-0.652788 0.154024 1.311918
-0.529256 0.062995 1.657641
-0.359659 0.048002 0.843016
-0.551002 0.155555 1.378085
-0.617596 0.003061 1.373404
-0.736960 -0.007634 1.568504
-0.590587 0.021515 1.485896
-0.525367 0.057745 1.582385
-0.482502 0.079309 1.519302
-0.561417 0.069128 1.419335
-0.608421 0.108534 1.422058
-0.248271 0.089632 0.582229
-0.414929 0.093449 0.723564
-0.528575 0.143562 1.159390
-0.538769 -0.072803 1.808784
-0.592944 0.020552 1.487285
-0.416711 0.015486 0.940115
-0.306379 0.097248 0.671335
-0.015014 -0.076953 1.537445
-0.336827 -0.052628 1.811643
-0.503916 0.113253 1.677371
-0.286455 0.137665 1.545599
-0.538436 0.039836 1.768631
-0.104486 0.178722 0.835342
-0.092797 0.158726 0.747803
-0.196048 0.142051 0.661673
-0.093088 0.151978 0.836726
-0.012367 0.210279 1.503579
-0.108281 0.053947 0.568085
-0.079708 -0.012363 1.061464
-0.240730 0.087890 0.482886
-0.374808 0.144808 1.299651
-0.392738 0.151093 1.463242
-0.530097 0.145523 1.438815
-0.564135 0.005850 1.494828
-0.343320 0.118692 3.190720
-0.635986 0.128365 1.419576
-0.134024 0.214973 1.057496
-0.262212 -0.028245 1.169914
-0.376139 0.059465 0.945904
-0.329705 -0.056440 1.315931
-0.280941 0.086022 0.805484
-0.386958 -0.039898 1.726113
-0.561750 0.016731 1.718728
-0.558209 -0.028538 1.726311
-0.367313 0.080925 0.781011
-0.303979 0.033557 0.658367
-0.227320 0.135469 0.710923
-0.145487 0.199372 1.122842
-0.319391 -0.026928 1.176070
-0.322927 -0.046246 1.147997
-0.249442 -0.079011 1.199893
-0.151654 -0.043122 1.179699
-0.156984 0.013651 0.834241
-0.306983 0.126578 0.747764
0.263277 0.260227 2.426735
-0.425002 0.095607 0.896273
-0.519699 0.069877 1.142742
-0.149007 0.066256 0.722573
-0.164312 0.016101 0.886917
-0.224074 0.028243 0.838384
-0.176798 0.002024 0.833026
-0.464801 0.113283 0.810255
-0.477891 0.025672 1.801028
-0.537826 0.041121 1.642550
-0.527330 0.002013 1.745626
-0.241640 0.032065 2.389578
-0.559180 -0.004931 1.483527
-0.375131 -0.007010 1.481014
-0.497976 0.034829 1.117281
-0.223359 0.128009 0.638330
-0.076053 0.200223 1.080607
-0.129259 0.175393 0.890397
-0.067937 0.208681 1.144736
-0.130348 0.053413 0.848427
-0.141282 0.022618 0.774419
-0.255125 0.090967 0.690070
-0.478377 0.064122 1.695151
-0.567935 0.113685 1.433259
-0.436921 0.110988 1.742261
-0.412148 0.043591 1.627013
-0.593252 -0.031130 1.491890
-0.467524 -0.098986 1.683804
-0.439604 0.129359 1.739172
-0.450646 0.110481 1.711798
-0.344772 0.094259 0.814214
-0.410599 0.100575 0.814636
-0.415289 -0.035374 0.914960
-0.382378 0.095693 0.866393
-0.129982 0.017790 0.942886
-0.422446 0.102009 0.831371
-0.566523 0.000727 1.776784
-0.336912 0.122855 0.730500
-0.348236 0.175307 1.318569
-0.143559 -0.103545 1.203981
-0.129769 0.011256 0.987552
-0.407482 0.123159 0.931643
-0.158473 0.180972 0.988279
-0.416124 0.044883 1.648559
-0.429425 0.031002 1.697404
-0.390764 -0.075445 1.638337
-0.507246 0.127648 1.215827
-0.490293 0.106582 1.164037
-0.351224 0.123099 0.818697
-0.409883 0.065501 1.613457
-0.481911 0.036571 1.783051
-0.564973 0.090635 1.427202
-0.484719 0.131125 1.686458
-0.558626 0.094021 1.432699
-0.562946 0.121385 1.418183
-0.534642 0.063773 1.675641
-0.621526 0.065536 1.555966
-0.378960 0.164759 1.574328
-0.569498 0.036144 1.403810
-0.522552 0.021033 1.573069
-0.515287 0.099404 1.471510
-0.536842 0.016325 1.650884
-0.541530 -0.048791 1.654473
-0.373373 -0.057494 1.996074
-0.347710 0.109363 0.630282
-0.105490 0.043847 0.543926
-0.099814 -0.054358 1.131800
-0.531909 0.077997 1.674191
-0.372522 -0.061086 1.508666
-0.230105 0.089318 0.463889
-0.068769 -0.053439 0.998287
-0.206146 0.087756 0.520988
-0.146039 -0.059356 1.103254
-0.185196 0.207251 1.302193
-0.295845 0.127649 0.779010
-0.236510 0.140229 0.740127
-0.262099 0.146797 1.377119
-0.373881 0.147883 1.476744
-0.512271 0.144756 1.456442
-0.337393 -0.061262 1.225436
-0.344924 0.041287 1.066853
-0.252613 0.066253 0.886386
-0.199397 0.021860 0.829060
-0.400158 0.086724 0.795520
-0.470104 -0.045021 1.003598
-0.315228 -0.039207 1.144969
-0.366715 0.133321 1.352675
-0.491253 0.121162 1.479729
-0.490486 0.083503 1.703790
-0.345328 -0.238742 3.122548
-0.341696 0.136475 1.001915
-0.343679 0.136075 0.989882
-0.129396 -0.045493 1.101362
-0.601749 0.098263 1.473478
-0.195719 0.196958 1.388179
-0.247753 0.134942 0.697202
-0.342173 0.152235 1.796889
-0.372336 0.100300 1.598112
-0.304804 0.151036 1.515329
-0.370746 0.145250 1.106877
-0.594371 0.172203 1.694631
-0.045477 0.224329 1.207105
-0.079815 -0.100893 1.114595
-0.554929 -0.035468 1.495607
-0.445683 0.147498 1.501732
-0.525525 0.113264 1.657541
-0.471157 0.148593 1.700130
-0.472700 0.037213 1.789213
-0.503023 -0.041362 1.697611
-0.010617 0.248822 1.466194
-0.201226 0.151223 1.091031
-0.294416 0.121972 0.766322
-0.468760 0.079935 1.685077
-0.478837 -0.018327 1.675931
-0.492688 -0.049624 1.737506
-0.463629 0.073755 1.615476
-0.170329 0.168635 0.880801
-0.320099 0.104268 0.550691
-0.300791 0.117298 0.647457
-0.310275 0.024008 1.144667
-0.239571 0.173170 1.054405
-0.189692 0.178008 0.988911
-0.467081 0.130260 1.127936
-0.233330 0.016180 0.900664
-0.352361 0.007805 0.838158
-0.255725 -0.069659 1.553862
-0.346452 0.003953 0.925651
-0.272501 0.078053 1.015534
-0.276221 0.088728 0.809616
-0.256508 -0.085885 2.017402
-0.295992 0.011754 1.427302
-0.546580 -0.026614 1.703484
-0.482543 0.114585 1.709727
-0.550756 0.138536 1.664011
-0.493521 0.165390 1.567552
-0.439000 0.100982 0.854687
-0.375118 0.104200 0.714050
-0.462586 0.030344 1.755198
-0.503071 -0.022270 1.695538
-0.483179 0.131216 1.690058
-0.449952 0.032923 1.706825
-0.220567 0.089158 0.640468
-0.226693 0.085019 0.732029
-0.177289 0.002643 0.871564
-0.118378 -0.064278 1.115964
-0.548544 0.126764 1.348111
-0.082356 0.178045 1.142280
-0.077417 0.185409 1.116517
0.042655 0.297324 1.706386
-0.408085 -0.014067 0.906320
-0.413652 -0.041363 0.900578
-0.174904 0.059964 0.787404
-0.318380 -0.060408 1.410869
-0.235879 -0.030661 1.237278
-0.419146 0.097670 0.917387
-0.296453 0.017311 1.077877
-0.331148 -0.024225 1.193767
-0.178422 -0.057312 1.048154
-0.274127 -0.007418 1.162043
-0.595089 0.104686 1.422829
-0.435757 0.151388 1.748336
-0.604033 0.094364 1.420221
-0.375129 0.154456 1.527266
-0.284099 0.163217 2.200320
-0.521538 0.064617 1.567230
-0.659900 0.049310 1.523206
-0.260868 -0.012905 1.092867
-0.513770 0.167415 5.179129
-0.130718 0.038193 0.987714
-0.127264 0.074558 0.727276
-0.162652 0.038287 0.788127
-0.167562 0.017746 0.790189
-0.193699 -0.034473 1.051625
-0.557779 -0.000468 1.750695
-0.604662 0.000269 1.897568
-0.598954 0.101028 1.454016
-0.319460 0.140390 1.847813
-0.444910 0.146643 1.494558
-0.455348 0.079924 1.713933
-0.516515 0.061786 1.629225
-0.524187 0.065686 1.533712
-0.410863 -0.015602 0.942574
-0.509277 0.107968 1.458331
-0.605758 0.071657 1.451308
-0.547144 0.067624 1.435603
-0.579499 -0.031756 1.458588
-0.378513 0.129423 1.562912
-0.299982 0.094856 2.870498
-0.542036 0.055424 1.631884
-0.549217 0.057254 1.651271
-0.419662 0.151166 1.544340
-0.490370 0.103903 1.508628
-0.191202 0.184616 1.342349
-0.544560 0.137463 1.595182
-0.576276 0.144141 1.631320
-0.542204 0.151227 1.553961
-0.234824 0.104992 0.511076
-0.046275 -0.010670 0.990960
-0.284611 0.012559 1.305094
-0.090788 0.199789 1.062963
-0.078304 0.181476 1.150380
-0.202204 0.088210 0.579257
-0.071286 -0.096756 1.104017
-0.267027 -0.029358 1.208753
-0.252056 0.046855 0.883107
-0.141895 0.046270 0.806012
-0.206762 0.086336 0.614419
-0.337038 0.079956 1.096395
-0.347219 -0.039760 1.138893
-0.334705 -0.009413 1.097579
-0.297310 -0.003349 1.153146
-0.291877 -0.003139 1.132252
-0.276753 0.082172 0.881887
-0.441097 0.040766 0.847568
-0.355857 0.054506 0.897699
-0.361249 -0.025208 1.068478
-0.268869 0.057358 0.950387
-0.323293 0.024554 1.038142
-0.334649 0.069544 1.032929
-0.387200 -0.035905 1.133096
-0.384760 0.003593 0.845496
-0.423713 0.095685 0.832197
-0.328473 0.005740 1.127531
-0.365522 -0.024716 1.035517
-0.399056 0.059053 0.846646
-0.380839 -0.010384 0.880140
-0.377624 -0.004123 1.052765
-0.346521 0.018036 0.882587
-0.366143 0.094922 0.803703
-0.393970 0.096009 0.881388
-0.204672 -0.005600 1.068487
-0.189706 0.079691 0.668034
-0.427067 -0.030817 1.042612
-0.416819 0.085941 0.891907
-0.331159 0.015500 1.108014
-0.385441 -0.043251 0.940512
-0.166784 0.078913 0.730948
-0.238329 -0.040587 1.249910
-0.354865 -0.028184 1.091072
-0.203134 0.005600 0.904625
-0.370900 0.049647 0.843824
-0.331755 0.075190 1.060142
-0.348246 0.051559 0.880005
-0.319614 -0.049902 1.328237
-0.390281 -0.012446 0.900120
-0.145884 0.079485 0.700645
-0.418872 -0.057496 1.335693
-0.259037 0.086155 0.778449
-0.325692 0.096169 0.750931
-0.244236 0.024503 0.887533
-0.302640 0.078160 1.212335
-0.334091 0.162923 1.246824
-0.603991 0.067527 1.540397
-0.462784 0.069316 1.556621
-0.542509 -0.000290 1.667501
-0.368862 0.099819 1.574679
-0.559557 0.011077 1.753439
-0.536626 -0.052447 1.679257
-0.575706 0.006394 1.459216
-0.206442 -0.026294 1.100133
-0.181643 0.082602 0.667318
-0.379536 0.058889 0.890406
-0.164187 0.007573 0.868856
-0.154128 -0.036443 1.135182
-0.311618 0.093060 0.768016
-0.408303 0.035346 0.860043
-0.307157 0.082518 0.921699
-0.386718 -0.032125 1.576495
-0.275979 0.144196 2.125883
-0.239818 0.135085 0.684666
-0.315125 0.127604 0.782973
-0.441809 0.034191 1.749663
-0.377260 -0.043002 1.734787
-0.357082 0.148302 1.672851
-0.482329 0.135132 1.719159
-0.485544 0.066827 1.718585
-0.497124 0.087152 1.725386
-0.271690 0.286114 3.116690
-0.253246 -0.053770 1.199632
-0.938064 0.320133 1.988393
-0.254902 0.096236 0.607021
-0.424310 0.038677 0.886307
0.072479 0.254698 2.097449
-0.445134 -0.052377 0.931431
-0.527315 0.072395 1.576266
-0.478111 0.031448 1.764423
-0.373588 -0.059515 1.914358
-0.392900 -0.049775 1.728112
-0.543306 -0.049298 1.657919
-0.492116 -0.020443 1.714073
-0.556247 0.015255 1.589200
-0.496858 -0.078269 1.838626
-0.201657 0.133519 1.940128
-0.403009 -0.054499 1.945254
-0.197740 0.088789 0.610093
-0.074310 -0.011733 1.015322
-0.115343 -0.045335 1.099881
-0.528256 0.122044 1.263294
-0.400868 0.102237 0.803730
-0.250381 -0.043253 1.250330
-0.394478 0.001259 0.924109
-0.542759 -0.018398 1.657765
-0.524458 0.049845 1.557730
-0.520759 0.078642 1.646713
-0.348476 -0.040160 1.150326
-0.405944 -0.033577 1.076337
-0.294837 -0.026596 1.269219
-0.283307 0.078625 0.975037
-0.213285 -0.039060 1.343433
-0.492355 0.040742 1.667089
-0.291169 0.011263 1.380558
-0.511824 0.085157 1.680643
-0.407023 0.109226 0.721442
-0.308393 -0.056009 1.293015
-0.506521 -0.047155 1.706944
-0.493232 0.085645 1.721728
-0.530564 -0.025853 1.708499
-0.324686 -0.025592 1.184501
-0.203003 -0.018977 1.438885
-0.206878 0.048957 0.803684
-0.135437 0.019918 0.796569
-0.133770 0.056064 0.890025
-0.132656 0.054092 0.867719
-0.080980 -0.046201 1.038321
-0.458730 -0.034293 1.726496
-0.513012 0.043944 1.730364
-0.282516 0.011072 1.277356
-0.271813 0.012774 1.188970
-0.101951 -0.042961 0.998147
0.017402 0.248874 1.472028
-0.357042 0.138721 1.066476
-0.530347 0.161312 1.659280
-0.462688 0.037596 1.705166
-0.279977 0.015598 1.259732
-0.476082 -0.036877 1.789728
-0.527281 0.071591 1.720090
-0.287361 0.009572 1.330885
-0.347389 0.080071 1.086521
-0.100235 0.039423 0.550374
-0.191532 0.170638 1.223484
-0.014464 -0.085084 1.525364
-0.405093 0.140742 1.144433
-0.241550 0.087602 0.759769
-0.247397 0.083900 0.756255
-0.302820 -0.021615 1.178382
-0.346498 -0.016474 1.125268
-0.360739 0.002894 0.929270
-0.359869 -0.019537 0.900555
-0.398585 -0.032930 1.057469
-0.388104 -0.022102 1.079327
-0.352284 0.012782 0.937062
-0.286814 -0.013148 1.193956
-0.377567 -0.000902 1.022866
-0.327082 0.030520 1.063156
-0.348576 0.023582 1.103313
-0.355143 0.011508 1.115719
-0.292965 -0.020798 1.127515
-0.320318 -0.042968 1.352949
-0.322367 0.021800 1.089183
-0.358630 0.083028 1.028085
-0.198886 -0.034616 1.077718
-0.310245 -0.023185 1.160458
-0.457886 0.101236 0.844374
-0.378247 -0.035846 0.965876
-0.279986 -0.020362 1.082289
-0.385195 0.054873 0.824764
-0.179607 0.030477 0.763689
-0.423451 0.013340 0.882329
-0.364046 0.079752 0.971159
-0.401869 0.081052 0.863989
-0.100004 0.055487 0.529194
-0.379379 0.083673 0.888896
-0.286173 0.081487 1.095057
-0.302234 0.076639 1.192876
-0.413634 -0.028361 1.013852
-0.238147 -0.053566 1.135835
-0.330239 -0.065384 1.434743
-0.457050 -0.013167 0.850294
-0.514990 0.069214 1.687124
0.231450 0.242015 2.357991
-0.283896 0.089723 0.725388
-0.078919 -0.050157 1.081023
-0.074764 -0.039726 0.996159
-0.401639 0.107426 0.713068
-0.591512 0.188663 6.024189
-0.110695 0.034047 0.448171
-0.519930 0.034507 1.335853
-0.334987 0.162073 1.200471
-0.400530 0.039946 1.576266
-0.303929 -0.018588 1.514358
-0.480700 0.088057 1.769496
-0.485962 0.086147 1.730885
-0.491376 0.088174 1.747754
-0.526706 0.149004 1.469895
-0.862978 0.463720 2.713837
-0.845083 0.457069 2.664918
-0.047572 -0.013707 1.012681
-0.047248 -0.055134 1.084720
-0.482054 0.071947 1.811812
-0.395453 0.058438 1.556171
-0.381805 -0.042650 1.760204
-0.497503 0.067397 1.569303
-0.549361 0.036705 1.788538
-0.412923 -0.044185 1.695256
-0.232003 0.150477 2.096667
-0.454345 0.107911 1.689481
-0.614652 0.114037 2.266056
-0.567150 0.005219 1.728966
-0.336944 0.042230 1.034288
-0.375199 -0.036595 0.985994
-0.298750 -0.021019 1.154390
-0.123195 -0.089589 1.044081
-0.349245 -0.058664 1.579338
-0.276374 -0.013054 1.145660
-0.280211 -0.088575 1.296866
-0.376652 0.001920 0.887465
-0.303549 -0.043271 1.372827
-0.236608 -0.029129 1.181302
-0.266333 -0.086666 1.267204
-0.299050 0.029487 0.604960
-0.087390 0.191293 1.016736
-0.134834 0.156051 0.763977
-0.244674 0.169589 1.025884
-0.408798 0.134596 1.076085
-0.406048 -0.062975 1.288776
-0.236018 -0.029175 1.204233
-0.357902 0.080687 1.047107
-0.358583 -0.011830 1.016766
-0.361298 0.000519 1.030552
-0.343166 0.068872 0.982464
-0.366398 -0.013817 1.082187
-0.311960 0.088820 0.790647
-0.367419 -0.019748 1.154986
-0.382265 -0.026871 1.064315
-0.385640 -0.006236 1.037149
-0.397977 -0.004461 1.072838
-0.397952 -0.025849 0.978608
-0.177817 0.077155 0.810354
-0.379969 0.084588 0.847282
-0.326781 -0.044983 1.179927
-0.443010 0.055485 0.843503
-0.321732 0.022093 1.085968
-0.427217 0.088839 0.877258
-0.396704 -0.015420 0.895611
-0.221845 0.069840 0.801454
-0.239449 0.076757 0.814384
-0.282427 0.091825 0.727305
-0.342184 -0.007026 1.041421
-0.360978 -0.013783 1.008474
-0.143560 -0.011849 1.026577
-0.324898 0.021747 1.137803
-0.364718 0.019156 0.861673
-0.224631 0.029465 0.826171
-0.417058 0.071999 0.810174
-0.329527 0.075157 1.018618
-0.202442 -0.026702 1.091022
-0.222056 0.013873 0.940984
-0.246812 0.086981 0.765224
-0.230835 -0.078554 1.260819
-0.419342 -0.011607 0.880466
-0.215658 -0.034903 1.429979
-0.304402 -0.050219 1.320075
-0.300424 -0.049500 1.303468
-0.410991 -0.012014 0.864185
-0.282213 -0.079799 1.487242
-0.202743 0.005432 0.899781
-0.216143 0.008680 0.913121
-0.363263 0.052438 1.039081
-0.267914 -0.075101 1.380287
-0.352095 -0.007627 1.078597
-0.183017 0.080284 0.757430
-0.200991 -0.010969 1.079603
-0.188725 0.079592 0.761606
-0.388983 0.097647 0.783270
-0.198908 0.080248 0.776143
-0.384620 0.075423 0.834606
-0.378904 0.083809 0.844044
-0.244538 -0.037340 1.376094
-0.281355 -0.065747 1.581556
-0.315205 -0.006781 1.171879
-0.244419 -0.080773 1.536065
-0.390085 -0.014348 1.112580
-0.361648 0.055138 0.909801
-0.428218 0.074950 0.826548
-0.304458 -0.025140 1.231735
-0.187080 0.040875 0.823172
-0.356756 0.073345 0.891554
-0.196920 0.007842 0.885256
-0.352068 0.079659 0.885747
-0.199242 0.058024 0.831249
-0.387949 0.022507 0.836254
-0.348186 0.050287 0.864219
-0.388853 0.032881 0.829944
-0.215290 -0.062722 1.413609
-0.271706 -0.035578 1.408714
-0.235330 0.022310 1.406480
-0.338638 0.048077 0.858446
-0.337917 -0.032100 1.166636
-0.199640 0.073225 0.843743
-0.357351 -0.039161 1.124247
-0.247457 0.022292 0.946717
-0.463144 0.031583 0.848946
-0.285987 0.089239 0.821959
-0.375978 0.014651 1.201727
-0.358975 0.041900 0.904684
-0.339167 0.015128 0.964986
-0.224618 -0.080221 1.390456
-0.218970 0.071805 0.833602
-0.425652 -0.028444 0.917123
-0.251474 0.079597 0.840748
-0.376657 -0.032234 1.097027
-0.331957 -0.045142 1.355392
-0.265358 -0.042119 1.529034
-0.334751 0.004793 0.974919
-0.370208 -0.025870 0.950222
-0.306844 0.075428 1.137216
-0.295212 -0.027341 1.288909
-0.263560 -0.032198 1.309805
-0.269217 -0.038265 1.443619
-0.255531 0.029640 0.922521
-0.358667 0.011491 1.132068
-0.377177 -0.036643 0.990079
-0.333620 0.014567 0.940814
-0.273557 0.037372 1.018796
-0.255315 0.027428 0.942613
-0.346940 -0.007350 1.063960
-0.301659 0.079161 1.169542
-0.326689 0.079738 0.815009
-0.352225 0.084000 0.948733
-0.221529 0.029434 0.831782
-0.244358 0.058665 0.866100
-0.219873 -0.006626 1.255141
-0.229034 -0.095032 1.550162
-0.171957 0.037628 0.787310
-0.300163 0.054881 1.180443
-0.330449 -0.047443 1.449696
-0.232085 0.018644 1.370723
-0.313302 0.077481 1.065288
-0.336922 -0.062322 1.375592
-0.341223 0.036658 0.864342
-0.201663 -0.087012 1.609099
-0.330686 -0.054763 1.542114
-0.233168 -0.093861 1.590431
-0.311405 0.027979 1.144042
-0.412597 -0.014863 1.173609
-0.342566 -0.007083 1.048727
-0.347873 0.016097 0.987407
-0.342248 0.015606 0.972920
-0.309276 0.029932 1.163123
-0.300648 -0.003548 1.183810
-0.327235 -0.069734 1.521381
-0.214058 0.088288 0.823991
-0.349120 -0.037550 1.093686
-0.348031 0.038213 0.863774
-0.347738 0.010797 1.086530
-0.354893 -0.015615 1.040897
-0.219479 -0.079463 1.527812
-0.362710 0.008564 0.858113
-0.360445 0.070364 0.830469
-0.240710 0.015427 1.218460
-0.213806 -0.027173 1.210156
-0.288030 0.081819 1.131924
-0.307889 0.074756 1.094643
-0.249270 0.019197 0.928880
-0.187968 0.040427 1.401544
-0.357560 -0.027064 1.055465
-0.367343 -0.023970 1.001806
-0.279897 -0.068654 1.553326
-0.281260 -0.061480 1.525870
-0.226671 -0.037715 1.410129
-0.358447 0.003394 0.849856
-0.218146 -0.008931 1.288104
-0.243406 0.019167 1.374963
-0.233387 -0.036539 1.438390
-0.338929 0.065829 0.969637
-0.371752 -0.012168 1.077749
-0.338384 0.077303 0.962555
-0.268119 0.022903 1.399141
-0.272805 -0.036669 1.390937
-0.338762 0.068581 0.905270
-0.337507 0.026407 1.048195
-0.323337 -0.065186 1.468800
-0.334185 -0.002920 0.907389
-0.257189 0.070924 0.821798
-0.248042 0.019095 0.924419
-0.293397 0.077934 0.927770
-0.314705 -0.045037 1.447878
-0.331064 -0.039485 1.104609
-0.229334 0.020106 1.419747
-0.342678 -0.038783 1.116775
-0.338406 -0.034675 1.142998
-0.221241 -0.067862 1.617200
-0.246200 -0.042229 1.547537
-0.341164 0.079318 0.971715
-0.343885 0.066748 0.984658
-0.217843 -0.008687 1.317860
-0.250959 0.019082 1.395947
-0.384519 -0.012847 1.065773
-0.341652 0.016746 0.871361
-0.364378 -0.015772 0.968231
-0.322189 -0.053054 1.480247
-0.294296 -0.045610 1.483561
-0.338108 0.034702 0.842153
-0.363241 0.020881 0.837561
-0.382795 0.052745 0.820720
-0.387473 -0.012237 0.825026
-0.288827 -0.013911 1.231253
-0.365863 -0.036828 1.112225
-0.333276 0.014820 0.906374
-0.342982 0.045259 0.870611
-0.343572 0.074974 0.864624
-0.231035 -0.062507 1.384127
-0.256826 0.022253 1.425238
-0.312115 -0.006141 1.125921
-0.315915 -0.056331 1.555673
-0.356572 0.030585 0.829272
-0.231468 -0.044997 1.383754
-0.204738 -0.018433 1.416470
-0.297838 0.085851 1.292842
-0.220250 0.021946 1.414142
-0.295701 0.084279 1.419797
-0.246386 -0.040746 1.477708
-0.344452 0.037798 0.871662
-0.294239 -0.079885 1.549898
-0.340914 0.016401 0.842388
-0.301132 0.007525 1.168858
-0.288911 0.088304 1.259386
-0.283030 -0.016886 1.305781
-0.282248 0.087611 1.394567
-0.300702 -0.038674 1.347256
-0.195212 -0.060740 1.500126
-0.280974 -0.088270 1.531510
-0.255312 -0.035638 1.398419
-0.262376 -0.076933 1.440919
-0.391150 -0.012252 0.875542
-0.382714 0.021629 0.825286
-0.218577 0.013144 0.889181
-0.307839 0.078684 1.156103
-0.312963 0.077617 1.007312
-0.302569 0.079459 0.906358
-0.267193 -0.074212 1.613000
-0.259340 0.019726 1.429203
-0.295509 0.081215 0.998972
-0.263171 0.078298 0.902351
-0.308819 0.073968 0.906083
-0.352956 0.002562 0.841495
-0.274474 0.091590 1.262197
-0.209374 -0.029415 1.351271
-0.320802 0.027758 1.090381
-0.300781 0.034396 1.175645
-0.254429 -0.013884 1.453133
-0.281429 0.090319 1.417688
-0.168658 -0.120201 1.734717
-0.303546 -0.086850 1.536658
-0.289108 0.072959 0.960501
-0.349686 0.043723 0.822840
-0.222519 -0.065831 1.571789
-0.247426 -0.044862 1.495867
-0.306986 0.078269 1.002300
-0.293481 -0.046307 1.488871
-0.377823 0.003997 0.851681
-0.330156 -0.015844 0.852579
-0.258188 0.018756 1.259456
-0.374859 0.003796 0.846373
-0.228172 0.020924 1.435497
-0.256673 -0.012389 1.384546
-0.195008 -0.008899 1.371635
-0.321620 0.000582 0.885794
-0.186399 0.041307 1.416663
-0.287898 0.082469 1.440183
-0.322253 -0.050530 1.444516
-0.209899 0.039803 1.399270
-0.261169 -0.088752 1.613435
-0.310412 0.073396 1.046448
-0.250514 -0.066952 1.505510
-0.341396 0.006314 0.880847
-0.340034 -0.024188 1.124354
-0.256030 -0.088463 1.603720
-0.322381 0.023918 1.059897
-0.345136 0.005078 0.895664
-0.322347 -0.032018 1.269163
-0.226198 -0.036927 1.393724
-0.332122 0.036233 1.098409
-0.242312 0.020105 0.920229
-0.287971 0.085829 1.117622
-0.269941 0.079874 1.038387
-0.280678 -0.068707 1.380454
-0.209590 0.018450 1.391737
-0.279323 0.082669 1.092161
-0.236746 -0.051490 1.490945
-0.255748 0.031734 0.969553
-0.296917 -0.076849 1.504283
-0.209867 -0.079112 1.628543
-0.259472 -0.022347 1.474650
-0.322396 0.026812 1.039501
-0.183923 -0.099214 1.683793
-0.221346 -0.102265 1.654470
-0.329877 -0.038455 1.244482
-0.232238 -0.038954 1.481724
-0.227829 -0.089463 1.612247
-0.443235 0.628302 4.366343
-0.246016 0.092720 1.217092
-0.334212 -0.000306 1.023903
-0.249646 -0.066078 1.582285
-0.190634 -0.085088 1.706818
-0.279839 0.092276 1.451541
-0.209487 -0.031894 1.369761
-0.252285 0.092015 1.580624
-0.268612 0.024174 1.430507
-0.286160 -0.060339 1.633010
-0.289169 -0.037357 1.420072
-0.201444 0.019459 1.362990
-0.214291 0.000458 1.385924
-0.202353 -0.109721 1.663417
-0.202758 -0.043931 1.421817
-0.263932 -0.044054 1.627076
-0.199585 0.021657 1.339661
