ply
format ascii 1.0
element vertex 279
property float x
property float y
property float z
end_header
-0.521144 0.063128 0.906319
-0.392057 0.005780 0.885655
-0.576747 0.118138 1.052982
-0.596653 0.158701 1.060118
-0.636245 0.141170 1.042121
-0.666094 0.191880 0.927336
-0.448481 0.047254 0.868876
-0.473067 0.064732 0.871982
-0.626052 0.123800 1.031058
-0.636592 0.020978 0.973994
-0.661223 0.095905 1.043327
-0.505553 0.216736 0.950668
-0.401717 0.056786 0.869236
-0.406585 0.079716 0.915655
-0.361985 0.041602 0.870164
-0.391985 0.033409 0.867979
-0.454473 0.117938 1.019936
-0.384159 0.015092 0.853299
-0.436360 0.049023 0.875981
-0.432489 0.044556 0.864065
-0.446095 -0.004862 0.917412
-0.435183 0.023585 0.880842
-0.417987 -0.006806 0.841328
-0.402837 0.060500 0.919681
-0.640559 0.032276 0.966023
-0.385596 0.097231 0.902844
-0.377017 0.018663 0.955924
-0.358941 0.000509 0.793806
-0.455431 0.006487 0.878022
-0.430360 0.001314 1.038110
-0.580523 -0.118587 0.920824
-0.610558 -0.103282 0.936754
-0.556755 0.123909 1.057101
-0.553495 0.130306 1.059219
-0.684370 0.126891 1.027549
-0.688984 0.121940 1.035011
-0.207121 -0.045558 0.608624
-0.587313 0.122643 1.053849
-0.553609 0.220787 0.973559
-0.654202 -0.134986 1.035995
-0.628609 -0.028431 1.002147
-0.718862 0.169775 1.022936
-0.645038 0.128315 1.058296
-0.707291 0.160247 1.042946
-0.333610 0.164305 0.772075
-0.669747 0.151313 1.094989
-0.581316 0.184088 1.074240
-0.659202 0.135162 1.038326
-0.673523 0.062332 0.996436
-0.638677 -0.035276 0.976237
-0.523422 0.208250 1.020087
-0.593183 0.189236 1.070165
-0.677515 0.139410 1.068354
-0.624671 -0.027877 0.995551
-0.699894 0.157801 1.032877
-0.281657 0.072582 0.691047
-0.622285 0.042056 0.967847
-0.640893 0.118974 1.015494
-0.558954 0.178711 1.256072
-0.625022 0.178052 1.081581
-0.583545 0.185376 1.053560
-0.252539 0.008376 0.687126
-0.537791 0.043006 1.030740
-0.653271 0.134068 1.029334
-0.569694 0.118073 1.025323
-0.447621 0.206370 0.987044
-0.650372 0.036090 0.969805
-0.636391 -0.001741 0.978465
-0.505809 0.198555 1.063771
-0.550475 0.220845 0.992900
-0.433286 0.181797 0.960168
-0.562916 0.182126 1.015980
-0.473655 0.203854 1.016179
-0.534056 0.213229 0.964607
-0.588400 -0.120498 0.934180
-0.548464 -0.179975 0.903671
-0.711656 0.167775 1.013138
-0.676511 0.185833 0.943859
-0.626807 -0.019650 0.972863
-0.684504 0.119787 1.028917
-0.374027 0.116221 0.840285
-0.497254 0.068309 0.932836
-0.627835 0.042606 0.977498
-0.507579 -0.170975 0.847941
-0.686657 0.100163 1.083421
-0.656441 0.120262 1.038366
-0.622751 0.123121 1.025085
-0.700704 0.123573 1.052104
-0.584004 0.185594 1.058119
-0.352349 -0.214761 0.696795
-0.541547 0.215384 0.953970
-0.649979 0.112477 1.017308
-0.317727 0.035125 0.603563
-0.460362 0.062022 0.849656
-0.476074 0.064727 0.877963
-0.349050 -0.213562 0.693697
-0.662943 0.061667 0.982723
-0.514439 -0.172898 0.859255
-0.626108 -0.001697 0.962597
-0.508670 0.061177 0.885663
-0.562450 0.089483 1.004114
-0.534467 0.212936 1.041654
-0.671173 0.061617 0.993049
-0.506107 0.211368 1.075207
-0.504584 0.068166 0.946668
-0.216601 -0.107250 0.567105
-0.627346 0.180422 1.091989
-0.605064 0.087386 1.026193
-0.516635 0.195113 1.076520
-0.570141 -0.132973 0.944876
-0.649385 0.069876 0.972035
-0.371784 0.113636 0.908898
-0.640751 0.185036 1.053011
-0.448222 0.114879 1.003948
-0.288564 -0.140133 0.826754
-0.413824 0.079272 0.872612
-0.194102 -0.073826 0.441186
-0.131529 -0.062628 0.387988
-0.146116 -0.058365 0.454799
-0.554666 0.125270 1.053657
-0.449279 0.128837 1.012865
-0.153905 -0.050624 0.337824
-0.404990 0.077647 0.857450
-0.445999 0.094734 1.001933
-0.602640 0.171878 1.046986
-0.623961 -0.003393 0.969274
-0.222411 0.015226 0.613279
-0.454820 0.129432 1.028938
-0.315067 0.148519 0.742016
-0.224363 -0.060822 0.653990
-0.347650 -0.128112 0.698504
-0.295195 0.106249 0.721360
-0.190407 -0.069029 0.435243
-0.159588 -0.059777 0.466371
-0.185279 -0.041042 0.388013
-0.321494 0.171589 0.744775
-0.163462 -0.071352 0.380025
-0.247374 0.014865 0.662436
-0.592628 0.122192 1.078812
-0.508624 0.158397 1.146494
-0.470339 0.071438 0.917686
-0.373544 0.095679 0.886468
-0.369431 0.087727 0.856319
-0.224297 -0.052729 0.665023
-0.405847 0.043262 0.770785
-0.388229 0.101597 0.914485
-0.427946 0.211353 0.956570
-0.442522 0.112235 1.037327
-0.440038 0.071183 1.000910
-0.306065 0.129941 0.733083
-0.344897 -0.054054 0.892231
-0.485971 0.141767 1.035039
-0.395584 -0.078200 0.989865
-0.384359 0.066689 0.896594
-0.588789 0.224593 1.297908
-0.237165 -0.049278 0.676123
-0.500159 0.194660 1.050770
-0.153857 -0.064897 0.422163
-0.169162 -0.069663 0.387550
-0.195426 -0.109588 0.461119
-0.187315 -0.104625 0.446072
-0.484397 0.140160 1.051557
-0.481278 0.220035 0.944627
-0.463862 0.132729 1.047218
-0.654273 0.183153 0.916797
-0.268439 0.036942 0.609072
-0.151993 -0.045888 0.315843
-0.255599 -0.082880 0.724124
-0.304650 0.111363 0.736993
-0.329072 0.167703 0.762527
-0.239723 -0.055297 0.689097
-0.207567 -0.047770 0.619033
-0.313434 0.144493 0.743162
-0.192226 -0.047649 0.584145
-0.467602 0.232797 0.969524
-0.549609 -0.125790 0.919073
-0.544669 0.129406 1.043457
-0.279078 0.038900 0.717504
-0.586381 0.164736 1.034664
-0.667847 0.037329 0.995044
-0.501341 0.209911 1.066021
-0.150628 -0.061172 0.331150
-0.626265 0.125043 1.027135
-0.382217 0.075256 0.893341
-0.582207 0.133088 1.045769
-0.568704 0.163305 1.059505
-0.171851 -0.072158 0.421147
-0.136829 -0.059764 0.405091
-0.401500 0.091241 0.925766
-0.410390 0.093541 0.947365
-0.199137 -0.098988 0.526338
-0.296683 0.042338 0.765190
-0.338217 0.162485 0.782996
-0.265334 -0.106139 0.737111
-0.174405 -0.073004 0.400356
-0.156145 -0.063039 0.415656
-0.660507 0.070492 0.987399
-0.745977 0.276266 1.658231
-0.273472 0.007170 0.730341
-0.705402 0.159922 1.039161
-0.207592 -0.080433 0.620598
-0.446026 0.231568 0.972753
-0.195380 -0.040259 0.412928
-0.390194 0.068021 0.899240
-0.462742 0.049377 0.879757
-0.291737 0.008574 0.766840
-0.509203 0.210332 1.078353
-0.352905 0.050784 0.909076
-0.458106 0.124679 1.052046
-0.311111 -0.116491 0.694807
-0.264830 -0.106140 0.733279
-0.224174 -0.002091 0.629579
-0.460434 0.211273 1.000790
-0.457083 -0.151110 0.768085
-0.253923 0.050100 0.662871
-0.261526 -0.084439 0.741210
-0.211411 -0.045795 0.461648
-0.292779 0.095327 0.723141
-0.200384 -0.042573 0.419189
-0.277126 -0.102686 0.772927
-0.320313 -0.120800 0.714563
-0.357711 0.157518 0.828397
-0.222175 -0.037848 0.642199
-0.452885 0.064254 0.925444
-0.491782 0.021758 0.896565
-0.248805 -0.022600 0.690216
-0.494012 -0.113022 0.823601
-0.238708 -0.022262 0.659554
-0.312028 -0.108596 0.814274
-0.268893 -0.108339 0.747005
-0.451995 0.083252 0.948350
-0.351531 -0.096209 0.972570
-0.300863 -0.104211 0.787071
-0.296852 -0.100950 0.768829
-0.418373 0.174509 0.928061
-0.610561 -0.000968 0.939401
-0.611093 -0.027768 0.943700
-0.476362 0.146407 1.073801
-0.173646 -0.064263 0.465877
-0.261880 -0.019488 0.729990
-0.242076 -0.069177 0.697466
-0.323844 -0.039702 0.894948
-0.206528 -0.059332 0.618547
-0.487813 0.021502 0.888697
-0.479525 0.064301 0.922612
-0.351947 0.040698 0.839983
-0.393582 0.057778 0.846590
-0.420303 0.081917 0.945566
-0.366959 -0.044325 0.961160
-0.526303 0.055662 1.000510
-0.408265 0.098701 0.920468
-0.453382 0.034572 0.875492
-0.366026 0.042308 0.876425
-0.271079 0.062391 0.694853
-0.275986 0.104140 0.682291
-0.236932 -0.101930 0.705498
-0.201935 -0.045989 0.601459
-0.351771 -0.028664 0.942972
-0.177507 -0.065233 0.447625
-0.525486 0.208983 1.148915
-0.699320 0.259883 1.551376
-0.337969 0.083798 0.803559
-0.619122 0.187160 1.046177
-0.289726 0.096838 0.711277
-0.336358 0.015189 0.849948
-0.502054 -0.115566 0.837590
-0.460209 -0.150741 0.778509
-0.238098 -0.078001 0.687741
-0.291734 0.029668 0.559836
-0.376115 0.114890 0.920508
-0.448481 0.065342 0.881042
-0.433682 0.069175 0.985462
-0.627083 0.121804 1.036549
-0.510277 0.200951 1.074268
-0.430957 0.049095 0.867387
-0.452600 0.075706 0.918240
-0.371351 -0.032340 0.993907
-0.355251 0.044675 0.880966
-0.327866 0.068687 0.829591
