ply
format ascii 1.0
element vertex 2973
property float x
property float y
property float z
end_header
-0.115288 -0.164302 0.741994
-0.236710 -0.357346 1.051567
-0.488876 -0.113722 0.822770
-0.133575 -0.312166 0.966517
-0.196203 -0.202176 0.722062
-0.098034 -0.328852 0.935409
-0.098371 -0.309211 0.932417
-0.079756 -0.164393 0.974181
-0.245696 -0.368268 1.021461
-0.953257 -0.537174 1.469089
-0.258717 -0.165619 0.948981
-0.321993 -0.136831 0.935177
-0.121604 -0.057031 0.649027
-0.299389 -0.083485 0.749059
-0.479610 -0.098875 0.802694
-0.553655 -0.133386 0.893026
-0.078309 -0.247965 0.968153
-0.152075 -0.160051 0.768440
-0.172690 -0.114978 0.766310
-0.550428 -0.136475 0.897055
-0.169306 -0.090991 0.745207
-0.217555 -0.250893 0.843406
-0.240437 -0.287467 0.953696
-0.489491 -0.110132 0.814852
-0.041342 -0.278313 0.800721
-0.052897 -0.135976 0.880206
-0.101066 -0.288520 0.946814
-0.111054 -0.287864 0.969992
-0.101509 -0.282208 0.949104
-0.229642 -0.285212 0.954311
-0.168291 -0.092653 0.715572
-0.243774 -0.304812 1.040751
-0.922207 -0.397641 1.450374
-0.062664 -0.248117 0.962049
-0.098710 -0.076945 0.725317
-0.106023 -0.078648 0.727455
-0.214288 -0.314771 1.075760
-0.276581 -0.389234 1.097905
-0.934030 -0.451141 1.424400
-0.039053 -0.274800 0.850553
-0.039576 -0.265118 0.848516
-0.083847 -0.076555 0.733092
-0.132278 -0.285567 0.975150
-0.122079 -0.149662 0.919728
-0.175897 -0.300650 1.026709
-0.186700 -0.320683 1.007198
-0.215268 -0.330848 1.038530
-0.213276 -0.333241 1.028633
-0.242776 -0.309663 1.061183
-0.234459 -0.307560 1.054148
-0.259016 -0.345540 1.076885
-0.391697 -0.172394 1.046350
-1.051909 -0.422349 1.623550
-0.951649 -0.399332 1.453730
-0.058410 -0.134285 0.896460
-0.173671 -0.190564 0.721671
-0.085469 -0.262099 0.945942
-0.186272 -0.302384 1.004011
-0.090139 -0.266317 0.931851
-0.215543 -0.357095 1.043500
-0.094711 -0.251460 0.952994
-0.231408 -0.313374 1.070508
-0.317283 -0.394110 1.110267
-0.256314 -0.335558 1.064532
-0.160180 -0.042198 0.592288
-0.060180 -0.235877 0.926205
-0.207853 -0.044299 0.590445
-0.109469 -0.048648 0.618589
-0.131572 -0.031968 0.559258
-0.074157 -0.134340 0.917788
-0.473839 -0.097873 0.798831
-0.127471 -0.030562 0.540201
-0.227950 -0.026851 0.539217
-0.338031 -0.052900 0.640098
-0.321625 -0.045875 0.628682
-0.315683 -0.045193 0.617516
-0.303489 -0.054816 0.641047
-0.063160 -0.242682 0.941633
-0.063543 -0.207106 0.769967
-0.159998 -0.042258 0.591146
-0.073435 -0.135177 0.926354
-0.133654 -0.085265 0.702909
-0.292849 -0.058249 0.648161
-0.157956 -0.042096 0.583470
-0.298433 -0.054049 0.630888
-0.511979 -0.104504 0.850316
-0.135545 -0.187936 0.710449
-0.189879 -0.069493 0.687798
-0.073900 -0.132623 0.909415
-0.109091 -0.048451 0.618264
-0.131039 -0.064777 0.684196
-0.051043 -0.137784 0.917068
-0.041380 -0.279161 0.802222
-0.347357 -0.024698 0.546296
-0.306958 -0.043122 0.605153
-0.196090 -0.038926 0.587761
-0.330258 -0.050603 0.630527
-0.109752 -0.047280 0.613342
-0.080202 -0.079213 0.738593
-0.126891 -0.030436 0.537517
-0.122671 -0.024534 0.520700
-0.190047 -0.068505 0.679683
-0.185138 -0.075467 0.695607
-0.421305 -0.096398 0.686848
-0.155486 -0.100066 0.808253
-0.098371 -0.078376 0.720437
-0.483531 -0.098497 0.803902
-0.162136 -0.091147 0.744958
-0.108113 -0.201525 0.695367
-0.550064 -0.132732 0.885515
-0.482515 -0.108335 0.800580
-0.186261 -0.075021 0.693881
-0.290328 -0.068912 0.691391
-0.123042 -0.133219 0.896176
-0.362792 -0.038176 0.612902
-0.449231 -0.105645 0.826503
-0.568623 -0.140925 0.923812
-0.190073 -0.069764 0.689143
-0.167097 -0.046339 0.612102
-0.131679 -0.064762 0.685061
-0.047836 -0.136227 0.894258
-0.156828 -0.113913 0.787896
-0.322730 -0.048269 0.622057
-0.112145 -0.229641 0.871142
-0.052643 -0.135407 0.873957
-0.222352 -0.082807 0.734196
-0.157075 -0.114061 0.791750
-0.068374 -0.089060 0.767869
-0.213134 -0.044691 0.603493
-0.118848 -0.291316 0.978132
-0.250811 -0.056520 0.647313
-0.516048 -0.113506 0.850744
-0.553194 -0.137166 0.898801
-0.485533 -0.098688 0.806571
-0.114109 -0.224889 0.893174
-0.094817 -0.258447 0.969492
-0.322487 -0.078871 0.727587
-0.802925 -0.486083 1.501981
-0.761760 -0.383214 1.388749
-0.163491 -0.091509 0.742956
-0.168430 -0.100028 0.740437
-0.367820 -0.092232 0.780627
-0.221618 -0.040879 0.595096
-0.122727 -0.151334 0.929250
-0.295500 -0.059320 0.655853
-0.113024 -0.222161 0.878143
-0.116220 -0.166137 0.749928
-0.558457 -0.134662 0.900239
-0.304419 -0.072937 0.709175
-0.437159 -0.113124 0.857415
-0.412491 -0.106447 0.827557
-0.190957 -0.206710 0.737959
-0.199952 -0.170020 0.794891
-0.888678 -0.385960 1.559725
-0.912496 -0.372130 1.575018
-0.677869 -0.364456 1.384896
-0.257332 -0.095982 0.777666
-0.407382 -0.120274 0.875236
-0.190200 -0.310827 1.030377
-0.372107 -0.179073 1.066340
-0.266017 -0.090842 0.763037
-0.211607 -0.118391 0.862991
-0.217256 -0.117136 0.858258
-0.556036 -0.166172 0.861874
-0.290014 -0.068539 0.691771
-0.363410 -0.090982 0.779181
-0.098596 -0.310311 0.936918
-0.214548 -0.115821 0.862111
-0.067901 -0.088583 0.760194
-0.104777 -0.253774 0.952419
-0.155635 -0.153546 0.728875
-0.102069 -0.318751 0.967444
-0.152260 -0.160037 0.759951
-0.140242 -0.047181 0.572331
-0.181694 -0.100899 0.772316
-0.339437 -0.035383 0.589069
-0.117065 -0.043361 0.611396
-0.127909 -0.085440 0.724813
-0.442129 -0.127948 0.909116
-0.160822 -0.152522 0.718067
-0.120080 -0.161531 0.743420
-0.175497 -0.091594 0.729825
-0.163065 -0.090920 0.743947
-0.074111 -0.082822 0.739530
-0.098643 -0.077746 0.719770
-0.114254 -0.044263 0.604356
-0.120545 -0.166612 0.918059
-0.169101 -0.087886 0.743972
-0.054384 -0.155922 0.916941
-0.279849 -0.050998 0.630525
-0.060658 -0.238700 0.938701
-0.125219 -0.163492 0.757025
-0.173034 -0.030992 0.571267
-0.662340 -0.217250 1.229861
-0.691658 -0.318845 1.495862
-0.713458 -0.422670 1.435208
-0.337137 -0.322349 1.100145
-0.215950 -0.246771 0.850438
-0.360727 -0.123514 0.880666
-0.506756 -0.263021 1.318577
-0.167149 -0.132419 0.743135
-0.134630 -0.188049 0.712417
-0.102550 -0.263301 0.947101
-0.167394 -0.132886 0.745499
-0.052687 -0.137981 0.887107
-0.082359 -0.295372 0.910789
-0.128541 -0.275491 0.911810
-0.315014 -0.077899 0.717662
-0.115240 -0.288436 0.972475
-0.091433 -0.096387 0.798345
-0.163754 -0.188594 0.719045
-0.106812 -0.195397 0.688050
-0.176566 -0.094138 0.737647
-0.121826 -0.150711 0.935628
-0.700167 -0.433610 1.426178
-0.732217 -0.415924 1.445705
-0.200357 -0.111845 0.861700
-0.314963 -0.076866 0.718753
-0.132792 -0.288255 0.978367
-0.164172 -0.099605 0.762734
-0.042857 -0.267337 0.829881
-0.070213 -0.246197 0.932432
-0.118811 -0.162044 0.744301
-0.170139 -0.030743 0.559436
-0.099406 -0.306008 0.943084
-0.134837 -0.345580 0.985078
-0.097721 -0.274037 1.029653
-0.211891 -0.313563 1.069067
-0.808933 -0.483970 1.532332
-0.291098 -0.068429 0.694375
-0.819275 -0.470353 1.478981
-0.261795 -0.337527 1.076925
-0.082692 -0.305242 0.930326
-0.113300 -0.223645 0.887038
-0.093567 -0.281675 1.069552
-0.129373 -0.183236 0.708349
-0.143258 -0.087496 0.728439
-0.131609 -0.335202 0.957263
-0.190253 -0.067415 0.683332
-0.103249 -0.265438 0.953514
-0.486225 -0.117138 0.766671
-0.176557 -0.236909 0.842713
-0.962355 -0.390784 1.527271
-0.314882 -0.054336 0.643893
-0.491724 -0.114767 0.825787
-0.247810 -0.070443 0.686012
-0.156021 -0.095447 0.739451
-0.226777 -0.158197 0.844100
-0.284614 -0.099693 0.800833
-0.726267 -0.382345 1.355183
-0.135347 -0.296750 0.974922
-0.132817 -0.085619 0.732419
-0.134437 -0.291815 0.990544
-0.090137 -0.068248 0.713494
-0.195980 -0.203364 0.723025
-0.493400 -0.164719 1.027835
-0.329586 -0.113717 0.834862
-0.104218 -0.195439 0.676580
-0.164561 -0.130129 0.732212
-1.244525 -0.422364 1.647904
-0.937909 -0.428166 1.591924
-0.997760 -0.412603 1.616370
-0.988455 -0.412059 1.621931
-0.989383 -0.468749 1.619211
-1.258579 -0.376314 1.633143
-0.087134 -0.264314 0.972562
-0.158820 -0.129907 0.736041
-0.093910 -0.254188 0.958267
-0.537207 -0.190293 0.899473
-0.097866 -0.080231 0.726602
-0.152558 -0.176002 0.717856
-0.083029 -0.300114 0.922894
-0.162454 -0.058940 0.652736
-0.201540 -0.071934 0.710361
-0.288417 -0.275405 0.928608
-0.512239 -0.265650 1.323314
-0.451904 -0.238353 1.172792
-0.193593 -0.109685 0.817041
-0.322315 -0.111263 0.841326
-0.164196 -0.112904 0.759400
-0.678192 -0.388702 1.381849
-0.340515 -0.194171 1.105702
-0.174142 -0.087547 0.751193
-0.896626 -0.384385 1.536499
-0.673532 -0.226619 1.246104
-0.913749 -0.309680 1.567212
-0.280851 -0.050931 0.632989
-0.261402 -0.058319 0.657094
-0.216538 -0.045261 0.612604
-0.342176 -0.114839 0.855642
-0.164466 -0.133888 0.760424
-0.174269 -0.333021 1.037619
-0.111558 -0.034221 0.561468
-0.151197 -0.089338 0.739557
-0.287570 -0.100982 0.797565
-0.162638 -0.187498 0.714551
-0.130012 -0.287715 0.979284
-0.317897 -0.045680 0.621919
-0.266608 -0.092052 0.780162
-0.062944 -0.095914 0.797376
-0.108824 -0.258878 0.977043
-0.277713 -0.034038 0.573743
-0.169597 -0.088244 0.747487
-0.263743 -0.091099 0.763139
-0.110220 -0.332006 0.949222
-0.445474 -0.244127 1.179042
-0.889743 -0.450631 1.552469
-0.715012 -0.287914 1.449142
-0.292023 -0.102688 0.799843
-0.212252 -0.332028 1.024322
-0.207091 -0.115352 0.832599
-0.787102 -0.436938 1.477583
-0.734212 -0.356198 1.376917
-0.903592 -0.464140 1.473652
-0.809033 -0.473965 1.451499
-0.280942 -0.078236 0.719555
-0.124279 -0.058877 0.666325
-0.090567 -0.270270 0.946678
-0.096523 -0.157646 0.994934
-0.494583 -0.111102 0.821947
-0.188902 -0.075677 0.700736
-0.277209 -0.064503 0.678181
-0.358852 -0.058245 0.666103
-0.170830 -0.100886 0.749208
-0.168579 -0.100292 0.738885
-0.175347 -0.069600 0.686525
-0.168342 -0.099772 0.742499
-0.446695 -0.116127 0.868649
-0.109223 -0.079228 0.723618
-0.450728 -0.116869 0.874199
-0.326695 -0.128105 0.899674
-0.518204 -0.184090 0.871115
-0.254230 -0.099632 0.786543
-0.901193 -0.470020 1.432243
-0.148847 -0.177461 0.708481
-0.116825 -0.163030 0.743679
-0.104432 -0.097892 0.773993
-0.137204 -0.119440 0.861415
-0.482686 -0.098649 0.812729
-0.164668 -0.134231 0.733843
-0.263746 -0.077853 0.733034
-0.264417 -0.082229 0.738969
-0.174285 -0.083541 0.717601
-0.218195 -0.315102 1.062908
-0.869115 -0.372295 1.420043
-0.872600 -0.451906 1.419561
-0.291302 -0.069074 0.693806
-0.659901 -0.222303 1.218791
-0.100758 -0.283962 0.943659
-0.539263 -0.189796 0.904558
-0.245586 -0.128393 0.901864
-0.412149 -0.140134 0.910406
-0.565941 -0.124559 0.910994
-0.290814 -0.059905 0.667479
-0.641901 -0.477760 1.479058
-0.230287 -0.292118 0.967495
-0.631540 -0.168565 1.086248
-0.438142 -0.144039 0.965408
-0.451869 -0.140698 0.952058
-0.872671 -0.431609 1.537660
-0.598229 -0.311237 1.470382
-0.175211 -0.196443 0.739949
-0.174483 -0.307407 1.034689
-0.663121 -0.223492 1.138293
-0.202220 -0.304925 1.034174
-0.353264 -0.056392 0.660723
-0.216694 -0.044984 0.616497
-0.169292 -0.046611 0.620044
-0.260306 -0.093063 0.764588
-0.407771 -0.162498 1.040436
-0.358796 -0.122563 0.874189
-0.458342 -0.107389 0.843876
-0.683377 -0.309217 1.504484
-0.151130 -0.157236 0.750128
-0.129661 -0.285288 0.973257
-0.133189 -0.286582 0.977052
-0.369460 -0.093458 0.779154
-0.262845 -0.082070 0.734973
-0.255025 -0.057717 0.652989
-0.283348 -0.043789 0.608848
-0.147374 -0.046645 0.605515
-0.114547 -0.195276 0.693278
-0.892036 -0.380501 1.563640
-0.245750 -0.349383 1.061355
-0.093252 -0.066542 0.697004
-0.169489 -0.138063 0.785675
-0.345240 -0.105466 0.817423
-0.332258 -0.069367 0.697035
-0.227062 -0.158155 0.848149
-0.689349 -0.230893 1.270998
-0.298190 -0.058737 0.674458
-0.129029 -0.064191 0.674504
-0.116141 -0.286994 0.958257
-0.147433 -0.183045 0.697932
-0.165494 -0.137321 0.736319
-0.161910 -0.153841 0.726830
-0.209295 -0.113944 0.833939
-0.086905 -0.263689 0.972467
-0.170428 -0.324732 1.014619
-0.277000 -0.097469 0.783880
-0.208760 -0.050174 0.626566
-0.175487 -0.069761 0.686210
-0.253279 -0.085683 0.778152
-0.973700 -0.415385 1.611295
-0.942295 -0.405428 1.601145
-1.247074 -0.304833 1.627251
-1.245143 -0.314820 1.634271
-0.857439 -0.427661 1.496974
-0.151560 -0.330417 0.971807
-0.398414 -0.065015 0.689698
-0.364232 -0.097177 0.802161
-0.202191 -0.302058 1.029749
-0.249364 -0.085420 0.756934
-0.377110 -0.139979 0.938542
-0.767165 -0.432254 1.470117
-0.888904 -0.296040 1.499285
-0.265275 -0.283690 0.954903
-0.165388 -0.100290 0.767378
-0.162986 -0.091240 0.741828
-0.491439 -0.110167 0.818350
-0.296866 -0.093238 0.776931
-0.171144 -0.305376 1.011799
-0.341584 -0.117585 0.852598
-0.313332 -0.135327 0.916500
-0.235783 -0.328040 1.039696
-0.425575 -0.350008 1.160842
-0.406293 -0.165627 1.009415
-1.007995 -0.502639 1.619161
-0.825948 -0.477231 1.391662
-0.184863 -0.325584 1.001077
-0.266317 -0.284045 0.935603
-0.802535 -0.485521 1.501386
-0.098832 -0.076346 0.726706
-0.291041 -0.077339 0.722161
-0.118619 -0.191962 0.911372
-0.198514 -0.071073 0.702575
-0.238960 -0.125385 0.870174
-0.279682 -0.111581 0.840606
-0.165467 -0.087592 0.742829
-0.120896 -0.165868 0.918685
-0.237251 -0.124773 0.865521
-0.147082 -0.183880 0.699582
-0.167273 -0.138708 0.740107
-0.191618 -0.070320 0.702374
-0.429024 -0.129324 0.914680
-0.178703 -0.068211 0.630297
-0.489127 -0.098410 0.813492
-0.436753 -0.126072 0.897979
-0.116406 -0.189575 0.895057
-0.103937 -0.259293 0.953747
-0.135063 -0.317886 0.980220
-0.164152 -0.188580 0.719916
-0.136055 -0.298807 0.982662
-0.355052 -0.096022 0.783049
-0.211175 -0.215436 0.767595
-0.900358 -0.368299 1.556691
-0.229319 -0.291986 0.998129
-0.183997 -0.342871 0.997949
-0.153503 -0.198201 0.705872
-0.253355 -0.057155 0.652791
-0.300871 -0.054577 0.640088
-0.075041 -0.085733 0.769689
-0.189710 -0.069603 0.686302
-0.083665 -0.072317 0.693890
-0.099115 -0.078144 0.716421
-0.327759 -0.112841 0.857969
-0.082916 -0.305036 0.919774
-0.888844 -0.440469 1.545630
-0.867236 -0.428379 1.439912
-0.563853 -0.185460 1.118419
-0.300416 -0.058985 0.661152
-0.920978 -0.304734 1.575414
-0.869010 -0.421745 1.422972
-0.485802 -0.162605 1.014958
-0.263938 -0.092969 0.776387
-0.193178 -0.068545 0.694758
-0.332247 -0.081066 0.744027
-0.503640 -0.167193 1.048731
-0.225162 -0.180559 0.840482
-0.274662 -0.081557 0.735720
-0.157310 -0.308265 1.007959
-0.169383 -0.328515 1.006974
-0.783387 -0.217315 1.261644
-0.215840 -0.236450 0.813530
-0.808386 -0.432010 1.467201
-0.383751 -0.170657 1.035549
-0.866903 -0.302378 1.541476
-0.875324 -0.484944 1.446882
-0.203216 -0.305305 1.040007
-0.520423 -0.172395 1.063051
-0.228266 -0.093127 0.773192
-0.874836 -0.434613 1.545212
-0.487954 -0.111320 0.821999
-0.156808 -0.113946 0.785197
-0.086220 -0.252028 0.957491
-0.141435 -0.186232 0.705575
-0.245849 -0.054631 0.645752
-0.466761 -0.253095 1.237823
-0.857719 -0.320337 1.518175
-0.154900 -0.152964 0.722116
-0.153829 -0.151233 0.709873
-0.227142 -0.134553 0.838700
-0.626352 -0.172188 1.066283
-0.197037 -0.202449 0.724541
-0.189905 -0.073350 0.691595
-0.258340 -0.100566 0.801571
-0.886079 -0.406264 1.513793
-0.324489 -0.079024 0.732012
-0.303115 -0.105529 0.819462
-0.112800 -0.224404 0.877154
-0.174251 -0.116488 0.774091
-0.690683 -0.344710 1.371965
-0.355762 -0.208047 1.071732
-0.781451 -0.492956 1.500527
-0.743631 -0.350338 1.419983
-0.288937 -0.271640 0.932046
-0.291770 -0.338806 1.086960
-0.645610 -0.409068 1.380424
-0.189544 -0.344020 1.015235
-0.168461 -0.090493 0.737852
-0.827195 -0.463410 1.437689
-0.746955 -0.268982 1.406403
-0.285986 -0.079812 0.731687
-0.304853 -0.073361 0.709248
-0.213049 -0.314292 1.062125
-0.156406 -0.293436 0.995373
-0.260854 -0.092369 0.766054
-0.227717 -0.049304 0.621575
-0.276793 -0.050789 0.623506
-0.129390 -0.287814 0.978034
-0.668747 -0.218738 1.239398
-0.375451 -0.083176 0.751683
-0.304815 -0.055258 0.646837
-0.192058 -0.201191 0.720340
-1.006197 -0.413956 1.599363
-0.940279 -0.450087 1.533875
-0.082734 -0.302007 0.912154
-0.314528 -0.076070 0.720747
-0.452189 -0.117918 0.872460
-0.424224 -0.128282 0.904822
-0.099219 -0.305489 0.939223
-0.195978 -0.209281 0.726604
-0.279337 -0.284666 0.964507
-0.106788 -0.257453 0.971114
-0.247307 -0.280997 0.943598
-0.809021 -0.475399 1.438504
-0.237999 -0.084693 0.755447
-0.105937 -0.198751 0.689218
-0.174318 -0.087479 0.753500
-0.196872 -0.063159 0.669901
-0.279560 -0.083326 0.753080
-0.282522 -0.078781 0.710125
-0.106756 -0.258294 0.972686
-0.174896 -0.299369 1.022091
-0.733656 -0.293871 1.408260
-0.679914 -0.356996 1.410730
-0.321608 -0.134193 0.922233
-0.294917 -0.342980 1.098495
-0.481235 -0.240249 1.275985
-0.137253 -0.119512 0.861406
-0.246906 -0.149919 0.894550
-0.265206 -0.168554 0.969480
-0.200756 -0.328701 1.028711
-0.228890 -0.157353 0.850380
-0.096246 -0.156320 0.988281
-0.171629 -0.141460 0.766563
-0.148483 -0.177335 0.708293
-0.382808 -0.129945 0.914036
-0.672123 -0.420879 1.398485
-0.157175 -0.132603 0.729549
-0.167231 -0.114920 0.745543
-0.172551 -0.094657 0.734316
-0.138433 -0.118339 0.870940
-0.351139 -0.103149 0.811164
-0.341361 -0.116918 0.863603
-0.206305 -0.150277 0.835257
-0.790263 -0.409213 1.456783
-0.797526 -0.427745 1.472417
-0.237073 -0.111219 0.821003
-0.159312 -0.133419 0.740733
-0.135986 -0.299505 0.982936
-0.359454 -0.122835 0.882595
-0.307067 -0.076812 0.704370
-0.721182 -0.380585 1.346948
-0.277994 -0.368030 1.097870
-0.923465 -0.303994 1.578781
-0.818364 -0.486862 1.425494
-0.855930 -0.531897 1.537941
-0.892647 -0.379664 1.478268
-0.380002 -0.168216 1.027492
-0.172487 -0.190961 0.720870
-0.900222 -0.353650 1.541724
-0.202210 -0.334641 1.035717
-0.342936 -0.118405 0.866182
-0.194712 -0.209561 0.750131
-0.162751 -0.091152 0.739415
-0.677287 -0.226389 1.252657
-0.406965 -0.103816 0.824931
-0.227093 -0.158782 0.844094
-0.170503 -0.297279 1.006996
-0.257635 -0.165156 0.945689
-0.153505 -0.112819 0.787045
-0.085743 -0.254800 0.945234
-0.258894 -0.058821 0.658302
-0.320120 -0.110969 0.834984
-0.261207 -0.092314 0.784236
-0.541399 -0.219306 1.224763
-0.757575 -0.283273 1.431428
-0.475938 -0.158528 1.013337
-0.332364 -0.114404 0.855144
-0.278952 -0.111453 0.838541
-0.734174 -0.346545 1.399218
-0.155357 -0.136648 0.776216
-0.183226 -0.079512 0.721335
-0.254684 -0.071767 0.704964
-0.738653 -0.266742 1.393061
-0.225413 -0.183376 0.842386
-0.264685 -0.060465 0.666959
-0.321087 -0.077909 0.728403
-0.104359 -0.191362 0.683571
-0.239990 -0.111824 0.833192
-0.154463 -0.134674 0.775083
-0.882955 -0.404969 1.509764
-0.155097 -0.290566 0.989542
-0.340423 -0.173231 0.991086
-0.960466 -0.392397 1.532282
-0.821086 -0.470576 1.481523
-0.510241 -0.300942 1.309812
-0.675467 -0.433408 1.486996
-0.226837 -0.134254 0.835158
-0.617155 -0.160247 1.071633
-0.648707 -0.171802 1.110369
-0.219005 -0.201506 0.807123
-0.355429 -0.170802 1.006851
-0.211240 -0.312551 1.058308
-0.947405 -0.403595 1.541723
-0.441285 -0.145274 0.966540
-0.375004 -0.082500 0.752809
-0.932398 -0.423833 1.580794
-0.934405 -0.396373 1.592059
-0.312789 -0.060040 0.688627
-0.095220 -0.155226 0.971387
-0.094473 -0.251685 0.952452
-0.424628 -0.152784 0.990184
-0.198830 -0.204273 0.731246
-1.282169 -0.334438 1.648758
-1.063071 -0.352477 1.709122
-1.006187 -0.415942 1.623536
-0.922869 -0.374499 1.591537
-1.264526 -0.416089 1.619102
-1.227346 -0.469465 1.619953
-1.200202 -0.413428 1.632889
-1.062876 -0.426618 1.671525
-1.244268 -0.478621 1.654104
-1.093125 -0.358663 1.719214
-1.225737 -0.435228 1.626169
-1.052974 -0.351607 1.702304
-0.354622 -0.122180 0.900882
-0.376460 -0.128545 0.901862
-0.863630 -0.453386 1.430208
-0.189512 -0.307563 1.024258
-0.186605 -0.302450 1.005373
-0.173299 -0.093409 0.738179
-0.257500 -0.059271 0.653451
-0.250752 -0.104566 0.814624
-0.933101 -0.397437 1.539926
-0.175571 -0.144125 0.820379
-1.052394 -0.445519 1.636055
-1.246681 -0.456190 1.620923
-1.294854 -0.436450 1.656104
-1.285995 -0.405070 1.619950
-1.122815 -0.321191 1.674680
-1.369382 -0.403683 1.627579
-1.239513 -0.457331 1.610768
-1.014684 -0.427151 1.617712
-1.232087 -0.425001 1.609825
-0.909365 -0.340917 1.601037
-0.285122 -0.081211 0.736233
-0.163644 -0.187580 0.716078
-0.114799 -0.295625 0.971745
-0.146598 -0.196401 0.698886
-0.142738 -0.185550 0.700418
-0.325867 -0.065890 0.681460
-0.189883 -0.165745 0.787246
-0.216133 -0.180058 0.808415
-0.303858 -0.089098 0.764574
-0.381354 -0.169109 1.030189
-0.232047 -0.188878 0.873200
-0.238049 -0.125065 0.866125
-0.155344 -0.135899 0.768714
-0.823403 -0.436756 1.488036
-0.773944 -0.390787 1.384104
-0.721341 -0.358970 1.356127
-0.831422 -0.482769 1.428698
-0.162760 -0.113476 0.757780
-0.150687 -0.200757 0.715142
-0.187463 -0.168703 0.796550
-0.807595 -0.455549 1.502898
-0.208713 -0.218905 0.776474
-0.110740 -0.227499 0.868134
-0.229858 -0.309807 1.048941
-0.890809 -0.307369 1.591463
-0.727575 -0.451466 1.485023
-0.274293 -0.267154 0.915808
-0.724331 -0.449672 1.476591
-0.716237 -0.440755 1.466107
-0.518208 -0.247810 1.297506
-0.702552 -0.309878 1.463446
-0.837633 -0.457590 1.511650
-0.402717 -0.117959 0.866064
-0.718523 -0.289290 1.454413
-0.372417 -0.175518 1.056163
-0.375213 -0.094628 0.788286
-0.479730 -0.097988 0.808241
-0.274031 -0.344106 1.082094
-0.673543 -0.369174 1.415536
-0.521564 -0.248590 1.321128
-0.805546 -0.475383 1.470438
-0.172164 -0.093431 0.737832
-0.214576 -0.074888 0.707526
-0.131366 -0.085462 0.723618
-0.121092 -0.162227 0.923084
-0.233786 -0.085109 0.745751
-0.200358 -0.173859 0.818898
-0.820512 -0.440893 1.498880
-0.844041 -0.492930 1.418510
-0.148874 -0.165877 0.772135
-0.595011 -0.286264 1.470534
-0.360414 -0.104453 0.815850
-0.274595 -0.267068 0.918274
-0.316882 -0.328746 1.060970
-0.706555 -0.478149 1.505818
-0.671927 -0.466208 1.466697
-0.647870 -0.403582 1.366512
-0.511618 -0.260256 1.303994
-0.298856 -0.104994 0.817384
-0.873578 -0.448635 1.428849
-0.296681 -0.083191 0.742059
-0.334716 -0.069589 0.701294
-0.433794 -0.080514 0.750412
-0.125063 -0.163114 0.756600
-0.169617 -0.321300 1.007158
-0.809106 -0.436525 1.469140
-0.843287 -0.475642 1.470694
-0.906098 -0.448091 1.570097
-0.146618 -0.053076 0.634172
-0.243196 -0.054075 0.639263
-0.172681 -0.055354 0.634445
-0.415608 -0.139740 0.944639
-0.833617 -0.384611 1.428441
-0.791569 -0.479013 1.480317
-0.836316 -0.445416 1.497224
-0.173074 -0.302996 1.025450
-0.368979 -0.126088 0.887675
-0.223938 -0.156928 0.826192
-0.272885 -0.122285 0.875028
-0.411942 -0.113968 0.857222
-0.340280 -0.114663 0.850905
-0.406683 -0.113208 0.847390
-0.651457 -0.176528 1.106308
-0.276568 -0.094991 0.774407
-0.237275 -0.103473 0.802454
-0.258527 -0.077377 0.718321
-0.851233 -0.255501 1.437618
-0.214667 -0.058121 0.659236
-0.403993 -0.136791 0.944782
-0.564417 -0.185794 1.103441
-0.153209 -0.326504 0.983779
-0.088194 -0.291385 0.930135
-0.299878 -0.088770 0.753892
-0.374502 -0.083839 0.750350
-0.192101 -0.073542 0.690628
-0.304183 -0.072726 0.708653
-0.149544 -0.197691 0.704335
-0.155338 -0.315176 0.986355
-1.072002 -0.303233 1.610709
-1.305515 -0.465878 1.617683
-1.353658 -0.394034 1.672610
-1.377129 -0.432053 1.624162
-1.274604 -0.429479 1.633888
-1.042280 -0.301117 1.598783
-1.100754 -0.360705 1.714678
-0.911076 -0.317739 1.618241
-0.973820 -0.462222 1.601657
-1.418851 -0.303198 1.676430
-1.211323 -0.244980 1.517894
-0.281425 -0.347372 1.111023
-0.262864 -0.280017 0.943751
-0.891407 -0.371749 1.492033
-0.339052 -0.116398 0.858884
-0.604798 -0.295427 1.496632
-0.574133 -0.385368 1.318111
-0.663952 -0.404800 1.385522
-0.294416 -0.267366 0.922647
-0.663656 -0.467368 1.481893
-0.804898 -0.432202 1.453806
-0.357978 -0.194609 1.128653
-0.257632 -0.255815 0.882742
-0.892695 -0.480827 1.474965
-0.222960 -0.186049 0.839563
-0.188897 -0.300107 1.019399
-0.247608 -0.154063 0.910040
-0.207587 -0.190749 0.766436
-0.211433 -0.322438 1.015425
-0.333182 -0.115288 0.843275
-0.438323 -0.126472 0.900510
-0.133015 -0.185410 0.704987
-0.444547 -0.115637 0.865126
-0.278191 -0.296199 0.974430
-0.253471 -0.099084 0.786892
-0.268776 -0.114233 0.838065
-0.135384 -0.297542 0.976454
-0.853577 -0.300538 1.519925
-1.087248 -0.378611 1.676214
-1.220092 -0.430551 1.608416
-0.955369 -0.446849 1.586121
-1.354128 -0.400555 1.636139
-1.035891 -0.466131 1.622639
-1.093280 -0.379651 1.684232
-0.962992 -0.422441 1.601265
-1.144559 -0.267951 1.515849
-0.927427 -0.351005 1.640759
-0.966388 -0.408632 1.609121
-1.091296 -0.358535 1.716407
-0.971249 -0.318598 1.626119
-0.397783 -0.150514 0.975571
-0.212783 -0.178328 0.802125
-0.799376 -0.461301 1.528808
-0.787898 -0.426287 1.470706
-0.689305 -0.318074 1.489951
-0.666886 -0.384509 1.456256
-0.156440 -0.133511 0.736636
-0.159731 -0.158054 0.712697
-0.173294 -0.191445 0.723322
-0.303160 -0.138907 0.920129
-0.714309 -0.338000 1.363860
-0.449381 -0.128418 0.914168
-0.551363 -0.222096 1.247215
-0.712948 -0.337841 1.362054
-0.253640 -0.162562 0.928720
-0.685590 -0.360043 1.421068
-0.425669 -0.128909 0.908201
-0.402557 -0.118089 0.867159
-0.151615 -0.158452 0.749877
-0.220520 -0.205866 0.819999
-0.129221 -0.085800 0.725121
-0.140305 -0.086711 0.712825
-0.721298 -0.274704 1.463997
-0.156489 -0.208150 0.740631
-0.356732 -0.185718 1.082984
-0.943661 -0.404339 1.609635
-0.940693 -0.420575 1.596035
-1.279761 -0.450059 1.605761
-0.969899 -0.413948 1.604595
-0.983257 -0.454501 1.604777
-1.059305 -0.352680 1.699378
-0.346880 -0.110246 0.836973
-0.677613 -0.222557 1.255378
-0.475094 -0.231655 1.262088
-0.163214 -0.089217 0.743615
-0.765409 -0.434191 1.464804
-0.815081 -0.475760 1.485095
-0.835771 -0.442201 1.490517
-0.665895 -0.317582 1.553799
-0.276058 -0.096717 0.797872
-0.706846 -0.441004 1.467049
-0.319609 -0.131337 0.901805
-0.206335 -0.079757 0.721943
-0.233654 -0.332711 1.026553
-0.888470 -0.437281 1.473619
-0.878340 -0.297474 1.507372
-0.666837 -0.469932 1.489926
-0.664543 -0.485525 1.504689
-0.453562 -0.239800 1.179213
-0.656668 -0.462850 1.467184
-0.653685 -0.411941 1.415260
-0.654728 -0.402252 1.430276
-0.702462 -0.499690 1.554599
-0.225520 -0.302082 1.028115
-0.663874 -0.218745 1.230555
-0.418912 -0.126993 0.902531
-0.813495 -0.437572 1.486404
-0.170237 -0.303469 1.007501
-0.741726 -0.295989 1.422699
-0.360183 -0.096949 0.795085
-0.351285 -0.198226 1.040219
-0.303536 -0.138918 0.921313
-0.190589 -0.072716 0.689314
-0.198831 -0.337302 1.037814
-0.859027 -0.468954 1.403638
-0.840144 -0.491933 1.508162
-0.239273 -0.086425 0.731438
-0.627990 -0.239784 1.309302
-0.345984 -0.181527 1.049338
-0.764141 -0.430299 1.459372
-0.504125 -0.243051 1.264600
-0.806676 -0.434749 1.475704
-0.270956 -0.279498 0.944592
-0.298747 -0.104022 0.815906
-0.280546 -0.346893 1.107589
-0.921589 -0.485271 1.458152
-0.288489 -0.150976 0.957718
-0.919909 -0.423187 1.463975
-0.881041 -0.436201 1.460896
-0.701524 -0.194225 1.153591
-0.449340 -0.116330 0.873328
-0.364792 -0.091880 0.774687
-0.710594 -0.287052 1.442024
-0.900873 -0.429836 1.472739
-0.778280 -0.440767 1.519029
-0.275883 -0.278551 0.945704
-0.728923 -0.242887 1.325845
-0.492145 -0.353176 1.223167
-0.933140 -0.218043 1.429668
-0.450769 -0.295593 1.159078
-0.817847 -0.433861 1.479715
-0.284879 -0.358608 1.127160
-0.209723 -0.312793 1.039278
-0.474047 -0.231123 1.255184
-0.687333 -0.316994 1.484012
-0.802860 -0.485439 1.501550
-0.583195 -0.432995 1.397598
-0.287927 -0.268267 0.926672
-0.569539 -0.378778 1.301302
-1.244100 -0.357062 1.623162
-0.990029 -0.409544 1.602994
-1.281590 -0.313939 1.651377
-0.950343 -0.363114 1.619494
-1.265243 -0.335155 1.633841
-0.944983 -0.405029 1.613371
-0.324332 -0.360263 1.133848
-0.659939 -0.414254 1.390815
-0.671667 -0.312938 1.563509
-0.133290 -0.186004 0.705680
-0.142096 -0.087295 0.729038
-0.251598 -0.259142 0.876954
-0.669941 -0.429034 1.474298
-0.646613 -0.445330 1.429362
-0.154277 -0.134361 0.773065
-0.549430 -0.180329 1.104987
-0.165252 -0.192459 0.736519
-0.544266 -0.137659 0.991813
-0.217638 -0.225301 0.804096
-0.547529 -0.413134 1.330696
-0.338950 -0.194016 0.999359
-0.592920 -0.202203 1.193885
-0.601579 -0.351276 1.326057
-0.582820 -0.434865 1.352502
-1.030186 -0.419921 1.630802
-0.432343 -0.377565 1.244684
-0.492872 -0.281198 1.301356
-0.442783 -0.383067 1.232440
-0.493354 -0.296616 1.293777
-0.489796 -0.317200 1.211072
-1.082844 -0.446911 1.665882
-1.279207 -0.410589 1.641921
-1.200209 -0.310165 1.648830
-1.399544 -0.408135 1.667664
-0.953235 -0.397363 1.586968
-0.633933 -0.458692 1.476017
-0.717366 -0.300952 1.432291
-0.575229 -0.387370 1.319853
-0.556569 -0.404298 1.301227
-0.162752 -0.183885 0.703117
-0.278959 -0.118201 0.847365
-0.187604 -0.199982 0.716852
-0.479229 -0.160195 1.018907
-0.681988 -0.393424 1.376658
-0.641025 -0.237985 1.300760
-1.242117 -0.420581 1.657157
-0.977520 -0.196878 1.369611
-0.620457 -0.239539 1.290695
-1.281878 -0.457388 1.630918
-0.942460 -0.468642 1.564459
-1.408684 -0.392545 1.665264
-1.044206 -0.440684 1.635553
-1.014047 -0.430988 1.617061
-0.960602 -0.461569 1.574529
-1.251354 -0.449304 1.631376
-0.885139 -0.254729 1.469436
-1.181401 -0.489220 1.719136
-0.934498 -0.409446 1.584859
-0.790064 -0.490596 1.509240
-0.188419 -0.073095 0.684122
-0.258494 -0.066717 0.683713
-0.276717 -0.078886 0.723121
-0.283868 -0.280169 0.928533
-0.780361 -0.482102 1.529171
-0.500340 -0.242716 1.328064
-0.220825 -0.254635 0.858360
-0.197278 -0.208555 0.729030
-0.663409 -0.456034 1.435820
-0.683163 -0.462698 1.457314
-0.220742 -0.206326 0.822156
-0.187953 -0.107684 0.803762
-0.194746 -0.110191 0.839428
-0.346563 -0.109867 0.835813
-0.128493 -0.182274 0.704101
-1.190922 -0.301048 1.635110
-1.352732 -0.425540 1.626407
-1.416980 -0.400004 1.634120
-0.901769 -0.472469 1.567916
-0.935751 -0.427510 1.588607
-1.356194 -0.310297 1.616573
-1.384941 -0.453035 1.626897
-0.920228 -0.426739 1.609542
-0.919714 -0.374399 1.590708
-0.986585 -0.428248 1.614455
-0.971072 -0.405663 1.607898
-1.105639 -0.331713 1.665519
-0.984908 -0.427248 1.611470
-0.880170 -0.361889 1.567439
-0.864674 -0.467838 1.557316
-1.069037 -0.301400 1.607999
-1.012997 -0.426296 1.615818
-1.017891 -0.415703 1.622926
-1.062880 -0.287726 1.564276
-1.086347 -0.311204 1.633645
-1.038017 -0.291774 1.572670
-0.232521 -0.137379 0.870681
-0.485878 -0.240133 1.282259
-0.293567 -0.266084 0.916429
-0.548151 -0.367909 1.280716
-0.551775 -0.209299 1.198461
-0.452205 -0.295188 1.160303
-0.488032 -0.344851 1.200545
-0.551958 -0.210031 1.187768
-0.686080 -0.470126 1.480158
-0.232034 -0.122005 0.840785
-0.192576 -0.144470 0.790248
-0.885102 -0.438320 1.555710
-1.328462 -0.436160 1.623656
-0.976487 -0.444390 1.605111
-1.351953 -0.433192 1.624227
-1.050033 -0.424416 1.657860
-0.857942 -0.454750 1.545587
-1.362800 -0.420626 1.615874
-0.885826 -0.438878 1.556736
-1.108289 -0.331852 1.668239
-1.235957 -0.314077 1.633943
-1.063951 -0.333564 1.660378
-1.091251 -0.408284 1.665116
-1.086071 -0.470224 1.626161
-1.260749 -0.377341 1.634008
-1.269171 -0.414468 1.623201
-1.086290 -0.478163 1.627122
-1.259699 -0.480299 1.705006
-1.017348 -0.397943 1.663703
-0.472877 -0.110729 0.870145
-0.956117 -0.310815 1.608412
-0.238801 -0.104054 0.808089
-0.148629 -0.165494 0.766319
-0.207304 -0.149444 0.822340
-0.616647 -0.166178 1.064407
-0.330672 -0.192534 1.101274
-0.495891 -0.162299 1.029022
-0.236174 -0.111306 0.818357
-0.714961 -0.426340 1.437904
-0.406462 -0.349474 1.131595
-0.414447 -0.167995 1.025663
-0.637766 -0.466115 1.446449
-0.666578 -0.469018 1.476835
-0.604057 -0.423376 1.411391
-0.414308 -0.163205 1.045639
-0.263453 -0.090642 0.761264
-0.538287 -0.134126 0.942105
-0.155066 -0.293758 0.965497
-0.663945 -0.425036 1.462830
-0.879477 -0.386905 1.455555
-0.151660 -0.203091 0.721694
-0.703335 -0.226571 1.299565
-1.092343 -0.312600 1.635866
-0.719352 -0.234604 1.311108
-1.190236 -0.447076 1.658670
-1.222763 -0.456126 1.690659
-0.733190 -0.231130 1.335132
-1.245467 -0.469867 1.728292
-0.629282 -0.240573 1.310393
-0.617261 -0.337531 1.345731
-0.597926 -0.385460 1.329292
-0.634766 -0.200208 1.223146
-0.658040 -0.296109 1.378182
-0.909017 -0.439383 1.485900
-0.669725 -0.361595 1.372795
-0.681859 -0.228975 1.250061
-0.402542 -0.146535 0.959603
-0.411512 -0.115917 0.868827
-0.400569 -0.150600 0.978493
-0.194586 -0.146627 0.799996
-0.497986 -0.294509 1.277892
-0.675934 -0.435334 1.505576
-0.622277 -0.453156 1.444045
-0.480617 -0.285056 1.234794
-0.365387 -0.200942 1.089598
-0.637889 -0.433529 1.459970
-0.639113 -0.456185 1.463532
-0.275586 -0.275707 0.932680
-0.924177 -0.317428 1.548930
-0.786932 -0.477089 1.494681
-0.767677 -0.474849 1.507072
-0.323185 -0.299404 1.008143
-0.197657 -0.208633 0.729958
-0.236152 -0.133783 0.853414
-0.386354 -0.129777 0.898707
-0.219165 -0.201715 0.814118
-0.413684 -0.138455 0.940141
-0.937211 -0.502480 1.538970
-0.897718 -0.335462 1.580453
-0.959875 -0.329861 1.599053
-0.202151 -0.126227 0.812958
-0.935139 -0.454013 1.503281
-0.268996 -0.288812 0.970230
-0.506142 -0.267637 1.321216
-0.356720 -0.201029 1.060097
-0.745806 -0.423060 1.464733
-0.747413 -0.437583 1.468859
-0.871816 -0.395705 1.448343
-0.288656 -0.269930 0.929040
-0.853724 -0.483203 1.461428
-0.494812 -0.285379 1.294341
-0.402050 -0.138547 0.934028
-0.419259 -0.129544 0.914692
-1.248467 -0.456030 1.623020
-1.234640 -0.426202 1.612083
-1.328476 -0.313029 1.680473
-1.230551 -0.430820 1.633609
-0.947920 -0.261945 1.472787
-1.295300 -0.421981 1.618402
-1.258428 -0.442135 1.650573
-1.322382 -0.424225 1.625607
-0.768752 -0.285677 1.445797
-0.670788 -0.180621 1.207267
-1.023847 -0.483104 1.641845
-0.450150 -0.300016 1.158860
-0.475510 -0.311828 1.219522
-0.464317 -0.183112 1.084576
-0.399145 -0.323790 1.114483
-0.492392 -0.221530 1.195307
-0.806510 -0.435652 1.464786
-0.200717 -0.301148 1.024346
-0.722444 -0.421351 1.435891
-0.460780 -0.250316 1.220483
-0.691135 -0.323071 1.609870
-0.284031 -0.281915 0.972042
-0.317843 -0.369462 1.143535
-0.639952 -0.308951 1.521059
-0.163734 -0.134070 0.732345
-0.160144 -0.159253 0.722069
-0.151304 -0.158390 0.759295
-0.425312 -0.157882 0.997853
-0.200168 -0.205381 0.731851
-0.241430 -0.258846 0.892095
-0.977445 -0.418905 1.564303
-0.407878 -0.138929 0.928287
-0.878782 -0.459269 1.455620
-0.807014 -0.473684 1.472416
-0.647730 -0.404103 1.373381
-0.572360 -0.427319 1.415321
-0.518212 -0.200146 1.149579
-0.553053 -0.210279 1.196357
-0.422701 -0.346992 1.153499
-0.946276 -0.449488 1.541047
-0.189624 -0.171270 0.801808
-0.226457 -0.134206 0.834047
-1.233425 -0.444291 1.628927
-1.398105 -0.504955 1.836788
-0.993276 -0.444240 1.606339
-0.944709 -0.359381 1.610103
-1.332233 -0.340463 1.671074
-1.259402 -0.492828 1.741776
-1.262357 -0.345411 1.639787
-1.262281 -0.452636 1.611937
-0.989056 -0.466686 1.614519
-1.246417 -0.456876 1.624603
-1.054642 -0.427558 1.656038
-0.872120 -0.367581 1.359707
-0.980065 -0.435827 1.607016
-1.223156 -0.425451 1.599964
-0.873593 -0.367846 1.361120
-0.996221 -0.447823 1.589118
-1.009632 -0.416164 1.628311
-0.656812 -0.383626 1.433496
-0.484042 -0.385928 1.262653
-0.429498 -0.172255 1.042867
-0.481424 -0.297892 1.253246
-0.399134 -0.324792 1.115649
-0.655117 -0.399836 1.380571
-0.458922 -0.182222 1.074915
-0.385865 -0.160195 0.979191
-0.451092 -0.268800 1.158625
-0.330436 -0.125702 0.874079
-0.206068 -0.171987 0.764380
-0.306977 -0.136568 0.875495
-0.353152 -0.130449 0.895049
-0.206393 -0.172306 0.766079
-0.219619 -0.174818 0.806406
-0.343479 -0.188474 1.076139
-0.280497 -0.273222 0.922292
-0.382500 -0.158360 0.983387
-0.230152 -0.159806 0.832885
-0.223900 -0.152770 0.824895
-0.412763 -0.148801 0.966585
-0.386952 -0.150533 0.972868
-0.984404 -0.412486 1.613132
-0.479286 -0.296180 1.245869
-0.393899 -0.131057 0.910366
-0.293986 -0.267066 0.923042
-0.644980 -0.355235 1.360540
-0.981017 -0.396790 1.553312
-0.728485 -0.435664 1.464299
-0.781164 -0.451846 1.497557
-0.342394 -0.201180 1.031870
-0.269543 -0.283436 0.935312
-0.272778 -0.333971 1.069312
-0.330428 -0.141341 0.930528
-0.264254 -0.156597 0.936184
-0.244802 -0.311315 0.994595
-0.665167 -0.450468 1.508272
-0.831142 -0.449721 1.493354
-0.980838 -0.315039 1.644830
-0.243062 -0.324617 1.048101
-0.296154 -0.527201 1.778924
-0.359066 -0.091226 0.764155
-0.161618 -0.099946 0.736141
-0.380976 -0.105293 0.817436
-0.646200 -0.369338 1.414329
-0.498509 -0.255393 1.273289
-0.481669 -0.294490 1.274034
-0.607018 -0.431028 1.436597
-0.412219 -0.104972 0.824413
-0.370888 -0.165812 0.997407
-0.437643 -0.175695 1.045340
-0.724117 -0.302892 1.442104
-0.293004 -0.274122 0.944234
-0.666529 -0.360938 1.438275
-0.270120 -0.280415 0.947195
-0.163075 -0.133712 0.728666
-0.231446 -0.110672 0.799689
-0.233020 -0.103067 0.785256
-0.205651 -0.101748 0.782047
-0.786021 -0.433504 1.454438
-1.181392 -0.320402 1.640241
-1.024962 -0.347238 1.686081
-1.213843 -0.316046 1.635256
-1.090286 -0.344746 1.716474
-1.076307 -0.341128 1.714728
-1.357785 -0.331334 1.670515
-0.953940 -0.337840 1.633477
-0.939650 -0.403045 1.604180
-0.957838 -0.310963 1.612270
-0.998562 -0.479357 1.614907
-1.251612 -0.308569 1.634533
-1.124138 -0.321024 1.670578
-0.262001 -0.169917 0.905293
-0.280369 -0.266550 0.918857
-0.297335 -0.130753 0.888419
-0.829280 -0.453712 1.495542
-0.546885 -0.370429 1.285904
-0.596885 -0.423850 1.413959
-0.599219 -0.424978 1.419362
-0.515162 -0.387957 1.256024
-0.560901 -0.421886 1.360227
-0.440209 -0.257479 1.145878
-0.854356 -0.474488 1.445912
-0.464385 -0.152137 0.994236
-0.325303 -0.187438 1.034441
-0.311988 -0.135362 0.911561
-0.641980 -0.349342 1.387450
-0.703995 -0.473946 1.504353
-0.644888 -0.375451 1.423976
-0.443571 -0.128667 0.916389
-0.171705 -0.301171 1.018628
-0.447508 -0.149695 0.985050
-0.599366 -0.159246 1.046174
-0.380169 -0.127336 0.892768
-0.337940 -0.114172 0.845255
-0.478858 -0.273545 1.262623
-0.872912 -0.358920 1.515417
-0.280520 -0.285779 0.981398
-0.592009 -0.381847 1.324396
-0.580267 -0.390724 1.330132
-0.260444 -0.099134 0.775627
-0.224408 -0.181195 0.834060
-0.435098 -0.112197 0.857020
-1.103741 -0.360094 1.717924
-1.274247 -0.330542 1.643522
-1.009706 -0.436130 1.612123
-1.078436 -0.361253 1.712024
-1.216075 -0.411531 1.627419
-0.420618 -0.292781 1.113289
-0.429103 -0.264602 1.126656
-0.416004 -0.263651 1.095870
-0.322413 -0.185725 1.026102
-0.497318 -0.127283 0.934567
-0.754645 -0.299227 1.443544
-0.758151 -0.429405 1.481122
-0.901652 -0.470501 1.489967
-0.165218 -0.087487 0.739808
-0.357460 -0.103119 0.806402
-0.737553 -0.422199 1.452587
-0.196736 -0.168890 0.791529
-1.361516 -0.330594 1.675106
-0.853847 -0.448594 1.518819
-1.184412 -0.440221 1.662412
-0.966027 -0.480207 1.563582
-1.346101 -0.419192 1.672051
-1.234278 -0.478016 1.719468
-1.201250 -0.310238 1.649687
-0.601762 -0.242115 1.306534
-1.152370 -0.225563 1.433973
-1.174266 -0.237570 1.471576
-0.335918 -0.114118 0.840203
-0.810360 -0.468921 1.539078
-1.080067 -0.335967 1.673050
-0.165786 -0.114682 0.738041
-0.735360 -0.458326 1.523374
-0.668969 -0.273093 1.295314
-0.226356 -0.302134 1.027933
-0.377222 -0.128335 0.903975
-0.415375 -0.137484 0.937734
-0.456628 -0.116875 0.882093
-0.221049 -0.176522 0.817588
-1.207367 -0.427027 1.639375
-1.223871 -0.418834 1.658750
-1.081259 -0.417661 1.686417
-0.964112 -0.398963 1.602497
-0.155208 -0.099333 0.775085
-0.152432 -0.098433 0.746743
-0.945995 -0.468882 1.584572
-0.989439 -0.434313 1.604690
-0.986105 -0.427759 1.613620
-0.993039 -0.418037 1.611576
-1.270329 -0.290181 1.611066
-1.027192 -0.308445 1.616229
-1.091865 -0.343984 1.719792
-1.052805 -0.445499 1.635484
-1.083130 -0.463873 1.635277
-0.907301 -0.426157 1.583913
-0.995254 -0.416051 1.612775
-1.240722 -0.478131 1.650613
-1.078757 -0.444365 1.662895
-1.365859 -0.473327 1.618280
-1.327901 -0.435344 1.623676
-1.313032 -0.394897 1.650545
-1.352910 -0.400836 1.626647
-0.969175 -0.308909 1.601498
-1.243225 -0.419481 1.603184
-1.074252 -0.453135 1.659852
-0.398529 -0.150497 0.975011
-0.388375 -0.132650 0.907633
-0.279800 -0.280272 0.946233
-0.178734 -0.187226 0.723061
-0.272583 -0.150892 0.921932
-0.430327 -0.126175 0.909893
-0.218441 -0.308524 0.983412
-0.635203 -0.394530 1.396882
-0.204176 -0.154914 0.902222
-0.476766 -0.270384 1.232225
-0.356137 -0.185426 1.082012
-0.890622 -0.304363 1.509104
-0.327816 -0.188225 1.042188
-0.998626 -0.412912 1.617827
-1.338693 -0.330144 1.662101
-1.012846 -0.420620 1.618738
-1.307929 -0.400542 1.618005
-1.102049 -0.373561 1.714592
-0.446760 -0.150014 0.981125
-0.255332 -0.280989 0.957098
-0.224739 -0.118759 0.840018
-0.411594 -0.124369 0.891803
-0.470552 -0.184674 1.104296
-0.317914 -0.131582 0.897325
-0.480475 -0.159903 1.021457
-0.887035 -0.347519 1.521365
-0.290683 -0.271235 0.936311
-0.694632 -0.442775 1.501042
-0.965340 -0.408698 1.606167
-0.883396 -0.478234 1.455901
-0.677892 -0.323627 1.571418
-0.719684 -0.285148 1.451572
-0.684797 -0.480655 1.513664
-0.764395 -0.482913 1.522834
-0.603883 -0.295258 1.490469
-0.380901 -0.361476 1.138247
-0.179190 -0.188294 0.726662
-0.155556 -0.205094 0.728878
-0.661443 -0.422120 1.431654
-1.085456 -0.410425 1.665179
-1.120725 -0.321383 1.671262
-0.922992 -0.335844 1.630425
-1.045593 -0.441371 1.636714
-1.360570 -0.330416 1.673922
-0.991751 -0.435385 1.608125
-0.999042 -0.412608 1.618044
-0.989959 -0.445010 1.603994
-0.349341 -0.103520 0.822684
-0.153273 -0.098689 0.766280
-0.395421 -0.278572 1.042449
-0.419113 -0.178969 1.056072
-0.999589 -0.419886 1.625558
-1.260960 -0.405195 1.620996
-1.285031 -0.327858 1.645587
-1.005005 -0.447284 1.613538
-1.248369 -0.424338 1.614333
-0.935925 -0.409833 1.586472
-1.061669 -0.356277 1.742174
-0.648864 -0.239495 1.315706
-0.649857 -0.422365 1.377459
-0.814599 -0.458093 1.511847
-0.695656 -0.435221 1.427939
-0.626533 -0.423189 1.360587
-0.282258 -0.271471 0.914145
-0.741135 -0.187414 1.226168
-0.810192 -0.455865 1.505487
-0.554076 -0.210339 1.199391
-0.198704 -0.321964 1.015443
-0.365893 -0.201658 1.166174
-0.271186 -0.262611 0.906146
-0.898027 -0.455936 1.485557
-0.832354 -0.489449 1.477388
-0.694355 -0.283239 1.419408
-0.416657 -0.129318 0.910151
-0.878542 -0.378377 1.508863
-0.165591 -0.098817 0.723272
-0.161645 -0.100516 0.735875
-0.632860 -0.470967 1.458949
-0.657356 -0.470044 1.492487
-0.643094 -0.474694 1.485287
-0.386681 -0.131330 0.913391
-0.409487 -0.137204 0.931840
-0.780952 -0.247038 1.366788
-0.166359 -0.115215 0.739873
-0.148179 -0.176932 0.708276
-0.163573 -0.133260 0.721436
-0.202458 -0.185411 0.742649
-0.487533 -0.377857 1.235654
-0.499540 -0.372302 1.242768
-0.674107 -0.461529 1.454037
-1.275704 -0.313805 1.647408
-0.943967 -0.321606 1.647225
-0.977958 -0.417355 1.618485
-0.930877 -0.465934 1.606497
-1.097432 -0.391899 1.704836
-0.918544 -0.341007 1.621753
-0.324731 -0.187133 1.034751
-0.542893 -0.136790 0.990587
-0.337793 -0.195345 1.001818
-1.047685 -0.387669 1.609597
-0.330389 -0.276247 0.958399
-0.971907 -0.415675 1.521242
-0.988103 -0.409710 1.572509
-0.906958 -0.420278 1.507770
-1.045701 -0.301077 1.603886
-1.451209 -0.477812 1.604916
-0.198961 -0.292093 0.996224
-0.352388 -0.118907 0.860813
-0.851084 -0.313862 1.510859
-0.524620 -0.293855 1.327763
-0.395262 -0.149447 0.970231
-0.668426 -0.217860 1.238721
-0.216206 -0.282359 0.959968
-0.264839 -0.155713 0.922608
-0.251148 -0.273403 0.936337
-0.422110 -0.162157 1.018611
-0.195734 -0.308022 0.976612
-0.835251 -0.441010 1.505102
-0.659885 -0.347646 1.372269
-0.457948 -0.182634 1.068365
-0.374506 -0.156791 0.964899
-0.327345 -0.277756 0.995139
-0.638254 -0.413487 1.430062
-0.802427 -0.473204 1.499172
-0.461349 -0.274854 1.188427
-0.476123 -0.365716 1.212380
-0.452755 -0.349773 1.176550
-0.470234 -0.358711 1.205971
-0.320254 -0.184365 1.015194
-0.449741 -0.285410 1.163140
-0.452230 -0.279351 1.166374
-0.327681 -0.141739 0.912039
-0.430708 -0.132557 0.933769
-0.937468 -0.402701 1.625699
-0.946602 -0.340424 1.653707
-0.974091 -0.432997 1.608417
-0.944662 -0.421397 1.587873
-1.259420 -0.407087 1.626010
-1.235093 -0.481536 1.624287
-1.280095 -0.449869 1.606573
-1.038735 -0.441504 1.634701
-1.298212 -0.399364 1.612594
-1.032567 -0.389907 1.671760
-1.270137 -0.456091 1.598468
-1.119385 -0.320983 1.665990
-1.094753 -0.332569 1.666973
-0.961026 -0.434480 1.597940
-0.986789 -0.465895 1.612815
-1.283199 -0.458774 1.601264
-1.099290 -0.355481 1.712948
-1.092119 -0.344599 1.719099
-1.334972 -0.330231 1.656652
-1.377352 -0.347981 1.617731
-0.977753 -0.445674 1.606961
-0.340305 -0.194383 1.004156
-0.383973 -0.159144 0.980082
-0.292767 -0.265820 0.919854
-0.733867 -0.385866 1.372426
-0.469880 -0.398507 1.283989
-0.219493 -0.174437 0.804156
-0.223438 -0.133274 0.814550
-0.217792 -0.199056 0.802747
-0.275320 -0.299136 0.981444
-0.440481 -0.176222 1.057617
-0.740711 -0.514885 1.627754
-0.446882 -0.386095 1.242445
-0.677060 -0.425085 1.460980
-0.624154 -0.393829 1.354153
-0.427045 -0.369349 1.190377
-0.698884 -0.437061 1.440732
-0.727775 -0.430061 1.442078
-0.444396 -0.362813 1.186994
-0.523554 -0.310875 1.385598
-0.482214 -0.286988 1.276925
-1.020469 -0.409449 1.578362
-0.559353 -0.180987 1.104149
-0.270000 -0.279529 0.944019
-0.220807 -0.179966 0.812958
-0.999664 -0.416280 1.619117
-0.328278 -0.279031 0.998898
-0.707318 -0.272639 1.444556
-0.772576 -0.285369 1.453586
-0.921953 -0.309626 1.576432
-0.781283 -0.422666 1.459326
-0.993715 -0.418168 1.554879
-0.282224 -0.278808 0.952592
-0.925946 -0.391386 1.513925
-0.921455 -0.327253 1.582553
-0.499099 -0.268862 1.238178
-0.185784 -0.167796 0.793170
-0.292106 -0.273415 0.940383
-0.879928 -0.311758 1.515456
-0.599159 -0.311026 1.478543
-0.693113 -0.430284 1.482960
-0.994603 -0.445155 1.607774
-1.017718 -0.414726 1.622643
-1.326881 -0.463486 1.616627
-0.354718 -0.130573 0.898333
-0.385505 -0.116621 0.877577
-0.210940 -0.176070 0.785390
-0.202327 -0.185406 0.742978
-0.197827 -0.110473 0.838486
-0.334267 -0.116402 0.856423
-0.174763 -0.190931 0.725947
-0.219307 -0.229559 0.819734
-0.452671 -0.264082 1.184882
-0.311567 -0.163186 0.968675
-0.830567 -0.448512 1.491855
-1.279369 -0.328157 1.647975
-0.941003 -0.446936 1.616283
-0.948748 -0.361800 1.615101
-0.793669 -0.468231 1.507667
-0.978875 -0.417682 1.613374
-0.530783 -0.379075 1.266920
-0.670048 -0.360710 1.371458
-0.484427 -0.343871 1.199462
-0.698036 -0.424386 1.459474
-0.451121 -0.358223 1.184437
-0.383689 -0.253480 1.010510
-0.404544 -0.213811 1.071591
-0.321813 -0.273280 0.978174
-0.849027 -0.401566 1.522945
-0.944740 -0.320612 1.617594
-1.126258 -0.290616 1.585995
-0.972069 -0.461513 1.598249
-0.883811 -0.439719 1.559260
-0.972215 -0.308297 1.605165
-0.919824 -0.290852 1.542599
-0.963895 -0.320272 1.614176
-1.365881 -0.309384 1.625175
-0.885270 -0.385090 1.555871
-1.317559 -0.456327 1.630057
-0.451013 -0.351987 1.172278
-1.047633 -0.393249 1.614088
-0.189290 -0.142126 0.756115
-0.206663 -0.113517 0.817968
-0.230011 -0.144772 0.834883
-0.298462 -0.138597 0.906558
-0.219504 -0.201574 0.813843
-0.582296 -0.152176 1.032014
-0.231837 -0.123278 0.836012
-0.730016 -0.492987 1.578345
-0.631597 -0.156167 1.098122
-0.405355 -0.166801 1.000887
-0.382906 -0.157809 0.986639
-0.933981 -0.349709 1.588356
-0.645777 -0.376569 1.428721
-0.230371 -0.172187 1.059456
-0.232324 -0.147531 0.843803
-0.459192 -0.154161 0.993877
-0.215547 -0.279876 0.955445
-0.286341 -0.149400 0.940587
-0.272860 -0.151123 0.924145
-0.411951 -0.111348 0.854737
-1.080075 -0.445958 1.661670
-1.247098 -0.433126 1.632733
-0.964827 -0.407982 1.605503
-1.276315 -0.447622 1.622272
-1.064649 -0.471187 1.637326
-1.061825 -0.333673 1.656032
-1.091067 -0.449253 1.648954
-0.966779 -0.405993 1.609864
-1.266604 -0.463368 1.612439
-1.224989 -0.461156 1.635963
-1.218208 -0.440028 1.667022
-1.071666 -0.460385 1.632260
-1.002624 -0.373500 1.545966
-0.999726 -0.419421 1.550398
-0.661093 -0.449818 1.442713
-0.274901 -0.274836 0.929026
-0.814455 -0.481104 1.542183
-1.280718 -0.441189 1.598997
-1.297698 -0.386384 1.644307
-0.222130 -0.155810 0.814553
-0.654298 -0.172630 1.114702
-0.200388 -0.203685 0.728145
-0.696364 -0.412071 1.404974
-0.788282 -0.426269 1.471714
-1.232524 -0.442200 1.631761
-1.134878 -0.254949 1.555002
-0.958674 -0.261828 1.484853
-1.265083 -0.468928 1.736238
-0.332065 -0.177714 1.001687
-0.416000 -0.197003 1.100338
-0.878982 -0.202182 1.298027
-0.699519 -0.296515 1.400437
-0.795998 -0.442034 1.494031
-0.768651 -0.397229 1.417830
-0.780065 -0.397648 1.426813
-0.688487 -0.405051 1.399465
-0.609744 -0.392702 1.353309
-0.561741 -0.148907 1.038677
-0.216095 -0.249616 0.839426
-0.697732 -0.419442 1.447742
-0.216283 -0.222445 0.795089
-0.305033 -0.179812 0.946594
-0.415147 -0.141325 0.939894
-0.449992 -0.265250 1.183411
-0.365487 -0.210725 1.089304
-0.271835 -0.150710 0.918368
-1.103649 -0.406894 1.684771
-0.484065 -0.313929 1.196845
-0.446730 -0.240130 1.158108
-0.442224 -0.226210 1.156926
-0.494227 -0.353984 1.227431
-0.483828 -0.327672 1.195046
-0.643966 -0.198240 1.220613
-0.405247 -0.317606 1.095106
-0.442224 -0.329372 1.148632
-0.980357 -0.411918 1.607206
-0.620656 -0.304356 1.491044
-0.394806 -0.278862 1.043946
-0.467503 -0.355592 1.199092
-0.790256 -0.477732 1.500446
-0.905852 -0.200312 1.323300
-0.750334 -0.350770 1.425846
-0.819648 -0.438598 1.483878
-0.736947 -0.300875 1.417184
-1.321462 -0.464694 1.702504
-1.286873 -0.457933 1.674144
-1.330696 -0.516173 1.685466
-0.625927 -0.298005 1.368439
-0.859190 -0.254237 1.433430
-0.678780 -0.283001 1.446306
-0.915662 -0.430958 1.574265
-1.176418 -0.291532 1.584668
-0.952107 -0.322307 1.658012
-0.925928 -0.375816 1.602767
-0.946577 -0.395224 1.632124
-1.305625 -0.297512 1.646904
-1.091954 -0.403734 1.668676
-1.177796 -0.442347 1.657049
-0.990904 -0.463548 1.600309
-1.071690 -0.453181 1.615523
-0.606611 -0.388693 1.349415
-0.650060 -0.416072 1.420771
-0.626540 -0.395229 1.358155
-0.635364 -0.402818 1.362181
-0.575348 -0.380777 1.318501
-0.620015 -0.239749 1.291528
-0.531921 -0.381714 1.272184
-1.072968 -0.225599 1.501963
-0.513619 -0.217284 1.195346
-0.677123 -0.387494 1.378712
-0.586558 -0.283054 1.375915
-0.617756 -0.294537 1.348524
-0.454725 -0.302217 1.162613
-0.390631 -0.293795 1.048210
-0.402404 -0.302833 1.079525
-0.642284 -0.354067 1.356001
-0.422957 -0.328016 1.125986
-0.267763 -0.171920 0.923841
-0.530722 -0.366786 1.271021
-0.425467 -0.341244 1.160212
-0.430351 -0.342751 1.179232
-1.054508 -0.396597 1.624077
-0.550732 -0.386163 1.287413
-0.261444 -0.266917 0.905442
-0.302754 -0.269114 0.958197
-0.264960 -0.252831 0.876734
-1.069569 -0.360078 1.705166
-0.975947 -0.463538 1.606116
-0.986627 -0.472076 1.595250
-0.454443 -0.141375 0.956436
-0.219810 -0.175735 0.803907
-0.428901 -0.172436 1.043757
-0.615027 -0.443052 1.432429
-0.371323 -0.166965 0.991329
-0.399791 -0.136748 0.913348
-0.228741 -0.158740 0.829035
-0.231731 -0.231178 0.810961
-0.465759 -0.125592 0.929247
-0.228488 -0.145242 0.826801
-0.433166 -0.235273 1.126839
-0.437642 -0.177826 1.038883
-0.606418 -0.196932 1.176208
-0.390443 -0.259710 1.030101
-0.447769 -0.257410 1.154984
-0.493228 -0.372183 1.238891
-0.663899 -0.208318 1.253648
-0.454929 -0.306957 1.156711
-0.449410 -0.281357 1.158619
-0.443126 -0.290616 1.137354
-0.533068 -0.215794 1.201624
-0.492291 -0.353065 1.223927
-0.612387 -0.417092 1.395896
-0.396684 -0.317552 1.079652
-0.824071 -0.441885 1.489060
-0.447829 -0.345495 1.164760
-0.471872 -0.362073 1.201908
-0.406090 -0.331071 1.136363
-0.539283 -0.168464 1.102580
-0.793039 -0.198083 1.392021
-0.486627 -0.248525 1.211924
-0.452960 -0.286635 1.169520
-0.454643 -0.179049 1.075184
-0.436422 -0.276998 1.125253
-0.453809 -0.301653 1.160646
-0.436713 -0.306169 1.145468
-0.976469 -0.427855 1.616209
-1.129035 -0.330256 1.673364
-1.062340 -0.385426 1.689764
-0.984695 -0.342768 1.646177
-0.920460 -0.375158 1.589237
-0.641436 -0.391519 1.344894
-0.568191 -0.389597 1.333226
-0.731847 -0.238839 1.331799
-0.748694 -0.423770 1.435723
-0.885116 -0.270613 1.510193
-0.930611 -0.465311 1.535047
-0.774130 -0.429150 1.471259
-0.896221 -0.420818 1.546653
-0.974939 -0.443974 1.602643
-1.371108 -0.330780 1.680260
-1.243949 -0.468599 1.654515
-1.370610 -0.495176 1.618622
-0.775555 -0.443968 1.498618
-0.780810 -0.402471 1.422653
-0.851449 -0.236724 1.378392
-0.987407 -0.329276 1.652235
-1.086952 -0.334331 1.675838
-1.083675 -0.333683 1.669511
-1.072998 -0.315098 1.637939
-0.837417 -0.466265 1.540819
-0.915798 -0.373055 1.583470
-0.830373 -0.470823 1.545185
-0.938220 -0.335378 1.636343
-0.867839 -0.272552 1.481212
-0.906512 -0.445238 1.577319
-0.583459 -0.290816 1.372083
-0.627615 -0.201188 1.212120
-1.059472 -0.450441 1.621150
-1.201067 -0.318209 1.637523
-1.253956 -0.478413 1.626772
-1.220755 -0.437807 1.647355
-0.933747 -0.456324 1.604456
-1.080905 -0.452434 1.616682
-1.097674 -0.442308 1.630075
-0.618601 -0.392127 1.351191
-0.617621 -0.294310 1.347014
-0.558964 -0.386119 1.302879
-0.638621 -0.404821 1.368272
-0.359194 -0.152468 0.944901
-0.520400 -0.377591 1.257337
-0.425328 -0.349649 1.160291
-0.259834 -0.275231 0.909423
-0.259964 -0.275547 0.910454
-0.340621 -0.145174 0.934916
-0.327838 -0.277746 0.996179
-0.524947 -0.337245 1.290802
-0.336321 -0.156965 0.963278
-0.664695 -0.405542 1.387679
-0.966755 -0.414555 1.540799
-0.392491 -0.319688 1.098103
-0.958327 -0.337979 1.635915
-0.558908 -0.433116 1.408166
-0.470149 -0.358525 1.196519
-0.477388 -0.214178 1.197498
-0.485914 -0.314076 1.199738
-0.482310 -0.235946 1.213427
-0.899762 -0.443466 1.569601
-0.935177 -0.400405 1.593462
-0.923391 -0.217652 1.418323
-0.730430 -0.267473 1.409277
-0.773923 -0.362555 1.427422
-0.867387 -0.385039 1.526169
-0.547702 -0.276283 1.312465
-0.471506 -0.347520 1.199735
-0.528966 -0.377192 1.263682
-0.448362 -0.300610 1.157304
-0.592097 -0.414715 1.327340
-0.630732 -0.198061 1.221969
-0.343772 -0.173721 1.003255
-0.426966 -0.351083 1.165928
-0.431996 -0.262055 1.134835
-0.441860 -0.343019 1.177416
-0.270601 -0.271744 0.902858
-0.335896 -0.170415 1.010325
-0.356033 -0.151942 0.936591
-0.351941 -0.170123 0.994755
-0.345249 -0.147859 0.927370
-0.380754 -0.158854 0.972077
-0.266499 -0.255806 0.886078
-0.440764 -0.356149 1.206449
-0.550347 -0.394063 1.311999
-0.380740 -0.303425 1.045109
-0.695729 -0.468572 1.493573
-0.286680 -0.265874 0.919514
-0.465022 -0.229498 1.181803
-0.757997 -0.325622 1.419091
-0.461440 -0.232623 1.222589
-0.219521 -0.204073 0.808918
-1.066134 -0.509101 1.658146
-1.054273 -0.430458 1.660982
-0.923220 -0.235074 1.435863
-0.417340 -0.171335 1.012488
-0.669491 -0.312178 1.458287
-0.892893 -0.471588 1.584158
-0.933103 -0.360077 1.589109
-0.942062 -0.368856 1.608510
-0.921753 -0.458583 1.597525
-0.332468 -0.142394 0.925013
-0.707073 -0.414984 1.435473
-0.681195 -0.428446 1.410794
-0.894889 -0.211642 1.335916
-0.701628 -0.436188 1.432179
-1.245935 -0.411438 1.632611
-1.377494 -0.414123 1.625989
-1.274488 -0.331127 1.643801
-1.071643 -0.448440 1.643974
-1.084988 -0.413634 1.693662
-1.067275 -0.457836 1.625355
-0.936824 -0.399376 1.587566
-1.187882 -0.465323 1.680679
-1.174491 -0.457656 1.661739
-1.277532 -0.419268 1.628836
-1.064602 -0.354259 1.703911
-0.970802 -0.257917 1.469675
-0.793079 -0.447884 1.504001
-1.227678 -0.263863 1.550293
-0.838008 -0.445401 1.534949
-0.940674 -0.350140 1.597055
-0.952351 -0.343873 1.629375
-1.331803 -0.287403 1.603706
-0.831696 -0.411904 1.500301
-0.942967 -0.369432 1.610108
-0.986108 -0.460923 1.596533
-0.987084 -0.443996 1.599759
-0.920459 -0.331490 1.630605
-1.319081 -0.326848 1.670871
-1.413914 -0.324465 1.667982
-1.203592 -0.310134 1.651872
-1.152760 -0.287479 1.587867
-1.362408 -0.281308 1.631311
-1.477519 -0.518159 1.658023
-0.802081 -0.451427 1.493685
-0.754976 -0.300595 1.445709
-0.755279 -0.435460 1.488165
-1.082950 -0.412304 1.691130
-0.997915 -0.419375 1.618956
-1.208884 -0.415035 1.641109
-1.278580 -0.403673 1.614496
-1.270163 -0.436286 1.620820
-1.224450 -0.429898 1.628934
-0.840339 -0.360256 1.332463
-0.688383 -0.278542 1.391729
-0.748650 -0.439315 1.411075
-1.275319 -0.438821 1.637963
-0.788509 -0.436742 1.479825
-1.346377 -0.280979 1.618891
-0.807991 -0.399356 1.458616
-1.170327 -0.239139 1.467389
-0.771248 -0.332348 1.435987
-0.762046 -0.263268 1.413532
-0.804017 -0.433179 1.494424
-0.775231 -0.362727 1.429807
-0.772732 -0.332415 1.438612
-0.758578 -0.299360 1.450691
-0.941002 -0.350801 1.599351
-1.056090 -0.345535 1.752774
-0.505374 -0.350905 1.245042
-1.195403 -0.483641 1.706769
-0.904202 -0.412643 1.581993
-0.964120 -0.422893 1.602340
-0.781467 -0.439463 1.481201
-0.610145 -0.415162 1.340519
-0.503123 -0.329827 1.202257
-1.560705 -0.402888 2.232216
-0.505786 -0.355494 1.230422
-0.579670 -0.220810 1.225435
-0.551375 -0.220200 1.231038
-0.540085 -0.217895 1.209204
-0.452790 -0.208852 1.139212
-0.472467 -0.348945 1.204591
-0.512972 -0.230378 1.200819
-0.749216 -0.233536 1.361893
-0.732290 -0.239970 1.334339
-0.926481 -0.236437 1.442332
-0.964400 -0.405250 1.605898
-0.983585 -0.425739 1.601335
-1.211769 -0.415504 1.643424
-1.077216 -0.430337 1.646009
-0.435111 -0.359360 1.164371
-1.074799 -0.329864 1.681553
-1.096996 -0.353879 1.710221
-1.040949 -0.480856 1.632009
-1.203184 -0.486517 1.814931
-0.510315 -0.216458 1.186141
-0.433314 -0.265218 1.138302
-0.432775 -0.202595 1.117223
-0.521674 -0.377995 1.259064
-0.439323 -0.205702 1.110453
-1.011584 -0.449924 1.631143
-0.737364 -0.371864 1.421308
-0.454875 -0.355190 1.182006
-0.422594 -0.171777 1.022804
-0.706642 -0.353289 1.403444
-0.403440 -0.320763 1.104946
-1.167004 -0.362131 1.801062
-0.286753 -0.257088 0.894004
-0.523299 -0.170742 1.086908
-0.655239 -0.463326 1.482722
-0.583210 -0.367010 1.367046
-0.309865 -0.271392 0.939078
-0.527129 -0.203398 1.158080
-0.966256 -0.401231 1.603772
-0.416306 -0.169299 1.017775
-0.392308 -0.295061 1.054952
-0.805724 -0.428910 1.460020
-0.449536 -0.245548 1.191778
-1.064862 -0.356920 1.744226
-0.429848 -0.362601 1.174966
-0.368087 -0.167224 0.979329
-0.366314 -0.166208 0.975967
-1.084029 -0.446663 1.658353
-0.891409 -0.316632 1.583853
-0.682992 -0.363582 1.396737
-0.932668 -0.423058 1.580856
-1.007664 -0.348588 1.702544
-0.496923 -0.368838 1.235608
-0.440079 -0.241313 1.152735
-0.452407 -0.285900 1.166578
-0.469279 -0.246455 1.166385
-0.429168 -0.199220 1.126753
-0.481592 -0.251334 1.194665
-1.235359 -0.489830 1.774349
-0.602327 -0.413938 1.336045
-0.719222 -0.408682 1.424928
-0.980507 -0.474981 1.609452
-1.176366 -0.310738 1.660045
-0.411159 -0.315956 1.087834
-0.666691 -0.417531 1.389368
-0.351404 -0.172590 1.000766
-0.418568 -0.199521 1.111515
-0.310044 -0.312280 1.017125
-1.159318 -0.342337 1.784896
-0.533399 -0.216387 1.205399
-0.327443 -0.168373 0.987106
-0.415313 -0.318665 1.102002
-0.903596 -0.327923 1.595693
-0.394042 -0.185038 1.046694
-0.598681 -0.184148 1.163935
-0.461485 -0.182643 1.077408
-0.888160 -0.445771 1.551313
-0.998776 -0.286788 1.573001
-0.406245 -0.324876 1.106996
-0.566462 -0.263017 1.361499
-0.814307 -0.437311 1.489742
-0.750965 -0.351383 1.428433
-1.048197 -0.425915 1.648017
-0.444552 -0.342857 1.156148
-0.436444 -0.341130 1.164158
-0.934118 -0.467396 1.539320
-0.710314 -0.283350 1.435495
-1.355552 -0.431025 1.643829
-1.335178 -0.494720 1.617032
-1.300508 -0.408900 1.629311
-1.380410 -0.330188 1.734408
-1.005247 -0.475495 1.605183
-1.326144 -0.290038 1.599707
-1.185974 -0.294622 1.600967
-0.946525 -0.357845 1.603179
-0.940580 -0.362117 1.600794
-1.310484 -0.355340 1.873065
-1.148407 -0.306140 1.694192
-0.643570 -0.238688 1.305656
-0.555853 -0.382820 1.292899
-0.659053 -0.402106 1.377596
-0.583021 -0.221370 1.231966
-0.623947 -0.420315 1.345525
-0.599234 -0.370570 1.318485
-0.500545 -0.359793 1.245550
-0.510660 -0.357797 1.240673
-0.620353 -0.418259 1.348820
-0.493726 -0.351728 1.224337
-1.363092 -0.494218 1.804516
-1.274181 -0.494530 1.767366
-1.294083 -0.487614 1.838279
-0.965245 -0.405381 1.607559
-0.982554 -0.445001 1.610478
-0.878578 -0.306606 1.577980
-1.339799 -0.332639 1.567463
-0.981663 -0.342113 1.638334
-1.036683 -0.292910 1.570562
-0.971257 -0.401197 1.609442
-0.972625 -0.470992 1.594638
-0.768782 -0.372029 1.426573
-1.335645 -0.344167 1.577000
-1.249615 -0.493359 1.747092
-1.227561 -0.486534 1.725107
-1.245610 -0.470672 1.727659
-1.186440 -0.439283 1.670206
-0.636358 -0.350750 1.342692
-0.481825 -0.219290 1.168214
-1.178974 -0.507747 1.727542
-0.464301 -0.352474 1.190360
-0.603522 -0.390740 1.339876
-0.614303 -0.302740 1.490607
-0.621746 -0.306336 1.508666
-0.472248 -0.352957 1.194410
-0.567300 -0.377091 1.305539
-0.470667 -0.352272 1.191894
-0.676314 -0.280219 1.438544
-0.782585 -0.182936 1.299989
-0.523415 -0.370473 1.246849
-0.480651 -0.261992 1.193205
-0.673773 -0.210298 1.262750
-0.431784 -0.303063 1.133243
-0.457221 -0.357400 1.197727
-0.629400 -0.425359 1.352571
-0.595218 -0.185288 1.174485
-0.517952 -0.360197 1.253633
-0.465544 -0.212057 1.165738
-0.435872 -0.267598 1.147358
-0.430482 -0.253251 1.138873
-0.450141 -0.238120 1.169636
-0.592087 -0.185005 1.169476
-0.457710 -0.240591 1.166688
-1.213638 -0.460438 1.696548
-1.046162 -0.465899 1.644868
-0.999982 -0.449554 1.619279
-1.283700 -0.408288 1.637956
-1.042096 -0.459894 1.630181
-0.954039 -0.349680 1.614591
-1.203079 -0.309522 1.649777
-1.273483 -0.425573 1.625433
-1.076367 -0.461942 1.637321
-1.227080 -0.456552 1.690092
-1.251645 -0.440836 1.647155
-1.110498 -0.309650 1.628868
-1.028019 -0.475155 1.617661
-1.031290 -0.451814 1.611823
-1.260974 -0.290119 1.603785
-0.480981 -0.311740 1.188475
-0.465416 -0.210784 1.177266
-0.478445 -0.260801 1.188687
-0.592967 -0.206392 1.217579
-0.737635 -0.189861 1.277312
-0.501570 -0.351184 1.219617
-0.511044 -0.360193 1.252280
-0.553511 -0.388254 1.294926
-0.508004 -0.357882 1.245202
-0.539697 -0.364092 1.270197
-0.545161 -0.367548 1.282100
-0.507027 -0.321921 1.219847
-0.469006 -0.358296 1.193703
-0.515619 -0.387245 1.255810
-1.360560 -0.428343 1.628128
-1.407880 -0.478925 1.599868
-1.098211 -0.271647 1.529894
-1.231121 -0.441607 1.630608
-1.317591 -0.490191 1.739551
-1.012575 -0.457635 1.594181
-1.244540 -0.415295 1.657245
-1.112049 -0.473691 1.625414
-0.963957 -0.408497 1.603102
-1.400714 -0.333217 1.704625
-1.392897 -0.495763 1.828506
-1.242189 -0.473725 1.631145
-0.534758 -0.216942 1.209151
-0.910595 -0.321232 1.612640
-0.492601 -0.221919 1.195074
-0.542051 -0.366608 1.276267
-0.520542 -0.369853 1.242226
-1.015865 -0.322216 1.693941
-0.484030 -0.332071 1.186364
-0.721716 -0.451603 1.477235
-0.928130 -0.470970 1.515212
-0.678097 -0.428179 1.479546
-0.658111 -0.415885 1.425292
-0.931515 -0.317166 1.594268
-0.611109 -0.211480 1.234861
-0.476634 -0.260292 1.184002
-0.506560 -0.355920 1.239960
-0.558771 -0.210817 1.200340
-0.541075 -0.374851 1.298284
-0.913480 -0.382069 1.419692
-1.217412 -0.480777 1.764186
-0.568469 -0.382835 1.304051
-1.302534 -0.354304 1.908883
-1.216429 -0.353690 1.855123
-0.575672 -0.196923 1.188196
-0.513593 -0.387815 1.255782
-0.479327 -0.367068 1.219480
-0.443604 -0.238988 1.148422
-0.460563 -0.361977 1.201142
-0.619570 -0.197010 1.207584
-0.620923 -0.187635 1.200421
-0.568114 -0.382832 1.304300
-0.538003 -0.341062 1.268458
-0.523440 -0.388026 1.262444
-0.453195 -0.301038 1.159569
-0.486506 -0.236580 1.223852
-0.532363 -0.216242 1.201425
-1.267205 -0.404126 1.635779
-0.980676 -0.462894 1.603276
-1.220303 -0.431120 1.598765
-0.955315 -0.346541 1.610179
-1.094092 -0.396277 1.667957
-1.159381 -0.312602 1.640892
-1.163108 -0.323208 1.650748
-0.489360 -0.353196 1.222882
-0.449707 -0.351954 1.180157
-0.442135 -0.226301 1.158050
-0.510075 -0.246323 1.231048
-0.522593 -0.378273 1.259940
-0.515728 -0.376574 1.253323
-0.465684 -0.229967 1.184582
-0.575492 -0.202898 1.195395
-0.560153 -0.201479 1.167925
-0.486498 -0.335459 1.196869
-0.563008 -0.245666 1.275096
-1.179383 -0.226674 1.579783
-0.596621 -0.350493 1.325002
-1.214622 -0.498931 1.723703
-1.200374 -0.539031 1.742380
-1.172886 -0.504760 1.719803
-0.610949 -0.299975 1.465027
-0.695548 -0.441159 1.468063
-1.000694 -0.475782 1.612456
-0.821445 -0.461302 1.500797
-1.161192 -0.535115 1.724926
-0.709662 -0.352712 1.408875
-1.085748 -0.502095 1.637484
-0.995234 -0.445091 1.609321
-0.986151 -0.439143 1.626284
-0.984257 -0.349526 1.646474
-1.025398 -0.348201 1.685184
-1.081923 -0.357783 1.715127
-1.186181 -0.438216 1.670234
-1.201417 -0.448310 1.680220
-1.079869 -0.457885 1.628982
-0.990752 -0.463133 1.599455
-0.451930 -0.286157 1.167224
-0.454702 -0.179238 1.075894
-0.444416 -0.308575 1.162793
-0.560372 -0.175119 1.119932
-1.164329 -0.473626 1.767200
-0.448256 -0.277504 1.154722
-1.065342 -0.507208 1.658299
-0.467760 -0.344901 1.191376
-0.459065 -0.349757 1.180572
-0.889920 -0.381254 1.560014
-0.874569 -0.378455 1.537985
-0.461997 -0.288548 1.215441
-0.606820 -0.195216 1.189966
-0.621219 -0.207240 1.231347
-0.458765 -0.306960 1.183642
-0.483960 -0.174391 1.074350
-0.485883 -0.349204 1.209401
-0.451641 -0.353015 1.184290
-0.423285 -0.336479 1.142331
-0.441439 -0.226276 1.156396
-0.693282 -0.368729 1.388266
-1.203994 -0.373059 1.842535
-1.119949 -0.477299 1.635406
-0.823792 -0.462848 1.504924
-0.966046 -0.467520 1.585262
-0.652847 -0.394648 1.376041
-0.884631 -0.234286 1.393190
-1.086362 -0.378220 1.675150
-1.273746 -0.407001 1.632037
-1.278871 -0.388770 1.637876
-1.010051 -0.478045 1.612316
-1.048877 -0.422480 1.651146
-1.307151 -0.430175 1.621759
-1.293234 -0.421356 1.616586
-0.972465 -0.401442 1.611296
-1.303764 -0.328824 1.539791
-0.819339 -0.257060 1.426430
-0.988953 -0.483410 1.558762
-1.252221 -0.474084 1.760349
-1.124620 -0.485613 1.664163
-1.097287 -0.473497 1.622542
-1.262744 -0.434316 1.615501
-0.968447 -0.444244 1.608679
-1.224922 -0.467810 1.616588
-1.230740 -0.418442 1.596180
-0.992462 -0.463481 1.602026
-1.002908 -0.463882 1.604308
-1.264150 -0.312891 1.629146
-0.987150 -0.445103 1.603798
-1.313380 -0.331630 1.651437
-0.718558 -0.424153 1.426625
-1.047596 -0.225794 1.413458
-0.741382 -0.346905 1.410076
-1.282826 -0.456684 1.629295
-0.840937 -0.295792 1.523342
-1.315870 -0.474173 1.665849
-0.949307 -0.260564 1.471360
-0.655950 -0.400104 1.370813
-0.730645 -0.367976 1.408114
-0.711167 -0.433467 1.442906
-1.206162 -0.266054 1.488741
-0.801138 -0.434166 1.494687
-0.919643 -0.239996 1.404991
-1.332839 -0.496089 1.757910
-1.230746 -0.491092 1.762704
-1.080929 -0.319237 1.664993
-1.102814 -0.312880 1.647601
-1.015727 -0.421941 1.623092
-1.189611 -0.287005 1.580332
-1.047094 -0.423486 1.653748
-1.336265 -0.430174 1.613225
-1.147833 -0.307021 1.633209
-0.390981 -0.233841 1.033032
-1.002652 -0.245049 1.443891
-0.765451 -0.366002 1.422030
-1.185827 -0.237564 1.480478
-0.730925 -0.416737 1.448153
-0.826614 -0.435347 1.491326
-0.878958 -0.475052 1.508672
-0.721885 -0.408662 1.420123
-0.815368 -0.367422 1.801118
-0.898422 -0.342084 1.536025
-0.705849 -0.417020 1.434044
-0.844897 -0.447082 1.508066
-0.390036 -0.205709 1.034644
-0.951063 -0.318449 1.615597
-1.026372 -0.316733 1.637755
-0.934123 -0.456764 1.606992
-0.939407 -0.411217 1.593968
-1.382105 -0.396753 1.684077
-0.977770 -0.311027 1.610550
-1.056063 -0.428124 1.658247
-1.082291 -0.430697 1.661976
-1.093011 -0.359626 1.702995
-0.971191 -0.470261 1.597305
-1.215695 -0.404087 1.600012
-0.978418 -0.417629 1.613601
-0.951303 -0.410236 1.619131
-1.238358 -0.376117 1.616823
-1.014672 -0.398504 1.660613
-0.944012 -0.404556 1.610707
-0.973109 -0.406226 1.611180
-1.069319 -0.329333 1.676736
-0.991222 -0.474145 1.600739
-1.274015 -0.482077 1.713412
-1.347535 -0.391489 1.661599
-0.905486 -0.445829 1.574596
-0.884409 -0.363141 1.575315
-0.936798 -0.318489 1.601903
-1.030981 -0.301706 1.563284
-1.035613 -0.301554 1.592515
-0.989158 -0.445450 1.602958
-0.992066 -0.427341 1.620166
-0.956356 -0.346422 1.611839
-0.921465 -0.374772 1.594927
-1.108823 -0.298602 1.599437
-1.099144 -0.355172 1.712464
-1.324213 -0.451024 1.618165
-1.013837 -0.422162 1.621320
-1.086804 -0.479006 1.629133
-0.942773 -0.350489 1.604765
-1.073628 -0.414034 1.692094
-1.088632 -0.378633 1.678167
-1.054697 -0.445721 1.657701
-1.031317 -0.335103 1.686918
-0.924517 -0.457496 1.602365
-1.275462 -0.312059 1.645143
-0.926780 -0.450833 1.606537
-1.017846 -0.415158 1.622832
-0.989019 -0.434170 1.604115
-1.401625 -0.392065 1.660654
-1.201712 -0.409127 1.615279
-1.005345 -0.422358 1.623576
-1.100525 -0.344286 1.733106
-1.089246 -0.409347 1.661317
-1.003155 -0.413691 1.617917
-0.975872 -0.407205 1.617050
-1.190895 -0.411329 1.629035
-0.943708 -0.428774 1.594721
-1.078755 -0.456521 1.625031
-1.085067 -0.432829 1.655748
-1.093078 -0.440984 1.625463
-1.173623 -0.443535 1.668723
-1.094812 -0.446887 1.630523
-1.071551 -0.411865 1.688006
-0.942076 -0.426333 1.594404
-1.277959 -0.306247 1.633598
-1.291551 -0.405478 1.628734
-1.065709 -0.429544 1.660723
-0.978972 -0.435080 1.610749
-1.095554 -0.410434 1.669421
-1.225426 -0.432135 1.602639
-1.224799 -0.419080 1.630797
-1.210220 -0.434810 1.624099
-0.988977 -0.391017 1.632465
-0.855230 -0.460899 1.539179
-0.976342 -0.434653 1.601701
-1.271369 -0.436723 1.635070
-1.318057 -0.486566 1.624163
-1.304249 -0.464347 1.616378
-0.756653 -0.288928 1.455410
-0.933867 -0.420810 1.543940
-1.254652 -0.273939 1.581960
-1.280713 -0.427871 1.707572
-1.277922 -0.381487 1.648593
-0.764953 -0.274896 1.462828
-1.036427 -0.395441 1.671078
-0.960635 -0.465587 1.578466
-1.036366 -0.467008 1.623948
-1.273521 -0.412132 1.610337
-1.325528 -0.340551 1.666475
-0.975342 -0.462024 1.595065
-1.135703 -0.313516 1.685836
-1.359642 -0.419402 1.649502
-1.081745 -0.350268 1.676369
-0.928124 -0.464104 1.600896
-1.290220 -0.479195 1.626331
-1.241645 -0.433954 1.625156
-1.297435 -0.413684 1.616710
-1.199153 -0.309316 1.644513
-1.159218 -0.308655 1.632957
-1.252884 -0.347300 1.633534
-1.095456 -0.391205 1.702214
-0.989019 -0.473840 1.599148
-1.345870 -0.468395 1.604467
-0.945580 -0.468819 1.584673
-1.083028 -0.446467 1.638853
-1.177622 -0.289870 1.614708
-0.911990 -0.429089 1.567770
-0.937160 -0.425134 1.590517
-0.971074 -0.405647 1.608105
-0.919141 -0.449082 1.581734
-1.306215 -0.506324 1.786311
-0.899530 -0.416614 1.570618
-0.879680 -0.436833 1.552625
-1.061971 -0.472142 1.639038
-1.401356 -0.478896 1.624497
-1.224046 -0.414699 1.638725
-0.899021 -0.441104 1.561288
-1.177085 -0.446545 1.674419
-0.916775 -0.453607 1.596321
-0.918588 -0.392310 1.613125
-0.916705 -0.453497 1.596342
-1.232588 -0.307863 1.674341
-1.240625 -0.276060 1.572847
-1.373288 -0.464614 1.621222
-0.987673 -0.413462 1.619213
-1.420380 -0.320221 1.673604
-1.031817 -0.226503 1.399873
-0.823125 -0.257186 1.430811
-0.778160 -0.396134 1.423710
-1.408366 -0.448824 1.607718
-1.408763 -0.396350 1.617803
-0.981195 -0.249807 1.449202
-0.922542 -0.238429 1.397118
-1.380404 -0.406756 1.636131
-1.286489 -0.408660 1.642773
-1.315296 -0.405422 1.628499
-1.399687 -0.473469 1.616742
-1.199783 -0.320803 1.658539
-1.129154 -0.320818 1.674825
-1.285931 -0.407273 1.650918
-1.285905 -0.351072 1.661287
-1.239400 -0.456081 1.610900
-1.242143 -0.490055 1.626883
-1.330040 -0.430071 1.635102
-0.809654 -0.436618 1.477394
-1.242267 -0.465116 1.611391
-1.121425 -0.266031 1.546798
-1.242343 -0.461508 1.634791
-1.264029 -0.452330 1.654431
-1.107112 -0.454099 1.608770
-1.384441 -0.484163 1.623121
-1.283249 -0.326042 1.650484
-0.838836 -0.252052 1.418166
-1.356498 -0.287885 1.620489
-0.761726 -0.436501 1.483906
-0.739849 -0.424335 1.457295
-0.744260 -0.216905 1.296551
-0.850388 -0.235889 1.376348
-0.668875 -0.235397 1.312721
-1.301089 -0.298360 1.643769
-0.925292 -0.340941 1.637468
-1.007266 -0.466317 1.610683
-0.988378 -0.461994 1.599635
-1.039937 -0.450820 1.629694
-0.962259 -0.319553 1.612524
-0.747760 -0.268204 1.445520
-0.889510 -0.198583 1.305721
-0.610329 -0.357602 1.347934
-0.669551 -0.300112 1.403847
-0.900806 -0.413713 1.574867
-1.161803 -0.325361 1.663563
-1.108667 -0.289363 1.566598
-1.123946 -0.285194 1.561011
-1.343729 -0.485051 1.624774
-0.694538 -0.283656 1.425003
-0.804952 -0.261267 1.432046
-1.006535 -0.215845 1.407669
-1.364022 -0.354072 1.607234
-0.728098 -0.342152 1.387901
-1.007485 -0.456908 1.605753
-1.331064 -0.474156 1.760764
-0.975318 -0.432725 1.604959
-0.697570 -0.295727 1.395525
-0.683136 -0.280964 1.387744
-1.236900 -0.460271 1.630167
-0.746655 -0.421569 1.431330
-0.729317 -0.230472 1.327901
-0.764062 -0.238816 1.376009
-1.288083 -0.256390 1.592437
-0.804713 -0.214182 1.324437
-0.680177 -0.420508 1.389861
-0.641090 -0.398149 1.358863
-0.681369 -0.266507 1.386202
-0.581145 -0.290321 1.376023
-0.537496 -0.340141 1.266198
-1.090072 -0.408548 1.665777
-0.694049 -0.391840 1.394528
-1.114891 -0.365640 1.731769
-0.645688 -0.402126 1.368585
-0.730583 -0.267326 1.411247
-1.304284 -0.341181 1.554200
-1.356607 -0.453117 1.618869
-0.682060 -0.362600 1.392832
-1.115781 -0.262657 1.539534
-1.380146 -0.405425 1.646562
-1.389348 -0.475472 1.617108
-1.163432 -0.286840 1.599572
-1.414740 -0.403693 1.644481
-1.299990 -0.457069 1.619110
-1.319385 -0.434694 1.642903
-0.661863 -0.348595 1.375709
-0.954178 -0.481937 1.546335
-0.951721 -0.484791 1.557472
-1.230847 -0.466113 1.713135
-1.223876 -0.413635 1.634238
-1.270131 -0.501979 1.807685
-1.106834 -0.456090 1.668454
-0.763997 -0.441610 1.470573
-0.644853 -0.273271 1.381122
-0.546913 -0.223057 1.226858
-0.751512 -0.421967 1.442088
-0.644324 -0.273092 1.380085
-0.698589 -0.349753 1.389203
-0.937471 -0.397316 1.597870
-0.931599 -0.311697 1.595341
-0.996912 -0.413270 1.614864
-0.854808 -0.272578 1.462402
-0.544724 -0.277332 1.313252
-0.666617 -0.417524 1.389539
-0.673339 -0.358212 1.376377
-0.614682 -0.337182 1.336317
-1.220512 -0.415541 1.653356
-1.371924 -0.512566 1.798496
-0.645755 -0.416802 1.371557
-0.605856 -0.392958 1.356436
-0.656869 -0.399731 1.386279
-0.653885 -0.276630 1.387893
-0.559332 -0.244620 1.268685
-1.022645 -0.218643 1.420719
-1.048293 -0.423955 1.655684
-0.764111 -0.372719 1.420288
-0.954514 -0.435246 1.614658
-0.963279 -0.351734 1.681425
-0.952997 -0.399429 1.582588
-0.699248 -0.437012 1.433069
-1.023955 -0.422669 1.591940
-0.916111 -0.401284 1.557721
-1.095605 -0.312285 1.639915
-1.177512 -0.529275 1.715901
-0.704014 -0.297753 1.407513
-1.215613 -0.482564 1.713274
-0.601108 -0.380511 1.328450
-0.787190 -0.453471 1.470104
-0.641732 -0.397726 1.325058
-1.245707 -0.448110 1.674255
-1.103670 -0.405300 1.682540
-0.723541 -0.198075 1.266050
-0.818246 -0.442112 1.492113
-0.993778 -0.444450 1.607322
-0.939948 -0.425543 1.596274
-0.943325 -0.361111 1.609910
-1.079549 -0.487276 1.653811
-0.974418 -0.414350 1.610270
-1.100449 -0.474986 1.635411
-1.411189 -0.304407 1.679722
-0.831597 -0.259696 1.441601
-0.768447 -0.426248 1.460862
-0.704519 -0.416861 1.420523
-0.827592 -0.216667 1.352072
-0.670887 -0.360497 1.369822
-0.683751 -0.421921 1.407074
-1.044412 -0.226312 1.410668
-0.705599 -0.282712 1.422704
-0.891913 -0.279725 1.511212
-0.810225 -0.440492 1.513114
-1.378789 -0.469585 1.611251
-1.120642 -0.463371 1.623274
-1.345186 -0.352536 1.594720
-1.070834 -0.329223 1.677934
-1.349260 -0.353065 1.597663
-1.366813 -0.432263 1.652689
-1.376163 -0.497310 1.623923
-1.361389 -0.427128 1.632766
-1.398094 -0.405801 1.648102
-1.391162 -0.483588 1.618388
-1.385831 -0.434139 1.629989
-1.090238 -0.215002 1.392027
-0.801251 -0.460220 1.514986
-1.296179 -0.500039 1.629846
-1.397422 -0.457787 1.632735
-1.275911 -0.461399 1.633027
-1.272014 -0.499185 1.653605
-0.975640 -0.239753 1.430674
-0.757942 -0.425209 1.454215
-1.364875 -0.483963 1.621488
-1.103751 -0.471169 1.618522
-4.856945 -1.056102 4.411417
-0.946299 -0.241506 1.424514
-0.753168 -0.298834 1.439236
-0.655269 -0.260094 1.352438
-0.651388 -0.409101 1.376296
-0.765640 -0.271447 1.434500
-1.132418 -0.518413 1.663658
-1.183420 -0.530878 1.723845
-1.298394 -0.306207 1.672512
-1.273931 -0.304823 1.650854
-1.282745 -0.425650 1.611796
-1.277678 -0.506240 1.636435
-1.283196 -0.449946 1.627135
-0.695770 -0.422784 1.413632
-1.498285 -0.343543 1.829293
-0.736325 -0.242862 1.332300
-0.912692 -0.254934 1.474276
-0.982990 -0.349163 1.641668
-0.983569 -0.474357 1.607498
-1.057297 -0.450322 1.622948
-1.287772 -0.431078 1.610273
-1.082838 -0.431221 1.664271
-1.219381 -0.437331 1.644848
-1.080227 -0.343253 1.704734
-1.015148 -0.450174 1.619883
-0.993076 -0.473675 1.602061
-1.010171 -0.436415 1.612932
-1.015697 -0.431138 1.619153
-1.065782 -0.412409 1.681108
-0.942515 -0.396678 1.629699
-0.938550 -0.428984 1.593670
-0.937806 -0.431426 1.618643
-0.932198 -0.409514 1.620754
-0.920596 -0.461555 1.594175
-1.043216 -0.351345 1.688662
-1.094795 -0.403174 1.671306
-1.254409 -0.287522 1.595697
-1.322526 -0.302479 1.649643
-0.937767 -0.426279 1.583565
-0.923974 -0.335558 1.639630
-0.940449 -0.350453 1.600089
-0.861864 -0.298402 1.561561
-0.914200 -0.330870 1.618152
-0.841972 -0.400209 1.512072
-0.930787 -0.311479 1.594731
-0.936809 -0.288605 1.541060
-0.831263 -0.445642 1.502939
-0.776337 -0.396001 1.421625
-1.329896 -0.465682 1.623124
-1.386971 -0.485003 1.625241
-1.205289 -0.320981 1.664155
-1.355051 -0.419811 1.693054
-1.236099 -0.414687 1.639252
-0.751304 -0.268298 1.453003
-0.835345 -0.414090 1.507819
-0.824772 -0.392561 1.483133
-1.303748 -0.475906 1.729290
-1.098670 -0.362780 1.681904
-1.078398 -0.461393 1.628982
-1.226728 -0.423405 1.605527
-1.003690 -0.421196 1.619481
-1.305377 -0.485019 1.736363
-1.405110 -0.486489 1.593225
-0.833687 -0.454242 1.505771
-0.957010 -0.464731 1.573425
-1.086323 -0.449584 1.670444
-0.698817 -0.372196 1.399570
-1.325243 -0.408171 1.635499
-1.285502 -0.333489 1.650983
-1.329812 -0.501822 1.638324
-1.182454 -0.290503 1.620272
-0.910673 -0.449538 1.577157
-0.922069 -0.448201 1.597343
-0.895542 -0.449112 1.562054
-0.979142 -0.249920 1.446000
-0.774438 -0.389705 1.438937
-0.781277 -0.365301 1.441418
-0.940008 -0.403282 1.597692
-1.368488 -0.394038 1.674615
-0.980279 -0.341982 1.633822
-1.266943 -0.290265 1.608716
-0.945481 -0.289382 1.552631
-0.950819 -0.337755 1.627497
-0.912290 -0.318359 1.620564
-1.072067 -0.261750 1.499163
-1.411351 -0.403927 1.642341
-1.161651 -0.325576 1.663163
-1.370258 -0.430279 1.635579
-0.941333 -0.255788 1.459896
-1.094749 -0.358903 1.721074
-0.990103 -0.426941 1.617238
-1.076399 -0.333145 1.678026
-0.986941 -0.479919 1.622480
-0.977723 -0.473229 1.605026
-1.290350 -0.452898 1.612948
-1.219883 -0.315577 1.638074
-1.247719 -0.319724 1.633260
-1.097253 -0.458773 1.635814
-1.283831 -0.467676 1.761752
-0.770296 -0.328471 1.434723
-0.816253 -0.458305 1.492385
-1.280627 -0.407861 1.637144
-1.249867 -0.487288 1.613533
-1.320004 -0.498808 1.630402
-0.948358 -0.310587 1.598641
-1.307415 -0.453661 1.621626
-0.895408 -0.265075 1.464936
-0.754639 -0.430593 1.458983
-1.376296 -0.348157 1.618082
-1.255597 -0.272460 1.581400
-0.942048 -0.259406 1.460696
-0.823521 -0.258367 1.429185
-0.764357 -0.395390 1.416267
-1.237456 -0.268167 1.513884
-1.309423 -0.329811 1.544371
-0.724168 -0.427976 1.437342
-1.381303 -0.281483 1.643976
-1.385790 -0.281919 1.648083
-1.362052 -0.429508 1.628466
-0.929287 -0.311522 1.590984
-1.417257 -0.319414 1.664057
-0.939468 -0.241178 1.414932
-1.317068 -0.456001 1.629997
-1.282243 -0.406986 1.635352
-0.709982 -0.263713 1.382580
-1.331727 -0.430587 1.635944
-1.308377 -0.466179 1.619717
-1.202635 -0.267204 1.487124
-0.910485 -0.427965 1.564187
-1.037069 -0.355485 1.684461
-0.981982 -0.436641 1.618625
-1.366875 -0.439391 1.650356
-1.370573 -0.445098 1.651934
-0.776572 -0.401586 1.431198
-0.726166 -0.413778 1.419306
-1.178390 -0.272612 1.605127
-1.060869 -0.477848 1.633865
-1.381809 -0.454995 1.620613
-1.056652 -0.479298 1.631024
-1.087877 -0.449794 1.649769
-1.301507 -0.479724 1.725833
-1.367623 -0.309394 1.625704
-1.311570 -0.327100 1.666178
-1.209139 -0.430252 1.633901
-1.071280 -0.428722 1.637883
-1.225896 -0.404537 1.608718
-1.278182 -0.466975 1.621136
-1.257654 -0.456097 1.621451
-1.125361 -0.329807 1.668622
-1.092528 -0.405211 1.675627
-1.085400 -0.447405 1.660623
-0.958879 -0.478048 1.589572
-1.026735 -0.308189 1.615569
-1.415794 -0.422461 1.633014
-1.256091 -0.304591 1.634434
-1.052521 -0.337340 1.700542
-1.093979 -0.434390 1.676525
-0.756327 -0.352844 1.437865
-0.765228 -0.274949 1.463560
-0.772946 -0.368818 1.435308
-1.347551 -0.468648 1.635056
-1.311689 -0.403899 1.626314
-1.315149 -0.414013 1.667654
-1.376005 -0.434662 1.647801
-1.343561 -0.431445 1.636442
-0.773126 -0.245037 1.391604
-1.361620 -0.472329 1.614697
-0.851779 -0.276046 1.455045
-0.702737 -0.285095 1.424156
-0.855067 -0.377182 1.509252
-1.338337 -0.486291 1.621792
-1.408670 -0.395654 1.617681
-1.341609 -0.424358 1.618933
-0.701031 -0.284522 1.433142
-1.049529 -0.226596 1.414952
-0.691876 -0.283300 1.418514
-0.985895 -0.469271 1.592325
-1.097215 -0.435063 1.680175
-0.810657 -0.421572 1.495465
-0.880277 -0.463662 1.561051
-0.678861 -0.361215 1.361496
-0.953806 -0.358802 1.614065
-0.990160 -0.414224 1.623581
-0.941473 -0.426138 1.599600
-0.978409 -0.445942 1.613809
-1.001546 -0.437007 1.610806
-0.987369 -0.424773 1.607549
-1.095011 -0.343779 1.710846
-1.099685 -0.341260 1.717689
-0.992044 -0.462902 1.601074
-0.982016 -0.424015 1.604116
-0.973874 -0.406663 1.613188
-0.996881 -0.417579 1.613647
-0.977087 -0.444841 1.606088
-0.972022 -0.399426 1.610315
-1.005240 -0.455535 1.607213
-0.984149 -0.451715 1.599157
-1.008157 -0.418865 1.611467
-0.985416 -0.444482 1.600785
-1.009541 -0.448030 1.613595
-1.069563 -0.386511 1.700660
-1.259754 -0.333121 1.631333
-1.326318 -0.389321 1.651404
-1.221965 -0.416935 1.657398
-1.049250 -0.435895 1.639642
-0.985783 -0.455972 1.608955
-1.226963 -0.419570 1.632488
-1.225035 -0.460990 1.603283
-1.034564 -0.466111 1.621283
-0.993830 -0.438419 1.607994
-1.245882 -0.314060 1.635635
-1.264219 -0.431462 1.607618
-1.009141 -0.456451 1.609924
-1.182077 -0.320175 1.640067
-1.082015 -0.339846 1.730260
-1.237893 -0.320234 1.625273
-0.947010 -0.429834 1.611927
-0.951592 -0.351015 1.574154
-0.998720 -0.443879 1.603445
-1.216679 -0.432566 1.639597
-1.323586 -0.479906 1.751886
-1.009429 -0.428649 1.611227
-1.238631 -0.313851 1.630870
-1.084239 -0.403912 1.665507
-1.214890 -0.448654 1.615715
-1.244123 -0.450975 1.673202
-1.027881 -0.348658 1.681603
-1.227328 -0.416987 1.617940
-1.060059 -0.426623 1.654294
-1.191698 -0.441355 1.664287
-1.039605 -0.357967 1.673731
-0.996156 -0.394157 1.654909
-0.961297 -0.418737 1.589793
-0.989442 -0.414582 1.622134
-1.208990 -0.451337 1.675709
-1.073437 -0.477032 1.626434
-1.262601 -0.426246 1.626794
-1.233861 -0.458106 1.699956
-1.042307 -0.451589 1.632885
-1.085647 -0.448861 1.645706
-1.337605 -0.481440 1.783445
-1.238777 -0.420474 1.668182
-0.981600 -0.342756 1.642215
-0.965882 -0.399493 1.605982
-1.023651 -0.346481 1.687167
-0.943647 -0.413081 1.626012
-1.026570 -0.346533 1.692587
-0.950726 -0.350551 1.616813
-1.043565 -0.351254 1.686188
-1.267257 -0.424458 1.620810
-1.325244 -0.427864 1.623640
-1.286786 -0.405152 1.619587
-0.980069 -0.349446 1.636345
-1.253596 -0.396041 1.638349
-1.070540 -0.410391 1.692868
-1.251397 -0.430373 1.622534
-1.029430 -0.464150 1.615153
-1.090973 -0.433380 1.672665
-1.305468 -0.471908 1.610566
-1.208705 -0.285065 1.556597
-1.029226 -0.335496 1.683685
-1.013685 -0.321917 1.659086
-1.026210 -0.322551 1.676363
-1.242424 -0.433649 1.626134
-0.970284 -0.424576 1.605442
-0.963363 -0.465522 1.599936
-0.983319 -0.447079 1.614990
-1.077577 -0.365538 1.671221
-1.254495 -0.415853 1.624241
-0.985949 -0.414421 1.603236
-1.062955 -0.471763 1.640031
-1.226519 -0.435329 1.627020
-0.987009 -0.433172 1.601119
-1.064961 -0.407583 1.690130
-1.242120 -0.477723 1.652250
-1.279085 -0.457164 1.629370
-1.011903 -0.396463 1.660416
-1.263393 -0.454890 1.689252
-1.238756 -0.445568 1.666778
-1.082598 -0.432075 1.652647
-1.267947 -0.404175 1.636644
-0.979855 -0.349333 1.639021
-1.151135 -0.325280 1.652204
-0.972360 -0.401418 1.610694
-0.956300 -0.362998 1.608744
-0.938658 -0.421420 1.593248
-1.010724 -0.348297 1.679862
-1.091278 -0.358520 1.716017
-1.089255 -0.335522 1.676114
-1.046520 -0.425570 1.645931
-1.326571 -0.451445 1.619934
-1.087572 -0.413740 1.697206
-1.225592 -0.315800 1.645337
-1.148041 -0.312250 1.634948
-1.007946 -0.396742 1.660990
-1.035991 -0.347673 1.693846
-1.298764 -0.443868 1.614830
-1.249118 -0.457227 1.626833
-0.987893 -0.426264 1.614191
-0.948257 -0.358001 1.603396
-1.244766 -0.383722 1.610519
-1.032490 -0.481236 1.631351
-1.246566 -0.447476 1.673869
-1.233453 -0.420202 1.666509
-1.043975 -0.442508 1.625694
-0.967744 -0.424382 1.600831
-0.941718 -0.400896 1.598109
-1.052769 -0.337352 1.701125
-1.027706 -0.280905 1.539144
-1.040188 -0.451154 1.630114
-1.038215 -0.467793 1.631374
-1.213279 -0.467954 1.700582
-1.218388 -0.483961 1.717438
-1.076307 -0.333518 1.677333
-0.905218 -0.334016 1.601030
-1.095625 -0.267743 1.524054
-0.984508 -0.427030 1.610887
-1.371260 -0.430996 1.619809
-0.976833 -0.461502 1.597541
-1.046412 -0.441775 1.638415
-1.287679 -0.459278 1.636158
-1.301856 -0.471456 1.620249
-1.062324 -0.287716 1.563323
-1.331843 -0.481944 1.615687
-1.354789 -0.330286 1.670682
-0.982478 -0.435814 1.609821
-0.937928 -0.424472 1.586257
-0.833262 -0.450362 1.524301
-0.859133 -0.304201 1.544943
-1.332516 -0.281203 1.596344
-1.270574 -0.286520 1.607474
-0.988678 -0.416255 1.608086
-1.264838 -0.413987 1.620329
-1.244766 -0.345816 1.626658
-1.329672 -0.281514 1.595063
-0.917943 -0.341466 1.619988
-0.839216 -0.398554 1.506554
-0.929940 -0.291302 1.554687
-0.851455 -0.402593 1.527799
-0.859523 -0.456008 1.549597
-0.909159 -0.292316 1.554603
-0.854349 -0.461060 1.544992
-0.998378 -0.472237 1.595503
-1.270060 -0.424996 1.622936
-1.308415 -0.486949 1.622762
-1.250498 -0.440266 1.644917
-1.348266 -0.342235 1.684031
-1.347070 -0.432771 1.638010
-0.991358 -0.275785 1.519422
-1.386098 -0.482116 1.614717
-1.165349 -0.269274 1.456180
-1.298390 -0.477218 1.723655
-0.882790 -0.269309 1.476398
-0.986174 -0.413355 1.615909
-0.980853 -0.469804 1.587564
-1.353287 -0.429607 1.642487
-0.986369 -0.461536 1.593458
-1.238321 -0.434780 1.613416
-1.336781 -0.406363 1.640185
-1.308946 -0.408829 1.643023
-1.268657 -0.377264 1.640992
-1.296294 -0.490568 1.631596
-1.442267 -0.461953 1.642192
-1.071702 -0.298675 1.605586
-0.806756 -0.464498 1.526326
-0.881615 -0.436265 1.548981
-0.777767 -0.403209 1.441741
-1.400922 -0.415360 1.609169
-1.025249 -0.279616 1.556912
-1.379847 -0.355132 1.618274
-1.356049 -0.468514 1.616859
-1.269389 -0.304406 1.645764
-0.985101 -0.461441 1.592155
-1.423155 -0.490537 1.609340
-0.832083 -0.455664 1.524042
-0.838474 -0.457352 1.513396
-1.185885 -0.267673 1.471861
-0.878660 -0.306887 1.577318
-0.923832 -0.232046 1.385089
-0.842892 -0.244452 1.400526
-0.984514 -0.282105 1.535268
-1.379279 -0.407262 1.634992
-1.177140 -0.285447 1.605808
-0.882729 -0.464939 1.565087
-0.901643 -0.253778 1.443896
-1.368491 -0.309862 1.626223
-1.428741 -0.452970 1.628632
-1.383419 -0.444495 1.621436
-1.370597 -0.422438 1.620914
-1.359015 -0.404209 1.637159
-1.338959 -0.281039 1.600568
-1.396472 -0.394778 1.608804
-1.382521 -0.318520 1.636856
-1.405051 -0.447635 1.605688
-1.278001 -0.497651 1.637737
-1.349979 -0.392832 1.668984
-1.201168 -0.304337 1.642738
-1.376517 -0.432463 1.623632
-0.936382 -0.401716 1.588979
-0.772621 -0.328327 1.440928
-1.342573 -0.335298 1.704524
-0.899597 -0.413472 1.573211
-1.068273 -0.442303 1.654781
-0.820895 -0.405930 1.480272
-0.784021 -0.272733 1.468190
-0.952237 -0.337902 1.629724
-0.774262 -0.401290 1.434818
-0.774255 -0.334781 1.442137
-1.138947 -0.274866 1.568090
-0.957154 -0.448196 1.589841
-0.941428 -0.398141 1.606599
-1.232567 -0.274289 1.564496
-1.048362 -0.437417 1.636418
-1.025975 -0.279019 1.535179
